<svg width="0" height="0" class="hidden">
  <symbol fill="none" xmlns="http://www.w3.org/2000/svg" viewBox="0 0 11 17" id="Facebook">
    <path d="M6.59747 9.84995V16.9099H3.3544V9.84995H0.660156V6.98732H3.3544V5.94579C3.3544 2.07905 4.9697 0.0458984 8.38739 0.0458984C9.43516 0.0458984 9.6971 0.214289 10.2709 0.351495V3.18295C9.62849 3.07069 9.44763 3.00832 8.7803 3.00832C7.98825 3.00832 7.56415 3.23284 7.17748 3.67564C6.79081 4.11845 6.59747 4.88556 6.59747 5.98321V6.99355H10.2709L9.28548 9.85619H6.59747V9.84995Z" fill="white"></path>
  </symbol>
  <symbol fill="none" xmlns="http://www.w3.org/2000/svg" viewBox="0 0 15 15" id="Instagram">
    <path d="M12.2458 14.7051H2.6231C1.29337 14.7051 0.207031 13.6187 0.207031 12.289V2.66631C0.207031 1.33658 1.29337 0.250244 2.6231 0.250244H12.2458C13.5755 0.250244 14.6619 1.33658 14.6619 2.66631V12.289C14.6619 13.6247 13.5815 14.7051 12.2458 14.7051Z" fill="white"></path>
    <path d="M7.43673 11.1909C6.44538 11.1909 5.51338 10.805 4.8129 10.1045C4.11242 9.40403 3.72656 8.47204 3.72656 7.48068C3.72656 6.48932 4.11242 5.55733 4.8129 4.85685C5.51338 4.15637 6.44538 3.77051 7.43673 3.77051C8.42809 3.77051 9.36009 4.15637 10.0606 4.85685C10.761 5.55733 11.1469 6.48932 11.1469 7.48068C11.1469 8.47204 10.761 9.40403 10.0606 10.1045C9.35415 10.805 8.42809 11.1909 7.43673 11.1909ZM7.43673 4.56003C5.828 4.56003 4.51609 5.86601 4.51609 7.48068C4.51609 9.08941 5.82207 10.4013 7.43673 10.4013C9.04546 10.4013 10.3574 9.09535 10.3574 7.48068C10.3514 5.87195 9.04546 4.56003 7.43673 4.56003Z" fill="#20222E"></path>
    <path d="M11.8725 3.64862C12.266 3.64862 12.5849 3.32968 12.5849 2.93625C12.5849 2.54282 12.266 2.22388 11.8725 2.22388C11.4791 2.22388 11.1602 2.54282 11.1602 2.93625C11.1602 3.32968 11.4791 3.64862 11.8725 3.64862Z" fill="#20222E"></path>
  </symbol>
  <symbol fill="none" xmlns="http://www.w3.org/2000/svg" viewBox="0 0 18 18" id="LinkedIn">
    <path d="M4.72304 6.35059H1.19922V17.5878H4.72304V6.35059Z" fill="white"></path>
    <path d="M14.2525 6.10681C14.1226 6.09057 13.9846 6.08245 13.8466 6.07433C11.8736 5.99314 10.7612 7.16233 10.3715 7.66574C10.2659 7.80377 10.2172 7.88496 10.2172 7.88496V6.38287H6.84766V17.6201H10.2172H10.3715C10.3715 16.4753 10.3715 15.3386 10.3715 14.1937C10.3715 13.5767 10.3715 12.9596 10.3715 12.3425C10.3715 11.5793 10.3146 10.7673 10.6963 10.0691C11.021 9.48448 11.6056 9.19218 12.2633 9.19218C14.2119 9.19218 14.2525 10.9541 14.2525 11.1165C14.2525 11.1246 14.2525 11.1327 14.2525 11.1327V17.6688H17.7764V10.337C17.7764 7.82812 16.5016 6.35039 14.2525 6.10681Z" fill="white"></path>
    <path d="M2.96015 4.89686C4.09017 4.89686 5.00624 3.9808 5.00624 2.85077C5.00624 1.72075 4.09017 0.804688 2.96015 0.804688C1.83012 0.804688 0.914062 1.72075 0.914062 2.85077C0.914062 3.9808 1.83012 4.89686 2.96015 4.89686Z" fill="white"></path>
  </symbol>
  <symbol fill="none" xmlns="http://www.w3.org/2000/svg" viewBox="0 0 19 16" id="X-logo">
    <path fill-rule="evenodd" clip-rule="evenodd" d="M6.18096 0.286133H0.714844L7.19576 8.80188L1.12943 15.9455H3.93225L8.52043 10.5426L12.5945 15.8959H18.0606L11.3914 7.13268L11.4032 7.14779L17.1455 0.385613H14.3427L10.0784 5.4073L6.18096 0.286133ZM3.73204 1.77751H5.43372L15.0434 14.4044H13.3418L3.73204 1.77751Z" fill="white"></path>
  </symbol>
</svg>