<svg width="106" height="143" viewBox="0 0 106 143" fill="none" xmlns="http://www.w3.org/2000/svg">
<path d="M81.5913 37.8682C81.8935 37.7872 82.0728 37.4765 81.9919 37.1743L79.0445 26.1747C78.9635 25.8725 78.6529 25.6931 78.3507 25.7741C78.0485 25.8551 77.7378 25.6758 77.6568 25.3735L73.6553 10.4395C72.2429 5.16831 66.8239 2.03968 61.5562 3.45118L10.295 17.1866C5.02378 18.599 1.89516 24.0179 3.30758 29.2892L31.2164 133.446C32.6288 138.717 38.0477 141.846 43.319 140.434L94.5801 126.698C99.8513 125.286 102.977 119.868 101.564 114.597L83.9524 48.869C83.8714 48.5667 84.0508 48.2561 84.353 48.1751C84.6552 48.0941 84.8346 47.7835 84.7536 47.4813L83.1324 41.4308C83.0514 41.1286 82.7408 40.9492 82.4385 41.0302C82.1363 41.1112 81.8257 40.9318 81.7447 40.6296L81.1907 38.562C81.1097 38.2598 81.2891 37.9491 81.5913 37.8682Z" fill="#387AF6" stroke="#263238" stroke-width="0.358553" stroke-linejoin="round"/>
<path d="M59.7789 5.33644L12.7811 17.9295C6.94336 19.4937 3.47899 25.4941 5.04321 31.3319L31.6973 130.806C33.2616 136.644 39.262 140.109 45.0998 138.544L92.0975 125.951C97.9353 124.387 101.4 118.387 99.8354 112.549L73.1813 13.0743C71.6171 7.2366 65.6166 3.77222 59.7789 5.33644Z" fill="#387AF6" stroke="#263238" stroke-width="0.358553" stroke-linejoin="round"/>
<path d="M59.1376 6.43685L40.2138 11.5075L40.215 11.5814C40.1941 13.7474 39.2565 15.4017 37.8296 15.7841L37.0088 16.004C35.5819 16.3864 33.9392 15.4234 32.8415 13.5571L32.8057 13.4925L13.8819 18.5631C8.61065 19.9755 5.48202 25.3944 6.89444 30.6657L32.3923 125.825C33.8047 131.096 39.2227 134.221 44.4939 132.809L89.7566 120.681C95.0278 119.268 98.153 113.85 96.7415 108.583L71.2427 13.4199C69.8303 8.14866 64.4113 5.02003 59.1436 6.43153L59.1376 6.43685Z" fill="white" stroke="#263238" stroke-width="0.358553" stroke-linejoin="round"/>
<path d="M59.1366 6.43924L40.2129 11.5099L40.2141 11.5838C40.1931 13.7498 39.2556 15.4041 37.8286 15.7865L37.0078 16.0064C35.5809 16.3888 33.9383 15.4257 32.8406 13.5595L32.8047 13.4949L13.881 18.5655C8.60972 19.9779 5.48109 25.3968 6.89352 30.6681L7.17934 31.7348L71.5285 14.4925L71.2427 13.4257C69.8303 8.15452 64.4113 5.02589 59.1436 6.43739L59.1366 6.43924Z" fill="#387AF6"/>
<path d="M73.0916 63.5637C72.532 61.4753 74.7161 58.2806 73.6841 56.4932C72.6171 54.6447 68.7474 54.9429 67.2684 53.4683C65.769 51.9732 66.0589 48.1093 64.2399 47.0562C62.4175 46.004 59.2162 48.187 57.1727 47.6395C55.1571 47.0994 53.483 43.5947 51.3452 43.5959C49.2813 43.5958 47.6066 47.0847 45.5182 47.6442C43.4298 48.2038 40.235 46.0197 38.4477 47.0517C36.5991 48.1187 36.8973 51.9884 35.4228 53.4674C33.9277 54.9668 30.0638 54.6769 29.0107 56.4959C27.9585 58.3183 30.1415 61.5196 29.594 63.5631C29.0539 65.5787 25.5491 67.2528 25.5503 69.3906C25.5502 71.4545 29.0391 73.1292 29.5987 75.2176C30.1583 77.306 27.9742 80.5008 29.0062 82.2881C30.0732 84.1367 33.9428 83.8385 35.4219 85.313C36.9212 86.8081 36.6314 90.672 38.4503 91.7251C40.2727 92.7773 43.4741 90.5943 45.5176 91.1418C47.5332 91.6819 49.2073 95.1867 51.3451 95.1855C53.409 95.1856 55.0837 91.6967 57.1721 91.1371C59.2605 90.5775 62.4552 92.7616 64.2426 91.7296C66.0911 90.6626 65.7929 86.793 67.2675 85.3139C68.7626 83.8146 72.6274 84.1079 73.6796 82.2855C74.7318 80.4631 72.5488 77.2617 73.0963 75.2182C73.6364 73.2026 77.1411 71.5286 77.14 69.3907C77.14 67.3268 73.6511 65.6521 73.0916 63.5637Z" fill="#F2B87D"/>
<path d="M53.3742 78.1864L41.3258 70.7502C40.7475 70.3929 40.5713 69.6383 40.9251 69.0609C41.2824 68.4826 42.037 68.3064 42.6144 68.6603L52.0745 74.4997L57.7708 58.4928C57.9966 57.8533 58.7016 57.5196 59.3377 57.7463C59.9773 57.9721 60.3109 58.6771 60.0842 59.3132L53.3698 78.1839L53.3742 78.1864Z" fill="#2C2828"/>
<path d="M32.5898 115.32L52.376 110.019" stroke="#263238" stroke-width="0.358553" stroke-linejoin="round"/>
<path d="M68.9414 108.363L75.6361 106.569" stroke="#263238" stroke-width="0.358553" stroke-linejoin="round"/>
<path d="M63.3984 109.85L67.5545 108.736" stroke="#263238" stroke-width="0.358553" stroke-linejoin="round"/>
<path d="M46.7773 114.301L61.7841 110.28" stroke="#263238" stroke-width="0.358553" stroke-linejoin="round"/>
<path d="M33.2852 117.92L44.9324 114.799" stroke="#263238" stroke-width="0.358553" stroke-linejoin="round"/>
<path d="M59.2969 113.919L72.3433 110.424" stroke="#263238" stroke-width="0.358553" stroke-linejoin="round"/>
<path d="M47.7539 117.01L57.6799 114.35" stroke="#263238" stroke-width="0.358553" stroke-linejoin="round"/>
<path d="M34.0273 120.688L46.1352 117.443" stroke="#263238" stroke-width="0.358553" stroke-linejoin="round"/>
<path d="M90.2852 108.584L91.9025 108.151" stroke="#263238" stroke-width="0.358553" stroke-linejoin="round"/>
<path d="M78.2773 111.801L89.128 108.893" stroke="#263238" stroke-width="0.358553" stroke-linejoin="round"/>
<path d="M57.0352 117.496L75.5087 112.546" stroke="#263238" stroke-width="0.358553" stroke-linejoin="round"/>
<path d="M39.4922 122.195L55.1916 117.989" stroke="#263238" stroke-width="0.358553" stroke-linejoin="round"/>
<path d="M34.7734 123.459L37.6446 122.69" stroke="#263238" stroke-width="0.358553" stroke-linejoin="round"/>
<path d="M17.373 42.6078C19.4694 42.0461 20.7135 39.8912 20.1517 37.7949C19.59 35.6985 17.4352 34.4544 15.3388 35.0161C13.2424 35.5778 11.9983 37.7327 12.5601 39.829C13.1218 41.9254 15.2766 43.1695 17.373 42.6078Z" fill="#595959"/>
<path d="M22.0938 37.457L35.2095 33.9427" stroke="#263238" stroke-width="0.358553" stroke-linejoin="round"/>
<path d="M36.6785 13.9091C37.1739 13.7764 37.4679 13.2672 37.3352 12.7718C37.2024 12.2764 36.6932 11.9824 36.1978 12.1151C35.7024 12.2479 35.4084 12.7571 35.5411 13.2525C35.6739 13.7479 36.1831 14.0419 36.6785 13.9091Z" fill="#707070"/>
<path d="M11.0912 23.485C11.3343 24.3924 10.4033 24.9908 10.5855 25.6844L10.5985 25.7329L11.5855 25.4684L11.6672 25.7732L10.3476 26.1267L10.279 25.8704C10.0191 24.9007 10.9863 24.4374 10.7599 23.5923C10.6773 23.2841 10.5298 23.1491 10.2804 23.216C10.0311 23.2828 9.97448 23.4872 10.0459 23.7539L10.1174 24.0206L9.80223 24.1051L9.73634 23.8592C9.61291 23.3985 9.74252 23.0371 10.2066 22.9128C10.6707 22.7884 10.9662 23.0322 11.0896 23.4928L11.0912 23.485Z" fill="white"/>
<path d="M12.7362 23.0406L12.7566 23.1168C12.8392 23.425 12.7739 23.6801 12.559 23.8342C12.8369 23.8599 13.009 24.0588 13.0897 24.3601L13.1519 24.5922C13.2753 25.0528 13.1413 25.4117 12.6773 25.536C12.2132 25.6604 11.9212 25.4157 11.7977 24.955L11.7421 24.7472L12.0572 24.6628L12.1185 24.8914C12.1909 25.1615 12.3453 25.2946 12.5877 25.2296C12.8302 25.1647 12.8983 24.9757 12.8166 24.6709L12.7545 24.4388C12.6747 24.141 12.5119 24.0324 12.2573 24.0932L12.0772 24.1415L11.9964 23.8402L12.1938 23.7873C12.4171 23.72 12.5141 23.5418 12.4436 23.2786L12.4065 23.1401C12.3239 22.8318 12.1738 22.7013 11.9279 22.7672C11.682 22.8331 11.6192 23.0281 11.6925 23.3017L11.7343 23.4575L11.4191 23.542L11.382 23.4034C11.2586 22.9428 11.3944 22.5909 11.855 22.4675C12.3157 22.3441 12.6137 22.5834 12.7362 23.0406Z" fill="white"/>
<path d="M13.4471 23.0934L13.5585 23.509L13.2364 23.5953L13.125 23.1797L13.4471 23.0934ZM13.8851 24.7281L13.9965 25.1437L13.6744 25.23L13.563 24.8144L13.8851 24.7281Z" fill="white"/>
<path d="M14.2047 23.1796C14.2546 22.9918 14.3838 22.8644 14.5847 22.8105C14.9726 22.7066 15.2184 22.9451 15.3335 23.3746L15.4912 23.9634C15.6146 24.424 15.4772 24.7838 15.0166 24.9072C14.5559 25.0306 14.2605 24.7868 14.137 24.3262L14.0832 24.1253L14.3949 24.0418L14.4543 24.2635C14.5267 24.5336 14.6811 24.6667 14.9236 24.6017C15.166 24.5368 15.2332 24.3443 15.1608 24.0742L15.004 23.4888C14.9316 23.2187 14.7772 23.0856 14.5347 23.1506C14.3512 23.1998 14.2543 23.3371 14.2816 23.5636L14.3002 23.6329L13.9885 23.7164L13.6243 22.0248L14.8088 21.7074L14.8895 22.0087L14.0029 22.2463L14.2022 23.184L14.2047 23.1796Z" fill="white"/>
<path d="M16.7434 21.9617L16.7582 22.0171L16.4431 22.1016L16.4226 22.0254C16.3503 21.7552 16.1967 21.6256 15.9508 21.6915C15.7049 21.7574 15.6308 21.9517 15.7171 22.2738L15.8981 22.9492C15.9255 22.7191 16.0577 22.5612 16.2966 22.4971C16.6845 22.3932 16.9294 22.6283 17.0454 23.0612L17.1679 23.5184C17.2913 23.979 17.1435 24.3415 16.6829 24.465C16.2222 24.5884 15.9094 24.3493 15.786 23.8886L15.3749 22.3544C15.2468 21.8764 15.3827 21.5245 15.8606 21.3964C16.3386 21.2684 16.6174 21.5055 16.7408 21.9661L16.7434 21.9617ZM16.0094 23.3648L16.1301 23.815C16.2025 24.0851 16.3569 24.2182 16.6028 24.1523C16.8487 24.0864 16.9159 23.894 16.8435 23.6238L16.7229 23.1736C16.6505 22.9035 16.4926 22.7713 16.2502 22.8363C16.0077 22.9012 15.937 23.0946 16.0094 23.3648Z" fill="white"/>
<path d="M49.6102 13.3019L48.7617 13.5293L49.3306 15.6523L50.1791 15.425L49.6102 13.3019Z" fill="white"/>
<path d="M50.6298 12.5734L49.7812 12.8008L50.4643 15.3498L51.3128 15.1225L50.6298 12.5734Z" fill="white"/>
<path d="M51.6806 11.966L50.832 12.1934L51.5958 15.0437L52.4443 14.8163L51.6806 11.966Z" fill="white"/>
<path d="M52.6688 11.1398L51.8203 11.3672L52.7242 14.7405L53.5727 14.5131L52.6688 11.1398Z" fill="white"/>
<path d="M64.0617 11.641L58.9671 13.0061L58.1328 9.89258L63.2274 8.52748L64.0617 11.641ZM59.175 12.646L63.7016 11.4331L63.0195 8.88758L58.4929 10.1005L59.175 12.646Z" fill="white"/>
<path d="M61.6837 9.57479L58.9961 10.2949L59.5139 12.2275L62.2015 11.5073L61.6837 9.57479Z" fill="white"/>
<path d="M64.0118 9.5959L63.3711 9.76758L63.5678 10.5018L64.2086 10.3301L64.0118 9.5959Z" fill="white"/>
<path d="M56.9241 12.8275C56.8895 12.8368 56.8565 12.8382 56.8197 12.8258C55.619 12.4868 55.0864 13.242 55.0652 13.2736C55.0041 13.3643 54.8835 13.3854 54.7939 13.3278C54.7032 13.2667 54.6786 13.1471 54.7397 13.0565C54.7695 13.0151 55.4443 12.0288 56.9299 12.4473C57.0339 12.4752 57.0966 12.5846 57.0653 12.6895C57.0465 12.7576 56.9899 12.8099 56.9276 12.8266L56.9241 12.8275Z" fill="white"/>
<path d="M57.138 12.0866C57.1034 12.0958 57.0703 12.0973 57.0336 12.0848C55.2955 11.5966 54.5187 12.729 54.5102 12.7387C54.4491 12.8293 54.3295 12.854 54.2389 12.7929C54.1483 12.7318 54.1227 12.6087 54.1847 12.5215C54.1958 12.5074 55.1286 11.1402 57.1403 11.7073C57.2443 11.7351 57.307 11.8445 57.2757 11.9494C57.2569 12.0176 57.2003 12.0699 57.138 12.0866Z" fill="white"/>
<path d="M57.2851 11.2546C57.2505 11.2639 57.2174 11.2653 57.1807 11.2529C54.9802 10.6324 54.001 12.0344 53.9611 12.0933C53.9 12.1839 53.776 12.206 53.6898 12.1475C53.5992 12.0864 53.5746 11.9668 53.6357 11.8761C53.6458 11.8586 54.8021 10.1753 57.2874 10.8754C57.3914 10.9032 57.4541 11.0126 57.4228 11.1175C57.404 11.1857 57.3474 11.2379 57.2851 11.2546Z" fill="white"/>
<path d="M56.4394 13.2999C56.51 13.5632 56.3528 13.8354 56.0895 13.9059C55.8263 13.9765 55.5541 13.8193 55.4835 13.5561C55.413 13.2929 55.5702 13.0206 55.8334 12.9501C56.0966 12.8795 56.3689 13.0367 56.4394 13.2999Z" fill="white"/>
</svg>
