<svg width="627" height="627" viewBox="0 0 627 627" fill="none" xmlns="http://www.w3.org/2000/svg">
<mask id="path-1-inside-1_249_4429" fill="white">
<path d="M627 313.5C627 486.641 486.641 627 313.5 627C140.359 627 0 486.641 0 313.5C0 140.359 140.359 0 313.5 0C486.641 0 627 140.359 627 313.5ZM0.853119 313.5C0.853119 486.17 140.83 626.147 313.5 626.147C486.17 626.147 626.147 486.17 626.147 313.5C626.147 140.83 486.17 0.853119 313.5 0.853119C140.83 0.853119 0.853119 140.83 0.853119 313.5Z"/>
</mask>
<path d="M627 313.5C627 486.641 486.641 627 313.5 627C140.359 627 0 486.641 0 313.5C0 140.359 140.359 0 313.5 0C486.641 0 627 140.359 627 313.5ZM0.853119 313.5C0.853119 486.17 140.83 626.147 313.5 626.147C486.17 626.147 626.147 486.17 626.147 313.5C626.147 140.83 486.17 0.853119 313.5 0.853119C140.83 0.853119 0.853119 140.83 0.853119 313.5Z" stroke="#B5B5B5" stroke-width="2" mask="url(#path-1-inside-1_249_4429)"/>
<mask id="path-2-inside-2_249_4429" fill="white">
<path d="M313.5 0C254.01 -7.09414e-07 195.748 16.9267 145.518 48.8032C95.2891 80.6796 55.1664 126.19 29.8367 180.018L32.6734 181.353C57.7498 128.063 97.4712 83.0079 147.198 51.4502C196.925 19.8925 254.605 3.13501 313.5 3.13501V0Z"/>
</mask>
<path d="M313.5 0C254.01 -7.09414e-07 195.748 16.9267 145.518 48.8032C95.2891 80.6796 55.1664 126.19 29.8367 180.018L32.6734 181.353C57.7498 128.063 97.4712 83.0079 147.198 51.4502C196.925 19.8925 254.605 3.13501 313.5 3.13501V0Z" stroke="#096AFB" stroke-width="12" mask="url(#path-2-inside-2_249_4429)"/>
<circle cx="30" cy="182" r="8" fill="#096AFB"/>
</svg>
