<svg width="334" height="334" viewBox="0 0 334 334" fill="none" xmlns="http://www.w3.org/2000/svg">
<mask id="path-1-inside-1_288_4359" fill="white">
<path d="M334 167C334 259.232 259.232 334 167 334C74.7684 334 0 259.232 0 167C0 74.7684 74.7684 0 167 0C259.232 0 334 74.7684 334 167ZM0.454453 167C0.454453 258.981 75.0194 333.546 167 333.546C258.981 333.546 333.546 258.981 333.546 167C333.546 75.0194 258.981 0.454453 167 0.454453C75.0194 0.454453 0.454453 75.0194 0.454453 167Z"/>
</mask>
<path d="M334 167C334 259.232 259.232 334 167 334C74.7684 334 0 259.232 0 167C0 74.7684 74.7684 0 167 0C259.232 0 334 74.7684 334 167ZM0.454453 167C0.454453 258.981 75.0194 333.546 167 333.546C258.981 333.546 333.546 258.981 333.546 167C333.546 75.0194 258.981 0.454453 167 0.454453C75.0194 0.454453 0.454453 75.0194 0.454453 167Z" stroke="#B5B5B5" stroke-width="1.06539" mask="url(#path-1-inside-1_288_4359)"/>
<mask id="path-2-inside-2_288_4359" fill="white">
<path d="M167 0C130.57 -4.34428e-07 95.1384 11.9126 66.1079 33.9219C37.0774 55.9311 16.0402 86.8295 6.20325 121.907C-3.63368 156.984 -1.73066 194.316 11.6222 228.211C24.9751 262.106 49.0453 290.705 80.1634 309.648L81.0317 308.221C50.2248 289.468 26.3953 261.155 13.176 227.599C-0.0433506 194.042 -1.92735 157.084 7.81122 122.358C17.5498 87.6312 38.3767 57.0418 67.1169 35.2526C95.857 13.4635 130.934 1.67 167 1.67V0Z"/>
</mask>
<path d="M167 0C130.57 -4.34428e-07 95.1384 11.9126 66.1079 33.9219C37.0774 55.9311 16.0402 86.8295 6.20325 121.907C-3.63368 156.984 -1.73066 194.316 11.6222 228.211C24.9751 262.106 49.0453 290.705 80.1634 309.648L81.0317 308.221C50.2248 289.468 26.3953 261.155 13.176 227.599C-0.0433506 194.042 -1.92735 157.084 7.81122 122.358C17.5498 87.6312 38.3767 57.0418 67.1169 35.2526C95.857 13.4635 130.934 1.67 167 1.67V0Z" stroke="#096AFB" stroke-width="6.39234" mask="url(#path-2-inside-2_288_4359)"/>
<circle cx="80.2616" cy="309.262" r="4.26156" fill="#096AFB"/>
</svg>
