<svg width="398" height="187" viewBox="0 0 398 187" fill="none" xmlns="http://www.w3.org/2000/svg">
<path d="M36.3689 52.9364V109.771H49.2514C68.573 109.771 84.2362 94.1077 84.2362 74.7861V74.7861C84.2362 55.4645 68.5729 39.8013 49.2514 39.8013H20.3289V125.558H49.3145C77.3901 125.558 100.15 102.799 100.15 74.7229V74.7229C100.15 46.6474 77.3901 23.8876 49.3145 23.8876H4.41527V141.598H49.3146C86.2488 141.598 116.19 111.657 116.19 74.7229V74.7229C116.19 37.7888 86.2487 7.84766 49.3145 7.84766H0.5" stroke="#20222E" stroke-width="5.08103"/>
<rect x="162.122" y="28.173" width="93.2518" height="93.2518" rx="46.6259" stroke="#20222E" stroke-width="1.49442"/>
<mask id="mask0_246_3552" style="mask-type:alpha" maskUnits="userSpaceOnUse" x="161" y="28" width="95" height="94">
<rect x="185.36" y="51.4111" width="46.7753" height="46.7753" rx="23.3877" stroke="black" stroke-width="46.7753"/>
</mask>
<g mask="url(#mask0_246_3552)">
<path d="M164.585 52.4624L164.055 53.1254C164.129 52.9663 164.315 52.3483 164.32 52.1309H164.585C164.598 52.2688 164.567 52.4359 164.585 52.4624Z" fill="#20222E"/>
<path d="M210.759 39.2025C211.363 39.0115 212.01 39.7223 212.084 39.7329C212.346 39.77 214.922 38.5845 214.8 39.7992C214.681 40.998 209.623 40.8733 211.355 40.3296C209.588 40.3243 210.651 39.237 210.759 39.2025Z" fill="#20222E"/>
<path d="M227.581 28.9903C228.244 28.9823 228.678 28.9637 228.84 29.7196C229.327 31.9845 227.568 30.2341 227.449 30.1837C227.258 30.1042 226.598 30.5232 225.66 29.3218C226.911 29.2608 227.481 28.9929 227.581 28.9903Z" fill="#20222E"/>
<path d="M185.586 66.7846C186.876 66.4266 189.057 68.5907 186.778 67.5802C186.225 67.437 185.133 68.1425 184.659 67.7128C184.2 67.2965 185.602 67.933 185.586 66.7846Z" fill="#20222E"/>
<path d="M229.837 29.5215C229.916 29.4923 229.885 29.8 229.969 29.7867C233.536 29.2085 231.363 31.4708 229.373 30.1182C229.336 30.0466 229.802 29.5347 229.837 29.5215Z" fill="#20222E"/>
<path d="M183.731 63.7333C184.012 63.6696 184.495 64.2663 184.261 64.3963C183.667 64.7252 183.397 63.8075 183.731 63.7333Z" fill="#20222E"/>
<path d="M229.701 28.5933C229.86 28.4713 230.398 29.2298 230.364 29.3889C229.95 29.495 229.337 28.8691 229.701 28.5933Z" fill="#20222E"/>
<path d="M230.765 28.8585C230.956 28.8161 231.539 28.9248 231.494 29.19C231.454 29.4155 230.56 29.3651 230.765 28.8585Z" fill="#20222E"/>
<path d="M183.334 67.5803C184.143 67.3204 184.7 67.8853 183.201 67.8456C183.069 67.8084 183.265 67.6016 183.334 67.5803Z" fill="#20222E"/>
<path d="M244.536 83.8879C244.743 83.8481 244.886 83.9171 245 84.0868C245.36 84.6305 244.062 90.8153 242.681 90.6509C240.925 90.4414 242.451 86.7894 242.615 85.8107C243.85 84.9939 244.404 83.9144 244.536 83.8879Z" fill="#20222E"/>
<path d="M217.643 46.0957C219.559 46.2707 217.269 48.5648 216.45 48.35C215.656 48.1405 216.766 47.7215 216.782 47.6207C216.803 47.4748 215.55 46.7906 217.643 46.0957Z" fill="#20222E"/>
<path d="M218.572 44.1073C219.494 43.7864 219.274 44.6855 220.493 44.9693C218.577 47.1759 217.393 44.5184 218.572 44.1073Z" fill="#20222E"/>
<path d="M240.828 37.3438C241.626 37.3491 240.563 38.2428 240.231 37.8079C240.141 37.6912 240.791 37.3438 240.828 37.3438Z" fill="#20222E"/>
<path d="M239.369 36.946C239.616 36.6012 239.502 37.5056 240.098 37.4101C239.472 37.9458 239.289 37.0574 239.369 36.946Z" fill="#20222E"/>
<path d="M254.012 64.9258C254.203 65.1645 254.741 65.4217 254.476 65.854C254.2 65.6074 254.128 65.2546 254.012 64.9258Z" fill="#20222E"/>
<path d="M184.523 64.6618C184.63 64.6114 184.815 64.7758 184.855 64.8607C184.935 65.0224 184.685 66.1125 184.523 64.6618Z" fill="#20222E"/>
<path d="M183.068 63.6011C183.296 63.5003 183.349 63.9326 183.2 63.9989C182.972 64.0997 182.919 63.6674 183.068 63.6011Z" fill="#20222E"/>
<path d="M244.409 82.0332C244.642 83.9746 244.372 82.7758 244.011 82.8288C243.672 82.8792 244.062 83.9931 243.216 83.7571C242.339 83.5131 244.006 82.1605 244.409 82.0332Z" fill="#20222E"/>
<path d="M246.263 69.8335C248.006 69.754 246.444 70.2128 246.263 70.0988C246.152 70.0298 246.152 69.8972 246.263 69.8335Z" fill="#20222E"/>
<path d="M176.445 82.9609C176.554 83.0564 176.551 83.2633 176.445 83.3588C176.427 83.3747 176.103 83.1466 176.445 82.9609Z" fill="#20222E"/>
<path d="M177.504 70.498L177.57 70.697L177.371 70.7633L177.305 70.697L177.504 70.498Z" fill="#20222E"/>
<path d="M210.226 41.0586H210.359C210.844 41.1169 210.141 41.3556 210.226 41.0586Z" fill="#20222E"/>
<path d="M183.931 72.6168C183.786 72.8661 183.807 73.1499 183.401 73.2135C184.745 76.0168 181.255 76.6772 182.342 78.9156C180.744 80.6501 183.343 81.276 183.401 82.9601C182.159 81.2124 181.745 81.0241 181.679 80.9047C180.908 79.4938 182.691 79.5442 181.282 77.9874C182.039 77.624 182.326 76.7329 182.739 75.9983C182.813 75.8683 184.149 75.0647 183.136 73.3461C182.445 72.1686 182.479 73.744 181.48 73.4124C181.366 73.3753 179.581 72.1686 179.493 72.0864C179.313 71.9193 178.998 70.7311 178.301 70.3625C176.343 70.5534 175.85 69.4024 175.519 69.3016C174.888 69.1107 174.565 69.5403 174.061 69.4342C173.884 69.3971 173.242 68.4556 172.471 68.9038C170.426 67.5432 170.68 66.3816 170.285 65.7875C169.989 65.342 169.316 64.9972 169.225 64.8593C169.141 64.7293 169.445 64.5888 169.358 64.4615C169.265 64.3262 167.871 62.6819 167.304 61.8756C166.578 61.9234 169.374 65.9334 168.497 65.7212C168.078 65.6204 167.609 63.8568 166.841 63.6658C167.373 63.1433 166.144 61.7801 165.913 59.9528C165.315 60.1783 163.791 59.181 164.191 58.6931C164.785 59.5099 165.593 59.1254 166.178 59.8202C166.47 61.629 166.568 61.4115 168.033 61.8093C168.809 64.0583 170.807 65.525 171.544 67.8429C172.047 67.8403 174.165 69.1557 174.326 69.169C174.371 69.1717 174.973 68.75 175.121 68.7712C175.516 68.8242 176.16 69.7313 177.506 69.832C177.609 69.84 177.532 70.0548 177.638 70.0973C178.033 69.1982 177.705 67.9437 178.433 66.7821C177.108 66.8961 176.714 69.4528 174.459 67.9755C172.991 67.0128 174.04 64.7718 173.995 63.4006C175.964 60.8095 176.806 63.2919 177.572 61.08C176.867 61.8915 180.521 61.3266 180.685 61.3452C180.715 61.3478 181.056 61.7536 181.083 61.743C181.205 61.6926 182.49 60.0722 182.805 59.7539C182.866 59.6929 183.86 59.3216 184.196 58.7594C184.75 57.8311 183.905 58.0778 184.991 57.2344C185.466 58.0088 184.755 57.5261 184.594 57.8311C184.559 57.8948 184.565 58.6108 184.461 58.7594C183.833 59.6452 182.607 60.0138 182.077 61.0137C182.395 61.4486 182.437 64.5357 182.275 64.6604C180.283 61.2656 182.026 62.0188 177.638 61.743C177.593 63.5385 177.135 62.1037 175.784 62.406C175.309 62.5121 175.19 63.26 174.26 63.5332C174.414 64.5622 173.706 66.2357 174.127 67.1136C174.302 67.4769 176.062 68.5298 176.843 67.8429C177.143 67.5804 176.772 66.4638 178.831 66.6495L178.102 69.2353C182.347 68.8322 178.566 70.9963 181.48 73.0146C182.41 71.9935 183.208 73.3514 183.931 72.6168Z" fill="#20222E"/>
<path d="M183.204 65.1914C183.376 65.2683 182.655 66.3292 184.661 66.3849C185.281 65.5441 185.665 66.8437 183.204 66.7827L181.746 65.8544C180.84 66.4963 179.462 65.9393 181.349 65.5892C181.996 65.4699 182.79 65.8757 183.204 65.1914Z" fill="#20222E"/>
<path d="M182.87 41.7204C182.881 41.6992 183.12 41.3385 183.135 41.3226C183.999 40.4501 184.725 41.0441 185.388 41.9193C182.968 41.1131 184.489 43.2772 182.605 42.0519C182.725 41.9538 182.802 41.861 182.87 41.7204Z" fill="#20222E"/>
<path d="M191.684 32.3049C191.758 32.2969 193.078 32.533 193.142 32.5701C194.461 33.3233 190.786 33.1164 191.088 32.5038C191.101 32.4746 191.652 32.3075 191.684 32.3049Z" fill="#20222E"/>
<path d="M185.453 42.1172C186.155 42.759 183.919 43.3637 183.93 42.8465C183.935 42.6264 185.294 42.3983 185.453 42.1172Z" fill="#20222E"/>
<path d="M187.706 38.5381C189.16 38.257 187.614 40.1824 187.242 39.2674C188.791 38.6628 187.264 39.0712 187.242 39.0022C187.232 38.9704 187.675 38.5434 187.706 38.5381Z" fill="#20222E"/>
<path d="M186.782 41.3206C187.506 41.241 186.88 42.3363 186.45 41.7847C186.431 41.7635 186.739 41.3259 186.782 41.3206Z" fill="#20222E"/>
<path d="M205.791 39.3323C205.656 39.5763 205.547 39.7116 205.261 39.5312C205.216 39.1785 205.68 39.3986 205.791 39.3323Z" fill="#20222E"/>
<path d="M204.669 39.7314C204.807 39.742 204.953 39.7738 204.868 39.9303C204.579 40.4607 204.001 39.6757 204.669 39.7314Z" fill="#20222E"/>
<path d="M185.454 39.1994C185.796 39.0191 185.836 39.4355 185.586 39.4646C185.571 39.4646 185.319 39.271 185.454 39.1994Z" fill="#20222E"/>
<path d="M183.072 64.2621C183.273 64.1904 183.363 64.4583 183.204 64.5273C183.011 64.6121 182.913 64.3204 183.072 64.2621Z" fill="#20222E"/>
<path d="M209.168 37.7402C209.184 37.7402 209.436 37.9338 209.301 38.0054C208.958 38.1858 208.919 37.7694 209.168 37.7402Z" fill="#20222E"/>
<path d="M188.238 33.1016L188.437 33.1679L188.238 33.3668L188.172 33.3005L188.238 33.1016Z" fill="#20222E"/>
<path d="M231.688 28.5938L231.886 28.6601L231.82 28.859L231.754 28.7927L231.688 28.5938Z" fill="#20222E"/>
<path d="M177.432 36.4158C177.411 36.4423 177.337 36.8905 177.233 37.0788C177.079 37.161 176.963 35.9437 175.842 37.4103L177.962 37.8744C177.922 37.9699 178.163 38.0521 178.094 38.206C177.082 40.4842 176.571 39.0096 175.776 39.2005C175.577 39.2483 175.05 40.5478 172.397 39.9299L174.318 38.5375L172 38.9353C172.721 38.0548 173.611 36.2938 174.782 36.681C174.827 37.1318 173.447 37.8028 174.716 37.6092C175.068 37.5562 176.21 36.3229 176.306 36.2832C176.369 36.2566 177.371 36.2195 177.432 36.4158Z" fill="#20222E"/>
<path d="M176.24 34.9569C176.293 34.9569 176.756 34.697 176.77 35.2221C175.686 35.8613 175.731 35.9621 175.18 35.4873C175.28 35.3972 175.005 34.9436 176.24 34.9569Z" fill="#20222E"/>
<path d="M186.438 35.4867C186.351 36.3858 187.034 35.5053 187.167 35.4867C187.967 35.378 188.046 35.7493 188.094 35.7519C188.16 35.7546 188.47 35.0624 189.22 35.9508C187.201 37.1443 190.675 35.6512 191.009 37.078C193.404 36.1471 189.159 37.9877 191.671 37.3432L191.87 37.5421C190.606 39.083 192.739 38.2184 193.327 39.266C192.856 39.3429 192.286 41.5389 192.002 40.4595C191.971 40.3348 192.683 39.3323 190.413 39.266C190.789 39.5657 190.773 39.7752 190.413 40.0617C190.442 40.1837 192.522 40.5364 191.936 41.454C189.663 39.8495 191.854 42.1622 191.737 42.316C188.343 42.4115 188.661 41.1437 188.492 41.0562C188.423 41.0217 187.241 41.1623 187.63 40.3269C187.988 39.5578 190.521 39.6904 187.432 37.2106L184.451 37.741C184.043 37.513 182.98 37.7729 182.861 37.0117C182.808 36.6749 184.12 34.5876 184.649 34.5585C185.664 34.5028 184.385 35.736 184.782 36.0171C185.248 36.346 185.847 35.1844 186.438 35.4867Z" fill="#20222E"/>
<path d="M194.258 29.1222C193.373 29.5651 192.35 29.8329 191.476 30.3156C190.684 30.3289 189.884 30.2997 189.091 30.3156C188.718 30.3236 188.328 30.4986 187.965 30.5808C187.835 30.5517 187.931 30.2069 187.899 30.183C189.377 28.8967 188.402 29.0214 188.561 28.7906C188.604 28.7296 189.452 28.2045 189.489 28.5254C189.499 28.6209 188.397 29.5916 190.284 28.658C189.568 28.2416 191.068 27.6555 191.41 28.7243C191.614 27.6688 195.53 28.1992 195.451 28.5254C195.013 28.6448 194.65 28.9259 194.258 29.1222Z" fill="#20222E"/>
<path d="M193.197 51.6653C193.242 51.583 193.152 51.2913 193.197 51.2011C193.244 51.111 193.904 50.8033 194.389 49.5435C194.945 49.5276 194.643 49.8485 194.853 49.9414C195.377 50.1747 196.538 49.8141 196.045 50.737C196.209 50.8298 196.753 50.4055 196.906 50.6707C196.943 50.7317 196.215 50.8961 196.178 51.7979C195.11 50.9147 195.051 52.1241 194.455 51.2674L193.197 51.6653Z" fill="#20222E"/>
<path d="M186.842 33.896C185.241 34.4609 185.148 33.4716 184.258 34.1612L183.927 33.9623C184.314 32.3869 183.339 33.156 184.324 32.7025C184.958 32.3816 185.021 33.583 187.04 32.7025C188.066 33.7475 187.621 33.6202 186.842 33.896Z" fill="#20222E"/>
<path d="M194.26 29.1225C194.408 29.1092 194.374 29.1941 194.392 29.2551C194.533 29.7272 195.086 29.4301 194.591 29.9181C192.961 30.5308 190.857 30.7111 193.001 30.979V31.2442C192.015 31.4458 191.34 30.4777 191.213 31.3768C190.691 30.7111 192.156 30.9286 191.478 30.3159C192.352 29.8333 193.375 29.5654 194.26 29.1225Z" fill="#20222E"/>
<path d="M185.251 38.1405L185.648 38.5384C185.433 38.915 185.174 38.9388 185.052 38.5384C185.266 40.2914 182.068 40.5513 183.131 41.3231C183.115 41.339 182.876 41.6997 182.866 41.7209L182.005 40.6601C181.575 41.4743 182.988 41.2939 181.276 42.3177C181.872 43.222 181.08 42.5829 180.812 41.9862C181.361 42.8693 178.139 44.4394 178.494 45.3676C178.695 45.8928 179.249 44.7603 179.355 46.8926C179.742 46.0625 183.054 47.3302 183.131 47.622C182.755 50.1733 184.559 51.0512 184.456 47.8872C184.787 47.7068 185.977 46.8077 186.045 46.5611C186.443 45.1289 184.509 46.333 186.377 42.5166C186.512 42.4556 186.62 42.7234 186.907 42.6492C188.912 42.1241 189.89 42.9993 189.689 44.9035C190.571 45.5374 191.798 41.3258 192.802 45.235C192.855 45.4392 192.527 45.9723 192.67 46.1633C192.863 46.4232 194.686 45.731 194.061 47.5556C195.701 47.0677 195.894 47.5026 194.127 48.0198C196.917 48.5476 195.131 48.8499 194.26 49.4121C193.634 49.8179 193.189 50.5314 192.604 50.2078C193.205 52.0855 190.478 48.7332 189.093 51.4676C189.583 51.2156 191.003 50.4491 191.08 51.335C191.104 51.5975 189.273 52.4382 193.2 52.0643C193.335 52.5921 190.518 53.645 190.351 53.6556C189.763 53.6927 189.925 53.1251 189.424 53.1251C189.079 53.1251 187.437 54.0773 187.9 54.7827C186.204 54.8225 186.766 55.6394 186.708 55.711C186.578 55.8675 186.183 55.7163 186.112 55.7773C185.675 56.1512 186.472 56.0823 184.986 57.236C183.899 58.0793 184.744 57.8327 184.191 58.7609C183.854 59.3232 182.861 59.6945 182.8 59.7555C182.484 60.0738 181.199 61.6942 181.077 61.7446C181.051 61.7552 180.709 61.3494 180.68 61.3468C180.516 61.3282 176.862 61.8931 177.566 61.0816C177.675 60.9569 178.322 61.3468 177.699 60.0207C177.694 60.0075 177.993 59.9756 177.765 59.7555C177.076 59.7263 176.965 59.6945 176.507 59.1588C176.528 60.0578 177.495 59.7714 177.699 60.0207C177.606 60.7474 177.778 60.4689 177.566 61.0816C176.801 63.2935 175.958 60.8111 173.989 63.4022C174.034 64.7733 172.985 67.0144 174.453 67.9771C176.708 69.4544 177.103 66.8977 178.428 66.7837C177.699 67.9453 178.027 69.1998 177.633 70.0989C177.527 70.0564 177.604 69.8416 177.5 69.8336C176.154 69.7329 175.51 68.8258 175.115 68.7728C174.967 68.7516 174.366 69.1733 174.321 69.1706C174.159 69.1573 172.042 67.8419 171.538 67.8445C170.802 65.5266 168.804 64.0599 168.028 61.8109C166.562 61.4131 166.464 61.6306 166.173 59.8218C165.587 59.1269 164.779 59.5115 164.185 58.6946C163.396 57.6073 164.185 55.7057 164.583 54.5175C164.882 53.6158 165.494 53.8439 164.848 52.7273C164.994 51.9211 164.543 51.815 164.583 51.2023C164.646 50.2025 169.829 40.379 171.207 40.2623C172.649 40.7423 173.08 40.1933 173.261 40.2623C174.233 40.6389 171.753 41.713 172.996 41.4557C173.157 41.4239 174.087 40.7503 174.056 40.3949C175.794 40.2676 177.633 39.875 179.487 40.1297C179.533 40.0978 179.784 39.1139 179.819 39.0688C180.932 37.6446 181.904 38.7665 182.071 38.8036C183.03 39.0184 182.765 38.2307 183.263 38.7373C182.823 38.9203 182.802 39.7265 183.462 39.5992C183.788 39.5356 184.268 38.2811 185.118 38.1405C185.155 38.1538 185.211 38.1273 185.251 38.1405Z" fill="#20222E"/>
<path d="M194.261 49.413C194.425 49.3997 194.383 49.5456 194.393 49.5456C193.908 50.8053 193.248 51.113 193.201 51.2032C193.156 51.2933 193.246 51.5851 193.201 51.6673C193.156 51.7468 193.426 51.7972 193.201 52.0651C189.274 52.4391 191.105 51.5983 191.081 51.3358C191.004 50.4499 189.584 51.2164 189.094 51.4684C190.48 48.734 193.206 52.0863 192.605 50.2086C193.19 50.5322 193.635 49.8187 194.261 49.413Z" fill="#20222E"/>
<path d="M185.648 38.5384L185.25 38.1406C185.56 38.2414 185.855 38.1698 185.648 38.5384Z" fill="#20222E"/>
<path d="M176.309 54.717C176.939 54.7037 176.701 55.3535 176.839 55.5126C178.164 55.4702 177.181 56.8042 177.17 56.905C177.08 57.6821 177.249 58.2046 176.971 58.9604C177.053 57.6503 176.296 57.1914 176.64 56.242C175.085 55.7487 175.922 54.725 176.309 54.717Z" fill="#20222E"/>
<path d="M177.7 60.0201C177.496 59.7708 176.529 60.0573 176.508 59.1582C176.966 59.6939 177.077 59.7258 177.766 59.7549C177.994 59.9751 177.695 60.0069 177.7 60.0201Z" fill="#20222E"/>
<path d="M177.57 61.0823C177.782 60.4697 177.61 60.7482 177.703 60.0215C178.326 61.3476 177.679 60.9577 177.57 61.0823Z" fill="#20222E"/>
<path d="M193.399 47.4223C193.534 47.4647 193.51 47.9156 193.266 47.8201C193.064 47.7405 193.353 47.409 193.399 47.4223Z" fill="#20222E"/>
<path d="M179.155 34.0293C178.326 34.7931 179.07 35.8964 177.433 34.9575C177.451 34.939 177.067 34.7242 177.499 34.4271C178.199 34.6048 178.569 34.1433 179.155 34.0293Z" fill="#20222E"/>
<path d="M178.758 36.0174C178.801 36.0148 178.846 36.0174 178.891 36.0174C178.528 36.2614 178.536 36.5505 178.758 36.9457C178.637 37.0995 178.599 37.2798 178.626 37.4761C177.9 37.2321 178.197 37.4681 178.096 37.6087C177.987 37.7599 178.022 37.736 177.964 37.8739L175.844 37.4098C176.965 35.9431 177.081 37.1605 177.235 37.0783C177.338 36.89 177.412 36.4417 177.434 36.4152C177.468 36.3728 177.932 35.906 177.964 35.8848C178.34 35.8026 178.541 36.036 178.758 36.0174Z" fill="#20222E"/>
<path d="M184.85 29.9161C185.338 30.3006 184.482 30.4147 184.453 30.5128C184.103 31.6532 187.033 29.5766 186.572 31.3084C188.554 31.6108 185.624 31.38 186.44 32.4356C186.344 32.4489 186.093 33.4779 184.916 32.4356C184.124 32.3322 184.357 32.6849 184.32 32.7008C183.334 33.1543 184.309 32.3852 183.923 33.9606L184.254 34.1595C185.144 33.4699 185.237 34.4592 186.837 33.8943C186.935 34.4831 187.378 33.7855 187.632 34.5573C186.967 34.2417 184.757 35.0002 186.572 35.0877C186.636 35.2999 186.453 35.3476 186.44 35.4856C185.849 35.1832 185.25 36.3449 184.784 36.016C184.386 35.7349 185.666 34.5016 184.651 34.5573C184.121 34.5865 182.81 36.6737 182.863 37.0105C182.982 37.7717 184.045 37.5118 184.453 37.7399C184.482 37.7558 184.386 38.0767 184.519 38.1377C184.723 38.2332 184.471 37.8937 185.115 38.1377C184.264 38.2783 183.785 39.5327 183.459 39.5964C182.799 39.7237 182.82 38.9174 183.26 38.7344C182.762 38.2279 183.027 39.0156 182.068 38.8007C181.872 37.4641 181.281 38.3711 181.14 38.0714C181.032 37.8354 181.742 37.7584 181.803 37.541C181.925 37.0954 181.281 36.9204 181.273 36.8779C181.191 36.4191 182.797 35.6473 183.128 35.353C184.733 33.9288 182.812 34.727 182.995 33.6954C183.008 33.6185 183.538 33.21 183.525 33.1649C183.496 33.0668 182.828 32.8759 182.664 32.966C182.407 33.1066 183.088 33.1411 182.333 33.8943C181.864 34.3637 181.034 34.5971 182.598 34.2921C182.635 34.4327 182.685 34.7217 182.73 34.8225C181.246 35.0877 181.755 35.7375 181.67 35.8171C181.382 36.0876 180.724 36.138 180.478 36.6127C180.187 37.175 181.257 37.2996 177.961 38.867C177.852 39.2728 179.776 38.3127 179.816 39.066C179.781 39.111 179.529 40.095 179.484 40.1268C177.63 39.8722 175.791 40.2647 174.052 40.392C174.084 40.7474 173.154 41.4211 172.993 41.4529C171.75 41.7101 174.23 40.636 173.258 40.2594C173.077 40.1905 172.645 40.7395 171.204 40.2594C170.589 39.8695 171.681 39.3232 171.999 38.9333L174.317 38.5355L172.396 39.9279C175.049 40.5458 175.576 39.2463 175.775 39.1986C176.57 39.0076 177.081 40.4822 178.093 38.204C178.162 38.0502 177.921 37.968 177.961 37.8725C178.019 37.7346 177.985 37.7584 178.093 37.6073C178.973 38.0184 179.347 37.7187 178.623 37.4747C178.597 37.2784 178.634 37.0981 178.756 36.9442C178.803 36.8832 178.946 37.0848 178.954 37.0768C179.129 36.8859 178.462 36.6127 180.081 36.4801C179.052 35.2999 179.211 36.0054 178.888 36.016C178.843 36.016 178.798 36.0133 178.756 36.016C178.74 35.4723 178.292 35.6473 177.961 35.8834C177.929 35.9046 177.465 36.3714 177.431 36.4138C177.37 36.2176 176.368 36.2547 176.305 36.2812C176.209 36.321 175.067 37.5542 174.715 37.6073C173.446 37.8009 174.826 37.1299 174.781 36.679C174.771 36.565 174.922 36.4934 174.914 36.4801C174.733 36.1804 173.753 36.7586 175.179 35.4856C175.73 35.9603 175.685 35.8595 176.768 35.2203C176.93 35.1249 177.227 35.1593 177.431 34.9551C179.068 35.894 178.324 34.7907 179.153 34.0269C179.227 34.011 179.331 33.9526 179.683 33.8943C180.285 33.7961 181.771 34.4035 180.942 33.2312C180.07 33.5018 179.771 33.2975 180.213 32.5682C180.234 32.5364 180.724 32.3189 180.875 32.1704C180.963 32.2181 181.048 32.2685 181.14 32.303C181.154 32.3083 181.095 32.547 181.207 32.5682C182.049 32.7273 182.624 31.7116 182.929 31.7726C183.252 31.8362 182.725 33.096 183.724 32.5682C184.72 32.0404 182.243 31.6665 184.718 31.7063C183.777 30.5075 184.193 32.0723 182.73 30.9769C183.424 30.7197 184.013 30.1282 184.651 29.7835C184.667 29.7755 184.771 29.9585 184.85 29.9161Z" fill="#20222E"/>
<path d="M187.627 34.5569C187.784 35.0369 186.909 35.1032 186.567 35.0873C184.752 34.9998 186.962 34.2413 187.627 34.5569Z" fill="#20222E"/>
<path d="M183.124 35.3527C182.793 35.6471 181.188 36.4189 181.27 36.8777C181.278 36.9201 181.922 37.0952 181.8 37.5407C181.739 37.7582 181.029 37.8351 181.137 38.0711C181.278 38.3708 181.869 37.4638 182.065 38.8005C181.898 38.7633 180.925 37.6415 179.812 39.0657C179.773 38.3125 177.849 39.2726 177.958 38.8668C181.254 37.2994 180.183 37.1747 180.475 36.6125C180.721 36.1377 181.378 36.0873 181.667 35.8168C181.752 35.7373 181.243 35.0875 182.727 34.8223C182.74 34.8514 183.188 35.0053 183.124 35.3527Z" fill="#20222E"/>
<path d="M182.726 30.9766C184.189 32.0719 183.773 30.5071 184.714 31.7059C182.239 31.6661 184.714 32.0401 183.72 32.5678C182.721 33.0956 183.248 31.8359 182.925 31.7722C182.62 31.7112 182.045 32.727 181.203 32.5678C181.091 32.5466 181.15 32.3079 181.137 32.3026C181.992 32.3053 180.742 31.3983 181.335 31.1092C181.666 31.08 182.583 31.0296 182.726 30.9766Z" fill="#20222E"/>
<path d="M179.678 33.8944C179.512 33.2208 179.877 33.0298 180.208 32.5684C179.766 33.2977 180.065 33.5019 180.937 33.2314C181.766 34.4036 180.28 33.7963 179.678 33.8944Z" fill="#20222E"/>
<path d="M180.874 32.1693C180.723 32.3178 180.232 32.5353 180.211 32.5671C180.235 32.5353 180.426 31.9386 180.675 31.9041C180.969 31.8643 180.855 32.1587 180.874 32.1693Z" fill="#20222E"/>
<path d="M183.123 35.3538C183.187 35.0064 182.739 34.8526 182.726 34.8234C182.681 34.7226 182.63 34.4335 182.593 34.293C182.543 34.0967 182.726 33.8395 182.328 33.8952C183.083 33.142 182.402 33.1075 182.659 32.9669C182.824 32.8767 183.491 33.0677 183.52 33.1658C183.534 33.2109 183.004 33.6193 182.991 33.6963C182.808 34.7279 184.729 33.9296 183.123 35.3538Z" fill="#20222E"/>
<path d="M178.75 36.9439C178.527 36.5487 178.519 36.2597 178.882 36.0157C179.205 36.0051 179.046 35.2996 180.074 36.4798C178.455 36.6124 179.123 36.8856 178.948 37.0765C178.94 37.0845 178.797 36.8829 178.75 36.9439Z" fill="#20222E"/>
<path d="M180.672 34.9551C181.041 34.987 181.105 36.0796 180.407 36.016C179.399 35.9232 180.566 34.9472 180.672 34.9551Z" fill="#20222E"/>
<path d="M181.602 32.832C181.928 32.7524 182.3 33.5136 181.867 33.6276C181.697 33.6727 181.138 32.946 181.602 32.832Z" fill="#20222E"/>
<path d="M182.597 34.2923C181.032 34.5973 181.862 34.3639 182.332 33.8944C182.729 33.8387 182.546 34.096 182.597 34.2923Z" fill="#20222E"/>
<path d="M178.62 37.4748C179.344 37.7188 178.97 38.0185 178.09 37.6074C178.191 37.4669 177.894 37.2308 178.62 37.4748Z" fill="#20222E"/>
<path d="M178.757 36.0152C178.539 36.0337 178.338 35.8003 177.961 35.8826C178.292 35.6465 178.741 35.4715 178.757 36.0152Z" fill="#20222E"/>
<path d="M180.675 34.1582C180.951 34.4552 180.105 34.8 180.078 34.6223C180.065 34.5269 180.627 34.32 180.675 34.1582Z" fill="#20222E"/>
<path d="M179.347 34.6895L179.414 34.8884L179.215 34.9547L179.148 34.8884L179.347 34.6895Z" fill="#20222E"/>
<path d="M183.723 38.2695L183.921 38.3358L183.723 38.5347L183.656 38.4684L183.723 38.2695Z" fill="#20222E"/>
<path d="M205.784 39.3325C205.848 39.2185 206.017 39.009 205.851 38.9347C201.706 39.5845 203.725 43.3532 201.346 43.3108C200.715 43.3001 198.36 41.2394 198.1 40.5923C197.822 39.9001 198.055 39.2424 197.703 38.6032C197.825 38.0754 198.879 39.8073 198.233 38.0728C200.461 36.1447 197.175 37.8579 197.173 37.1445C197.173 36.9058 198.551 36.9403 198.1 36.3489C197.981 36.1924 195.564 35.2482 198.63 35.5532C197.538 35.2429 197.602 34.0654 196.908 32.7685C196.012 32.0763 192.793 32.4131 192.602 32.3044C192.364 32.1665 192.817 31.819 192.47 31.6413C192.409 31.6095 191.558 31.8217 191.211 31.3761C191.338 30.477 192.014 31.4451 192.999 31.2435V30.9783C190.856 30.7104 192.96 30.5301 194.589 29.9174C195.085 29.4294 194.531 29.7265 194.391 29.2544C196.137 28.5012 196.338 28.8804 196.444 28.8566C196.587 28.8248 197.324 27.8063 199.094 28.724C199.369 28.0769 200.739 28.5569 202.538 27.6631C206.86 26.9736 214.989 27.8992 209.03 28.8566C208.227 29.4374 212.668 28.3288 212.872 28.3262C213.651 28.3208 215.707 28.8698 213.8 29.2544C213.357 29.3419 212.493 29.1908 211.945 29.2544C209.928 31.8323 213.463 29.4878 212.011 31.9728C214.907 32.3627 212.615 33.047 212.541 33.1663C212.504 33.2273 212.848 33.7259 212.607 33.8956C212.583 33.9116 212.231 33.58 212.077 33.6304C211.897 33.6914 211.826 34.3836 211.415 34.5587C210.692 34.869 210.514 33.4262 209.891 34.8902C214.348 36.6008 209.671 36.9774 207.772 38.0728C208.487 38.6032 207.565 38.2213 207.44 38.2717C206.839 38.5104 206.317 39.0063 205.784 39.3325Z" fill="#20222E"/>
<path d="M210.82 35.8856C210.974 35.928 211.22 35.8087 211.35 35.9519C210.47 37.3178 208.268 36.6255 209.561 36.0182C210.24 35.6999 211.49 36.7025 210.82 35.8856Z" fill="#20222E"/>
<path d="M210.82 35.8844C210.793 35.8525 210.462 35.9507 210.422 35.8181L210.621 35.6191C210.828 35.7703 210.804 35.8791 210.82 35.8844Z" fill="#20222E"/>
<path d="M190.815 106.299C192.5 107.172 193.846 107.445 190.881 107.36C190.112 106.679 187.55 105.729 187.635 105.172C187.651 105.061 188.565 104.584 188.695 103.714C188.3 102.722 188.133 106.238 187.635 103.515C189.458 103.045 188.152 101.746 189.556 103.25C189.646 103.348 190.194 102.716 190.55 105.438L189.821 104.973C189.855 106.806 189.866 105.507 190.086 105.636C190.03 106.464 190.518 106.146 190.815 106.299Z" fill="#20222E"/>
<path d="M197.042 76.4629C196.957 76.7918 197.577 76.6565 197.572 77.2585C197.566 77.8447 196.779 78.0993 196.247 78.0542C195.16 77.781 196.186 77.9136 196.247 77.4574C196.292 77.1233 195.128 76.622 197.042 76.4629Z" fill="#20222E"/>
<path d="M197.041 76.4631C195.128 76.6222 196.291 77.1235 196.246 77.4576C196.185 77.9138 195.159 77.7812 196.246 78.0544C197.928 78.4761 197.78 76.4763 199.094 78.3196C203.721 78.606 202.144 78.9773 202.804 79.513C202.934 79.6191 205.226 79.765 204.195 81.8337C204.176 81.8681 203.604 82.0697 203.533 82.2315C203.474 82.3614 203.591 82.7513 203.533 82.8945C203.037 84.1331 202.25 85.2761 202.738 86.7401C202.123 87.5464 201.959 89.5753 200.817 88.9281C200.878 89.8909 199.648 89.9227 198.962 90.2542C198.782 90.3417 198.705 90.7714 198.564 90.7846C198.522 90.7899 197.963 90.0792 197.968 90.5857C197.968 90.6467 198.864 91.2355 197.504 91.0499C197.894 91.3602 196.392 92.8188 196.18 92.7738C194.399 92.116 194.627 89.2119 192.603 90.5194C191.389 88.5144 190.777 89.8007 191.211 90.851C191.254 90.9517 192.004 90.599 191.675 91.1825C190.658 90.6945 190.024 91.3363 189.489 90.4531C189.29 90.1243 190.242 89.5487 187.634 89.5249L187.237 87.3369H187.104C186.831 85.8013 184.974 85.4804 184.057 84.3532C183.734 83.9554 183.456 83.0457 183.395 82.9608C183.337 81.2767 180.737 80.6508 182.335 78.9163C181.249 76.6779 184.738 76.0175 183.395 73.2142C183.8 73.1506 183.779 72.8668 183.925 72.6175C184.995 70.7902 186.524 70.5647 188.231 71.6892C190.44 71.1588 191.967 72.6122 193.397 74.0762C195.146 73.5563 196.492 74.9461 197.041 76.4631Z" fill="#20222E"/>
<path d="M201.344 88.3984C201.453 88.4939 201.45 88.7008 201.344 88.7963C201.325 88.8122 201.002 88.5841 201.344 88.3984Z" fill="#20222E"/>
<path d="M201.613 86.9395H201.745C202.231 86.9978 201.528 87.2365 201.613 86.9395Z" fill="#20222E"/>
<path d="M190.809 106.3C190.513 106.146 190.025 106.465 190.081 105.637C189.861 105.507 189.85 106.807 189.816 104.974L190.545 105.438C190.189 102.717 189.641 103.348 189.551 103.25C188.147 101.747 189.453 103.046 187.63 103.515C187.081 100.511 188.462 100.492 187.1 101.195C186.188 97.7975 187.545 89.8464 187.1 87.3374H187.232L187.63 89.5254C190.237 89.5493 189.286 90.1248 189.485 90.4537C190.02 91.3369 190.653 90.695 191.671 91.183C191.999 90.5996 191.249 90.9523 191.207 90.8515C190.772 89.8013 191.384 88.515 192.598 90.52C194.622 89.2125 194.395 92.1166 196.175 92.7743C196.387 92.8194 197.889 91.3607 197.5 91.0504C198.859 91.2361 197.964 90.6473 197.964 90.5863C197.958 90.0797 198.517 90.7905 198.56 90.7852C198.7 90.772 198.777 90.3423 198.957 90.2548C199.644 89.9233 200.873 89.8914 200.812 88.9287C201.954 89.5758 202.118 87.5469 202.733 86.7407C202.246 85.2767 203.033 84.1336 203.528 82.8951C203.586 82.7519 203.47 82.362 203.528 82.2321C203.6 82.0703 204.172 81.8687 204.19 81.8342C205.221 79.7656 202.929 79.6197 202.799 79.5136C202.14 78.9779 203.716 78.6066 199.09 78.3201C197.776 76.4769 197.924 78.4766 196.241 78.0549C196.774 78.1 197.561 77.8454 197.566 77.2593C198.165 77.2195 199.296 77.3919 199.222 78.0549C204.098 78.4209 202.41 78.7312 202.932 79.2484C203.072 79.3863 205.054 79.373 204.72 81.4364C204.652 81.8581 203.714 82.8447 203.528 83.2929C202.805 85.0513 203.197 87.5576 202.071 88.995C201.501 89.7244 198.605 90.7083 198.229 91.6472C198.178 91.7745 198.147 93.2915 197.964 93.6363C197.829 93.8909 196.088 95.3257 195.844 95.0949C196.066 97.3148 193.849 95.7845 193.592 96.1558C195.099 98.0733 194.024 98.9273 191.869 98.6753C192.426 99.5028 190.608 101.587 190.809 102.521C190.923 103.049 191.607 103.086 192.002 103.317C192.055 103.502 190.256 103.945 190.809 106.3Z" fill="#20222E"/>
<path d="M187.561 99.0059L187.959 100.465C187.564 99.8731 186.901 99.5973 187.561 99.0059Z" fill="#20222E"/>
<path d="M187.696 101.527C188.3 101.225 188.46 101.954 187.828 101.793C187.786 101.782 187.568 101.591 187.696 101.527Z" fill="#20222E"/>
<path d="M187.896 30.1825C187.927 30.2064 187.832 30.5512 187.962 30.5803C188.325 30.4981 188.714 30.3231 189.088 30.3151C189.295 31.3335 191.804 29.9412 190.082 31.5086C187.882 33.511 187.845 32.2379 186.438 32.4368C185.622 31.3813 188.553 31.612 186.571 31.3097C187.032 29.5778 184.101 31.6545 184.451 30.514C184.48 30.4159 185.336 30.3019 184.848 29.9173C184.864 29.9093 184.862 29.7847 185.113 29.6521C186.804 31.4343 186.022 28.9864 187.167 29.3869C187.395 29.4664 187.408 30.0313 187.498 30.1162C187.837 30.4371 187.811 30.1162 187.896 30.1825Z" fill="#20222E"/>
<path d="M187.962 32.0397C188.519 31.8647 188.169 32.4747 187.829 32.3049C187.702 32.2413 187.914 32.0556 187.962 32.0397Z" fill="#20222E"/>
<path d="M240.752 82.9601C242.178 87.7551 237.435 85.835 237.97 90.4524C235.384 91.4257 236.404 95.9821 230.617 96.2208C228.46 93.7119 228.333 89.8026 226.974 86.872C226.595 84.432 229.708 82.8858 225.914 77.8547C227.069 73.049 225.182 74.8498 224.125 74.6058C223.828 74.5369 223.619 73.6378 222.602 73.4124C223.325 72.5875 224.024 74.1629 224.125 74.208C224.202 74.2425 224.175 73.9269 224.258 73.9428C226.335 74.3194 224.66 73.7943 225.185 73.2798C228.439 75.6561 224.594 77.6107 227.106 78.5177C229.419 84.196 226.756 84.5593 227.239 86.872C228.354 88.4314 228.338 90.5134 228.961 92.3089C230.265 96.067 230.453 92.8128 233.134 92.9056C233.373 91.5 234.549 91.1154 235.784 91.8447V91.0491C235.93 91.012 236.12 91.2851 236.314 91.1817C238.195 90.1765 237.358 89.4393 237.837 87.6676C238.269 87.0921 239.795 86.3628 239.891 86.2753C241.322 84.9916 240.092 83.1935 240.752 82.9601Z" fill="#20222E"/>
<path d="M242.081 69.1694L241.551 69.302C239.73 67.1909 239.418 66.2468 238.106 63.8651C238.037 63.2286 236.204 60.4067 236.715 60.0195C238.556 62.2765 239.253 64.2974 239.961 65.5227C240.705 66.809 241.031 66.878 242.081 69.1694Z" fill="#20222E"/>
<path d="M246.187 68.506C246.155 68.5219 245.895 68.9515 245.723 69.0364C241.934 70.9247 242.477 70.0389 242.079 69.169C241.03 66.8776 240.704 66.8086 239.96 65.5223C239.252 64.297 238.555 62.2761 236.714 60.0191C236.202 60.4063 238.036 63.2282 238.105 63.8647C238.089 63.8355 237.782 63.9337 237.707 63.7984C237.636 63.6658 237.848 63.5465 237.84 63.5332C237.352 62.6341 235.59 60.1358 236.78 59.7539C237.514 60.8254 238.807 62.239 239.43 63.268C239.591 63.5359 239.856 64.8142 239.96 64.9919C240.466 65.875 241.905 67.1242 242.676 69.9646L246.187 68.506Z" fill="#20222E"/>
<path d="M221.279 48.0841C220.783 48.5933 219.721 48.5403 219.622 48.4819C219.464 48.3891 219.776 47.9807 219.159 47.8189C219.185 47.4184 218.971 47.3097 219.026 47.2222C219.093 47.1187 219.903 47.1665 219.821 46.8243C219.8 46.7342 217.982 46.278 219.622 45.9624C220.969 45.7051 220.266 47.0365 221.676 47.4874C221.769 47.8587 221.453 47.9064 221.279 48.0841Z" fill="#20222E"/>
<path d="M228.697 54.1846C228.819 54.2536 229.304 54.2934 229.359 54.3835C230.001 56.9932 228.835 55.3489 228.697 55.9748C228.66 56.1472 229.195 56.85 228.763 56.9694C228.424 57.0622 227.335 55.8873 226.776 56.0411C226.103 55.4921 229.314 56.553 228.432 54.8477C227.87 53.7629 226.8 54.6222 226.18 52.4607C226.447 52.3891 226.386 52.3653 226.445 52.3281C226.649 52.7313 228.344 54.2244 228.498 54.3172C228.668 54.4207 228.686 54.1793 228.697 54.1846Z" fill="#20222E"/>
<path d="M226.182 52.4608C226.802 54.6223 227.873 53.763 228.434 54.8477C225.915 54.1953 226.437 52.856 225.851 52.726C224.667 52.9806 223.453 53.6702 222.274 53.5216C221.898 53.6887 222.308 54.2881 221.015 54.3173C221.042 54.2271 220.931 54.1767 220.883 54.1184C222.87 52.4634 223.313 53.214 223.599 53.1238C225.35 51.9701 226.036 52.5006 226.182 52.4608Z" fill="#20222E"/>
<path d="M220.083 52.7285C220.065 52.7656 220.15 52.946 219.885 53.1263L216.904 52.9274C216.994 57.5872 217.378 54.7866 218.56 56.8393C219.323 55.8793 220.261 56.842 220.613 54.6513L221.011 54.3198C220.658 55.492 221.273 56.0861 218.758 57.0382C220.139 58.1919 221.043 56.6351 221.209 56.5741C221.408 56.4999 225.173 56.2506 225.449 56.3089C227.333 56.7014 225.857 58.0381 227.039 58.8284C228.448 58.6428 230.942 61.3692 231.013 58.961C233.372 59.5021 235.083 59.6665 237.505 59.3589C238.393 57.2504 238.533 56.1869 235.915 56.9719C234.943 55.874 232.701 57.8339 234.127 56.11C233.801 55.5663 232.558 53.365 232.139 55.0491C232.132 55.0783 232.524 55.3037 232.404 55.5796C232.367 55.6644 231.882 55.7732 231.875 55.8448C231.867 55.9137 232.911 56.3964 232.537 56.9056C231.89 57.7888 231.403 56.049 231.345 55.9774C230.634 55.1128 229.222 54.0201 230.152 54.0546L231.543 55.7785C232.354 53.0282 233.642 54.1501 234.458 56.3089C235.351 56.4283 237.826 56.1153 238.168 56.5741C238.631 57.1947 238.138 59.9423 236.776 59.7567C235.587 60.1386 237.349 62.6369 237.836 63.536C237.844 63.5492 237.632 63.6686 237.704 63.8012C237.778 63.9365 238.085 63.8383 238.101 63.8675C239.413 66.2491 239.726 67.1933 241.546 69.3044C241.816 69.6173 242.5 70.9275 242.805 71.0283C243.634 71.2988 246.109 69.7818 246.05 71.3598C246.045 71.4898 245.171 73.4656 244.991 73.7467C243.382 76.2663 238.674 78.0591 240.751 82.9629C240.091 83.1963 241.321 84.9945 239.89 86.2781C239.794 86.3656 238.268 87.095 237.836 87.6705C237.357 89.4421 238.194 90.1794 236.313 91.1846C236.119 91.288 235.929 91.0148 235.783 91.052V91.8476C234.548 91.1183 233.372 91.5028 233.133 92.9085C230.452 92.8156 230.263 96.0698 228.96 92.3117C228.337 90.5162 228.353 88.4343 227.238 86.8748C226.755 84.5622 229.418 84.1988 227.105 78.5206C224.593 77.6136 228.438 75.6589 225.184 73.2826C224.659 73.7971 226.334 74.3222 224.257 73.9456C224.174 73.9297 224.201 74.2453 224.124 74.2109C224.023 74.1658 223.324 72.5904 222.601 73.4152C222.383 73.3675 222.163 73.325 222.004 73.15C221.088 74.8818 219.058 73.8767 217.102 74.3435C216.795 74.2612 214.458 72.2695 214.121 71.8902C214.031 71.7895 213.955 71.2192 213.857 71.0946C213.316 70.4077 212.161 70.2539 212.399 68.7077C213.721 67.4638 212.553 66.1669 212.532 64.7295C212.712 64.4457 213.006 64.6181 213.194 64.3316C215.605 60.6611 216.347 61.8678 216.374 59.2926C218.101 58.1601 219.739 56.1445 216.506 56.5078C217.51 51.5297 214.771 53.0998 220.083 52.7285Z" fill="#20222E"/>
<path d="M230.351 75.1387L230.55 75.205L230.351 75.4039L230.285 75.3376L230.351 75.1387Z" fill="#20222E"/>
<path d="M230.155 53.9207V54.0533C229.225 54.0188 230.638 55.1115 231.348 55.9761C231.406 56.0477 231.894 57.7875 232.54 56.9043C232.914 56.3951 231.87 55.9124 231.878 55.8435C231.886 55.7718 232.371 55.6631 232.408 55.5782C232.527 55.3024 232.135 55.077 232.143 55.0478C232.561 53.3637 233.804 55.565 234.13 56.1087C232.704 57.8326 234.946 55.8726 235.919 56.9706C238.536 56.1856 238.396 57.2491 237.508 59.3575C235.087 59.6652 233.375 59.5008 231.017 58.9597C230.945 61.3679 228.452 58.6415 227.042 58.8271C225.86 58.0368 227.336 56.7001 225.452 56.3076C225.177 56.2492 221.411 56.4985 221.213 56.5728C221.046 56.6338 220.142 58.1906 218.762 57.0369C221.276 56.0848 220.662 55.4907 221.014 54.3185C222.307 54.2893 221.896 53.6899 222.273 53.5228C223.452 53.6713 224.665 52.9818 225.85 52.7272C226.435 52.8571 225.913 54.1965 228.433 54.8489C229.315 56.5542 226.104 55.4934 226.777 56.0424C227.336 55.8885 228.425 57.0634 228.764 56.9706C229.196 56.8513 228.661 56.1484 228.698 55.9761C228.836 55.3502 230.002 56.9945 229.361 54.3848C229.305 54.2946 228.82 54.2548 228.698 54.1859C228.277 53.7377 225.754 51.7326 227.44 52.0642C227.572 52.0907 228.144 53.0746 228.499 53.2576C229.26 53.6501 230.238 53.308 230.155 53.9207Z" fill="#20222E"/>
<path d="M225.584 53.9199C225.887 53.9173 226.059 55.3388 225.85 55.5112C225.2 56.0522 224.982 53.9252 225.584 53.9199Z" fill="#20222E"/>
<path d="M235.918 57.5023C237.244 57.3856 237.199 57.8232 235.918 57.7675V57.5023Z" fill="#20222E"/>
<path d="M232.609 57.3683C232.991 57.233 233.497 57.9703 232.741 57.7661C232.617 57.7316 232.439 57.4293 232.609 57.3683Z" fill="#20222E"/>
<path d="M245.394 37.3437C253.823 46.8754 257.618 57.6723 257.053 70.4954C256.82 70.2594 256.033 68.9386 255.993 68.8378C255.935 68.6867 256.131 68.5859 256.126 68.5726C255.795 67.716 255.495 66.7241 255.066 65.9205C254.748 65.3237 253.46 63.3877 254.006 64.9259C252.297 62.7909 252.114 64.552 248.177 63.202C248.155 63.1941 248.254 62.9899 247.978 62.8042C245.93 63.5839 243.341 58.3645 244.202 61.5444C244.597 62.9978 246.841 64.9312 247.912 63.4672L249.899 64.727C249.29 66.2096 248.463 68.2862 246.521 68.1085C246.325 68.2252 246.213 68.493 246.189 68.5063L242.679 69.965C241.907 67.1245 240.469 65.8754 239.963 64.9922C239.859 64.8145 239.594 63.5362 239.433 63.2683C238.81 62.2393 237.517 60.8257 236.783 59.7542C238.145 59.9399 238.638 57.1923 238.174 56.5717C237.832 56.1129 235.357 56.4258 234.464 56.3065C233.648 54.1476 232.361 53.0258 231.55 55.776L230.159 54.0521V53.9195L230.357 54.0521C230.485 53.4289 230.077 52.978 229.43 53.2565C229.332 52.559 228.969 52.7314 228.37 52.7261C226.902 50.615 226.658 52.1983 226.449 52.3283C226.391 52.3654 226.449 52.3892 226.184 52.4609C226.038 52.5006 225.352 51.9702 223.601 53.1239C223.314 53.2141 222.872 52.4635 220.885 54.1184C220.932 54.1768 221.044 54.2272 221.017 54.3174L220.62 54.6489C220.267 56.8395 219.329 55.8768 218.566 56.8369C217.384 54.7841 217 57.5848 216.91 52.925L219.891 53.1239C220.156 52.9435 220.071 52.7632 220.09 52.7261C220.917 51.0446 218.757 50.0448 218.765 49.875C219.258 49.2252 219.716 50.058 221.415 48.9468C221.06 48.5993 217.763 49.5382 218.632 48.2837C219.075 47.6446 219.091 48.9282 219.162 47.8196C219.78 47.9814 219.467 48.3898 219.626 48.4826C219.724 48.541 220.787 48.594 221.282 48.0848C222.104 48.6046 222.602 47.4669 222.673 47.4218C222.981 47.2229 223.418 47.321 223.468 47.2892C223.813 47.077 223.889 46.4431 224.263 46.3609C224.313 46.3503 225.079 46.6765 225.257 46.4272C225.728 45.7642 224.152 45.4115 224.859 43.6425C222.859 43.4887 222.816 40.2 224.263 40.924C225.426 39.7491 228.548 37.272 227.112 37.0121C228.463 36.6302 228.924 35.3333 229.562 36.2828C229.817 35.5906 230.042 36.0574 230.225 36.0176C231.682 35.694 233.089 34.5324 234.332 36.2828C239.237 36.9591 239.939 39.8128 234.796 38.073C236.245 39.171 235.71 40.139 236.385 39.6643C236.399 39.6537 236.094 39.3805 236.319 39.3328C236.441 39.3062 238.089 41.2476 237.512 39.2002C239.592 40.5342 237.506 37.1633 239.896 38.6697C239.973 37.8794 240.797 38.4363 240.956 38.4045C241.065 38.3833 241.788 37.577 242.546 38.0067C243.68 35.3837 242.501 38.3117 245.394 37.3437Z" fill="#20222E"/>
<path d="M248.176 63.2007C248.014 63.1954 247.974 63.3811 247.911 63.4659C246.84 64.9299 244.596 62.9965 244.201 61.5431C243.34 58.3632 245.929 63.5826 247.977 62.8029C248.253 62.9885 248.155 63.1927 248.176 63.2007Z" fill="#20222E"/>
<path d="M244.664 51.0025C244.884 50.8699 245.57 52.0633 245.525 52.1296C245.406 52.3073 244.296 51.9625 244.465 52.7927C244.537 53.148 245.716 53.5167 245.79 53.7209C245.912 54.0551 245.626 54.437 245.658 54.5166C245.681 54.5775 246.943 54.8772 245.658 55.1796C248.482 57.3146 242.499 57.2615 244.465 54.5166C242.518 52.8696 241.927 52.0527 244.664 51.0025Z" fill="#20222E"/>
<path d="M235.525 51.4004C236.712 53.1747 237.064 51.3314 240.493 53.9862C239.015 55.2725 237.894 52.8299 236.32 54.4504C233.024 53.9571 234.457 53.5141 235.525 51.4004Z" fill="#20222E"/>
<path d="M255.796 65.7209C256.565 65.6254 257.269 68.7364 256.724 69.4339C256.49 68.8982 255.036 65.8164 255.796 65.7209Z" fill="#20222E"/>
<path d="M230.159 53.9198C230.241 53.3072 229.263 53.6493 228.503 53.2568C228.148 53.0738 227.575 52.0899 227.443 52.0633C225.758 51.7318 228.28 53.7368 228.701 54.1851C228.691 54.1797 228.672 54.4211 228.503 54.3177C228.349 54.2248 226.653 52.7317 226.449 52.3286C226.659 52.1986 226.902 50.6153 228.37 52.7264C228.969 52.7317 229.332 52.5593 229.43 53.2568C230.077 52.9783 230.485 53.4292 230.358 54.0524L230.159 53.9198Z" fill="#20222E"/>
<path d="M237.383 51.2668C237.431 51.2483 238.323 51.4472 238.376 51.5984C238.763 52.6698 236.143 51.7469 237.383 51.2668Z" fill="#20222E"/>
<path d="M225.92 45.6972C225.939 45.7211 226.45 45.3975 226.45 45.3657C226.463 44.9652 225.554 45.2278 225.92 45.6972C224.651 44.8061 226.196 44.753 226.052 44.3048C223.715 43.3262 225.92 42.9628 226.582 44.0396C226.908 44.57 226.561 44.8008 226.582 44.8353C226.662 44.9705 226.93 44.7212 227.245 45.2994C226.704 45.6017 226.93 45.6442 227.377 45.432C227.396 45.424 227.324 45.2145 227.444 45.1668C227.772 45.0342 228.056 45.5142 228.305 45.1005C227.764 44.395 229.479 42.6128 229.497 42.4483C229.563 41.8463 228.061 42.2202 229.1 40.7244C229.237 40.5255 231.5 38.2447 231.484 39.2658C231.482 39.5098 230.268 40.7748 229.762 40.7244C230.215 41.406 230.541 42.5465 231.418 42.5146C231.662 42.5067 232.502 41.6394 234.267 42.4483C233.58 43.2572 232.377 42.4563 231.551 42.9124C230.605 43.4349 233.615 45.4505 231.021 43.9733C230.679 45.981 227.282 46.652 225.92 45.6972Z" fill="#20222E"/>
<path d="M227.246 45.2988C227.262 45.3253 227.217 45.4447 227.379 45.4314C226.931 45.6436 226.705 45.6012 227.246 45.2988Z" fill="#20222E"/>
<path d="M225.923 45.696C225.557 45.2265 226.466 44.964 226.453 45.3644C226.453 45.3963 225.941 45.7198 225.923 45.696Z" fill="#20222E"/>
<path d="M229.036 44.7678C229.378 44.5874 229.418 45.0038 229.168 45.033C229.153 45.033 228.901 44.8394 229.036 44.7678Z" fill="#20222E"/>
</g>
<path d="M345.26 144.289L344.998 34.0753M344.998 34.0753H359.233M344.998 34.0753H331.212M397.863 34.0753H359.233M292.656 34.0753H331.212M331.212 34.0753V144.289M359.233 34.0753V144.289M292.656 20.7749H345.633H397.863M345.633 7.47461H292.656H397.863H345.633Z" stroke="#20222E" stroke-width="5.08103"/>
<path d="M376.133 186.325V156.355H386.259C388.601 156.355 390.522 156.755 392.025 157.555C393.527 158.346 394.639 159.433 395.361 160.819C396.083 162.204 396.444 163.78 396.444 165.545C396.444 167.311 396.083 168.877 395.361 170.243C394.639 171.608 393.532 172.682 392.039 173.462C390.547 174.233 388.64 174.618 386.318 174.618H378.123V171.34H386.201C387.801 171.34 389.088 171.106 390.064 170.638C391.049 170.169 391.761 169.506 392.2 168.648C392.649 167.779 392.874 166.745 392.874 165.545C392.874 164.345 392.649 163.297 392.2 162.399C391.752 161.502 391.035 160.809 390.049 160.321C389.064 159.824 387.762 159.575 386.142 159.575H379.762V186.325H376.133ZM390.24 172.862L397.615 186.325H393.4L386.142 172.862H390.24Z" fill="#20222E"/>
<path d="M345.809 186.325H342.004L353.008 156.355H356.754L367.759 186.325H363.954L354.998 161.097H354.764L345.809 186.325ZM347.213 174.618H362.549V177.837H347.213V174.618Z" fill="#20222E"/>
<path d="M333.63 165.486H330.001C329.787 164.442 329.411 163.525 328.875 162.735C328.348 161.945 327.704 161.281 326.943 160.745C326.192 160.199 325.358 159.789 324.441 159.516C323.524 159.242 322.568 159.106 321.572 159.106C319.758 159.106 318.114 159.564 316.641 160.481C315.178 161.398 314.012 162.75 313.144 164.535C312.285 166.32 311.856 168.51 311.856 171.105C311.856 173.7 312.285 175.891 313.144 177.676C314.012 179.461 315.178 180.812 316.641 181.729C318.114 182.646 319.758 183.105 321.572 183.105C322.568 183.105 323.524 182.968 324.441 182.695C325.358 182.422 326.192 182.017 326.943 181.481C327.704 180.934 328.348 180.266 328.875 179.476C329.411 178.676 329.787 177.759 330.001 176.725H333.63C333.357 178.256 332.86 179.627 332.138 180.837C331.416 182.046 330.518 183.076 329.445 183.924C328.372 184.763 327.167 185.402 325.831 185.841C324.504 186.28 323.085 186.5 321.572 186.5C319.016 186.5 316.743 185.875 314.753 184.627C312.763 183.378 311.197 181.602 310.056 179.3C308.914 176.998 308.344 174.266 308.344 171.105C308.344 167.945 308.914 165.213 310.056 162.911C311.197 160.608 312.763 158.833 314.753 157.584C316.743 156.335 319.016 155.711 321.572 155.711C323.085 155.711 324.504 155.93 325.831 156.369C327.167 156.808 328.372 157.452 329.445 158.301C330.518 159.14 331.416 160.164 332.138 161.374C332.86 162.574 333.357 163.945 333.63 165.486Z" fill="#20222E"/>
<path d="M325.905 35.7931H324C323.979 35.7931 323.963 35.7764 323.963 35.7558C323.963 35.7351 323.979 35.7184 324 35.7184H325.532H327.997C329.896 35.7184 331.435 37.2573 331.435 39.1556V41.6214C331.435 42.1578 331 42.5927 330.463 42.5927C329.927 42.5927 329.492 42.1578 329.492 41.6214V39.3797C329.492 37.3989 327.886 35.7931 325.905 35.7931Z" stroke="#20222E" stroke-width="1.64386"/>
<path d="M364.573 35.7931H366.516C366.536 35.7931 366.553 35.7764 366.553 35.7558C366.553 35.7351 366.536 35.7184 366.516 35.7184H364.984H362.518C360.62 35.7184 359.081 37.2573 359.081 39.1556V41.6587C359.081 42.1746 359.499 42.5927 360.015 42.5927C360.531 42.5927 360.949 42.1746 360.949 41.6587V39.4171C360.949 37.4156 362.571 35.7931 364.573 35.7931Z" stroke="#20222E" stroke-width="1.64386"/>
<path d="M219.934 155.821C219.934 155.821 230.63 140.773 235.014 124.411C239.399 108.049 251.879 100.253 255.067 97.7939C258.255 95.3348 258.849 95.635 262.765 91.1867C262.765 91.1867 254.563 115.536 244.585 128.541C244.585 128.541 264.494 125.037 270.032 94.307C270.032 94.307 283.356 143.865 219.93 155.826L219.934 155.821Z" fill="#20222E"/>
<path fill-rule="evenodd" clip-rule="evenodd" d="M233.87 123.377C225.273 127.839 215.383 130.076 205.013 129.379C174.832 127.35 152.01 101.239 154.038 71.0584C156.067 40.8776 182.178 18.0557 212.359 20.0842C242.539 22.1127 265.361 48.2235 263.333 78.4043C263.028 82.935 262.181 87.2998 260.859 91.4396C261.958 90.4446 262.991 89.471 263.646 88.7629C264.483 85.467 265.035 82.049 265.271 78.5346C267.372 47.2833 243.74 20.2463 212.489 18.1458C181.238 16.0453 154.201 39.6768 152.1 70.9281C150 102.179 173.631 129.216 204.882 131.317C214.966 131.995 224.611 129.994 233.12 125.922C233.247 125.494 233.401 124.972 233.566 124.41C233.664 124.076 233.767 123.728 233.87 123.377ZM235.914 122.261C235.672 123.078 235.407 123.979 235.164 124.803C235.154 124.838 235.143 124.874 235.133 124.909C248.096 118.061 258.173 106.309 262.735 91.9518C262.411 92.2517 262.079 92.5533 261.751 92.8488C261.054 93.4765 260.343 94.1036 259.723 94.6469C255.138 106.407 246.636 116.106 235.914 122.261Z" fill="#20222E"/>
<path fill-rule="evenodd" clip-rule="evenodd" d="M229.392 135.98C221.572 138.627 213.111 139.809 204.359 139.221C168.744 136.827 141.812 106.014 144.206 70.3982C146.599 34.7824 177.412 7.85066 213.028 10.2445C248.644 12.6383 275.576 43.4512 273.182 79.067C272.923 82.9241 272.33 86.6793 271.434 90.3064C271.694 92.0675 272.081 95.1894 272.43 98.3633C272.569 99.6281 272.703 100.911 272.821 102.128C275.822 95.1032 277.71 87.4613 278.252 79.4078C280.834 40.9921 251.785 7.7569 213.369 5.17489C174.953 2.59289 141.718 31.6418 139.136 70.0575C136.554 108.473 165.603 141.708 204.019 144.29C211.784 144.812 219.337 144.042 226.468 142.163C226.57 141.976 226.679 141.772 226.793 141.553C227.382 140.417 228.102 138.903 228.851 137.218C229.03 136.813 229.211 136.4 229.392 135.98ZM231.498 135.226C231.118 136.137 230.732 137.033 230.353 137.885C229.749 139.245 229.159 140.504 228.636 141.554C247.351 135.966 262.935 122.683 271.44 105.156C271.291 103.272 271.055 100.898 270.796 98.5428C270.634 97.0709 270.465 95.6197 270.305 94.3156C264.282 113.318 249.784 128.321 231.498 135.226Z" fill="#20222E"/>
</svg>
