<svg width="398" height="183" viewBox="0 0 398 183" fill="none" xmlns="http://www.w3.org/2000/svg">
<path d="M36.3689 48.9364V105.771H49.2514C68.573 105.771 84.2362 90.1077 84.2362 70.7861V70.7861C84.2362 51.4645 68.5729 35.8013 49.2514 35.8013H20.3289V121.558H49.3145C77.3901 121.558 100.15 98.7985 100.15 70.7229V70.7229C100.15 42.6474 77.3901 19.8876 49.3145 19.8876H4.41527V137.598H49.3146C86.2488 137.598 116.19 107.657 116.19 70.7229V70.7229C116.19 33.7888 86.2487 3.84766 49.3145 3.84766H0.5" stroke="#20222E" stroke-width="5.08103"/>
<rect x="162.122" y="24.173" width="93.2518" height="93.2518" rx="46.6259" stroke="#20222E" stroke-width="1.49442"/>
<mask id="mask0_246_3554" style="mask-type:alpha" maskUnits="userSpaceOnUse" x="161" y="24" width="95" height="94">
<rect x="185.36" y="47.4111" width="46.7753" height="46.7753" rx="23.3877" stroke="black" stroke-width="46.7753"/>
</mask>
<g mask="url(#mask0_246_3554)">
<path d="M164.585 48.4624L164.055 49.1254C164.129 48.9663 164.315 48.3483 164.32 48.1309H164.585C164.598 48.2688 164.567 48.4359 164.585 48.4624Z" fill="#20222E"/>
<path d="M210.759 35.2025C211.363 35.0115 212.01 35.7223 212.084 35.7329C212.346 35.77 214.922 34.5845 214.8 35.7992C214.681 36.998 209.623 36.8733 211.355 36.3296C209.588 36.3243 210.651 35.237 210.759 35.2025Z" fill="#20222E"/>
<path d="M227.581 24.9903C228.244 24.9823 228.678 24.9637 228.84 25.7196C229.327 27.9845 227.568 26.2341 227.449 26.1837C227.258 26.1042 226.598 26.5232 225.66 25.3218C226.911 25.2608 227.481 24.9929 227.581 24.9903Z" fill="#20222E"/>
<path d="M185.586 62.7846C186.876 62.4266 189.057 64.5907 186.778 63.5802C186.225 63.437 185.133 64.1425 184.659 63.7128C184.2 63.2965 185.602 63.933 185.586 62.7846Z" fill="#20222E"/>
<path d="M229.837 25.5215C229.916 25.4923 229.885 25.8 229.969 25.7867C233.536 25.2085 231.363 27.4708 229.373 26.1182C229.336 26.0466 229.802 25.5347 229.837 25.5215Z" fill="#20222E"/>
<path d="M183.731 59.7333C184.012 59.6696 184.495 60.2663 184.261 60.3963C183.667 60.7252 183.397 59.8075 183.731 59.7333Z" fill="#20222E"/>
<path d="M229.701 24.5933C229.86 24.4713 230.398 25.2298 230.364 25.3889C229.95 25.495 229.337 24.8691 229.701 24.5933Z" fill="#20222E"/>
<path d="M230.765 24.8585C230.956 24.8161 231.539 24.9248 231.494 25.19C231.454 25.4155 230.56 25.3651 230.765 24.8585Z" fill="#20222E"/>
<path d="M183.334 63.5803C184.143 63.3204 184.7 63.8853 183.201 63.8456C183.069 63.8084 183.265 63.6016 183.334 63.5803Z" fill="#20222E"/>
<path d="M244.536 79.8879C244.743 79.8481 244.886 79.9171 245 80.0868C245.36 80.6305 244.062 86.8153 242.681 86.6509C240.925 86.4414 242.451 82.7894 242.615 81.8107C243.85 80.9939 244.404 79.9144 244.536 79.8879Z" fill="#20222E"/>
<path d="M217.643 42.0957C219.559 42.2707 217.269 44.5648 216.45 44.35C215.656 44.1405 216.766 43.7215 216.782 43.6207C216.803 43.4748 215.55 42.7906 217.643 42.0957Z" fill="#20222E"/>
<path d="M218.572 40.1073C219.494 39.7864 219.274 40.6855 220.493 40.9693C218.577 43.1759 217.393 40.5184 218.572 40.1073Z" fill="#20222E"/>
<path d="M240.828 33.3438C241.626 33.3491 240.563 34.2428 240.231 33.8079C240.141 33.6912 240.791 33.3438 240.828 33.3438Z" fill="#20222E"/>
<path d="M239.369 32.946C239.616 32.6012 239.502 33.5056 240.098 33.4101C239.472 33.9458 239.289 33.0574 239.369 32.946Z" fill="#20222E"/>
<path d="M254.012 60.9258C254.203 61.1645 254.741 61.4217 254.476 61.854C254.2 61.6074 254.128 61.2546 254.012 60.9258Z" fill="#20222E"/>
<path d="M184.523 60.6618C184.63 60.6114 184.815 60.7758 184.855 60.8607C184.935 61.0224 184.685 62.1125 184.523 60.6618Z" fill="#20222E"/>
<path d="M183.068 59.6011C183.296 59.5003 183.349 59.9326 183.2 59.9989C182.972 60.0997 182.919 59.6674 183.068 59.6011Z" fill="#20222E"/>
<path d="M244.409 78.0332C244.642 79.9746 244.372 78.7758 244.011 78.8288C243.672 78.8792 244.062 79.9931 243.216 79.7571C242.339 79.5131 244.006 78.1605 244.409 78.0332Z" fill="#20222E"/>
<path d="M246.263 65.8335C248.006 65.754 246.444 66.2128 246.263 66.0988C246.152 66.0298 246.152 65.8972 246.263 65.8335Z" fill="#20222E"/>
<path d="M176.445 78.9609C176.554 79.0564 176.551 79.2633 176.445 79.3588C176.427 79.3747 176.103 79.1466 176.445 78.9609Z" fill="#20222E"/>
<path d="M177.504 66.498L177.57 66.697L177.371 66.7633L177.305 66.697L177.504 66.498Z" fill="#20222E"/>
<path d="M210.226 37.0586H210.359C210.844 37.1169 210.141 37.3556 210.226 37.0586Z" fill="#20222E"/>
<path d="M183.931 68.6168C183.786 68.8661 183.807 69.1499 183.401 69.2135C184.745 72.0168 181.255 72.6772 182.342 74.9156C180.744 76.6501 183.343 77.276 183.401 78.9601C182.159 77.2124 181.745 77.0241 181.679 76.9047C180.908 75.4938 182.691 75.5442 181.282 73.9874C182.039 73.624 182.326 72.7329 182.739 71.9983C182.813 71.8683 184.149 71.0647 183.136 69.3461C182.445 68.1686 182.479 69.744 181.48 69.4124C181.366 69.3753 179.581 68.1686 179.493 68.0864C179.313 67.9193 178.998 66.7311 178.301 66.3625C176.343 66.5534 175.85 65.4024 175.519 65.3016C174.888 65.1107 174.565 65.5403 174.061 65.4342C173.884 65.3971 173.242 64.4556 172.471 64.9038C170.426 63.5432 170.68 62.3816 170.285 61.7875C169.989 61.342 169.316 60.9972 169.225 60.8593C169.141 60.7293 169.445 60.5888 169.358 60.4615C169.265 60.3262 167.871 58.6819 167.304 57.8756C166.578 57.9234 169.374 61.9334 168.497 61.7212C168.078 61.6204 167.609 59.8568 166.841 59.6658C167.373 59.1433 166.144 57.7801 165.913 55.9528C165.315 56.1783 163.791 55.181 164.191 54.6931C164.785 55.5099 165.593 55.1254 166.178 55.8202C166.47 57.629 166.568 57.4115 168.033 57.8093C168.809 60.0583 170.807 61.525 171.544 63.8429C172.047 63.8403 174.165 65.1557 174.326 65.169C174.371 65.1717 174.973 64.75 175.121 64.7712C175.516 64.8242 176.16 65.7313 177.506 65.832C177.609 65.84 177.532 66.0548 177.638 66.0973C178.033 65.1982 177.705 63.9437 178.433 62.7821C177.108 62.8961 176.714 65.4528 174.459 63.9755C172.991 63.0128 174.04 60.7718 173.995 59.4006C175.964 56.8095 176.806 59.2919 177.572 57.08C176.867 57.8915 180.521 57.3266 180.685 57.3452C180.715 57.3478 181.056 57.7536 181.083 57.743C181.205 57.6926 182.49 56.0722 182.805 55.7539C182.866 55.6929 183.86 55.3216 184.196 54.7594C184.75 53.8311 183.905 54.0778 184.991 53.2344C185.466 54.0088 184.755 53.5261 184.594 53.8311C184.559 53.8948 184.565 54.6108 184.461 54.7594C183.833 55.6452 182.607 56.0138 182.077 57.0137C182.395 57.4486 182.437 60.5357 182.275 60.6604C180.283 57.2656 182.026 58.0188 177.638 57.743C177.593 59.5385 177.135 58.1037 175.784 58.406C175.309 58.5121 175.19 59.26 174.26 59.5332C174.414 60.5622 173.706 62.2357 174.127 63.1136C174.302 63.4769 176.062 64.5298 176.843 63.8429C177.143 63.5804 176.772 62.4638 178.831 62.6495L178.102 65.2353C182.347 64.8322 178.566 66.9963 181.48 69.0146C182.41 67.9935 183.208 69.3514 183.931 68.6168Z" fill="#20222E"/>
<path d="M183.204 61.1914C183.376 61.2683 182.655 62.3292 184.661 62.3849C185.281 61.5441 185.665 62.8437 183.204 62.7827L181.746 61.8544C180.84 62.4963 179.462 61.9393 181.349 61.5892C181.996 61.4699 182.79 61.8757 183.204 61.1914Z" fill="#20222E"/>
<path d="M182.87 37.7204C182.881 37.6992 183.12 37.3385 183.135 37.3226C183.999 36.4501 184.725 37.0441 185.388 37.9193C182.968 37.1131 184.489 39.2772 182.605 38.0519C182.725 37.9538 182.802 37.861 182.87 37.7204Z" fill="#20222E"/>
<path d="M191.684 28.3049C191.758 28.2969 193.078 28.533 193.142 28.5701C194.461 29.3233 190.786 29.1164 191.088 28.5038C191.101 28.4746 191.652 28.3075 191.684 28.3049Z" fill="#20222E"/>
<path d="M185.453 38.1172C186.155 38.759 183.919 39.3637 183.93 38.8465C183.935 38.6264 185.294 38.3983 185.453 38.1172Z" fill="#20222E"/>
<path d="M187.706 34.5381C189.16 34.257 187.614 36.1824 187.242 35.2674C188.791 34.6628 187.264 35.0712 187.242 35.0022C187.232 34.9704 187.675 34.5434 187.706 34.5381Z" fill="#20222E"/>
<path d="M186.782 37.3206C187.506 37.241 186.88 38.3363 186.45 37.7847C186.431 37.7635 186.739 37.3259 186.782 37.3206Z" fill="#20222E"/>
<path d="M205.791 35.3323C205.656 35.5763 205.547 35.7116 205.261 35.5312C205.216 35.1785 205.68 35.3986 205.791 35.3323Z" fill="#20222E"/>
<path d="M204.669 35.7314C204.807 35.742 204.953 35.7738 204.868 35.9303C204.579 36.4607 204.001 35.6757 204.669 35.7314Z" fill="#20222E"/>
<path d="M185.454 35.1994C185.796 35.0191 185.836 35.4355 185.586 35.4646C185.571 35.4646 185.319 35.271 185.454 35.1994Z" fill="#20222E"/>
<path d="M183.072 60.2621C183.273 60.1904 183.363 60.4583 183.204 60.5273C183.011 60.6121 182.913 60.3204 183.072 60.2621Z" fill="#20222E"/>
<path d="M209.168 33.7402C209.184 33.7402 209.436 33.9338 209.301 34.0054C208.958 34.1858 208.919 33.7694 209.168 33.7402Z" fill="#20222E"/>
<path d="M188.238 29.1016L188.437 29.1679L188.238 29.3668L188.172 29.3005L188.238 29.1016Z" fill="#20222E"/>
<path d="M231.688 24.5938L231.886 24.6601L231.82 24.859L231.754 24.7927L231.688 24.5938Z" fill="#20222E"/>
<path d="M177.432 32.4158C177.411 32.4423 177.337 32.8905 177.233 33.0788C177.079 33.161 176.963 31.9437 175.842 33.4103L177.962 33.8744C177.922 33.9699 178.163 34.0521 178.094 34.206C177.082 36.4842 176.571 35.0096 175.776 35.2005C175.577 35.2483 175.05 36.5478 172.397 35.9299L174.318 34.5375L172 34.9353C172.721 34.0548 173.611 32.2938 174.782 32.681C174.827 33.1318 173.447 33.8028 174.716 33.6092C175.068 33.5562 176.21 32.3229 176.306 32.2832C176.369 32.2566 177.371 32.2195 177.432 32.4158Z" fill="#20222E"/>
<path d="M176.24 30.9569C176.293 30.9569 176.756 30.697 176.77 31.2221C175.686 31.8613 175.731 31.9621 175.18 31.4873C175.28 31.3972 175.005 30.9436 176.24 30.9569Z" fill="#20222E"/>
<path d="M186.438 31.4867C186.351 32.3858 187.034 31.5053 187.167 31.4867C187.967 31.378 188.046 31.7493 188.094 31.7519C188.16 31.7546 188.47 31.0624 189.22 31.9508C187.201 33.1443 190.675 31.6512 191.009 33.078C193.404 32.1471 189.159 33.9877 191.671 33.3432L191.87 33.5421C190.606 35.083 192.739 34.2184 193.327 35.266C192.856 35.3429 192.286 37.5389 192.002 36.4595C191.971 36.3348 192.683 35.3323 190.413 35.266C190.789 35.5657 190.773 35.7752 190.413 36.0617C190.442 36.1837 192.522 36.5364 191.936 37.454C189.663 35.8495 191.854 38.1622 191.737 38.316C188.343 38.4115 188.661 37.1437 188.492 37.0562C188.423 37.0217 187.241 37.1623 187.63 36.3269C187.988 35.5578 190.521 35.6904 187.432 33.2106L184.451 33.741C184.043 33.513 182.98 33.7729 182.861 33.0117C182.808 32.6749 184.12 30.5876 184.649 30.5585C185.664 30.5028 184.385 31.736 184.782 32.0171C185.248 32.346 185.847 31.1844 186.438 31.4867Z" fill="#20222E"/>
<path d="M194.258 25.1222C193.373 25.5651 192.35 25.8329 191.476 26.3156C190.684 26.3289 189.884 26.2997 189.091 26.3156C188.718 26.3236 188.328 26.4986 187.965 26.5808C187.835 26.5517 187.931 26.2069 187.899 26.183C189.377 24.8967 188.402 25.0214 188.561 24.7906C188.604 24.7296 189.452 24.2045 189.489 24.5254C189.499 24.6209 188.397 25.5916 190.284 24.658C189.568 24.2416 191.068 23.6555 191.41 24.7243C191.614 23.6688 195.53 24.1992 195.451 24.5254C195.013 24.6448 194.65 24.9259 194.258 25.1222Z" fill="#20222E"/>
<path d="M193.197 47.6653C193.242 47.583 193.152 47.2913 193.197 47.2011C193.244 47.111 193.904 46.8033 194.389 45.5435C194.945 45.5276 194.643 45.8485 194.853 45.9414C195.377 46.1747 196.538 45.8141 196.045 46.737C196.209 46.8298 196.753 46.4055 196.906 46.6707C196.943 46.7317 196.215 46.8961 196.178 47.7979C195.11 46.9147 195.051 48.1241 194.455 47.2674L193.197 47.6653Z" fill="#20222E"/>
<path d="M186.842 29.896C185.241 30.4609 185.148 29.4716 184.258 30.1612L183.927 29.9623C184.314 28.3869 183.339 29.156 184.324 28.7025C184.958 28.3816 185.021 29.583 187.04 28.7025C188.066 29.7475 187.621 29.6202 186.842 29.896Z" fill="#20222E"/>
<path d="M194.26 25.1225C194.408 25.1092 194.374 25.1941 194.392 25.2551C194.533 25.7272 195.086 25.4301 194.591 25.9181C192.961 26.5308 190.857 26.7111 193.001 26.979V27.2442C192.015 27.4458 191.34 26.4777 191.213 27.3768C190.691 26.7111 192.156 26.9286 191.478 26.3159C192.352 25.8333 193.375 25.5654 194.26 25.1225Z" fill="#20222E"/>
<path d="M185.251 34.1405L185.648 34.5384C185.433 34.915 185.174 34.9388 185.052 34.5384C185.266 36.2914 182.068 36.5513 183.131 37.3231C183.115 37.339 182.876 37.6997 182.866 37.7209L182.005 36.6601C181.575 37.4743 182.988 37.2939 181.276 38.3177C181.872 39.222 181.08 38.5829 180.812 37.9862C181.361 38.8693 178.139 40.4394 178.494 41.3676C178.695 41.8928 179.249 40.7603 179.355 42.8926C179.742 42.0625 183.054 43.3302 183.131 43.622C182.755 46.1733 184.559 47.0512 184.456 43.8872C184.787 43.7068 185.977 42.8077 186.045 42.5611C186.443 41.1289 184.509 42.333 186.377 38.5166C186.512 38.4556 186.62 38.7234 186.907 38.6492C188.912 38.1241 189.89 38.9993 189.689 40.9035C190.571 41.5374 191.798 37.3258 192.802 41.235C192.855 41.4392 192.527 41.9723 192.67 42.1633C192.863 42.4232 194.686 41.731 194.061 43.5556C195.701 43.0677 195.894 43.5026 194.127 44.0198C196.917 44.5476 195.131 44.8499 194.26 45.4121C193.634 45.8179 193.189 46.5314 192.604 46.2078C193.205 48.0855 190.478 44.7332 189.093 47.4676C189.583 47.2156 191.003 46.4491 191.08 47.335C191.104 47.5975 189.273 48.4382 193.2 48.0643C193.335 48.5921 190.518 49.645 190.351 49.6556C189.763 49.6927 189.925 49.1251 189.424 49.1251C189.079 49.1251 187.437 50.0773 187.9 50.7827C186.204 50.8225 186.766 51.6394 186.708 51.711C186.578 51.8675 186.183 51.7163 186.112 51.7773C185.675 52.1512 186.472 52.0823 184.986 53.236C183.899 54.0793 184.744 53.8327 184.191 54.7609C183.854 55.3232 182.861 55.6945 182.8 55.7555C182.484 56.0738 181.199 57.6942 181.077 57.7446C181.051 57.7552 180.709 57.3494 180.68 57.3468C180.516 57.3282 176.862 57.8931 177.566 57.0816C177.675 56.9569 178.322 57.3468 177.699 56.0207C177.694 56.0075 177.993 55.9756 177.765 55.7555C177.076 55.7263 176.965 55.6945 176.507 55.1588C176.528 56.0578 177.495 55.7714 177.699 56.0207C177.606 56.7474 177.778 56.4689 177.566 57.0816C176.801 59.2935 175.958 56.8111 173.989 59.4022C174.034 60.7733 172.985 63.0144 174.453 63.9771C176.708 65.4544 177.103 62.8977 178.428 62.7837C177.699 63.9453 178.027 65.1998 177.633 66.0989C177.527 66.0564 177.604 65.8416 177.5 65.8336C176.154 65.7329 175.51 64.8258 175.115 64.7728C174.967 64.7516 174.366 65.1733 174.321 65.1706C174.159 65.1573 172.042 63.8419 171.538 63.8445C170.802 61.5266 168.804 60.0599 168.028 57.8109C166.562 57.4131 166.464 57.6306 166.173 55.8218C165.587 55.1269 164.779 55.5115 164.185 54.6946C163.396 53.6073 164.185 51.7057 164.583 50.5175C164.882 49.6158 165.494 49.8439 164.848 48.7273C164.994 47.9211 164.543 47.815 164.583 47.2023C164.646 46.2025 169.829 36.379 171.207 36.2623C172.649 36.7423 173.08 36.1933 173.261 36.2623C174.233 36.6389 171.753 37.713 172.996 37.4557C173.157 37.4239 174.087 36.7503 174.056 36.3949C175.794 36.2676 177.633 35.875 179.487 36.1297C179.533 36.0978 179.784 35.1139 179.819 35.0688C180.932 33.6446 181.904 34.7665 182.071 34.8036C183.03 35.0184 182.765 34.2307 183.263 34.7373C182.823 34.9203 182.802 35.7265 183.462 35.5992C183.788 35.5356 184.268 34.2811 185.118 34.1405C185.155 34.1538 185.211 34.1273 185.251 34.1405Z" fill="#20222E"/>
<path d="M194.261 45.413C194.425 45.3997 194.383 45.5456 194.393 45.5456C193.908 46.8053 193.248 47.113 193.201 47.2032C193.156 47.2933 193.246 47.5851 193.201 47.6673C193.156 47.7468 193.426 47.7972 193.201 48.0651C189.274 48.4391 191.105 47.5983 191.081 47.3358C191.004 46.4499 189.584 47.2164 189.094 47.4684C190.48 44.734 193.206 48.0863 192.605 46.2086C193.19 46.5322 193.635 45.8187 194.261 45.413Z" fill="#20222E"/>
<path d="M185.648 34.5384L185.25 34.1406C185.56 34.2414 185.855 34.1698 185.648 34.5384Z" fill="#20222E"/>
<path d="M176.309 50.717C176.939 50.7037 176.701 51.3535 176.839 51.5126C178.164 51.4702 177.181 52.8042 177.17 52.905C177.08 53.6821 177.249 54.2046 176.971 54.9604C177.053 53.6503 176.296 53.1914 176.64 52.242C175.085 51.7487 175.922 50.725 176.309 50.717Z" fill="#20222E"/>
<path d="M177.7 56.0201C177.496 55.7708 176.529 56.0573 176.508 55.1582C176.966 55.6939 177.077 55.7258 177.766 55.7549C177.994 55.9751 177.695 56.0069 177.7 56.0201Z" fill="#20222E"/>
<path d="M177.57 57.0823C177.782 56.4697 177.61 56.7482 177.703 56.0215C178.326 57.3476 177.679 56.9577 177.57 57.0823Z" fill="#20222E"/>
<path d="M193.399 43.4223C193.534 43.4647 193.51 43.9156 193.266 43.8201C193.064 43.7405 193.353 43.409 193.399 43.4223Z" fill="#20222E"/>
<path d="M179.155 30.0293C178.326 30.7931 179.07 31.8964 177.433 30.9575C177.451 30.939 177.067 30.7242 177.499 30.4271C178.199 30.6048 178.569 30.1433 179.155 30.0293Z" fill="#20222E"/>
<path d="M178.758 32.0174C178.801 32.0148 178.846 32.0174 178.891 32.0174C178.528 32.2614 178.536 32.5505 178.758 32.9457C178.637 33.0995 178.599 33.2798 178.626 33.4761C177.9 33.2321 178.197 33.4681 178.096 33.6087C177.987 33.7599 178.022 33.736 177.964 33.8739L175.844 33.4098C176.965 31.9431 177.081 33.1605 177.235 33.0783C177.338 32.89 177.412 32.4417 177.434 32.4152C177.468 32.3728 177.932 31.906 177.964 31.8848C178.34 31.8026 178.541 32.036 178.758 32.0174Z" fill="#20222E"/>
<path d="M184.85 25.9161C185.338 26.3006 184.482 26.4147 184.453 26.5128C184.103 27.6532 187.033 25.5766 186.572 27.3084C188.554 27.6108 185.624 27.38 186.44 28.4356C186.344 28.4489 186.093 29.4779 184.916 28.4356C184.124 28.3322 184.357 28.6849 184.32 28.7008C183.334 29.1543 184.309 28.3852 183.923 29.9606L184.254 30.1595C185.144 29.4699 185.237 30.4592 186.837 29.8943C186.935 30.4831 187.378 29.7855 187.632 30.5573C186.967 30.2417 184.757 31.0002 186.572 31.0877C186.636 31.2999 186.453 31.3476 186.44 31.4856C185.849 31.1832 185.25 32.3449 184.784 32.016C184.386 31.7349 185.666 30.5016 184.651 30.5573C184.121 30.5865 182.81 32.6737 182.863 33.0105C182.982 33.7717 184.045 33.5118 184.453 33.7399C184.482 33.7558 184.386 34.0767 184.519 34.1377C184.723 34.2332 184.471 33.8937 185.115 34.1377C184.264 34.2783 183.785 35.5327 183.459 35.5964C182.799 35.7237 182.82 34.9174 183.26 34.7344C182.762 34.2279 183.027 35.0156 182.068 34.8007C181.872 33.4641 181.281 34.3711 181.14 34.0714C181.032 33.8354 181.742 33.7584 181.803 33.541C181.925 33.0954 181.281 32.9204 181.273 32.8779C181.191 32.4191 182.797 31.6473 183.128 31.353C184.733 29.9288 182.812 30.727 182.995 29.6954C183.008 29.6185 183.538 29.21 183.525 29.1649C183.496 29.0668 182.828 28.8759 182.664 28.966C182.407 29.1066 183.088 29.1411 182.333 29.8943C181.864 30.3637 181.034 30.5971 182.598 30.2921C182.635 30.4327 182.685 30.7217 182.73 30.8225C181.246 31.0877 181.755 31.7375 181.67 31.8171C181.382 32.0876 180.724 32.138 180.478 32.6127C180.187 33.175 181.257 33.2996 177.961 34.867C177.852 35.2728 179.776 34.3127 179.816 35.066C179.781 35.111 179.529 36.095 179.484 36.1268C177.63 35.8722 175.791 36.2647 174.052 36.392C174.084 36.7474 173.154 37.4211 172.993 37.4529C171.75 37.7101 174.23 36.636 173.258 36.2594C173.077 36.1905 172.645 36.7395 171.204 36.2594C170.589 35.8695 171.681 35.3232 171.999 34.9333L174.317 34.5355L172.396 35.9279C175.049 36.5458 175.576 35.2463 175.775 35.1986C176.57 35.0076 177.081 36.4822 178.093 34.204C178.162 34.0502 177.921 33.968 177.961 33.8725C178.019 33.7346 177.985 33.7584 178.093 33.6073C178.973 34.0184 179.347 33.7187 178.623 33.4747C178.597 33.2784 178.634 33.0981 178.756 32.9442C178.803 32.8832 178.946 33.0848 178.954 33.0768C179.129 32.8859 178.462 32.6127 180.081 32.4801C179.052 31.2999 179.211 32.0054 178.888 32.016C178.843 32.016 178.798 32.0133 178.756 32.016C178.74 31.4723 178.292 31.6473 177.961 31.8834C177.929 31.9046 177.465 32.3714 177.431 32.4138C177.37 32.2176 176.368 32.2547 176.305 32.2812C176.209 32.321 175.067 33.5542 174.715 33.6073C173.446 33.8009 174.826 33.1299 174.781 32.679C174.771 32.565 174.922 32.4934 174.914 32.4801C174.733 32.1804 173.753 32.7586 175.179 31.4856C175.73 31.9603 175.685 31.8595 176.768 31.2203C176.93 31.1249 177.227 31.1593 177.431 30.9551C179.068 31.894 178.324 30.7907 179.153 30.0269C179.227 30.011 179.331 29.9526 179.683 29.8943C180.285 29.7961 181.771 30.4035 180.942 29.2312C180.07 29.5018 179.771 29.2975 180.213 28.5682C180.234 28.5364 180.724 28.3189 180.875 28.1704C180.963 28.2181 181.048 28.2685 181.14 28.303C181.154 28.3083 181.095 28.547 181.207 28.5682C182.049 28.7273 182.624 27.7116 182.929 27.7726C183.252 27.8362 182.725 29.096 183.724 28.5682C184.72 28.0404 182.243 27.6665 184.718 27.7063C183.777 26.5075 184.193 28.0723 182.73 26.9769C183.424 26.7197 184.013 26.1282 184.651 25.7835C184.667 25.7755 184.771 25.9585 184.85 25.9161Z" fill="#20222E"/>
<path d="M187.627 30.5569C187.784 31.0369 186.909 31.1032 186.567 31.0873C184.752 30.9998 186.962 30.2413 187.627 30.5569Z" fill="#20222E"/>
<path d="M183.124 31.3527C182.793 31.6471 181.188 32.4189 181.27 32.8777C181.278 32.9201 181.922 33.0952 181.8 33.5407C181.739 33.7582 181.029 33.8351 181.137 34.0711C181.278 34.3708 181.869 33.4638 182.065 34.8005C181.898 34.7633 180.925 33.6415 179.812 35.0657C179.773 34.3125 177.849 35.2726 177.958 34.8668C181.254 33.2994 180.183 33.1747 180.475 32.6125C180.721 32.1377 181.378 32.0873 181.667 31.8168C181.752 31.7373 181.243 31.0875 182.727 30.8223C182.74 30.8514 183.188 31.0053 183.124 31.3527Z" fill="#20222E"/>
<path d="M182.726 26.9766C184.189 28.0719 183.773 26.5071 184.714 27.7059C182.239 27.6661 184.714 28.0401 183.72 28.5678C182.721 29.0956 183.248 27.8359 182.925 27.7722C182.62 27.7112 182.045 28.727 181.203 28.5678C181.091 28.5466 181.15 28.3079 181.137 28.3026C181.992 28.3053 180.742 27.3983 181.335 27.1092C181.666 27.08 182.583 27.0296 182.726 26.9766Z" fill="#20222E"/>
<path d="M179.678 29.8944C179.512 29.2208 179.877 29.0298 180.208 28.5684C179.766 29.2977 180.065 29.5019 180.937 29.2314C181.766 30.4036 180.28 29.7963 179.678 29.8944Z" fill="#20222E"/>
<path d="M180.874 28.1693C180.723 28.3178 180.232 28.5353 180.211 28.5671C180.235 28.5353 180.426 27.9386 180.675 27.9041C180.969 27.8643 180.855 28.1587 180.874 28.1693Z" fill="#20222E"/>
<path d="M183.123 31.3538C183.187 31.0064 182.739 30.8526 182.726 30.8234C182.681 30.7226 182.63 30.4335 182.593 30.293C182.543 30.0967 182.726 29.8395 182.328 29.8952C183.083 29.142 182.402 29.1075 182.659 28.9669C182.824 28.8767 183.491 29.0677 183.52 29.1658C183.534 29.2109 183.004 29.6193 182.991 29.6963C182.808 30.7279 184.729 29.9296 183.123 31.3538Z" fill="#20222E"/>
<path d="M178.75 32.9439C178.527 32.5487 178.519 32.2597 178.882 32.0157C179.205 32.0051 179.046 31.2996 180.074 32.4798C178.455 32.6124 179.123 32.8856 178.948 33.0765C178.94 33.0845 178.797 32.8829 178.75 32.9439Z" fill="#20222E"/>
<path d="M180.672 30.9551C181.041 30.987 181.105 32.0796 180.407 32.016C179.399 31.9232 180.566 30.9472 180.672 30.9551Z" fill="#20222E"/>
<path d="M181.602 28.832C181.928 28.7524 182.3 29.5136 181.867 29.6276C181.697 29.6727 181.138 28.946 181.602 28.832Z" fill="#20222E"/>
<path d="M182.597 30.2923C181.032 30.5973 181.862 30.3639 182.332 29.8944C182.729 29.8387 182.546 30.096 182.597 30.2923Z" fill="#20222E"/>
<path d="M178.62 33.4748C179.344 33.7188 178.97 34.0185 178.09 33.6074C178.191 33.4669 177.894 33.2308 178.62 33.4748Z" fill="#20222E"/>
<path d="M178.757 32.0152C178.539 32.0337 178.338 31.8003 177.961 31.8826C178.292 31.6465 178.741 31.4715 178.757 32.0152Z" fill="#20222E"/>
<path d="M180.675 30.1582C180.951 30.4552 180.105 30.8 180.078 30.6223C180.065 30.5269 180.627 30.32 180.675 30.1582Z" fill="#20222E"/>
<path d="M179.347 30.6895L179.414 30.8884L179.215 30.9547L179.148 30.8884L179.347 30.6895Z" fill="#20222E"/>
<path d="M183.723 34.2695L183.921 34.3358L183.723 34.5347L183.656 34.4684L183.723 34.2695Z" fill="#20222E"/>
<path d="M205.784 35.3325C205.848 35.2185 206.017 35.009 205.851 34.9347C201.706 35.5845 203.725 39.3532 201.346 39.3108C200.715 39.3001 198.36 37.2394 198.1 36.5923C197.822 35.9001 198.055 35.2424 197.703 34.6032C197.825 34.0754 198.879 35.8073 198.233 34.0728C200.461 32.1447 197.175 33.8579 197.173 33.1445C197.173 32.9058 198.551 32.9403 198.1 32.3489C197.981 32.1924 195.564 31.2482 198.63 31.5532C197.538 31.2429 197.602 30.0654 196.908 28.7685C196.012 28.0763 192.793 28.4131 192.602 28.3044C192.364 28.1665 192.817 27.819 192.47 27.6413C192.409 27.6095 191.558 27.8217 191.211 27.3761C191.338 26.477 192.014 27.4451 192.999 27.2435V26.9783C190.856 26.7104 192.96 26.5301 194.589 25.9174C195.085 25.4294 194.531 25.7265 194.391 25.2544C196.137 24.5012 196.338 24.8804 196.444 24.8566C196.587 24.8248 197.324 23.8063 199.094 24.724C199.369 24.0769 200.739 24.5569 202.538 23.6631C206.86 22.9736 214.989 23.8992 209.03 24.8566C208.227 25.4374 212.668 24.3288 212.872 24.3262C213.651 24.3208 215.707 24.8698 213.8 25.2544C213.357 25.3419 212.493 25.1908 211.945 25.2544C209.928 27.8323 213.463 25.4878 212.011 27.9728C214.907 28.3627 212.615 29.047 212.541 29.1663C212.504 29.2273 212.848 29.7259 212.607 29.8956C212.583 29.9116 212.231 29.58 212.077 29.6304C211.897 29.6914 211.826 30.3836 211.415 30.5587C210.692 30.869 210.514 29.4262 209.891 30.8902C214.348 32.6008 209.671 32.9774 207.772 34.0728C208.487 34.6032 207.565 34.2213 207.44 34.2717C206.839 34.5104 206.317 35.0063 205.784 35.3325Z" fill="#20222E"/>
<path d="M210.82 31.8856C210.974 31.928 211.22 31.8087 211.35 31.9519C210.47 33.3178 208.268 32.6255 209.561 32.0182C210.24 31.6999 211.49 32.7025 210.82 31.8856Z" fill="#20222E"/>
<path d="M210.82 31.8844C210.793 31.8525 210.462 31.9507 210.422 31.8181L210.621 31.6191C210.828 31.7703 210.804 31.8791 210.82 31.8844Z" fill="#20222E"/>
<path d="M190.815 102.299C192.5 103.172 193.846 103.445 190.881 103.36C190.112 102.679 187.55 101.729 187.635 101.172C187.651 101.061 188.565 100.584 188.695 99.7137C188.3 98.7218 188.133 102.238 187.635 99.5147C189.458 99.0453 188.152 97.7458 189.556 99.2495C189.646 99.3477 190.194 98.7164 190.55 101.438L189.821 100.973C189.855 102.806 189.866 101.507 190.086 101.636C190.03 102.464 190.518 102.146 190.815 102.299Z" fill="#20222E"/>
<path d="M197.042 72.4629C196.957 72.7918 197.577 72.6565 197.572 73.2585C197.566 73.8447 196.779 74.0993 196.247 74.0542C195.16 73.781 196.186 73.9136 196.247 73.4574C196.292 73.1233 195.128 72.622 197.042 72.4629Z" fill="#20222E"/>
<path d="M197.041 72.4631C195.128 72.6222 196.291 73.1235 196.246 73.4576C196.185 73.9138 195.159 73.7812 196.246 74.0544C197.928 74.4761 197.78 72.4763 199.094 74.3196C203.721 74.606 202.144 74.9773 202.804 75.513C202.934 75.6191 205.226 75.765 204.195 77.8337C204.176 77.8681 203.604 78.0697 203.533 78.2315C203.474 78.3614 203.591 78.7513 203.533 78.8945C203.037 80.1331 202.25 81.2761 202.738 82.7401C202.123 83.5464 201.959 85.5753 200.817 84.9281C200.878 85.8909 199.648 85.9227 198.962 86.2542C198.782 86.3417 198.705 86.7714 198.564 86.7846C198.522 86.7899 197.963 86.0792 197.968 86.5857C197.968 86.6467 198.864 87.2355 197.504 87.0499C197.894 87.3602 196.392 88.8188 196.18 88.7738C194.399 88.116 194.627 85.2119 192.603 86.5194C191.389 84.5144 190.777 85.8007 191.211 86.851C191.254 86.9517 192.004 86.599 191.675 87.1825C190.658 86.6945 190.024 87.3363 189.489 86.4531C189.29 86.1243 190.242 85.5487 187.634 85.5249L187.237 83.3369H187.104C186.831 81.8013 184.974 81.4804 184.057 80.3532C183.734 79.9554 183.456 79.0457 183.395 78.9608C183.337 77.2767 180.737 76.6508 182.335 74.9163C181.249 72.6779 184.738 72.0175 183.395 69.2142C183.8 69.1506 183.779 68.8668 183.925 68.6175C184.995 66.7902 186.524 66.5647 188.231 67.6892C190.44 67.1588 191.967 68.6122 193.397 70.0762C195.146 69.5563 196.492 70.9461 197.041 72.4631Z" fill="#20222E"/>
<path d="M201.344 84.3984C201.453 84.4939 201.45 84.7008 201.344 84.7963C201.325 84.8122 201.002 84.5841 201.344 84.3984Z" fill="#20222E"/>
<path d="M201.613 82.9395H201.745C202.231 82.9978 201.528 83.2365 201.613 82.9395Z" fill="#20222E"/>
<path d="M190.809 102.3C190.513 102.146 190.025 102.465 190.081 101.637C189.861 101.507 189.85 102.807 189.816 100.974L190.545 101.438C190.189 98.7172 189.641 99.3484 189.551 99.2503C188.147 97.7465 189.453 99.0461 187.63 99.5155C187.081 96.5106 188.462 96.4921 187.1 97.1949C186.188 93.7975 187.545 85.8464 187.1 83.3374H187.232L187.63 85.5254C190.237 85.5493 189.286 86.1248 189.485 86.4537C190.02 87.3369 190.653 86.695 191.671 87.183C191.999 86.5996 191.249 86.9523 191.207 86.8515C190.772 85.8013 191.384 84.515 192.598 86.52C194.622 85.2125 194.395 88.1166 196.175 88.7743C196.387 88.8194 197.889 87.3607 197.5 87.0504C198.859 87.2361 197.964 86.6473 197.964 86.5863C197.958 86.0797 198.517 86.7905 198.56 86.7852C198.7 86.772 198.777 86.3423 198.957 86.2548C199.644 85.9233 200.873 85.8914 200.812 84.9287C201.954 85.5758 202.118 83.5469 202.733 82.7407C202.246 81.2767 203.033 80.1336 203.528 78.8951C203.586 78.7519 203.47 78.362 203.528 78.2321C203.6 78.0703 204.172 77.8687 204.19 77.8342C205.221 75.7656 202.929 75.6197 202.799 75.5136C202.14 74.9779 203.716 74.6066 199.09 74.3201C197.776 72.4769 197.924 74.4766 196.241 74.0549C196.774 74.1 197.561 73.8454 197.566 73.2593C198.165 73.2195 199.296 73.3919 199.222 74.0549C204.098 74.4209 202.41 74.7312 202.932 75.2484C203.072 75.3863 205.054 75.373 204.72 77.4364C204.652 77.8581 203.714 78.8447 203.528 79.2929C202.805 81.0513 203.197 83.5576 202.071 84.995C201.501 85.7244 198.605 86.7083 198.229 87.6472C198.178 87.7745 198.147 89.2915 197.964 89.6363C197.829 89.8909 196.088 91.3257 195.844 91.0949C196.066 93.3148 193.849 91.7845 193.592 92.1558C195.099 94.0733 194.024 94.9273 191.869 94.6753C192.426 95.5028 190.608 97.5874 190.809 98.5209C190.923 99.0487 191.607 99.0858 192.002 99.3166C192.055 99.5022 190.256 99.9451 190.809 102.3Z" fill="#20222E"/>
<path d="M187.561 95.0059L187.959 96.4645C187.564 95.8731 186.901 95.5973 187.561 95.0059Z" fill="#20222E"/>
<path d="M187.696 97.5274C188.3 97.225 188.46 97.9544 187.828 97.7926C187.786 97.782 187.568 97.591 187.696 97.5274Z" fill="#20222E"/>
<path d="M187.896 26.1825C187.927 26.2064 187.832 26.5512 187.962 26.5803C188.325 26.4981 188.714 26.3231 189.088 26.3151C189.295 27.3335 191.804 25.9412 190.082 27.5086C187.882 29.511 187.845 28.2379 186.438 28.4368C185.622 27.3813 188.553 27.612 186.571 27.3097C187.032 25.5778 184.101 27.6545 184.451 26.514C184.48 26.4159 185.336 26.3019 184.848 25.9173C184.864 25.9093 184.862 25.7847 185.113 25.6521C186.804 27.4343 186.022 24.9864 187.167 25.3869C187.395 25.4664 187.408 26.0313 187.498 26.1162C187.837 26.4371 187.811 26.1162 187.896 26.1825Z" fill="#20222E"/>
<path d="M187.962 28.0397C188.519 27.8647 188.169 28.4747 187.829 28.3049C187.702 28.2413 187.914 28.0556 187.962 28.0397Z" fill="#20222E"/>
<path d="M240.752 78.9601C242.178 83.7551 237.435 81.835 237.97 86.4524C235.384 87.4257 236.404 91.9821 230.617 92.2208C228.46 89.7119 228.333 85.8026 226.974 82.872C226.595 80.432 229.708 78.8858 225.914 73.8547C227.069 69.049 225.182 70.8498 224.125 70.6058C223.828 70.5369 223.619 69.6378 222.602 69.4124C223.325 68.5875 224.024 70.1629 224.125 70.208C224.202 70.2425 224.175 69.9269 224.258 69.9428C226.335 70.3194 224.66 69.7943 225.185 69.2798C228.439 71.6561 224.594 73.6107 227.106 74.5177C229.419 80.196 226.756 80.5593 227.239 82.872C228.354 84.4314 228.338 86.5134 228.961 88.3089C230.265 92.067 230.453 88.8128 233.134 88.9056C233.373 87.5 234.549 87.1154 235.784 87.8447V87.0491C235.93 87.012 236.12 87.2851 236.314 87.1817C238.195 86.1765 237.358 85.4393 237.837 83.6676C238.269 83.0921 239.795 82.3628 239.891 82.2753C241.322 80.9916 240.092 79.1935 240.752 78.9601Z" fill="#20222E"/>
<path d="M242.081 65.1694L241.551 65.302C239.73 63.1909 239.418 62.2468 238.106 59.8651C238.037 59.2286 236.204 56.4067 236.715 56.0195C238.556 58.2765 239.253 60.2974 239.961 61.5227C240.705 62.809 241.031 62.878 242.081 65.1694Z" fill="#20222E"/>
<path d="M246.187 64.506C246.155 64.5219 245.895 64.9515 245.723 65.0364C241.934 66.9247 242.477 66.0389 242.079 65.169C241.03 62.8776 240.704 62.8086 239.96 61.5223C239.252 60.297 238.555 58.2761 236.714 56.0191C236.202 56.4063 238.036 59.2282 238.105 59.8647C238.089 59.8355 237.782 59.9337 237.707 59.7984C237.636 59.6658 237.848 59.5465 237.84 59.5332C237.352 58.6341 235.59 56.1358 236.78 55.7539C237.514 56.8254 238.807 58.239 239.43 59.268C239.591 59.5359 239.856 60.8142 239.96 60.9919C240.466 61.875 241.905 63.1242 242.676 65.9646L246.187 64.506Z" fill="#20222E"/>
<path d="M221.279 44.0841C220.783 44.5933 219.721 44.5403 219.622 44.4819C219.464 44.3891 219.776 43.9807 219.159 43.8189C219.185 43.4184 218.971 43.3097 219.026 43.2222C219.093 43.1187 219.903 43.1665 219.821 42.8243C219.8 42.7342 217.982 42.278 219.622 41.9624C220.969 41.7051 220.266 43.0365 221.676 43.4874C221.769 43.8587 221.453 43.9064 221.279 44.0841Z" fill="#20222E"/>
<path d="M228.697 50.1846C228.819 50.2536 229.304 50.2934 229.359 50.3835C230.001 52.9932 228.835 51.3489 228.697 51.9748C228.66 52.1472 229.195 52.85 228.763 52.9694C228.424 53.0622 227.335 51.8873 226.776 52.0411C226.103 51.4921 229.314 52.553 228.432 50.8477C227.87 49.7629 226.8 50.6222 226.18 48.4607C226.447 48.3891 226.386 48.3653 226.445 48.3281C226.649 48.7313 228.344 50.2244 228.498 50.3172C228.668 50.4207 228.686 50.1793 228.697 50.1846Z" fill="#20222E"/>
<path d="M226.182 48.4608C226.802 50.6223 227.873 49.763 228.434 50.8477C225.915 50.1953 226.437 48.856 225.851 48.726C224.667 48.9806 223.453 49.6702 222.274 49.5216C221.898 49.6887 222.308 50.2881 221.015 50.3173C221.042 50.2271 220.931 50.1767 220.883 50.1184C222.87 48.4634 223.313 49.214 223.599 49.1238C225.35 47.9701 226.036 48.5006 226.182 48.4608Z" fill="#20222E"/>
<path d="M220.083 48.7285C220.065 48.7656 220.15 48.946 219.885 49.1263L216.904 48.9274C216.994 53.5872 217.378 50.7866 218.56 52.8393C219.323 51.8793 220.261 52.842 220.613 50.6513L221.011 50.3198C220.658 51.492 221.273 52.0861 218.758 53.0382C220.139 54.1919 221.043 52.6351 221.209 52.5741C221.408 52.4999 225.173 52.2506 225.449 52.3089C227.333 52.7014 225.857 54.0381 227.039 54.8284C228.448 54.6428 230.942 57.3692 231.013 54.961C233.372 55.5021 235.083 55.6665 237.505 55.3589C238.393 53.2504 238.533 52.1869 235.915 52.9719C234.943 51.874 232.701 53.8339 234.127 52.11C233.801 51.5663 232.558 49.365 232.139 51.0491C232.132 51.0783 232.524 51.3037 232.404 51.5796C232.367 51.6644 231.882 51.7732 231.875 51.8448C231.867 51.9137 232.911 52.3964 232.537 52.9056C231.89 53.7888 231.403 52.049 231.345 51.9774C230.634 51.1128 229.222 50.0201 230.152 50.0546L231.543 51.7785C232.354 49.0282 233.642 50.1501 234.458 52.3089C235.351 52.4283 237.826 52.1153 238.168 52.5741C238.631 53.1947 238.138 55.9423 236.776 55.7567C235.587 56.1386 237.349 58.6369 237.836 59.536C237.844 59.5492 237.632 59.6686 237.704 59.8012C237.778 59.9365 238.085 59.8383 238.101 59.8675C239.413 62.2491 239.726 63.1933 241.546 65.3044C241.816 65.6173 242.5 66.9275 242.805 67.0283C243.634 67.2988 246.109 65.7818 246.05 67.3598C246.045 67.4898 245.171 69.4656 244.991 69.7467C243.382 72.2663 238.674 74.0591 240.751 78.9629C240.091 79.1963 241.321 80.9945 239.89 82.2781C239.794 82.3656 238.268 83.095 237.836 83.6705C237.357 85.4421 238.194 86.1794 236.313 87.1846C236.119 87.288 235.929 87.0148 235.783 87.052V87.8476C234.548 87.1183 233.372 87.5028 233.133 88.9085C230.452 88.8156 230.263 92.0698 228.96 88.3117C228.337 86.5162 228.353 84.4343 227.238 82.8748C226.755 80.5622 229.418 80.1988 227.105 74.5206C224.593 73.6136 228.438 71.6589 225.184 69.2826C224.659 69.7971 226.334 70.3222 224.257 69.9456C224.174 69.9297 224.201 70.2453 224.124 70.2109C224.023 70.1658 223.324 68.5904 222.601 69.4152C222.383 69.3675 222.163 69.325 222.004 69.15C221.088 70.8818 219.058 69.8767 217.102 70.3435C216.795 70.2612 214.458 68.2695 214.121 67.8902C214.031 67.7895 213.955 67.2192 213.857 67.0946C213.316 66.4077 212.161 66.2539 212.399 64.7077C213.721 63.4638 212.553 62.1669 212.532 60.7295C212.712 60.4457 213.006 60.6181 213.194 60.3316C215.605 56.6611 216.347 57.8678 216.374 55.2926C218.101 54.1601 219.739 52.1445 216.506 52.5078C217.51 47.5297 214.771 49.0998 220.083 48.7285Z" fill="#20222E"/>
<path d="M230.351 71.1387L230.55 71.205L230.351 71.4039L230.285 71.3376L230.351 71.1387Z" fill="#20222E"/>
<path d="M230.155 49.9207V50.0533C229.225 50.0188 230.638 51.1115 231.348 51.9761C231.406 52.0477 231.894 53.7875 232.54 52.9043C232.914 52.3951 231.87 51.9124 231.878 51.8435C231.886 51.7718 232.371 51.6631 232.408 51.5782C232.527 51.3024 232.135 51.077 232.143 51.0478C232.561 49.3637 233.804 51.565 234.13 52.1087C232.704 53.8326 234.946 51.8726 235.919 52.9706C238.536 52.1856 238.396 53.2491 237.508 55.3575C235.087 55.6652 233.375 55.5008 231.017 54.9597C230.945 57.3679 228.452 54.6415 227.042 54.8271C225.86 54.0368 227.336 52.7001 225.452 52.3076C225.177 52.2492 221.411 52.4985 221.213 52.5728C221.046 52.6338 220.142 54.1906 218.762 53.0369C221.276 52.0848 220.662 51.4907 221.014 50.3185C222.307 50.2893 221.896 49.6899 222.273 49.5228C223.452 49.6713 224.665 48.9818 225.85 48.7272C226.435 48.8571 225.913 50.1965 228.433 50.8489C229.315 52.5542 226.104 51.4934 226.777 52.0424C227.336 51.8885 228.425 53.0634 228.764 52.9706C229.196 52.8513 228.661 52.1484 228.698 51.9761C228.836 51.3502 230.002 52.9945 229.361 50.3848C229.305 50.2946 228.82 50.2548 228.698 50.1859C228.277 49.7377 225.754 47.7326 227.44 48.0642C227.572 48.0907 228.144 49.0746 228.499 49.2576C229.26 49.6501 230.238 49.308 230.155 49.9207Z" fill="#20222E"/>
<path d="M225.584 49.9199C225.887 49.9173 226.059 51.3388 225.85 51.5112C225.2 52.0522 224.982 49.9252 225.584 49.9199Z" fill="#20222E"/>
<path d="M235.918 53.5023C237.244 53.3856 237.199 53.8232 235.918 53.7675V53.5023Z" fill="#20222E"/>
<path d="M232.609 53.3683C232.991 53.233 233.497 53.9703 232.741 53.7661C232.617 53.7316 232.439 53.4293 232.609 53.3683Z" fill="#20222E"/>
<path d="M245.394 33.3437C253.823 42.8754 257.618 53.6723 257.053 66.4954C256.82 66.2594 256.033 64.9386 255.993 64.8378C255.935 64.6867 256.131 64.5859 256.126 64.5726C255.795 63.716 255.495 62.7241 255.066 61.9205C254.748 61.3237 253.46 59.3877 254.006 60.9259C252.297 58.7909 252.114 60.552 248.177 59.202C248.155 59.1941 248.254 58.9899 247.978 58.8042C245.93 59.5839 243.341 54.3645 244.202 57.5444C244.597 58.9978 246.841 60.9312 247.912 59.4672L249.899 60.727C249.29 62.2096 248.463 64.2862 246.521 64.1085C246.325 64.2252 246.213 64.493 246.189 64.5063L242.679 65.965C241.907 63.1245 240.469 61.8754 239.963 60.9922C239.859 60.8145 239.594 59.5362 239.433 59.2683C238.81 58.2393 237.517 56.8257 236.783 55.7542C238.145 55.9399 238.638 53.1923 238.174 52.5717C237.832 52.1129 235.357 52.4258 234.464 52.3065C233.648 50.1476 232.361 49.0258 231.55 51.776L230.159 50.0521V49.9195L230.357 50.0521C230.485 49.4289 230.077 48.978 229.43 49.2565C229.332 48.559 228.969 48.7314 228.37 48.7261C226.902 46.615 226.658 48.1983 226.449 48.3283C226.391 48.3654 226.449 48.3892 226.184 48.4609C226.038 48.5006 225.352 47.9702 223.601 49.1239C223.314 49.2141 222.872 48.4635 220.885 50.1184C220.932 50.1768 221.044 50.2272 221.017 50.3174L220.62 50.6489C220.267 52.8395 219.329 51.8768 218.566 52.8369C217.384 50.7841 217 53.5848 216.91 48.925L219.891 49.1239C220.156 48.9435 220.071 48.7632 220.09 48.7261C220.917 47.0446 218.757 46.0448 218.765 45.875C219.258 45.2252 219.716 46.058 221.415 44.9468C221.06 44.5993 217.763 45.5382 218.632 44.2837C219.075 43.6446 219.091 44.9282 219.162 43.8196C219.78 43.9814 219.467 44.3898 219.626 44.4826C219.724 44.541 220.787 44.594 221.282 44.0848C222.104 44.6046 222.602 43.4669 222.673 43.4218C222.981 43.2229 223.418 43.321 223.468 43.2892C223.813 43.077 223.889 42.4431 224.263 42.3609C224.313 42.3503 225.079 42.6765 225.257 42.4272C225.728 41.7642 224.152 41.4115 224.859 39.6425C222.859 39.4887 222.816 36.2 224.263 36.924C225.426 35.7491 228.548 33.272 227.112 33.0121C228.463 32.6302 228.924 31.3333 229.562 32.2828C229.817 31.5906 230.042 32.0574 230.225 32.0176C231.682 31.694 233.089 30.5324 234.332 32.2828C239.237 32.9591 239.939 35.8128 234.796 34.073C236.245 35.171 235.71 36.139 236.385 35.6643C236.399 35.6537 236.094 35.3805 236.319 35.3328C236.441 35.3062 238.089 37.2476 237.512 35.2002C239.592 36.5342 237.506 33.1633 239.896 34.6697C239.973 33.8794 240.797 34.4363 240.956 34.4045C241.065 34.3833 241.788 33.577 242.546 34.0067C243.68 31.3837 242.501 34.3117 245.394 33.3437Z" fill="#20222E"/>
<path d="M248.176 59.2007C248.014 59.1954 247.974 59.3811 247.911 59.4659C246.84 60.9299 244.596 58.9965 244.201 57.5431C243.34 54.3632 245.929 59.5826 247.977 58.8029C248.253 58.9885 248.155 59.1927 248.176 59.2007Z" fill="#20222E"/>
<path d="M244.664 47.0025C244.884 46.8699 245.57 48.0633 245.525 48.1296C245.406 48.3073 244.296 47.9625 244.465 48.7927C244.537 49.148 245.716 49.5167 245.79 49.7209C245.912 50.0551 245.626 50.437 245.658 50.5166C245.681 50.5775 246.943 50.8772 245.658 51.1796C248.482 53.3146 242.499 53.2615 244.465 50.5166C242.518 48.8696 241.927 48.0527 244.664 47.0025Z" fill="#20222E"/>
<path d="M235.525 47.4004C236.712 49.1747 237.064 47.3314 240.493 49.9862C239.015 51.2725 237.894 48.8299 236.32 50.4504C233.024 49.9571 234.457 49.5141 235.525 47.4004Z" fill="#20222E"/>
<path d="M255.796 61.7209C256.565 61.6254 257.269 64.7364 256.724 65.4339C256.49 64.8982 255.036 61.8164 255.796 61.7209Z" fill="#20222E"/>
<path d="M230.159 49.9198C230.241 49.3072 229.263 49.6493 228.503 49.2568C228.148 49.0738 227.575 48.0899 227.443 48.0633C225.758 47.7318 228.28 49.7368 228.701 50.1851C228.691 50.1797 228.672 50.4211 228.503 50.3177C228.349 50.2248 226.653 48.7317 226.449 48.3286C226.659 48.1986 226.902 46.6153 228.37 48.7264C228.969 48.7317 229.332 48.5593 229.43 49.2568C230.077 48.9783 230.485 49.4292 230.358 50.0524L230.159 49.9198Z" fill="#20222E"/>
<path d="M237.383 47.2668C237.431 47.2483 238.323 47.4472 238.376 47.5984C238.763 48.6698 236.143 47.7469 237.383 47.2668Z" fill="#20222E"/>
<path d="M225.92 41.6972C225.939 41.7211 226.45 41.3975 226.45 41.3657C226.463 40.9652 225.554 41.2278 225.92 41.6972C224.651 40.8061 226.196 40.753 226.052 40.3048C223.715 39.3262 225.92 38.9628 226.582 40.0396C226.908 40.57 226.561 40.8008 226.582 40.8353C226.662 40.9705 226.93 40.7212 227.245 41.2994C226.704 41.6017 226.93 41.6442 227.377 41.432C227.396 41.424 227.324 41.2145 227.444 41.1668C227.772 41.0342 228.056 41.5142 228.305 41.1005C227.764 40.395 229.479 38.6128 229.497 38.4483C229.563 37.8463 228.061 38.2202 229.1 36.7244C229.237 36.5255 231.5 34.2447 231.484 35.2658C231.482 35.5098 230.268 36.7748 229.762 36.7244C230.215 37.406 230.541 38.5465 231.418 38.5146C231.662 38.5067 232.502 37.6394 234.267 38.4483C233.58 39.2572 232.377 38.4563 231.551 38.9124C230.605 39.4349 233.615 41.4505 231.021 39.9733C230.679 41.981 227.282 42.652 225.92 41.6972Z" fill="#20222E"/>
<path d="M227.246 41.2988C227.262 41.3253 227.217 41.4447 227.379 41.4314C226.931 41.6436 226.705 41.6012 227.246 41.2988Z" fill="#20222E"/>
<path d="M225.923 41.696C225.557 41.2265 226.466 40.964 226.453 41.3644C226.453 41.3963 225.941 41.7198 225.923 41.696Z" fill="#20222E"/>
<path d="M229.036 40.7678C229.378 40.5874 229.418 41.0038 229.168 41.033C229.153 41.033 228.901 40.8394 229.036 40.7678Z" fill="#20222E"/>
</g>
<path d="M345.26 140.289L344.998 30.0753M344.998 30.0753H359.233M344.998 30.0753H331.212M397.863 30.0753H359.233M292.656 30.0753H331.212M331.212 30.0753V140.289M359.233 30.0753V140.289M292.656 16.7749H345.633H397.863M345.633 3.47461H292.656H397.863H345.633Z" stroke="#20222E" stroke-width="5.08103"/>
<path d="M376.133 182.325V152.355H386.259C388.601 152.355 390.522 152.755 392.025 153.555C393.527 154.346 394.639 155.433 395.361 156.819C396.083 158.204 396.444 159.78 396.444 161.545C396.444 163.311 396.083 164.877 395.361 166.243C394.639 167.608 393.532 168.682 392.039 169.462C390.547 170.233 388.64 170.618 386.318 170.618H378.123V167.34H386.201C387.801 167.34 389.088 167.106 390.064 166.638C391.049 166.169 391.761 165.506 392.2 164.648C392.649 163.779 392.874 162.745 392.874 161.545C392.874 160.345 392.649 159.297 392.2 158.399C391.752 157.502 391.035 156.809 390.049 156.321C389.064 155.824 387.762 155.575 386.142 155.575H379.762V182.325H376.133ZM390.24 168.862L397.615 182.325H393.4L386.142 168.862H390.24Z" fill="#20222E"/>
<path d="M345.809 182.325H342.004L353.008 152.355H356.754L367.759 182.325H363.954L354.998 157.097H354.764L345.809 182.325ZM347.213 170.618H362.549V173.837H347.213V170.618Z" fill="#20222E"/>
<path d="M333.63 161.486H330.001C329.787 160.442 329.411 159.525 328.875 158.735C328.348 157.945 327.704 157.281 326.943 156.745C326.192 156.199 325.358 155.789 324.441 155.516C323.524 155.242 322.568 155.106 321.572 155.106C319.758 155.106 318.114 155.564 316.641 156.481C315.178 157.398 314.012 158.75 313.144 160.535C312.285 162.32 311.856 164.51 311.856 167.105C311.856 169.7 312.285 171.891 313.144 173.676C314.012 175.461 315.178 176.812 316.641 177.729C318.114 178.646 319.758 179.105 321.572 179.105C322.568 179.105 323.524 178.968 324.441 178.695C325.358 178.422 326.192 178.017 326.943 177.481C327.704 176.934 328.348 176.266 328.875 175.476C329.411 174.676 329.787 173.759 330.001 172.725H333.63C333.357 174.256 332.86 175.627 332.138 176.837C331.416 178.046 330.518 179.076 329.445 179.924C328.372 180.763 327.167 181.402 325.831 181.841C324.504 182.28 323.085 182.5 321.572 182.5C319.016 182.5 316.743 181.875 314.753 180.627C312.763 179.378 311.197 177.602 310.056 175.3C308.914 172.998 308.344 170.266 308.344 167.105C308.344 163.945 308.914 161.213 310.056 158.911C311.197 156.608 312.763 154.833 314.753 153.584C316.743 152.335 319.016 151.711 321.572 151.711C323.085 151.711 324.504 151.93 325.831 152.369C327.167 152.808 328.372 153.452 329.445 154.301C330.518 155.14 331.416 156.164 332.138 157.374C332.86 158.574 333.357 159.945 333.63 161.486Z" fill="#20222E"/>
<path d="M325.905 31.7931H324C323.979 31.7931 323.963 31.7764 323.963 31.7558C323.963 31.7351 323.979 31.7184 324 31.7184H325.532H327.997C329.896 31.7184 331.435 33.2573 331.435 35.1556V37.6214C331.435 38.1578 331 38.5927 330.463 38.5927C329.927 38.5927 329.492 38.1578 329.492 37.6214V35.3797C329.492 33.3989 327.886 31.7931 325.905 31.7931Z" stroke="#20222E" stroke-width="1.64386"/>
<path d="M364.573 31.7931H366.516C366.536 31.7931 366.553 31.7764 366.553 31.7558C366.553 31.7351 366.536 31.7184 366.516 31.7184H364.984H362.518C360.62 31.7184 359.081 33.2573 359.081 35.1556V37.6587C359.081 38.1746 359.499 38.5927 360.015 38.5927C360.531 38.5927 360.949 38.1746 360.949 37.6587V35.4171C360.949 33.4156 362.571 31.7931 364.573 31.7931Z" stroke="#20222E" stroke-width="1.64386"/>
</svg>
