<svg width="71" height="136" viewBox="0 0 71 136" fill="none" xmlns="http://www.w3.org/2000/svg">
<path d="M62.5263 0.291345L60.4841 2.16028C58.0357 1.65578 17.4905 2.5463 10.5057 2.16028C9.43284 2.51572 8.72401 3.2763 8.20675 4.28529C8.6014 10.5495 7.62053 50.4775 8.37534 52.7821L6.16072 54.3109C5.33311 50.4698 6.44042 10.4157 5.99214 2.41636C6.40594 1.15129 7.18757 0.685009 8.29105 0.123181C16.3258 0.513021 59.1967 -0.453936 62.5301 0.291345H62.5263Z" fill="#096AFB"/>
<path d="M38.345 60.0816H32.3831C32.3678 59.6077 32.4712 56.9782 32.2988 56.8559C27.4749 56.5616 11.1526 57.2457 8.80008 56.8559C7.34027 56.6151 6.45135 55.6596 6.16016 54.3067L8.37478 52.7779C8.64298 53.5958 9.71581 54.3869 10.5051 54.6468C17.739 54.2837 57.9509 55.1207 60.3992 54.6468C61.1349 54.5054 62.5334 53.2747 62.6981 52.5218C63.2192 50.1675 62.2997 10.8892 62.6981 4.28105C62.5449 3.56253 61.1579 2.29746 60.4835 2.15605L62.5257 0.287109C63.6943 0.550824 64.6752 1.31139 64.9089 2.58028C65.3994 5.24037 64.5373 46.8768 64.9089 54.5589C64.338 55.7934 63.5028 56.6381 62.1004 56.8521C59.426 57.261 43.4447 56.5463 38.4293 56.8521C38.2568 56.9744 38.3603 59.6039 38.345 60.0778V60.0816Z" fill="#0E63E3"/>
<path d="M32.8105 56.6835C33.5193 57.0313 39.2513 56.1599 38.1746 57.6161C38.0137 57.8301 33.0289 57.8568 32.8105 57.7001C32.6725 57.6008 32.6725 56.7791 32.8105 56.6797V56.6835Z" fill="#055C98"/>
<path d="M35.4481 116.984C35.1263 116.896 34.4749 117.435 34.2565 116.9C33.3101 114.561 34.6282 72.7184 34.0879 66.4504C33.8695 65.9879 33.3331 66.3395 33.2373 66.6185C32.4289 69.0149 33.8619 110.797 33.2373 117.152C33.0151 116.694 32.7545 116.415 32.7277 116.304C32.107 113.716 32.5668 70.7042 32.3867 63.1367L35.4519 63.3928V116.984H35.4481Z" fill="#D1EAF5"/>
<path d="M38.3447 60.0801C37.7201 79.9351 38.6703 100.004 38.5133 119.871C38.4864 119.894 38.0496 120.326 38.0037 120.379C37.54 119.771 37.3753 118.885 36.8121 118.342L36.9806 62.0331L32.5514 61.949C32.5361 61.3719 32.3981 60.6992 32.3828 60.0801H38.3447Z" fill="#096AFB"/>
<path d="M36.8113 118.346C36.7577 118.293 35.7346 117.715 35.4473 117.666V63.3939L32.3821 63.1378C32.3514 61.8498 32.5545 62.0104 32.5506 61.9492L36.9799 62.0333L36.8113 118.342V118.346Z" fill="#B2DCED"/>
<path d="M35.4456 116.985V117.493C34.6678 117.356 34.2808 117.161 33.572 117.661C33.5567 117.635 33.4992 117.703 33.231 117.153C33.8555 110.793 32.4225 69.0117 33.231 66.6192C33.3268 66.3402 33.8632 65.9885 34.0816 66.451C34.6257 72.719 33.3076 114.562 34.2502 116.901C34.4686 117.44 35.1199 116.901 35.4418 116.985H35.4456Z" fill="white"/>
<path d="M43.9629 134.144C48.8826 134.152 53.8482 134.286 58.7794 134.313C58.8905 134.313 59.0093 134.313 59.1204 134.313L58.6951 134.653C60.2315 134.886 70.1054 134.347 70.615 134.653C70.7529 134.733 70.7529 135.081 70.615 135.161H0.45593C-0.567087 134.095 6.5902 134.974 9.05387 134.565L0.199219 134.481C0.532561 134.19 7.98104 134.152 9.05387 134.141C20.6557 134.041 32.3534 134.121 43.9629 134.141V134.144Z" fill="#665E3E"/>
<path d="M0.198867 134.484L9.05352 134.568C6.58985 134.977 -0.571271 134.094 0.455578 135.164H70.6146C70.7526 135.084 70.7526 134.736 70.6146 134.656C70.1012 134.35 60.2274 134.889 58.6947 134.656L59.1201 134.315C60.7446 134.327 70.0705 134.132 70.6146 134.315C71.0629 134.464 71.0936 135.019 70.7832 135.336H0.283161C-0.0195298 135.103 -0.126813 134.77 0.198867 134.487V134.484Z" fill="#594D39"/>
<path d="M58.7822 134.311C53.851 134.285 48.8892 134.151 43.9657 134.143C45.801 130.826 43.0921 128.548 39.8774 128.028C39.8544 127.925 38.7854 127.619 39.5364 126.243C39.6207 126.09 41.9848 125.146 39.7931 123.61C39.2031 123.197 38.2988 123.258 37.6628 122.93C37.1647 122.268 39.0077 121.615 39.4521 121.741C39.751 121.825 40.3066 122.945 40.4751 122.93C40.7165 122.911 42.5212 119.601 43.8814 123.27C45.1113 121.47 48.5022 124.252 47.7129 125.731C50.2532 126.067 49.3375 127.936 49.5022 128.024C50.4371 127.677 54.9736 130.684 52.1421 128.28C53.0502 124.802 50.0923 126.557 49.9275 126.411C49.2762 125.842 50.3183 121.802 47.6286 122.59C47.2684 119.975 44.8354 119.245 42.6898 120.552C40.0882 117.911 39.1916 120.942 38.9425 121.061C38.8621 121.099 38.2529 120.652 37.8352 120.721C37.8812 120.656 37.977 120.415 38.0038 120.38C38.0536 120.327 38.4866 119.895 38.5134 119.872C39.4023 119.146 40.4292 118.691 41.4943 119.364C41.2491 114.204 52.3031 115.683 50.2647 121.657C55.0043 119.983 54.0196 124.749 54.1805 125.055C54.238 125.162 55.9124 125.341 54.8625 126.924C57.3568 128.158 55.5292 128.521 55.7131 128.961C55.8511 129.286 60.2113 129.782 58.7783 134.311H58.7822Z" fill="#ECE8E8"/>
<path d="M37.667 122.933C37.4869 122.841 36.8126 122.344 36.8164 122.169C37.4678 121.71 37.5597 121.125 37.8394 120.724C38.2571 120.655 38.8663 121.102 38.9467 121.064C39.1958 120.946 40.0924 117.915 42.694 120.556C44.8396 119.249 47.2726 119.983 47.6328 122.593C50.3225 121.806 49.2804 125.845 49.9317 126.415C50.0965 126.56 53.0544 124.806 52.1463 128.284C54.9778 130.688 50.4413 127.68 49.5064 128.028C49.3455 127.94 50.2574 126.071 47.7171 125.735C48.5064 124.255 45.1155 121.469 43.8856 123.273C42.5254 119.608 40.7207 122.914 40.4794 122.933C40.3108 122.945 39.7552 121.829 39.4563 121.744C39.0119 121.618 37.1689 122.272 37.667 122.933Z" fill="#CFD1C1"/>
<path d="M32.7236 116.307C32.7504 116.418 33.0109 116.697 33.2332 117.156C33.5014 117.706 33.5588 117.637 33.5742 117.664C33.6623 117.821 33.4209 118.321 33.8309 118.512C34.3366 117.974 34.6508 117.53 35.4478 117.664C35.7351 117.714 36.7543 118.291 36.8118 118.344C37.375 118.887 37.5398 119.774 38.0034 120.381C37.9728 120.416 37.877 120.657 37.8348 120.722C37.559 121.123 37.4632 121.708 36.8118 122.166C36.8118 122.342 37.4823 122.839 37.6624 122.931C38.2946 123.259 39.2027 123.198 39.7927 123.611C41.9844 125.147 39.6203 126.091 39.536 126.244C38.785 127.616 39.854 127.926 39.877 128.029C40.651 131.778 39.7774 128.56 37.6624 127.773C38.4824 125.396 36.4593 124.899 36.2984 124.547C36.2371 124.414 37.1835 123.584 35.1068 122.17C36.9996 118.841 34.3443 119.181 31.7849 119.197C31.3596 115.849 29.8729 117.224 28.7196 119.365C25.6429 115.482 25.7387 119.426 25.5701 119.621C25.413 119.797 23.5164 119.468 23.8689 121.658C23.8153 121.773 22.4896 121.608 23.1869 123.695C21.6007 123.286 20.0795 124.979 20.888 126.497C17.3707 125.541 16.9607 122.934 20.9723 122.931C21.1294 122.965 21.321 122.912 21.4819 122.931C22.4244 124.333 22.1256 121.757 23.5241 120.978C20.7117 115.229 27.7886 116.808 28.2062 116.647C28.3556 116.59 28.7924 115.742 28.4629 115.627C28.7579 115.55 29.9917 113.899 32.7197 116.307H32.7236Z" fill="#ECE8E8"/>
<path d="M21.4867 122.935C21.0844 122.335 21.0422 121.203 21.1457 120.473C21.8124 115.795 27.119 116.246 27.5328 116.143C27.6248 116.12 28.1344 115.719 28.4677 115.635C28.7972 115.746 28.3605 116.598 28.211 116.655C27.7934 116.816 20.7166 115.241 23.5289 120.986C22.1266 121.765 22.4293 124.341 21.4867 122.939V122.935Z" fill="#CFD1C1"/>
<path d="M39.8766 128.029C43.0874 128.549 45.8001 130.827 43.9648 134.144C32.3553 134.125 20.6576 134.045 9.05579 134.144C8.16687 130.987 10.7723 129.412 13.6536 129.302C12.052 127.417 13.9333 127.295 13.9946 125.396C14.987 124.123 15.7801 124.165 17.3165 124.291C17.148 122.388 19.6308 122.648 20.9795 122.93C16.9679 122.934 17.3779 125.541 20.8952 126.496C20.0867 124.979 21.6079 123.282 23.1941 123.695C22.4968 121.608 23.8225 121.772 23.8761 121.658C23.5275 119.468 25.4241 119.796 25.5773 119.621C25.7459 119.429 25.6539 115.481 28.7268 119.365C29.8801 117.22 31.3668 115.848 31.7921 119.196C34.3515 119.181 37.0068 118.841 35.114 122.17C37.1907 123.584 36.2443 124.413 36.3056 124.547C36.4665 124.903 38.4857 125.396 37.6696 127.773C39.7846 128.56 40.6544 131.778 39.8842 128.029H39.8766Z" fill="#ECE8E8"/>
<path d="M26.5109 125.48C27.2121 125.319 29.2734 125.476 29.5761 126.16C30.055 126.206 31.4957 124.368 32.557 127.265C28.8328 125.239 30.1164 129.241 30.0014 129.474C29.9631 129.55 29.0857 129.825 28.9784 129.642C28.8673 129.455 28.5186 126.328 26.1699 128.877C22.9936 127.142 23.9553 130.295 23.871 130.49C23.7637 130.746 23.3346 130.253 22.9361 130.406C22.8173 130.452 21.8747 132.642 21.3192 131.002C21.005 130.081 22.3805 128.759 23.2771 129.39C23.5491 127.586 24.7216 127.784 24.8097 127.693C25.143 127.326 25.0741 125.812 26.5109 125.484V125.48Z" fill="#CFD1C1"/>
<path d="M35.4517 117.495V117.663C34.6548 117.529 34.3406 117.972 33.8348 118.511C33.4249 118.32 33.6663 117.816 33.5781 117.663C34.287 117.162 34.6739 117.353 35.4517 117.495Z" fill="#CFD1C1"/>
<path d="M60.4777 2.15924C61.152 2.29683 62.5352 3.56572 62.6923 4.28425C62.2938 10.8924 63.2134 50.1707 62.6923 52.525C62.5275 53.2779 61.129 54.5048 60.3934 54.65C57.945 55.1239 17.7332 54.2869 10.4993 54.65C9.70999 54.3901 8.641 53.599 8.36896 52.7811C7.61415 50.4764 8.59502 10.5484 8.20037 4.28425C8.71762 3.27525 9.42646 2.5185 10.4993 2.15924C17.4842 2.54525 58.0332 1.65474 60.4777 2.15924Z" fill="white"/>
<path d="M9.22649 51.758L20.8054 42.2451C20.8283 44.1676 20.7172 46.1015 20.8896 48.0201H27.7021L28.0431 33.9209C35.7981 33.5578 42.7485 35.8663 48.2237 28.9103C52.0514 24.0488 51.8484 17.7158 47.8827 13.0263L59.293 3.34524C60.0861 2.70315 61.5153 3.94146 61.6762 4.61795C62.2318 6.93023 61.2509 45.8148 61.6762 52.1784C61.3199 52.8281 60.6226 53.4817 59.8869 53.6231C57.5037 54.0855 18.6022 53.26 11.353 53.6231C10.3376 53.3976 9.30312 53.0001 9.22266 51.7542L9.22649 51.758Z" fill="#0E63E3"/>
<path d="M59.2832 3.34823L47.873 13.0292C41.6468 5.67198 29.4472 9.22258 20.7956 8.52698C20.8952 19.7635 20.6615 31.0116 20.7956 42.2443L9.21673 51.7571C9.72632 45.6726 8.55388 6.7192 9.21673 4.44895C9.23972 4.37251 10.2512 3.37498 10.324 3.34441C12.5846 2.41185 53.2754 3.58519 59.2832 3.34441V3.34823Z" fill="#096AFB"/>
<path d="M47.8779 13.0285C51.8435 17.7142 52.0466 24.0472 48.2189 28.9126C42.7437 35.8685 35.7933 33.5639 28.0383 33.9231L27.6973 48.0223H20.8848C20.7124 46.1037 20.8235 44.1698 20.8005 42.2474C20.6664 31.0146 20.9001 19.7666 20.8005 8.53006C29.4483 9.22566 41.6517 5.67506 47.8779 13.0323V13.0285Z" fill="white"/>
<path d="M42.5972 17.6155L31.1869 27.2965C31.026 27.2926 29.2903 27.7016 27.9531 27.3806L28.0374 15.0662C32.8536 15.7007 39.2868 13.2393 42.5972 17.6155Z" fill="#096AFB"/>
<path d="M31.1875 27.2963L42.5978 17.6152C45.7166 21.7391 43.2032 26.8758 38.2567 27.4682C35.9807 27.7396 33.4711 27.3689 31.1913 27.3001L31.1875 27.2963Z" fill="#0E63E3"/>
</svg>
