<svg width="152" height="152" viewBox="0 0 152 152" fill="none" xmlns="http://www.w3.org/2000/svg">
<mask id="mask0_246_3384" style="mask-type:luminance" maskUnits="userSpaceOnUse" x="-1" y="-14" width="153" height="177">
<path d="M151.633 132.499L112.379 -14L-0.634406 16.2818L38.6198 162.781L151.633 132.499Z" fill="white"/>
</mask>
<g mask="url(#mask0_246_3384)">
<path d="M100.786 78.9017C101.624 80.3804 102.899 81.3545 104.28 81.5722C104.864 81.6638 105.461 81.621 106.056 81.4437C108.022 80.8537 109.303 79.751 109.763 78.2522C110.251 76.6616 109.768 74.7119 108.503 73.1624C106.514 70.7276 102.06 72.0806 101.731 72.1837C101.053 72.6481 100.558 73.2633 100.258 74.0095C99.6836 75.4385 99.8853 77.3133 100.785 78.902L100.786 78.9017Z" fill="#EFEBEB" stroke="black" stroke-width="0.372549" stroke-miterlimit="10" stroke-linecap="round"/>
<path d="M96.2689 53.8244L94.7833 56.3318C94.7669 56.3602 94.739 56.4188 94.7053 56.4895C94.5314 56.8503 94.4335 57.0238 94.3333 57.0928C93.6558 58.2395 93.1069 59.2827 93.2163 60.4035C93.2632 60.887 93.4397 61.3945 93.7698 62.0036C94.5344 63.415 95.6729 64.5276 96.4922 65.2117C96.8287 65.4913 97.3914 65.5435 97.8444 65.5845L97.9369 65.5928C99.0175 65.6926 100.111 65.5425 101.1 65.1588C101.421 65.0336 101.585 64.8333 101.794 64.5804C101.853 64.5089 101.914 64.4339 101.982 64.357C102.391 63.8957 102.717 63.5183 103.009 63.1678C104.213 61.7283 105.534 59.9821 106.196 57.9465C106.517 56.9583 106.42 55.956 105.906 54.9678C104.938 53.1072 102.75 51.7885 101.794 51.496C101.67 51.4586 101.537 51.4475 101.435 51.4418C100.186 51.3705 98.8324 51.9453 97.6362 52.4522L97.3606 52.5682C97.2997 52.5935 97.2325 52.6175 97.1624 52.6423C97.0143 52.6955 96.862 52.7499 96.7604 52.8252C96.7113 52.8609 96.6808 52.8871 96.6701 52.9035C96.6701 52.9035 96.6627 52.9205 96.6555 52.9555C96.6477 52.9937 96.6376 53.04 96.6154 53.1031C96.5281 53.361 96.4134 53.5782 96.2661 53.8251L96.2689 53.8244Z" fill="#EFEBEB" stroke="black" stroke-width="0.372549" stroke-miterlimit="10" stroke-linecap="round"/>
<path d="M97.911 65.8897C97.9102 65.8885 97.9089 65.8877 97.9075 65.8876L97.8187 65.8791C97.3255 65.8339 96.7106 65.7776 96.304 65.4386C95.4637 64.7376 94.2965 63.5965 93.5105 62.1444C93.1618 61.4996 92.9751 60.9543 92.9237 60.4313C92.7937 59.1101 93.5496 57.8356 94.1005 56.9062L94.1185 56.876C94.1269 56.8621 94.1404 56.8519 94.1562 56.8477C94.1668 56.8448 94.1764 56.8395 94.1835 56.8311C94.2536 56.7472 94.3837 56.4801 94.441 56.3594C94.4795 56.2784 94.5115 56.2127 94.5314 56.1803L96.017 53.673C96.095 53.5407 95.951 53.4278 95.8329 53.5259L51.2932 90.5111C50.831 90.8949 50.4362 91.3532 50.1251 91.8671C49.2595 93.2969 49.1924 95.0245 49.5486 96.6576C49.5963 96.8761 49.6479 97.1243 49.7073 97.4161C49.7882 97.8131 49.9022 98.2034 50.0498 98.5808L50.8793 100.703C51.1383 100.917 53.2684 102.319 56.0381 105.115C58.7787 107.88 62.9764 112.437 67.4053 118.44C62.9883 112.453 59.1254 108.091 56.0381 105.115C53.0096 102.195 50.9293 100.743 50.9101 100.728L50.8793 100.703L50.0951 98.405C49.9834 98.0779 50.0846 98.106 49.9835 98.4366C49.507 99.8452 46.6342 102.876 46.512 103.004C46.5414 102.973 49.7283 99.5378 49.9835 98.4366C50.0183 98.2859 49.7746 98.016 49.7733 97.8148L49.7396 97.3638C49.5502 95.9442 48.5648 93.5742 48.2917 92.9814C47.7014 93.4267 45.548 94.9509 42.2815 94.3633C45.7232 94.9821 48.0124 93.2126 48.2917 92.9814L48.769 91.5507C49.6008 89.0572 49.6816 86.3743 49.0013 83.8353L45.9354 72.3934C45.773 71.7874 44.9013 71.0813 44.116 71.1189C43.5314 71.1477 43.1517 71.5877 43.0187 72.3931C42.5923 74.9595 36.4425 87.5417 34.0264 90.2909C32.4755 92.0551 33.3429 94.849 34.3467 98.0846C34.8823 99.8083 35.435 101.591 35.7197 103.461C36.0595 105.695 36.1351 108.199 35.9411 110.903C35.7517 113.551 36.1217 116.155 37.0393 118.643L42.5767 133.647L45.9935 142.813C48.3015 149.428 55.321 153.141 62.0876 151.328L82.2353 145.93C88.2686 144.313 93.1477 138.781 94.8309 132.766C95.1299 131.697 95.4675 130.522 95.8487 129.229C96.5682 126.792 97.2966 123.984 97.8379 121.65C94.2444 116.307 83.3252 112.419 83.2139 112.38C83.3238 112.42 94.0418 116.342 97.8379 121.65C98.8015 117.43 99.268 114.256 99.4895 112.322C99.7148 110.369 100.232 108.451 101.032 106.626L101.442 105.698C101.568 105.413 101.73 105.144 101.924 104.9L109.506 95.3646C109.73 95.0827 109.593 95.5909 109.422 95.2741C109.129 94.7362 108.463 94.4818 107.615 93.9769C105.757 92.8689 103.645 91.1287 103.602 88.9437C103.578 87.779 104.048 86.8184 104.998 86.0816C105.042 86.0478 105.007 85.9724 104.953 85.9867C104.927 85.9937 104.9 85.9781 104.893 85.952L104.203 83.3772C103.963 82.4796 103.252 81.7952 102.495 81.2556C101.773 80.7402 101.067 79.9925 100.533 79.0496C99.7244 77.6239 99.4565 75.9718 99.7782 74.5783C99.879 74.142 99.9791 73.6999 99.9867 73.2522C100.06 68.9418 100.45 66.8809 100.735 65.9392C100.781 65.7869 100.635 65.6357 100.481 65.6769C99.6544 65.8984 98.7804 65.972 97.9146 65.8918C97.9131 65.8917 97.9118 65.8909 97.911 65.8897Z" fill="#F2B87D"/>
<path d="M50.8793 100.703L50.0498 98.5808C49.9022 98.2034 49.7882 97.8131 49.7073 97.4161C49.6479 97.1243 49.5963 96.8761 49.5486 96.6576C49.1924 95.0245 49.2595 93.2969 50.1251 91.8671V91.8671C50.4362 91.3532 50.831 90.8949 51.2932 90.5111L95.8329 53.5259C95.951 53.4278 96.095 53.5407 96.017 53.673V53.673L94.5314 56.1803C94.5115 56.2127 94.4795 56.2784 94.441 56.3594C94.3837 56.4801 94.2536 56.7472 94.1835 56.8311C94.1764 56.8395 94.1668 56.8448 94.1562 56.8477V56.8477C94.1404 56.8519 94.1269 56.8621 94.1185 56.876L94.1005 56.9062C93.5497 57.8356 92.7937 59.1101 92.9237 60.4313C92.9751 60.9543 93.1618 61.4996 93.5105 62.1444C94.2965 63.5965 95.4637 64.7376 96.304 65.4386C96.7106 65.7776 97.3255 65.8339 97.8187 65.8791L97.9075 65.8876C97.9089 65.8877 97.9102 65.8885 97.911 65.8897V65.8897C97.9118 65.8909 97.9131 65.8917 97.9146 65.8918C98.7804 65.972 99.6544 65.8984 100.481 65.6769V65.6769C100.635 65.6357 100.781 65.7869 100.735 65.9392C100.45 66.8809 100.06 68.9418 99.9867 73.2522C99.9791 73.6999 99.879 74.142 99.7782 74.5783C99.4565 75.9718 99.7244 77.6239 100.533 79.0496C101.067 79.9925 101.773 80.7402 102.495 81.2556C103.252 81.7952 103.963 82.4796 104.203 83.3772L104.893 85.952C104.9 85.9781 104.927 85.9937 104.953 85.9867V85.9867C105.007 85.9724 105.042 86.0478 104.998 86.0816C104.048 86.8184 103.578 87.779 103.602 88.9437C103.645 91.1287 105.757 92.8689 107.615 93.9769C108.463 94.4818 109.129 94.7362 109.422 95.2741V95.2741C109.593 95.5909 109.73 95.0827 109.506 95.3646L101.924 104.9C101.73 105.144 101.568 105.413 101.442 105.698L101.032 106.626C100.232 108.451 99.7148 110.369 99.4895 112.322C99.268 114.256 98.8015 117.43 97.8379 121.65M50.8793 100.703C51.1383 100.917 53.2684 102.319 56.0381 105.115M50.8793 100.703L50.9101 100.728C50.9293 100.743 53.0096 102.195 56.0381 105.115M50.8793 100.703L50.0951 98.405C49.9834 98.0779 50.0846 98.106 49.9835 98.4366V98.4366M56.0381 105.115C58.7787 107.88 62.9764 112.437 67.4053 118.44C62.9883 112.453 59.1254 108.091 56.0381 105.115ZM49.9835 98.4366C49.507 99.8452 46.6342 102.876 46.512 103.004C46.5414 102.973 49.7283 99.5378 49.9835 98.4366ZM49.9835 98.4366C50.0183 98.2859 49.7745 98.016 49.7733 97.8148L49.7396 97.3638C49.5502 95.9442 48.5648 93.5742 48.2917 92.9814M48.2917 92.9814C47.7014 93.4267 45.548 94.9509 42.2815 94.3633C45.7232 94.9821 48.0124 93.2126 48.2917 92.9814ZM48.2917 92.9814L48.769 91.5507C49.6008 89.0572 49.6816 86.3743 49.0013 83.8353L45.9354 72.3934C45.773 71.7874 44.9013 71.0813 44.116 71.1189C43.5314 71.1477 43.1517 71.5877 43.0187 72.3931C42.5923 74.9595 36.4425 87.5417 34.0264 90.2909C32.4755 92.0551 33.3429 94.849 34.3467 98.0846C34.8823 99.8083 35.435 101.591 35.7197 103.461C36.0595 105.695 36.1351 108.199 35.9411 110.903C35.7517 113.551 36.1217 116.155 37.0393 118.643L42.5767 133.647L45.9935 142.813V142.813C48.3015 149.428 55.321 153.141 62.0876 151.328L82.2353 145.93C88.2686 144.313 93.1477 138.781 94.8309 132.766C95.1299 131.697 95.4675 130.522 95.8487 129.229C96.5682 126.792 97.2966 123.984 97.8379 121.65M97.8379 121.65C94.2444 116.307 83.3252 112.419 83.2139 112.38C83.3238 112.42 94.0418 116.342 97.8379 121.65Z" stroke="#D18346" stroke-width="0.372549" stroke-miterlimit="10" stroke-linecap="round"/>
<path d="M105.476 86.0967C104.401 86.7981 103.869 87.7539 103.891 88.9344C103.93 91.0272 105.354 93.499 107.134 94.56C107.8 94.9574 108.801 95.3221 109.797 94.8086C110.519 94.4365 111.115 93.6649 111.567 92.5124C113.193 88.3647 113.069 87.6957 111.71 86.1281C110.295 84.4956 108.892 84.6386 106.637 85.5103C106.231 85.6672 105.863 85.8485 105.543 86.0515L105.476 86.0967Z" fill="#EFEBEB" stroke="black" stroke-width="0.372549" stroke-miterlimit="10" stroke-linecap="round"/>
<path d="M82.7159 6.58279L107.017 97.277C107.103 97.5954 107.163 97.916 107.199 98.2356C107.207 98.3147 107.215 98.3953 107.22 98.472C107.25 98.873 107.24 99.2709 107.196 99.6616C107.189 99.7417 107.178 99.8229 107.166 99.9013C107.089 100.4 106.953 100.886 106.766 101.349C106.747 101.392 106.728 101.439 106.71 101.482C106.578 101.792 106.417 102.089 106.24 102.376C106.167 102.492 106.09 102.604 106.01 102.714C105.983 102.754 105.953 102.794 105.924 102.83C105.838 102.945 105.747 103.057 105.652 103.166C105.646 103.174 105.641 103.181 105.635 103.188C105.575 103.252 105.516 103.317 105.458 103.379C105.391 103.45 105.322 103.518 105.253 103.586C105.182 103.652 105.111 103.719 105.038 103.782C105.002 103.813 104.965 103.845 104.929 103.876C104.893 103.908 104.855 103.939 104.817 103.969C104.704 104.061 104.585 104.147 104.465 104.232C104.386 104.288 104.304 104.342 104.221 104.393C104.18 104.419 104.138 104.446 104.096 104.47C103.969 104.544 103.838 104.618 103.705 104.683C103.663 104.705 103.618 104.728 103.571 104.749C103.524 104.771 103.48 104.792 103.434 104.812C103.343 104.852 103.25 104.892 103.156 104.928C103.09 104.956 103.024 104.979 102.956 105.003C102.9 105.022 102.845 105.04 102.788 105.058C102.683 105.093 102.578 105.124 102.47 105.153L64.6587 115.284C64.5493 115.313 64.442 115.339 64.3338 115.362C64.2756 115.375 64.2187 115.387 64.1601 115.398C64.047 115.419 63.935 115.439 63.8194 115.456C63.8626 115.449 63.9054 115.441 63.9486 115.434C60.7564 115.915 57.6333 113.927 56.7786 110.737L32.4775 20.0441C31.5886 16.7267 33.4735 13.308 36.7062 12.2599L36.7104 12.2588C36.8141 12.225 36.9185 12.194 37.0265 12.165L74.8368 2.0338C74.9448 2.00486 75.0494 1.97985 75.1575 1.95689L75.1589 1.95652C75.2172 1.94391 75.274 1.93169 75.3327 1.92048C75.3885 1.91003 75.4461 1.90061 75.5033 1.88978C78.7089 1.38567 81.8571 3.37758 82.7155 6.58139L82.7159 6.58279Z" fill="#F4F4F4" stroke="#262626" stroke-width="0.372549" stroke-miterlimit="10"/>
<path d="M74.609 1.18381L36.7974 11.3154C32.895 12.3611 30.578 16.3721 31.6237 20.2745L55.9251 110.969C56.9707 114.871 60.9828 117.186 64.8852 116.141L102.697 106.009C106.599 104.963 108.916 100.952 107.871 97.0499L83.5691 6.35573C82.5235 2.45337 78.5114 0.13817 74.609 1.18381ZM106.239 102.379C106.166 102.495 106.09 102.607 106.009 102.717C105.983 102.758 105.953 102.797 105.923 102.834C105.837 102.949 105.746 103.06 105.651 103.17C105.646 103.177 105.64 103.185 105.634 103.191C105.575 103.255 105.516 103.32 105.457 103.383C105.39 103.453 105.321 103.521 105.252 103.589C105.181 103.655 105.11 103.722 105.037 103.785C105.002 103.816 104.964 103.848 104.929 103.879C104.892 103.911 104.854 103.943 104.817 103.972C104.703 104.064 104.585 104.15 104.465 104.235C104.385 104.291 104.303 104.346 104.221 104.396C104.18 104.422 104.137 104.449 104.096 104.474C103.968 104.547 103.837 104.621 103.705 104.687C103.662 104.708 103.617 104.731 103.57 104.753C103.524 104.774 103.48 104.795 103.434 104.815C103.343 104.856 103.249 104.896 103.155 104.931C103.089 104.96 103.023 104.982 102.956 105.006C102.899 105.026 102.844 105.043 102.787 105.062C102.682 105.096 102.578 105.127 102.47 105.156L64.6581 115.287C64.5487 115.317 64.4413 115.342 64.3332 115.365C64.2749 115.378 64.2181 115.39 64.1594 115.401C64.0463 115.423 63.9343 115.442 63.8187 115.46C63.8619 115.453 63.9047 115.444 63.948 115.437C60.7558 115.918 57.6326 113.93 56.7779 110.74L32.4765 20.046C31.5876 16.7285 33.4725 13.3098 36.7051 12.2617L36.7093 12.2606C36.813 12.2268 36.9175 12.1958 37.0255 12.1669L74.8358 2.03563C74.9438 2.00669 75.0484 1.98168 75.1565 1.95873L75.1579 1.95835C75.2161 1.94575 75.273 1.93352 75.3316 1.92232C75.3875 1.91187 75.4451 1.90244 75.5023 1.89162C78.7079 1.3875 81.856 3.37942 82.7145 6.58323L107.016 97.2774C107.101 97.5958 107.162 97.9164 107.198 98.236C107.205 98.3151 107.213 98.3957 107.219 98.4724C107.248 98.8735 107.239 99.2713 107.195 99.662C107.188 99.7421 107.176 99.8233 107.164 99.9017C107.087 100.4 106.952 100.886 106.765 101.35C106.746 101.392 106.727 101.44 106.708 101.482C106.577 101.793 106.416 102.09 106.238 102.376L106.239 102.379Z" fill="#F4F4F4" stroke="#262626" stroke-width="0.372549" stroke-miterlimit="10"/>
<path d="M59.2979 9.2367L53.76 10.7206C53.6229 10.7573 53.5415 10.8983 53.5782 11.0354L53.6151 11.1729C53.6518 11.31 53.7928 11.3914 53.9299 11.3546L59.4678 9.87073C59.6049 9.83398 59.6863 9.69304 59.6496 9.55592L59.6127 9.41845C59.576 9.28133 59.4351 9.19996 59.2979 9.2367Z" fill="white" stroke="#262626" stroke-width="0.372549" stroke-miterlimit="10"/>
<path d="M75.7377 4.40642L75.704 4.41544L75.652 4.42336C75.5909 4.43671 75.5362 4.45137 75.4843 4.46528L70.0292 5.92699C69.7205 6.02623 69.5341 6.33478 69.5845 6.65202C69.5901 6.67306 69.5929 6.69486 69.599 6.7173L69.6012 6.72572C69.9554 8.34473 68.9763 9.97068 67.3604 10.4037L47.6788 15.6773C46.0629 16.1103 44.402 15.1917 43.8992 13.6125L43.897 13.6041C43.8909 13.5817 43.8853 13.5607 43.8769 13.5404C43.7633 13.24 43.4462 13.0664 43.1292 13.1348L37.6741 14.5965C37.6236 14.61 37.5675 14.6251 37.5079 14.644L37.4589 14.6632L37.4252 14.6722C35.4739 15.3349 34.3667 17.4026 34.9015 19.3987L59.2026 110.091C59.7284 112.054 61.7048 113.303 63.7012 112.932C63.7208 112.927 63.737 112.925 63.7528 112.922L63.7767 112.916L63.7991 112.91L63.8075 112.908C63.8746 112.894 63.9412 112.879 64.0058 112.862L101.816 102.731C101.882 102.713 101.947 102.693 102.011 102.673L102.019 102.67L102.042 102.664L102.052 102.662L102.064 102.658C102.08 102.654 102.094 102.647 102.114 102.641C104.027 101.964 105.115 99.894 104.589 97.9316L80.2879 7.23743C79.753 5.24136 77.7599 4.00288 75.7391 4.40604L75.7377 4.40642Z" fill="#387AF6" stroke="#262626" stroke-width="0.372549" stroke-miterlimit="10"/>
</g>
<path d="M100.786 78.8958C101.624 80.3746 102.899 81.3486 104.28 81.5663C104.864 81.658 105.461 81.6152 106.056 81.4378C108.022 80.8478 109.303 79.7452 109.763 78.2463C110.251 76.6558 109.768 74.706 108.503 73.1566C106.514 70.7218 102.06 72.0747 101.731 72.1778C101.053 72.6422 100.558 73.2575 100.258 74.0037C99.6836 75.4326 99.8853 77.3075 100.785 78.8962L100.786 78.8958Z" fill="#F2B87D" stroke="black" stroke-width="0.372549" stroke-miterlimit="10" stroke-linecap="round"/>
<path d="M96.2689 53.8205L94.7833 56.3278C94.7669 56.3563 94.739 56.4149 94.7053 56.4856C94.5314 56.8464 94.4335 57.0199 94.3333 57.0889C93.6558 58.2356 93.1069 59.2788 93.2163 60.3996C93.2632 60.8831 93.4397 61.3906 93.7698 61.9997C94.5344 63.4111 95.6729 64.5237 96.4922 65.2078C96.8287 65.4874 97.3914 65.5396 97.8444 65.5806L97.9369 65.5889C99.0175 65.6887 100.111 65.5386 101.1 65.1549C101.421 65.0297 101.585 64.8294 101.794 64.5764C101.853 64.505 101.914 64.43 101.982 64.3531C102.391 63.8918 102.717 63.5144 103.009 63.1639C104.213 61.7244 105.534 59.9782 106.196 57.9426C106.517 56.9544 106.42 55.9521 105.906 54.9638C104.938 53.1033 102.75 51.7846 101.794 51.4921C101.67 51.4547 101.537 51.4436 101.435 51.4379C100.186 51.3666 98.8324 51.9414 97.6362 52.4483L97.3606 52.5643C97.2997 52.5896 97.2325 52.6136 97.1624 52.6384C97.0143 52.6916 96.862 52.746 96.7604 52.8213C96.7113 52.857 96.6808 52.8832 96.6701 52.8996C96.6701 52.8996 96.6627 52.9166 96.6555 52.9516C96.6477 52.9898 96.6376 53.0361 96.6154 53.0992C96.5281 53.3571 96.4134 53.5743 96.2661 53.8212L96.2689 53.8205Z" fill="#F2B87D" stroke="black" stroke-width="0.372549" stroke-miterlimit="10" stroke-linecap="round"/>
<path d="M105.479 86.0908C104.405 86.7923 103.873 87.7481 103.894 88.9285C103.934 91.0213 105.358 93.4931 107.138 94.5541C107.804 94.9515 108.805 95.3162 109.801 94.8028C110.523 94.4306 111.119 93.659 111.571 92.5066C113.197 88.3588 113.073 87.6898 111.714 86.1222C110.299 84.4897 108.895 84.6327 106.641 85.5045C106.235 85.6614 105.867 85.8426 105.547 86.0456L105.479 86.0908Z" fill="#F2B87D" stroke="black" stroke-width="0.372549" stroke-miterlimit="10" stroke-linecap="round"/>
<path d="M67.9616 58.0115L69.9791 65.5406L71.6857 65.0834C74.2453 64.3975 75.7643 61.7665 75.0785 59.2069V59.2069C74.3926 56.6472 71.7616 55.1282 69.202 55.8141L65.3705 56.8407L68.4146 68.2014L72.2545 67.1726C75.9738 66.176 78.181 62.353 77.1844 58.6336V58.6336C76.1878 54.9143 72.3648 52.7071 68.6455 53.7037L62.6974 55.2974L66.8758 70.8912L72.8238 69.2975C77.7167 67.9864 80.6204 62.9571 79.3093 58.0643V58.0643C77.9983 53.1714 72.969 50.2677 68.0761 51.5788L61.6094 53.3115" stroke="url(#paint0_linear_246_3384)" stroke-width="1.07395"/>
<defs>
<linearGradient id="paint0_linear_246_3384" x1="69.2724" y1="51.2582" x2="74.0201" y2="68.9769" gradientUnits="userSpaceOnUse">
<stop offset="1" stop-color="white"/>
</linearGradient>
</defs>
</svg>
