<svg width="184" height="190" viewBox="0 0 184 190" fill="none" xmlns="http://www.w3.org/2000/svg">
<path d="M77.4218 123.013C77.4218 123.013 77.7477 122.74 77.754 122.718C78.1873 123.384 79.9036 123.051 80.3013 123.783C80.7627 124.63 79.6776 128.347 79.7955 129.57C77.9677 128.887 71.8356 127.689 69.4062 127.217C66.5118 126.652 43.6506 123.014 42.276 122.98C42.559 122.961 42.6859 122.775 42.7744 122.538C43.5299 120.476 44.268 113.946 43.9581 122.735C54.8658 123.599 65.7918 124.809 76.4393 127.389C77.1839 127.144 77.2271 123.76 77.4266 123.016L77.4218 123.013Z" fill="#C3C3C3"/>
<path d="M132.516 146.885C138.03 141.846 153.816 130.19 160.111 127.162C160.734 126.863 161.253 126.284 162.022 126.239C169.337 134.185 176.165 142.937 182.958 151.452C166.209 150.959 156.784 152.519 140.066 163.15L130.097 150.104C129.605 148.989 131.576 147.75 132.52 146.884L132.516 146.885Z" fill="url(#paint0_linear_249_4436)"/>
<path d="M159.46 126.314C159.509 126.371 159.66 126.783 160.101 127.17C153.81 130.197 138.024 141.854 132.507 146.893C131.96 145.958 130.014 144.037 130.06 143.132C130.095 142.452 131.719 141.911 131.452 141.423C131.469 141.439 131.871 141.496 131.887 141.512C131.995 141.623 133.043 143.291 133.784 143.985L134.289 143.953C137.213 141.512 140.166 139.026 143.268 136.821C148.159 133.343 154.965 129.488 158.413 127.01C158.745 126.773 159.099 126.514 159.461 126.318L159.46 126.314Z" fill="#C3C3C3"/>
<path d="M159.46 126.314C159.101 126.509 158.743 126.769 158.412 127.006C155.334 123.899 156.554 122.713 159.46 126.314Z" fill="#DEDEDF"/>
<path d="M126.335 83.1841C128.275 84.6873 130.12 87.0141 132.221 88.2854C132.446 88.4184 136.753 90.4803 136.997 90.3943C137.762 90.1319 135.626 88.5451 135.299 88.2789C132.507 86.0085 127.157 84.2754 127.532 83.0647C130.155 83.1516 139.362 88.2597 140.632 90.547C142.55 96.2143 145.003 101.701 146.983 107.339C149.505 114.526 148.502 117.921 154.98 124.924C155.029 125.445 151.297 127.387 150.625 127.839C147.5 123.498 146.105 115.561 144.235 110.132C144.354 106.97 140.045 93.8629 139.022 92.2122C137.814 90.2659 133.289 90.368 131.42 91.0662C127.661 88.549 117.151 82.4453 117.541 78.7589C120.557 77.9672 124.079 81.4442 126.331 83.1851L126.335 83.1841Z" fill="#F6C79D"/>
<path d="M139.493 135.346C137.741 136.634 135.916 138.065 134.218 139.433C132.186 139.048 130.353 137.549 128.354 137.101C127.492 136.909 126.428 137.19 125.558 137.028C123.701 136.682 121.682 136.607 119.861 136.087C117.587 135.442 107.841 130.931 106.103 129.603C102.634 126.955 100.388 121.717 98.9326 119.71L99.0473 119.37C100.589 121.347 108.57 128.848 110.216 129.221L111.802 129.002L120.054 132.955C124.752 133.16 132.757 136.16 136.613 135.711C137.758 135.577 139.078 134.672 139.498 135.349L139.493 135.346Z" fill="#DC9764"/>
<path d="M114.718 81.9844C117.619 84.6905 118.67 86.5431 123.934 90.3021C124.299 90.5619 124.078 91.6082 129.049 92.5257C129.024 92.6764 129.52 92.6546 129.108 93.1269C121.727 94.788 126.552 96.1146 120.415 90.2167C116.111 86.0774 108.247 80.8561 106.836 77.1094C109.755 76.5862 110.639 78.1795 114.718 81.9844Z" fill="#F6C79D"/>
<path d="M116.168 79.7457C116.569 84.3554 126.283 88.8383 128.416 90.9522C130.034 92.5544 129.063 92.4319 129.045 92.5315C124.069 91.6112 124.291 90.5687 123.929 90.3079C118.666 86.5489 117.618 84.6953 114.714 81.9902C114.962 80.8587 115.36 80.4724 116.17 79.7495L116.168 79.7457Z" fill="#DC9764"/>
<path d="M91.8501 99.4145C93.6467 99.5047 95.5722 101.411 95.9053 103.053L92.1511 105.91C91.6202 104.88 91.0818 104.897 91.0239 104.772C91.0187 104.753 91.1253 104.844 90.9211 104.389C90.91 104.363 90.8008 103.94 90.7668 103.813C90.1668 101.712 89.8497 100.728 91.8501 99.4145Z" fill="#F6C79D"/>
<path d="M127.541 83.0681C127.167 84.2789 132.517 86.0119 135.309 88.2823C135.635 88.5486 137.771 90.1353 137.006 90.3977C136.757 90.4809 132.451 88.4229 132.23 88.2889C130.131 87.0214 128.285 84.6908 126.344 83.1875C126.73 83.2774 127.198 83.0614 127.546 83.0709L127.541 83.0681Z" fill="#E1A982"/>
<path d="M134.218 139.432C133.433 140.062 132.707 140.882 131.892 141.495C131.875 141.479 131.474 141.422 131.457 141.406C129.425 139.38 129.087 138.011 125.559 137.027C126.425 137.19 127.492 136.908 128.354 137.101C130.354 137.552 132.187 139.051 134.218 139.432Z" fill="#DC9764"/>
<path d="M95.9082 103.054C96.2949 104.957 94.3192 106.255 92.7434 106.575C92.5145 106.488 92.2566 106.109 92.1541 105.91L95.9082 103.054Z" fill="#F4DAC4"/>
<path d="M87.0471 68.4441C89.7865 71.3619 92.0673 74.7481 95.0227 77.5052C96.6566 79.0291 98.6109 80.245 100.269 81.7502C99.8878 81.7411 99.3362 81.2022 99.1996 81.2141C98.8388 81.2491 98.9824 81.4779 98.9632 81.483C96.7771 82.0112 96.1305 83.7267 95.925 83.9421C95.8575 83.9972 95.4591 83.9683 95.4523 84.48C94.8568 85.0508 94.3964 85.0673 93.5971 84.4631C92.6943 83.7797 83.5487 73.1608 82.3298 71.5587C84.8652 71.3975 85.7637 70.4535 87.0433 68.4451L87.0471 68.4441Z" fill="#F6C79D"/>
<path d="M110.427 87.4481C112.711 90.0769 117.179 97.3759 119.72 96.0535C120.181 96.4071 121.111 96.5322 121.378 97.2542C118.331 97.7458 116.979 96.6277 114.606 95.3716L114.913 94.981C113.28 93.5352 105.074 85.1977 104.722 84.5599C104.236 83.6826 103.986 82.4708 104.744 81.5725C105.297 82.9912 108.679 85.4367 110.427 87.4481Z" fill="#DC9764"/>
<path d="M110.1 105.412C105.216 100.585 100.119 95.9261 95.8403 90.5336C96.3882 89.0791 97.6588 91.7489 100.062 94.0249C102.049 95.9023 109.796 102.097 110.468 102.949C111.559 104.334 110.323 103.975 110.1 105.412Z" fill="#F2B87D"/>
<path d="M104.355 78.598C104.647 79.5191 104.204 80.1972 104.742 81.5747C103.982 82.4691 104.233 83.6809 104.72 84.5621C105.072 85.1999 113.273 93.5384 114.91 94.9832L114.604 95.3738C109.001 92.4049 106.573 88.4536 102.607 83.5859C102.662 82.6089 102.977 81.6362 102.847 80.643C103.124 80.4659 103.501 79.4478 103.498 79.2349L104.354 78.5941L104.355 78.598Z" fill="#DC9764"/>
<path d="M85.085 66.498C86.0051 67.1232 86.3423 67.6909 87.0448 68.4403C85.7652 70.4487 84.8628 71.3937 82.3314 71.5539C82.153 71.3179 80.9242 71.4744 80.8829 68.4505C81.7766 66.8745 83.5008 66.725 85.086 66.5018L85.085 66.498Z" fill="#F4DAC4"/>
<path d="M89.1957 81.8358C87.4112 82.6964 91.0399 83.8379 91.0554 86.474C88.0924 82.6908 84.6749 79.3295 81.913 75.3608C81.726 74.4938 78.3407 70.2398 80.874 72.2505C81.3701 72.644 88.1277 80.551 89.1957 81.8358Z" fill="#DC9764"/>
<path d="M119.716 96.0568C117.175 97.3792 112.706 90.0763 110.423 87.4514C110.286 87.1223 110.442 86.6773 110.87 86.8176C111.479 87.0164 116.108 93.302 119.716 96.0568Z" fill="#F2B87D"/>
<path d="M85.0862 66.5004C83.501 66.7236 81.7768 66.8731 80.8831 68.4491C80.8653 67.2777 81.808 66.6673 81.7496 65.5438C83.3569 65.2036 83.858 65.6616 85.0862 66.5004Z" fill="#F6C79D"/>
<path d="M81.7451 65.5436C81.8025 66.6632 80.8646 67.2764 80.8786 68.4489C80.9208 71.4766 82.1448 71.3173 82.327 71.5522C83.5459 73.1544 92.6915 83.7732 93.5943 84.4566C94.3936 85.0608 94.8539 85.0444 95.4494 84.4736C95.7993 84.1372 95.8805 83.9797 95.9222 83.9357C96.9406 83.1323 97.884 82.2174 98.9604 81.4766C98.9795 81.4715 98.836 81.2426 99.1967 81.2076C99.3333 81.1957 99.8839 81.7309 100.266 81.7437C100.683 82.1212 101.972 83.0177 102.609 83.5832C106.569 88.4482 109.001 92.3984 114.605 95.3711C116.978 96.6272 118.33 97.7453 121.377 97.2537C121.11 96.5317 120.18 96.4066 119.719 96.0531C116.11 93.2982 111.482 87.0127 110.873 86.8138C110.445 86.6736 110.289 87.1185 110.426 87.4477C108.678 85.4362 105.296 82.9907 104.743 81.572C104.206 80.1945 104.648 79.5126 104.357 78.5953C104.341 78.5339 104.334 78.4618 104.306 78.4035C104.637 78.2572 104.882 77.6981 105.111 77.5709C105.19 77.5291 106.613 77.1477 106.837 77.1083C108.248 80.855 116.113 86.0801 120.417 90.2156C126.554 96.1135 121.728 94.7869 129.109 93.1258C129.521 92.6535 129.021 92.6763 129.051 92.5246C129.069 92.425 130.04 92.5474 128.422 90.9453C126.288 88.8314 116.576 84.3523 116.174 79.7388C116.649 79.3155 116.863 78.9332 117.555 78.752C117.165 82.4384 127.675 88.5421 131.434 91.0593C133.303 90.3611 137.828 90.259 139.036 92.2053C140.058 93.8522 144.368 106.963 144.249 110.125C146.119 115.554 147.51 123.492 150.639 127.832C147.659 129.819 144.706 131.827 141.786 133.901C141.116 132.843 140.792 131.708 139.526 131.221C138.687 130.898 124.248 130.054 121.675 129.017C116.705 127.013 112.224 110.44 110.109 105.401C110.332 103.964 111.569 104.328 110.477 102.938C109.804 102.086 102.058 95.8915 100.07 94.0142C97.6636 91.7392 96.3958 89.0645 95.8489 90.5229C94.0168 87.292 91.5362 84.6338 89.2043 81.8248C88.1363 80.54 81.3787 72.6329 80.8826 72.2395C78.3503 70.2325 81.7345 74.4828 81.9216 75.3497C80.405 73.1735 78.7445 71.8418 78.7291 68.8068C78.7187 66.9261 79.9956 65.9054 81.7535 65.529L81.7451 65.5436Z" fill="#F2B87D"/>
<path d="M99.3149 82.4109C99.4489 82.3586 99.74 82.2477 99.8202 82.3783C99.4682 82.8757 99.0746 84.1079 97.5782 85.1381C94.0576 87.5619 97.3576 84.9135 97.4754 84.7544C97.9794 84.0724 96.5525 85.0552 97.1293 84.2303C97.2159 84.1084 99.1809 82.4633 99.3149 82.4109Z" fill="#DC9764"/>
<path d="M100.939 84.647C100.73 86.7675 97.253 88.3735 99.2583 86.4338C95.9988 87.4223 100.246 85.7456 100.939 84.647Z" fill="#DC9764"/>
<path d="M100.284 82.9735C101.503 83.243 99.3524 85.1312 97.886 86.289C96.8126 85.8898 99.649 85.1792 100.284 82.9735Z" fill="#DC9764"/>
<path d="M98.9615 81.4774C97.8813 82.2192 96.9379 83.1341 95.9233 83.9364C96.1298 83.7248 96.7764 82.0094 98.9615 81.4774Z" fill="#DC9764"/>
<path d="M95.9232 83.9376C95.8815 83.9816 95.8004 84.1391 95.4505 84.4755C95.4573 83.9637 95.8557 83.9927 95.9232 83.9376Z" fill="#DC9764"/>
<path d="M113.451 124.037C110.597 120.66 108.297 113.874 105.419 110.163C105.448 109.995 105.116 109.631 105.457 109.536C106.247 110.751 107.165 111.903 108.045 113.054C108.363 113.227 108.427 113.083 108.377 112.759C108.172 111.411 104.548 105.79 104.274 103.585C103.868 102.946 103.175 102.449 102.775 101.828C102.654 101.638 102.563 101.498 102.429 101.304C102.301 101.12 102.161 100.767 102.031 100.588C103.836 100.248 107.391 105.966 108.624 107.556C110.637 114.427 112.604 121.813 117.448 127.074C116.037 126.276 114.51 125.287 113.451 124.037Z" fill="#D18346"/>
<path d="M113.449 124.036C113.198 124.819 109.653 120.752 109.368 120.302C109.057 119.818 105.455 111.793 105.316 111.32C104.979 110.185 105.354 110.541 105.417 110.162C108.295 113.874 110.596 120.664 113.449 124.036Z" fill="#DC9764"/>
<path d="M89.198 81.8347C91.5299 84.6438 94.0105 87.302 95.8427 90.5329C100.121 95.9253 105.219 100.584 110.102 105.411C112.217 110.45 116.699 127.023 121.669 129.027C124.242 130.064 138.68 130.905 139.52 131.231C140.785 131.718 141.11 132.852 141.78 133.911C141.107 134.391 140.072 134.919 139.492 135.346C139.076 134.668 137.755 135.573 136.607 135.708C132.752 136.161 124.747 133.161 120.048 132.952L111.796 128.999L110.21 129.218C108.567 128.844 100.586 121.343 99.0411 119.368L98.9264 119.707C94.071 113.005 91.6329 115.11 92.7332 106.57C94.3101 106.254 96.2847 104.952 95.8981 103.049C95.565 101.407 93.6395 99.5003 91.8429 99.4101C95.0555 97.2949 96.8326 99.2615 99.389 101.496C99.6149 101.695 99.7247 101.921 99.9783 102.161C100.073 102.255 100.178 102.4 100.273 102.493C104.546 106.76 103.532 106.584 105.445 109.534C105.104 109.625 105.436 109.989 105.408 110.161C105.345 110.54 104.97 110.184 105.307 111.319C105.446 111.791 109.048 119.816 109.358 120.3C109.647 120.749 113.189 124.822 113.439 124.035C114.499 125.289 116.026 126.274 117.436 127.072C112.592 121.811 110.622 114.426 108.612 107.554C107.381 105.968 103.822 100.251 102.02 100.586C100.505 98.4954 98.6937 96.9986 98.5361 96.7941C98.4464 96.6742 98.6817 96.7387 98.4333 96.4104C95.9566 93.122 93.5779 89.7086 91.0452 86.4722C91.0287 83.8323 87.401 82.6946 89.1855 81.834L89.198 81.8347Z" fill="#F2B87D"/>
<path d="M98.0729 108.434C98.247 108.362 99.1091 108.111 99.1537 108.247C95.1248 110.293 99.7521 108.991 98.9518 110.563C98.3529 111.735 93.3754 114.615 98.5167 110.474C94.0919 112.531 100.32 109.62 96.2898 109.837C96.253 109.715 97.735 108.569 98.0729 108.434Z" fill="#DC9764"/>
<path d="M99.6651 45.7462C102.056 46.5944 104.52 47.5955 104.796 50.3303C104.385 49.1038 103.055 47.5932 101.946 46.9855C98.7215 45.2176 96.2888 47.6954 96.7002 48.494C96.9084 48.903 102.41 49.6661 103.518 51.7008C101.518 53.199 100.141 53.5392 97.6639 52.8582C97.0218 50.4312 95.9389 48.0318 95.494 45.5273L99.6612 45.7472L99.6651 45.7462Z" fill="#F2B87D"/>
<path d="M98.325 37.6805C98.2169 38.0138 98.0236 38.1519 97.9036 38.4103C96.375 39.4737 93.8691 39.4378 94.4955 41.7909C93.8626 39.5671 93.3456 37.2998 92.6974 35.0801C95.0559 33.4611 98.0513 33.0985 98.2351 36.5778C98.266 37.1535 97.4811 37.4625 98.326 37.6843L98.325 37.6805Z" fill="#F2B87D"/>
<path d="M104.799 50.3303C104.812 50.4544 104.901 50.6032 104.902 50.714C104.364 50.9158 103.973 51.3617 103.521 51.7008C102.412 49.6622 96.9105 48.8991 96.7033 48.4941C96.2919 47.6955 98.7247 45.2177 101.95 46.9855C103.058 47.5932 104.388 49.1039 104.799 50.3303Z" fill="#F6C79D"/>
<path d="M104.212 52.7444C102.822 55.1073 101.164 55.0292 100.694 55.332C100.54 55.4309 100.718 55.7286 100.701 55.7414C100.036 56.1582 98.989 55.9205 98.5274 56.8379C98.3446 60.3454 96.2256 63.0887 99.1634 66.1179C101.901 68.9375 103.551 66.6367 104.931 66.9372C105.503 67.0635 106.649 67.7803 107.12 68.2012C106.297 68.1996 105.42 67.353 104.554 67.4494C103.488 67.5705 101.938 68.9234 101.629 68.0276C101.373 68.6226 101.81 68.6287 101.649 69.2558C100.828 66.9879 100.502 67.8153 100.419 67.7348C99.9363 67.2679 99.4618 67.0167 99.1001 66.6489C96.7208 64.2309 97.3827 63.0789 97.4047 60.3217C97.4074 60.1935 97.9853 59.4958 97.7471 57.7625C98.7482 57.6464 98.0952 56.8056 98.0656 56.6491C98.783 56.5638 98.1186 55.3888 97.9353 54.6278C100.31 54.9251 102.364 53.5357 104.211 52.7406L104.212 52.7444Z" fill="#D18346"/>
<path d="M97.808 32.6819C99.1817 34.5551 98.9804 35.6454 98.3247 37.6799C97.4798 37.458 98.2647 37.149 98.2338 36.5733C98.05 33.0941 95.0556 33.4605 92.6961 35.0756C92.6621 34.949 92.6272 34.8186 92.5932 34.6919C92.4625 34.2499 92.3603 33.792 92.2334 33.349C96.6752 31.1554 98.2571 34.2353 97.807 32.6781L97.808 32.6819Z" fill="#F6C79D"/>
<path d="M104.9 50.7115C104.897 51.4526 104.586 52.1159 104.212 52.7466C102.364 53.5418 100.31 54.9311 97.9359 54.6338C97.5839 53.1819 97.6888 52.944 97.6651 52.8558C100.142 53.5368 101.519 53.1966 103.52 51.6983C103.972 51.3593 104.358 50.9143 104.9 50.7115Z" fill="#F2B87D"/>
<path d="M96.9246 40.1101C96.1459 40.2735 94.9997 42.7027 94.4958 41.789C93.8732 39.4349 96.3791 39.4708 97.9039 38.4083C97.4874 39.3095 97.4623 39.308 96.9208 40.1111L96.9246 40.1101Z" fill="#F2B87D"/>
<path d="M105.059 77.3818L105.111 77.5737C104.881 77.7009 104.64 78.259 104.306 78.4063C104.279 78.3518 104.037 78.6016 103.805 77.3066C103.905 77.3087 104.171 77.6733 105.059 77.3818Z" fill="#3A2F22"/>
<path d="M103.806 77.3061C104.038 78.601 104.279 78.3513 104.306 78.4057C104.334 78.464 104.341 78.5362 104.357 78.5976L103.501 79.2383C103.489 78.7808 103.069 77.9187 102.987 77.3198C103.027 77.3298 103.39 77.2899 103.806 77.3061Z" fill="#C3C3C3"/>
<path d="M100.699 55.7417C106.288 57.1103 107.959 62.194 104.932 66.9365C103.552 66.636 101.903 68.9368 99.1648 66.1172C96.2232 63.089 98.346 60.3447 98.5289 56.8371C98.9866 55.9208 100.033 56.1585 100.703 55.7406L100.699 55.7417Z" fill="#F2B87D"/>
<path d="M99.8495 59.877C103.551 58.1574 106.948 66.6153 102.715 65.5822C102.024 63.1888 97.3082 61.0596 99.8495 59.877Z" fill="#F4DAC4"/>
<path d="M107.116 68.2028C109.626 70.4664 110.338 74.0755 107.297 76.1694C106.877 76.4588 105.601 76.7636 105.046 76.9781C104.889 77.0367 105.072 77.3824 105.053 77.3875C104.169 77.678 103.898 77.3145 103.799 77.3123C103.387 77.2951 103.02 77.336 102.98 77.326C102.569 77.2347 102.309 76.8604 101.867 77.0075C101.851 76.9461 101.176 76.2387 101.009 76.1066C100.66 74.9745 100.755 73.7935 100.494 72.6502C100.86 71.8983 100.855 71.0196 101.079 70.2315C101.094 70.1782 101.471 69.9127 101.641 69.2585C101.803 68.6352 101.366 68.6291 101.621 68.0303C101.934 68.9249 103.484 67.572 104.546 67.452C105.411 67.3517 106.289 68.2022 107.112 68.2038L107.116 68.2028Z" fill="#F2B87D"/>
<path d="M102.431 70.2805C104.023 69.3894 106.371 70.7095 106.964 72.2489C108.013 74.9659 106.041 74.7129 104.771 76.328C106.77 76.7424 101.481 76.5269 102.493 75.4991C100.84 75.8969 101.783 70.6392 102.43 70.2767L102.431 70.2805Z" fill="#F4DAC4"/>
<path d="M101.651 69.2551C101.481 69.9093 101.104 70.1748 101.089 70.2281L100.421 67.734C100.504 67.8145 100.829 66.9833 101.651 69.2551Z" fill="#BECAD0"/>
<path d="M48.0788 48.0687C48.2669 48.08 48.7698 47.9617 49.0895 48.0035C49.2305 48.2536 49.322 48.1345 49.3327 48.144C49.3563 48.1706 49.9496 48.3282 50.0111 48.3735C50.6355 48.8312 51.2657 49.0654 51.3302 49.4594C51.3131 49.4722 51.4825 49.7517 51.3371 49.8688L50.4343 49.1854C51.9106 51.4876 52.2153 51.4429 52.6143 54.2518C51.0603 54.2076 52.0452 59.3721 49.8051 61.7859C47.6888 64.0638 43.9315 62.7799 46.5562 64.6099C46.5923 64.6372 46.626 64.5788 47.2088 64.7434C46.4849 64.7277 47.3391 65.383 48.158 66.751C47.8797 70.025 48.1238 73.4223 49.3319 76.5037C51.3 81.5159 54.0258 81.682 57.1533 84.9893C59.65 87.6309 59.4269 89.7757 58.611 84.2903C59.5824 87.9616 64.1719 105.55 64.5957 106.625C64.659 106.785 65.1546 107.607 65.3649 107.961C61.1786 109.128 56.9244 109.475 52.5802 109.331C52.1225 109.219 51.7368 109.146 51.2749 109.064C50.5699 108.229 47.5509 105.924 47.2334 106.244C47.0783 105.956 46.9369 105.628 46.7846 105.336C47.3114 104.923 46.5323 103.627 46.9934 103.43C47.4144 103.251 51.5332 106.605 55.6718 105.521C50.9934 97.945 44.9307 91.1883 43.0497 82.1885C43.1743 77.5121 41.1547 67.3197 42.5403 63.42C43.5532 60.5701 47.8206 57.465 48.1801 52.2528C48.3433 49.869 47.4355 48.0314 48.0865 48.0667L48.0788 48.0687Z" fill="#F2B87D"/>
<path d="M48.0803 48.0665C47.4303 48.0351 48.337 49.8689 48.1738 52.2526C47.8182 57.4638 43.548 60.5737 42.534 63.4198C41.1485 67.3196 43.1681 77.512 43.0434 82.1883C44.9234 91.1844 50.9872 97.9449 55.6655 105.521C51.5269 106.605 47.4119 103.25 46.9871 103.429C46.525 103.623 47.3042 104.919 46.7783 105.336C43.868 99.8155 38.1567 88.922 37.7141 83.0035C37.5685 81.048 38.8105 76.2902 39.0056 74.0254C39.3272 70.345 38.9001 65.4669 40.1025 62.0192C40.8535 59.8646 42.8869 57.646 43.8916 55.4562C44.8768 53.3005 45.5173 49.9048 45.7623 49.4073C46.8898 47.123 47.7668 48.0477 48.0764 48.0675L48.0803 48.0665Z" fill="#F6C79D"/>
<path d="M48.7805 109.725C50.2564 112.287 52.9164 113.865 55.652 114.666C57.3659 115.169 63.8712 116.271 64.8053 115.092C67.7566 115.946 71.4945 117.157 68.5082 120.47C68.1552 120.564 67.505 120.808 67.7032 121.302C60.6899 120.192 53.6333 119.364 46.5893 118.431L48.482 109.394C48.5304 109.866 48.7677 109.708 48.7767 109.726L48.7805 109.725Z" fill="#F2B87D"/>
<path d="M51.2711 109.06C51.7293 109.143 52.1188 109.216 52.5764 109.328C53.6108 109.581 55.3951 110.485 56.5468 110.731C62.0791 111.901 63.8469 110.334 65.4432 110.198C66.2716 110.128 67.1501 111.427 67.9955 110.131C70.8705 110.915 75.2501 109.149 78.221 108.419C77.7287 111.401 81.5609 108.145 82.6297 107.238L90.6835 105.08C87.5007 107.935 84.7743 111.343 81.0537 113.619C73.787 115.829 71.9964 113.06 66.0086 112.308C60.1532 111.574 54.1705 113.128 48.7781 109.733C48.7692 109.714 48.5319 109.873 48.4835 109.4C48.4111 109.222 48.4118 108.979 48.3293 108.825C49.2115 108.971 50.499 108.926 51.2722 109.064L51.2711 109.06Z" fill="#D18346"/>
<path d="M81.0568 113.611C80.8389 114.179 80.319 114.603 80.0223 115.122C79.7006 115.134 80.1809 114.471 79.248 114.918C76.6405 116.176 75.7703 118.577 68.5089 120.469C71.4952 117.156 67.7612 115.944 64.806 115.091C61.8634 114.239 58.5221 114.032 55.6527 114.665C52.9171 113.864 50.2572 112.286 48.7812 109.725C54.1736 113.12 60.1563 111.566 66.0117 112.3C71.9995 113.052 73.7901 115.821 81.0568 113.611Z" fill="#DC9764"/>
<path d="M80.0229 115.124C79.0605 116.797 78.2723 120.746 77.7447 122.722C77.7384 122.744 77.4188 122.994 77.4124 123.016C74.1937 122.361 70.9508 121.815 67.7084 121.302C67.5103 120.809 68.1594 120.561 68.5134 120.47C75.7749 118.578 76.645 116.177 79.2525 114.919C80.1854 114.472 79.7013 115.136 80.0268 115.123L80.0229 115.124Z" fill="#D18346"/>
<path d="M51.2721 109.061C50.4989 108.923 49.2152 108.966 48.3292 108.821C48.2307 108.638 47.95 107.59 47.2258 106.238C47.5432 105.919 50.5672 108.226 51.2672 109.058L51.2721 109.061Z" fill="#DC9764"/>
<path d="M47.205 64.7384C47.2854 64.7621 48.8083 64.9051 48.894 64.9027C51.2065 66.2735 49.2135 67.63 51.1392 70.9797C50.8599 72.8229 51.7842 79.7103 53.9626 79.982C53.8312 80.704 57.501 83.2574 57.7715 83.0698L56.8642 77.7652C57.4336 79.9362 58.0367 82.1104 58.611 84.2842C59.4269 89.7696 59.65 87.6248 57.1533 84.9832C54.0258 81.6759 51.3 81.5097 49.3319 76.4976C49.4636 74.9325 49.4252 68.5273 48.9648 67.454C48.69 66.812 48.1867 66.7906 48.158 66.7449C47.3391 65.3769 46.4859 64.7254 47.2088 64.7373L47.205 64.7384Z" fill="#DC9764"/>
<path d="M65.3629 107.958C65.6655 108.473 65.8587 108.734 66.2983 109.147C66.7056 109.531 67.46 109.983 68.0011 110.13C67.1595 111.424 66.2772 110.127 65.4487 110.197C63.8486 110.333 62.0847 111.9 56.5524 110.73C55.4017 110.487 53.6163 109.58 52.582 109.326C56.9263 109.47 61.1766 109.125 65.3667 107.957L65.3629 107.958Z" fill="#DC9764"/>
<path d="M52.6155 54.2505C52.9959 56.9286 52.5513 59.7661 52.509 62.2943C52.5909 62.5232 52.3731 62.5239 52.3686 62.5375C51.7659 64.1713 50.626 64.8592 48.8953 64.9075C48.8095 64.9099 47.2905 64.7659 47.2062 64.7432C46.6234 64.5786 46.5935 64.636 46.5536 64.6097C43.9289 62.7797 47.6862 64.0636 49.8025 61.7857C52.0426 59.3719 51.0577 54.2074 52.6117 54.2516L52.6155 54.2505Z" fill="#F2B87D"/>
<path d="M51.3287 49.4532C51.465 49.3632 51.607 49.6172 51.7638 49.5423C51.8519 49.8559 53.1979 52.0244 53.752 54.66C53.9137 55.7394 53.8266 58.0082 54.0374 58.7947C53.7981 59.4058 53.533 60.0279 53.2975 60.638C53.1488 61.0191 53.1185 61.3974 52.979 61.7514C52.9698 61.7786 52.6525 61.9294 52.6981 62.2379L52.5063 62.2893C52.5457 59.766 52.9942 56.9275 52.6128 54.2456C52.2139 51.4368 51.913 51.4804 50.4328 49.1792L51.3356 49.8626C51.481 49.7455 51.3116 49.466 51.3287 49.4532Z" fill="#DC9764"/>
<path d="M49.3288 76.5006C48.1207 73.4192 47.8766 70.0219 48.1549 66.7479C48.1836 66.7936 48.687 66.815 48.9618 67.457C49.427 68.5331 49.4615 74.9393 49.3288 76.5006Z" fill="#F2B87D"/>
<path d="M64.8096 115.092C63.8755 116.272 57.3664 115.17 55.6562 114.666C58.5285 114.028 61.867 114.24 64.8096 115.092Z" fill="#DC9764"/>
<path d="M82.6331 107.232C81.5644 108.139 77.7321 111.395 78.2244 108.413C79.6984 108.051 81.1612 107.602 82.6331 107.232Z" fill="#DC9764"/>
<path d="M55.681 73.359C56.0515 74.8184 56.4772 76.2999 56.8623 77.7677L57.7696 83.0723C57.5029 83.2589 53.8331 80.7055 53.9607 79.9846C56.8981 80.3572 53.2091 78.3765 53.0372 78.073C52.5772 77.2462 52.7071 76.0887 52.4837 75.2397L55.6761 73.3562L55.681 73.359Z" fill="#DC9764"/>
<path d="M52.488 75.2401C52.7103 76.0853 52.5815 77.2466 53.0415 78.0733C53.2133 78.3768 56.9014 80.3537 53.965 79.9849C51.7856 79.7094 50.8623 72.8258 51.1416 70.9826C49.2159 67.6328 51.2089 66.2763 48.8964 64.9055C50.6271 64.8572 51.767 64.1693 52.3697 62.5355C50.8293 65.3664 51.9055 65.7607 50.8908 67.7598C51.3889 70.2789 51.8353 72.7583 52.4852 75.245L52.488 75.2401Z" fill="#D18346"/>
<path d="M86.1527 18.3366C90.2299 31.1895 93.3904 47.1132 97.4033 60.3247C97.3813 63.0818 96.7194 64.2338 99.0987 66.6518C99.7809 68.5993 100.04 70.656 100.499 72.6467C100.765 73.7927 100.666 74.9709 101.014 76.1031C101.18 76.2313 101.856 76.9426 101.873 77.004C102.161 78.0042 102.74 79.8435 102.848 80.6453C102.978 81.6346 102.664 82.6112 102.609 83.5882C101.973 83.0265 100.684 82.1299 100.265 81.7487C98.6037 80.2445 96.6532 79.0276 95.0194 77.5038C92.064 74.7466 89.7821 71.3566 87.0438 68.4426C86.3423 67.697 86.0051 67.1294 85.0839 66.5002C83.8519 65.6624 83.3508 65.2045 81.7474 65.5437C79.9884 65.9163 78.7125 66.9408 78.723 68.8215C76.2883 71.415 75.7769 75.3231 76.843 78.6729C78.2013 82.9437 86.0721 94.7142 89.148 98.9032L98.445 96.412C98.6933 96.7403 98.4581 96.6758 98.5478 96.7957L66.6982 105.227C62.9043 90.2543 58.5104 75.4219 54.5113 60.5124C54.3581 59.9407 54.2029 59.3613 54.0487 58.7857L54.4581 58.7789C55.6258 65.7615 56.7023 57.1782 56.3225 54.9934C56.0007 53.1633 55.1432 51.16 54.0654 49.6393C53.7683 49.2213 51.3321 46.6828 51.2097 47.4229C49.5235 41.2989 48.0358 35.1176 46.0859 29.0684L86.1555 18.3318L86.1527 18.3366Z" fill="url(#paint1_linear_249_4436)"/>
<path d="M78.7167 68.824C78.731 71.8552 80.3915 73.1868 81.9092 75.3669C84.671 79.3357 88.0885 82.6969 91.0515 86.4801C93.5843 89.7165 95.9629 93.13 98.4397 96.4184L89.1427 98.9095C86.0669 94.7206 78.196 82.95 76.8377 78.6792C75.7716 75.3295 76.283 71.4213 78.7177 68.8279L78.7167 68.824Z" fill="#1060D9"/>
<path d="M48.1947 23.1667C53.5059 21.1637 73.7413 16.9507 81.6493 14.2025C83.4324 14.0579 84.0321 14.4236 85.5169 15.2224C85.5515 15.2749 85.5337 15.3619 85.5683 15.4143C85.9433 16.0006 86.611 16.5126 86.8754 17.2231C87.6042 19.1909 97.4502 55.691 97.7405 57.7722C97.9826 59.5045 97.3998 60.1994 97.3982 60.3315C93.3853 47.12 90.2258 31.2001 86.1475 18.3434C85.9991 17.8815 85.4161 14.4475 82.5681 14.5773C80.3536 14.6772 52.5211 22.7065 47.0991 24.0812C43.631 26.9927 45.9876 28.804 46.0741 29.0811C48.024 35.1303 49.5117 41.3116 51.1978 47.4356C51.3898 48.1368 51.5637 48.8469 51.7633 49.546C51.6065 49.6209 51.4645 49.3669 51.3282 49.4569C51.2638 49.0629 50.6345 48.8326 50.0091 48.371C49.0924 43.7681 44.7692 30.3807 44.5385 27.9545C44.2975 25.4282 46.0376 23.9873 48.1891 23.1764L48.1947 23.1667Z" fill="#1D221F"/>
<path d="M48.0409 22.5877L48.1951 23.1632C46.0436 23.9741 44.3036 25.415 44.5446 27.9413C44.7762 30.3714 49.0995 43.7587 50.0152 48.3579C49.9537 48.3126 49.3604 48.155 49.3368 48.1284C48.5568 44.0357 43.9792 30.0215 44.0066 27.4686C44.0314 25.1055 46.0702 23.3213 48.0409 22.5877Z" fill="white"/>
<path d="M98.543 96.7972C98.6968 97.0027 100.512 98.4985 102.027 100.589C101.889 100.613 100.668 101.352 99.392 101.501C96.8357 99.2657 95.0585 97.299 91.8459 99.4141C89.8493 100.726 90.1627 101.712 90.7627 103.813C83.9259 105.632 77.088 107.493 70.2502 109.309C67.8143 109.365 66.464 108.547 65.5304 106.26C65.7848 105.46 65.2033 105.545 66.3097 105.331L54.5066 60.5138C58.5057 75.4233 62.8995 90.2558 66.6934 105.228L98.543 96.7972Z" fill="#0B0A09"/>
<path d="M70.2548 109.314C77.0925 107.498 83.9305 105.637 90.7673 103.817C90.8002 103.94 90.9094 104.363 90.9215 104.393C86.4559 105.285 71.846 109.911 69.7375 110.069C69.6769 110.073 68.7979 109.832 68.5281 109.776C69.096 109.624 69.6831 109.467 70.2548 109.314Z" fill="#6F7B7F"/>
<path d="M81.4024 13.6508C82.4194 13.5017 85.3189 14.0243 85.8267 14.8299C86.0534 15.1846 85.5063 15.1996 85.5202 15.2205C84.0353 14.4217 83.4328 14.0608 81.6526 14.2006C73.7445 16.9488 53.5092 21.1618 48.198 23.1648L48.0438 22.5892C49.685 21.9767 79.6924 13.8992 81.4024 13.6508Z" fill="#AEAEAC"/>
<path d="M94.203 42.2754C95.3493 46.5536 97.2626 52.773 98.0553 56.6525C98.0888 56.808 98.7379 57.6499 97.7368 57.766C97.4475 55.6886 87.6005 19.1847 86.8717 17.2168C86.6073 16.5063 85.9406 15.9981 85.5645 15.408C85.7519 15.2632 86.6625 15.7759 86.7037 15.8225C87.7709 17.0581 93.2198 38.5908 94.202 42.2715L94.203 42.2754Z" fill="#DEDEDF"/>
<path d="M65.5287 106.26C66.4634 108.551 67.8136 109.369 70.2485 109.309C69.6806 109.461 69.0898 109.619 68.5219 109.772C68.3739 109.741 66.7568 109.093 66.6787 109.032C66.3641 108.779 65.2372 107.259 65.0768 106.891C63.2306 102.594 55.7118 69.8834 52.979 61.7409C53.1147 61.3879 53.1488 61.0087 53.2975 60.6275C56.2757 69.6089 63.3168 100.844 65.5239 106.257L65.5287 106.26Z" fill="#DEDEDF"/>
<path d="M54.5054 60.5145L66.3086 105.332C65.2021 105.546 65.7837 105.46 65.5293 106.26C63.3222 100.848 56.2811 69.6125 53.3029 60.6311C53.5394 60.0249 53.8035 59.3989 54.0428 58.7879C54.1959 59.3596 54.3512 59.939 54.5054 60.5145Z" fill="#1D221F"/>
<path d="M54.0447 58.7913C53.8339 58.0047 53.9161 55.7332 53.7593 54.6566C53.2042 52.0171 51.8592 49.8524 51.7711 49.5388C51.5725 48.8436 51.3976 48.1296 51.2056 47.4285C51.3281 46.6883 53.7632 49.223 54.0613 49.6448C55.1391 51.1655 55.9967 53.1688 56.3185 54.999C56.7031 57.1866 55.6218 65.767 54.4541 58.7844L54.0447 58.7913Z" fill="#1060D9"/>
<path d="M86.1529 18.3378L46.0833 29.0745C45.9919 28.7946 43.6402 26.9861 47.1083 24.0746C52.5264 22.7009 80.3628 14.6706 82.5773 14.5707C85.4215 14.4419 86.0093 17.8787 86.1567 18.3368L86.1529 18.3378Z" fill="#6F7B7F"/>
<path d="M68.3205 20.0347C65.7778 20.8435 63.1131 21.3354 60.5545 22.1156L60.6573 22.4993L69.4746 20.1366L69.0841 19.8301C69.2278 19.7833 71.3385 18.0375 71.412 19.3091C71.4682 20.3016 60.6037 23.0976 59.9927 23.0886C59.877 23.0867 58.9379 22.5898 58.898 22.4566C58.7677 21.9857 67.4033 19.6965 68.1179 19.6777C68.2692 19.6742 68.2827 19.9091 68.3167 20.0357L68.3205 20.0347Z" fill="#6F7B7F"/>
<path d="M68.319 20.0365C68.5692 19.9571 68.8373 19.914 69.0864 19.8308L69.477 20.1374L60.6596 22.5L60.5568 22.1163C63.1116 21.3372 65.7801 20.8442 68.3229 20.0354L68.319 20.0365Z" fill="#292C2D"/>
<path fill-rule="evenodd" clip-rule="evenodd" d="M69.4072 127.218C66.5127 126.652 43.6516 123.015 42.277 122.98L42.2819 122.983C41.8307 122.972 40.4556 122.967 40.1646 123.139L39.6731 123.991L33.7572 158.026C42.7524 158.297 53.531 161.843 63.7049 168.515C68.6855 171.781 73.0369 175.479 76.6312 179.358C77.2244 174.683 77.7775 170.001 78.3306 165.32C79.0302 159.398 79.7298 153.477 80.5107 147.568C80.6302 146.66 81.0763 144.12 81.5648 141.338C82.3052 137.121 83.1429 132.351 83.0873 131.876C83.0635 131.674 82.9964 131.472 82.9291 131.27C82.8688 131.089 82.8083 130.907 82.7788 130.725C82.0856 130.596 81.4523 130.304 80.8236 130.014C80.4829 129.856 80.1434 129.7 79.7964 129.57C77.9686 128.888 71.8366 127.689 69.4072 127.218Z" fill="url(#paint2_linear_249_4436)"/>
<path d="M72.3409 51.664L73.8435 57.0741L75.0698 56.7335C76.9091 56.2227 77.9859 54.3175 77.4751 52.4783V52.4783C76.9642 50.6391 75.0591 49.5622 73.2199 50.073L70.4667 50.8377L72.7341 59.001L75.4933 58.2347C78.1658 57.4924 79.7306 54.7241 78.9883 52.0515V52.0515C78.246 49.379 75.4777 47.8142 72.8052 48.5565L68.5312 49.7437L71.6433 60.9486L75.9173 59.7615C79.4331 58.785 81.4916 55.1433 80.5151 51.6275V51.6275C79.5386 48.1117 75.8969 46.0532 72.3811 47.0297L67.7344 48.3203" stroke="url(#paint3_linear_249_4436)" stroke-width="0.773612"/>
<defs>
<linearGradient id="paint0_linear_249_4436" x1="172.398" y1="138.794" x2="137.511" y2="158.143" gradientUnits="userSpaceOnUse">
<stop stop-color="#096AFB"/>
</linearGradient>
<linearGradient id="paint1_linear_249_4436" x1="93.9673" y1="26.0756" x2="54.1528" y2="93.8453" gradientUnits="userSpaceOnUse">
<stop stop-color="#096AFB"/>
<stop offset="1" stop-color="#096AFB"/>
</linearGradient>
<linearGradient id="paint2_linear_249_4436" x1="34.2781" y1="157.915" x2="76.0037" y2="163.349" gradientUnits="userSpaceOnUse">
<stop stop-color="#096AFB"/>
</linearGradient>
<linearGradient id="paint3_linear_249_4436" x1="73.2407" y1="46.7909" x2="76.7769" y2="59.5227" gradientUnits="userSpaceOnUse">
<stop offset="1" stop-color="white"/>
</linearGradient>
</defs>
</svg>
