<svg width="122" height="41" viewBox="0 0 122 41" fill="none" xmlns="http://www.w3.org/2000/svg">
<path d="M3.73556 0.870071C4.36495 0.8249 4.99651 0.919976 5.5847 1.14844C6.1729 1.37691 6.70305 1.73307 7.13693 2.19123C7.57081 2.6494 7.8976 3.19814 8.09373 3.7979C8.28985 4.39765 8.35042 5.03345 8.27107 5.65945C8.27107 8.73883 6.60676 10.5089 3.73561 10.5089H0.253906V0.870071H3.73556ZM1.75099 9.14583H3.56833C4.01807 9.17271 4.46815 9.09897 4.88579 8.92998C5.30344 8.76098 5.67815 8.50098 5.98264 8.16891C6.28714 7.83684 6.51376 7.44105 6.646 7.01035C6.77824 6.57965 6.81277 6.12488 6.7471 5.67915C6.80801 5.23518 6.76996 4.78324 6.63569 4.3557C6.50142 3.92816 6.27425 3.53561 5.97045 3.20617C5.66665 2.87674 5.29375 2.61859 4.87846 2.4502C4.46316 2.28182 4.01577 2.20737 3.56833 2.2322H1.75099V9.14583Z" fill="white"/>
<path d="M9.96154 6.86992C9.91581 6.39189 9.9705 5.90958 10.1221 5.45392C10.2737 4.99826 10.5188 4.57932 10.8418 4.22395C11.1648 3.86859 11.5585 3.58466 11.9976 3.39036C12.4368 3.19607 12.9117 3.0957 13.3919 3.0957C13.8721 3.0957 14.347 3.19607 14.7862 3.39036C15.2253 3.58466 15.619 3.86859 15.942 4.22395C16.265 4.57932 16.5102 4.99826 16.6618 5.45392C16.8134 5.90958 16.868 6.39189 16.8223 6.86992C16.8689 7.34844 16.8149 7.83142 16.6637 8.28781C16.5125 8.7442 16.2675 9.16392 15.9444 9.51998C15.6213 9.87604 15.2274 10.1606 14.7878 10.3553C14.3482 10.55 13.8727 10.6506 13.3919 10.6506C12.9111 10.6506 12.4357 10.55 11.9961 10.3553C11.5565 10.1606 11.1625 9.87604 10.8394 9.51998C10.5164 9.16392 10.2714 8.7442 10.1202 8.28781C9.96897 7.83142 9.91494 7.34844 9.96154 6.86992ZM15.3457 6.86992C15.3457 5.29316 14.6374 4.37109 13.3943 4.37109C12.1464 4.37109 11.4445 5.29316 11.4445 6.86993C11.4445 8.45932 12.1465 9.37429 13.3943 9.37429C14.6374 9.37428 15.3457 8.45299 15.3457 6.86992H15.3457Z" fill="white"/>
<path d="M25.9427 10.5094H24.4535L22.9501 5.15207H22.8366L21.3395 10.5094H19.8644L17.8594 3.23535H19.3155L20.6185 8.78591H20.7258L22.2213 3.23535H23.5985L25.094 8.78591H25.2076L26.5044 3.23535H27.9399L25.9427 10.5094Z" fill="white"/>
<path d="M29.625 3.23522H31.0069V4.39077H31.1142C31.2962 3.97574 31.6031 3.62782 31.9922 3.39552C32.3813 3.16321 32.8332 3.05809 33.2849 3.09481C33.6389 3.0682 33.9942 3.12156 34.3248 3.25095C34.6553 3.38034 34.9524 3.58243 35.1942 3.84226C35.436 4.10209 35.6163 4.413 35.7216 4.75194C35.8269 5.09089 35.8546 5.44919 35.8027 5.8003V10.5092H34.3671V6.1608C34.3671 4.99184 33.8592 4.4105 32.7975 4.4105C32.5572 4.3993 32.3173 4.4402 32.0942 4.53039C31.8712 4.62058 31.6704 4.75793 31.5054 4.93301C31.3404 5.1081 31.2152 5.31679 31.1385 5.54477C31.0617 5.77275 31.0351 6.01464 31.0606 6.25386V10.5093H29.625V3.23522Z" fill="white"/>
<path d="M38.0938 0.395996H39.5293V10.5097H38.0938V0.395996Z" fill="white"/>
<path d="M41.524 6.87005C41.4783 6.39199 41.533 5.90966 41.6847 5.45398C41.8363 4.9983 42.0815 4.57934 42.4045 4.22397C42.7275 3.8686 43.1212 3.58467 43.5604 3.39037C43.9996 3.19607 44.4745 3.0957 44.9548 3.0957C45.435 3.0957 45.91 3.19607 46.3491 3.39037C46.7883 3.58467 47.182 3.8686 47.5051 4.22397C47.8281 4.57934 48.0733 4.9983 48.2249 5.45398C48.3765 5.90966 48.4313 6.39199 48.3856 6.87005C48.4321 7.34859 48.378 7.83158 48.2268 8.28797C48.0755 8.74436 47.8305 9.16407 47.5074 9.52012C47.1843 9.87617 46.7903 10.1607 46.3507 10.3554C45.9111 10.5501 45.4356 10.6507 44.9548 10.6507C44.474 10.6507 43.9985 10.5501 43.5589 10.3554C43.1193 10.1607 42.7253 9.87617 42.4022 9.52012C42.0791 9.16407 41.834 8.74436 41.6828 8.28797C41.5315 7.83158 41.4775 7.34859 41.524 6.87005ZM46.9082 6.87005C46.9082 5.2933 46.1998 4.37122 44.9568 4.37122C43.7089 4.37122 43.0069 5.2933 43.0069 6.87007C43.0069 8.45946 43.709 9.37443 44.9568 9.37443C46.1998 9.37441 46.9082 8.45312 46.9082 6.87005Z" fill="white"/>
<path d="M49.8945 8.45184C49.8945 7.14246 50.8695 6.38761 52.6 6.28033L54.5704 6.16676V5.53889C54.5704 4.77062 54.0624 4.3368 53.0812 4.3368C52.2798 4.3368 51.7245 4.63101 51.5652 5.1453H50.1753C50.322 3.89587 51.4973 3.09448 53.1474 3.09448C54.9711 3.09448 55.9997 4.00235 55.9997 5.53889V10.509H54.6177V9.48672H54.5041C54.2736 9.8534 53.9499 10.1523 53.566 10.353C53.1821 10.5536 52.7519 10.6488 52.3192 10.6288C52.0139 10.6606 51.7052 10.628 51.4132 10.5332C51.1212 10.4384 50.8523 10.2834 50.6239 10.0783C50.3954 9.87318 50.2125 9.62248 50.0869 9.34234C49.9613 9.0622 49.8957 8.75885 49.8945 8.45184ZM54.5704 7.83027V7.22214L52.7941 7.33572C51.7923 7.40276 51.338 7.74351 51.338 8.38478C51.338 9.03946 51.9059 9.42044 52.6869 9.42044C52.9157 9.4436 53.1468 9.42049 53.3665 9.35249C53.5862 9.2845 53.79 9.173 53.9657 9.02464C54.1415 8.87628 54.2856 8.69409 54.3894 8.4889C54.4933 8.28372 54.5549 8.05973 54.5704 7.83027Z" fill="white"/>
<path d="M57.8867 6.8695C57.8867 4.57101 59.0683 3.11493 60.9062 3.11493C61.3608 3.09398 61.8119 3.20287 62.2069 3.42885C62.602 3.65484 62.9245 3.9886 63.1368 4.3911H63.2441V0.395996H64.6797V10.5097H63.304V9.36042H63.1905C62.9617 9.76022 62.6279 10.0898 62.2253 10.3135C61.8226 10.5372 61.3665 10.6465 60.9062 10.6296C59.0558 10.6296 57.8867 9.17352 57.8867 6.8695ZM59.3697 6.8695C59.3697 8.41235 60.0969 9.34074 61.3132 9.34074C62.5232 9.34074 63.271 8.39896 63.271 6.87582C63.271 5.35979 62.5153 4.40458 61.3132 4.40458C60.1048 4.40458 59.3696 5.33927 59.3696 6.8695H59.3697Z" fill="white"/>
<path d="M70.7946 1.08443C70.7835 0.898493 70.8286 0.713518 70.9238 0.553462C71.0191 0.393407 71.1602 0.265645 71.3289 0.186726C71.4977 0.107808 71.6862 0.0813669 71.8701 0.110831C72.054 0.140296 72.2249 0.224307 72.3605 0.351983C72.4961 0.479658 72.5903 0.645114 72.6308 0.826921C72.6713 1.00873 72.6562 1.19851 72.5876 1.37168C72.519 1.54485 72.4 1.69343 72.246 1.79818C72.092 1.90292 71.9101 1.95901 71.7238 1.95917C71.6048 1.96524 71.4857 1.94718 71.3738 1.90606C71.2619 1.86495 71.1595 1.80163 71.0727 1.71992C70.9859 1.63821 70.9165 1.53979 70.8687 1.43058C70.8209 1.32137 70.7957 1.20363 70.7946 1.08443ZM71.0076 3.23541H72.4384V10.5095H71.0076V3.23541Z" fill="white"/>
<path d="M74.7539 3.23546H76.1358V4.39102H76.2431C76.4251 3.97598 76.732 3.62807 77.1211 3.39576C77.5103 3.16346 77.9621 3.05833 78.4138 3.09505C78.7678 3.06844 79.1232 3.12181 79.4537 3.25119C79.7842 3.38058 80.0813 3.58268 80.3231 3.84251C80.5649 4.10234 80.7452 4.41324 80.8505 4.75219C80.9558 5.09113 80.9835 5.44943 80.9316 5.80054V10.5095H79.496V6.16104C79.496 4.99208 78.9881 4.41074 77.9264 4.41074C77.6861 4.39955 77.4462 4.44045 77.2232 4.53064C77.0001 4.62083 76.7993 4.75817 76.6343 4.93326C76.4693 5.10834 76.3441 5.31703 76.2674 5.54501C76.1906 5.773 76.164 6.01489 76.1895 6.2541V10.5096H74.7539V3.23546Z" fill="white"/>
<path d="M86.7344 6.8695C86.7344 4.57101 87.916 3.11493 89.7538 3.11493C90.2084 3.09398 90.6596 3.20287 91.0546 3.42885C91.4496 3.65484 91.7721 3.9886 91.9845 4.3911H92.0917V0.395996H93.5273V10.5097H92.1517V9.36042H92.0381C91.8093 9.76022 91.4756 10.0898 91.0729 10.3135C90.6703 10.5372 90.2141 10.6465 89.7538 10.6296C87.9033 10.6296 86.7344 9.17352 86.7344 6.8695ZM88.2173 6.8695C88.2173 8.41235 88.9446 9.34074 90.1609 9.34074C91.3708 9.34074 92.1186 8.39896 92.1186 6.87582C92.1186 5.35979 91.363 4.40458 90.1609 4.40458C88.9524 4.40458 88.2173 5.33927 88.2173 6.8695H88.2173Z" fill="white"/>
<path d="M102.035 8.54628C101.84 9.21108 101.418 9.78614 100.842 10.1709C100.265 10.5556 99.5722 10.7254 98.8834 10.6507C98.4042 10.6634 97.9279 10.5716 97.4877 10.3817C97.0475 10.1919 96.6539 9.90849 96.3342 9.55126C96.0145 9.19403 95.7763 8.7715 95.6363 8.31301C95.4963 7.85452 95.4577 7.37105 95.5232 6.89615C95.4594 6.41979 95.4987 5.93527 95.6384 5.47541C95.7781 5.01555 96.015 4.59107 96.333 4.23071C96.651 3.87036 97.0428 3.58254 97.4817 3.38674C97.9206 3.19094 98.3965 3.09173 98.8771 3.09583C100.901 3.09583 102.122 4.47862 102.122 6.76281V7.26375H96.9856V7.3442C96.9631 7.61114 96.9967 7.87983 97.0841 8.13305C97.1715 8.38626 97.3109 8.61841 97.4933 8.81461C97.6757 9.01081 97.8971 9.16674 98.1433 9.27238C98.3894 9.37802 98.655 9.43106 98.9228 9.42808C99.2662 9.46931 99.6141 9.40747 99.9223 9.25044C100.23 9.09341 100.485 8.84828 100.653 8.54623L102.035 8.54628ZM96.9856 6.20204H100.66C100.678 5.9579 100.645 5.71268 100.562 5.48214C100.48 5.25159 100.35 5.04081 100.182 4.86334C100.013 4.68588 99.8092 4.54565 99.5831 4.45167C99.3571 4.3577 99.1139 4.31205 98.8691 4.31766C98.6209 4.31454 98.3745 4.36116 98.1445 4.45476C97.9145 4.54837 97.7056 4.68706 97.53 4.86268C97.3545 5.0383 97.2159 5.24728 97.1224 5.47731C97.0289 5.70733 96.9824 5.95375 96.9856 6.20204H96.9856Z" fill="white"/>
<path d="M12.9753 30.6403H5.32888L3.49261 36.0624H0.253906L7.49644 16.0022H10.8613L18.1039 36.0624H14.81L12.9753 30.6403ZM6.12083 28.1383H12.1819L9.19397 19.3388H9.11035L6.12083 28.1383Z" fill="white"/>
<path d="M33.7456 28.7505C33.7456 33.2954 31.313 36.2155 27.642 36.2155C26.7121 36.2641 25.7873 36.0499 24.9734 35.5974C24.1596 35.1448 23.4897 34.4723 23.0403 33.6567H22.9708V40.9008H19.9688V21.437H22.8746V23.8696H22.9298C23.3998 23.0579 24.0811 22.3888 24.9011 21.9335C25.7211 21.4782 26.6493 21.2537 27.5867 21.2839C31.2988 21.284 33.7456 24.2182 33.7456 28.7505ZM30.6599 28.7505C30.6599 25.7895 29.1296 23.8427 26.7949 23.8427C24.5011 23.8427 22.9583 25.8305 22.9583 28.7505C22.9583 31.6974 24.5011 33.6709 26.7949 33.6709C29.1297 33.6709 30.6599 31.7384 30.6599 28.7505Z" fill="white"/>
<path d="M49.844 28.7505C49.844 33.2954 47.4106 36.2155 43.7397 36.2155C42.8097 36.2641 41.8849 36.0499 41.0711 35.5974C40.2573 35.1448 39.5873 34.4723 39.138 33.6567H39.0685V40.9008H36.0664V21.437H38.9723V23.8696H39.0275C39.4975 23.0579 40.1788 22.3888 40.9988 21.9335C41.8188 21.4782 42.7469 21.2537 43.6844 21.2839C47.3964 21.284 49.844 24.2182 49.844 28.7505ZM46.7575 28.7505C46.7575 25.7895 45.2273 23.8427 42.8925 23.8427C40.5988 23.8427 39.0559 25.8305 39.0559 28.7505C39.0559 31.6974 40.5988 33.6709 42.8925 33.6709C45.2273 33.6709 46.7574 31.7384 46.7574 28.7505H46.7575Z" fill="white"/>
<path d="M60.4794 30.4734C60.7018 32.4627 62.6344 33.7688 65.2751 33.7688C67.8055 33.7688 69.626 32.4626 69.626 30.6689C69.626 29.1119 68.5281 28.1796 65.9283 27.5406L63.3285 26.9143C59.6449 26.0246 57.9348 24.3019 57.9348 21.5065C57.9348 18.0453 60.9511 15.668 65.2326 15.668C69.473 15.668 72.3789 18.0453 72.4767 21.5065H69.4462C69.2648 19.5046 67.6099 18.2962 65.1915 18.2962C62.7731 18.2962 61.1183 19.5188 61.1183 21.2983C61.1183 22.7165 62.1753 23.551 64.7609 24.1899L66.971 24.7325C71.0868 25.7059 72.7953 27.3592 72.7953 30.2934C72.7953 34.0464 69.8074 36.3969 65.0526 36.3969C60.6039 36.3969 57.6003 34.1016 57.4062 30.4732L60.4794 30.4734Z" fill="white"/>
<path d="M79.2756 17.9758V21.437H82.0568V23.8144H79.2756V31.8772C79.2756 33.1298 79.8325 33.7135 81.0551 33.7135C81.3853 33.7077 81.7149 33.6845 82.0426 33.644V36.0072C81.493 36.1099 80.9343 36.1564 80.3752 36.146C77.4141 36.146 76.2593 35.0338 76.2593 32.1974V23.8144H74.1328V21.437H76.2594V17.9758H79.2756Z" fill="white"/>
<path d="M83.6719 28.7507C83.6719 24.149 86.3821 21.2573 90.6084 21.2573C94.8488 21.2573 97.5464 24.1489 97.5464 28.7507C97.5464 33.365 94.863 36.2441 90.6084 36.2441C86.3553 36.2441 83.6719 33.365 83.6719 28.7507ZM94.4876 28.7507C94.4876 25.594 93.0409 23.7309 90.6084 23.7309C88.1758 23.7309 86.7292 25.6082 86.7292 28.7507C86.7292 31.92 88.1758 33.7689 90.6084 33.7689C93.0409 33.7689 94.4876 31.92 94.4876 28.7507H94.4876Z" fill="white"/>
<path d="M100.02 21.4371H102.883V23.9264H102.952C103.146 23.149 103.601 22.4619 104.242 21.9807C104.883 21.4995 105.67 21.2535 106.47 21.284C106.816 21.2828 107.161 21.3204 107.499 21.3961V24.2041C107.062 24.0706 106.606 24.0094 106.15 24.0227C105.714 24.005 105.279 24.0819 104.875 24.2481C104.472 24.4143 104.109 24.6659 103.812 24.9855C103.515 25.3052 103.29 25.6854 103.154 26.1C103.017 26.5147 102.972 26.9539 103.022 27.3876V36.0625H100.02L100.02 21.4371Z" fill="white"/>
<path d="M121.341 31.7667C120.938 34.4217 118.352 36.2438 115.044 36.2438C110.789 36.2438 108.148 33.3932 108.148 28.8199C108.148 24.2323 110.803 21.2571 114.918 21.2571C118.964 21.2571 121.509 24.0367 121.509 28.4712V29.4998H111.179V29.6812C111.131 30.2195 111.199 30.7617 111.377 31.2719C111.555 31.7821 111.839 32.2486 112.211 32.6404C112.583 33.0323 113.035 33.3404 113.535 33.5444C114.035 33.7485 114.573 33.8437 115.113 33.8238C115.823 33.8903 116.535 33.726 117.143 33.3554C117.752 32.9847 118.224 32.4275 118.491 31.7667L121.341 31.7667ZM111.193 27.4016H118.505C118.532 26.9177 118.459 26.4334 118.29 25.9791C118.12 25.5248 117.859 25.1104 117.522 24.7618C117.186 24.4133 116.78 24.1381 116.332 23.9536C115.884 23.7691 115.402 23.6793 114.918 23.6897C114.429 23.6867 113.944 23.7807 113.492 23.966C113.039 24.1514 112.628 24.4245 112.282 24.7696C111.936 25.1147 111.661 25.525 111.474 25.9767C111.287 26.4285 111.192 26.9128 111.193 27.4017V27.4016Z" fill="white"/>
</svg>
