<svg width="31" height="37" viewBox="0 0 31 37" fill="none" xmlns="http://www.w3.org/2000/svg">
<path d="M25.3496 19.6633C25.3677 18.2612 25.7401 16.8864 26.4322 15.6669C27.1244 14.4474 28.1138 13.4228 29.3083 12.6884C28.5494 11.6046 27.5483 10.7127 26.3845 10.0835C25.2206 9.45434 23.9261 9.10519 22.6037 9.06382C19.7828 8.76771 17.0481 10.7518 15.6106 10.7518C14.1453 10.7518 11.9321 9.09322 9.5488 9.14225C8.00724 9.19205 6.50486 9.64033 5.18805 10.4434C3.87125 11.2465 2.78492 12.377 2.03492 13.7247C-1.21385 19.3496 1.20944 27.6162 4.32155 32.163C5.87862 34.3894 7.69836 36.8764 10.0795 36.7882C12.4096 36.6915 13.2798 35.3024 16.0924 35.3024C18.8789 35.3024 19.6953 36.7882 22.1248 36.7321C24.6251 36.6915 26.2003 34.4958 27.7028 32.2483C28.8215 30.6619 29.6824 28.9086 30.2535 27.0533C28.8009 26.439 27.5613 25.4106 26.6893 24.0964C25.8172 22.7823 25.3513 21.2405 25.3496 19.6633Z" fill="white"/>
<path d="M20.7623 6.07373C22.1256 4.4372 22.7972 2.3337 22.6346 0.209961C20.5519 0.428712 18.628 1.42413 17.2463 2.99787C16.5708 3.76669 16.0534 4.66111 15.7237 5.63C15.394 6.5989 15.2586 7.62326 15.325 8.64455C16.3668 8.65527 17.3974 8.42947 18.3392 7.98417C19.281 7.53886 20.1095 6.88565 20.7623 6.07373Z" fill="white"/>
</svg>
