<svg width="123" height="39" viewBox="0 0 123 39" fill="none" xmlns="http://www.w3.org/2000/svg">
<path d="M44.0358 9.44335C42.7412 9.44335 41.65 8.99045 40.787 8.09891C39.9311 7.23233 39.4532 6.03766 39.4746 4.81804C39.4746 3.51639 39.9168 2.41444 40.787 1.54073C41.6464 0.649192 42.7377 0.196289 44.0322 0.196289C45.3125 0.196289 46.4037 0.649192 47.281 1.54073C48.1511 2.44297 48.5933 3.54492 48.5933 4.81804C48.5791 6.12325 48.1369 7.2252 47.281 8.09534C46.4215 8.99401 45.3303 9.44335 44.0358 9.44335ZM5.51764 9.44335C4.25165 9.44335 3.15327 8.99758 2.2546 8.11674C1.36306 7.23946 0.910156 6.13039 0.910156 4.8216C0.910156 3.51282 1.36306 2.40374 2.2546 1.52647C3.13544 0.645626 4.23382 0.199855 5.51764 0.199855C6.14528 0.199855 6.7551 0.324671 7.33995 0.577869C7.9141 0.823934 8.38127 1.15915 8.72718 1.56926L8.81277 1.67268L7.84634 2.62128L7.74649 2.5036C7.20087 1.85456 6.4698 1.53717 5.50337 1.53717C4.64036 1.53717 3.8879 1.84386 3.26739 2.4501C2.64331 3.05992 2.32592 3.85874 2.32592 4.82517C2.32592 5.7916 2.64331 6.59042 3.26739 7.20023C3.8879 7.80648 4.64036 8.11317 5.50337 8.11317C6.42344 8.11317 7.1973 7.80648 7.79998 7.20023C8.1566 6.84362 8.3777 6.34436 8.45616 5.71314H5.35716V4.3794H9.78633L9.80416 4.50065C9.83626 4.72532 9.86836 4.95712 9.86836 5.17109C9.86836 6.40141 9.49747 7.39637 8.76285 8.131C7.92836 9.00115 6.83712 9.44335 5.51764 9.44335ZM56.7313 9.25434H55.3655L51.1824 2.56066L51.218 3.76602V9.25078H49.8522V0.388863H51.4106L51.4534 0.45662L55.3869 6.7616L55.3512 5.5598V0.388863H56.7313V9.25434ZM33.7724 9.25434H32.3887V1.72261H29.9886V0.388863H36.1688V1.72261H33.7688V9.25434H33.7724ZM28.8617 9.25434H27.4816V0.388863H28.8617V9.25434ZM21.1053 9.25434H19.7252V1.72261H17.3252V0.388863H23.5054V1.72261H21.1053V9.25434ZM16.4515 9.24008H11.1593V0.388863H16.4515V1.72261H12.543V4.15473H16.0699V5.47421H12.543V7.90633H16.4515V9.24008ZM41.7998 7.1824C42.4167 7.79935 43.1656 8.10961 44.0358 8.10961C44.9309 8.10961 45.6619 7.80648 46.2718 7.1824C46.878 6.57616 47.1847 5.7809 47.1847 4.8216C47.1847 3.86231 46.878 3.06348 46.2753 2.4608C45.6584 1.84386 44.9059 1.5336 44.0393 1.5336C43.1442 1.5336 42.4132 1.83672 41.8069 2.4608C41.2007 3.06705 40.894 3.86231 40.894 4.8216C40.894 5.7809 41.1971 6.57972 41.7998 7.1824Z" fill="white"/>
<path fill-rule="evenodd" clip-rule="evenodd" d="M39.6173 21.1977C36.2473 21.1977 33.5156 23.7546 33.5156 27.2815C33.5156 30.7764 36.2651 33.3654 39.6173 33.3654C42.9873 33.3654 45.719 30.7907 45.719 27.2815C45.719 23.7546 42.9873 21.1977 39.6173 21.1977ZM39.6173 30.9547C37.7736 30.9547 36.1866 29.4284 36.1866 27.2673C36.1866 25.0741 37.7772 23.5799 39.6173 23.5799C41.461 23.5799 43.0479 25.0741 43.0479 27.2673C43.0515 29.4426 41.461 30.9547 39.6173 30.9547ZM26.3048 21.1977C22.9348 21.1977 20.2031 23.7546 20.2031 27.2815C20.2031 30.7764 22.9526 33.3654 26.3048 33.3654C29.6748 33.3654 32.4065 30.7907 32.4065 27.2815C32.4065 23.7546 29.6713 21.1977 26.3048 21.1977ZM26.3048 30.9547C24.4611 30.9547 22.8742 29.4284 22.8742 27.2673C22.8742 25.0741 24.4647 23.5799 26.3048 23.5799C28.1485 23.5799 29.7355 25.0741 29.7355 27.2673C29.7355 29.4426 28.1485 30.9547 26.3048 30.9547ZM10.4639 23.0556V25.6304H16.6441C16.4551 27.0747 15.9772 28.141 15.2461 28.8721C14.3403 29.7779 12.9424 30.7621 10.4782 30.7621C6.68021 30.7621 3.70959 27.6952 3.70959 23.8973C3.70959 20.0993 6.68021 17.0324 10.4782 17.0324C12.5287 17.0324 14.0229 17.8419 15.132 18.8761L16.9579 17.0502C15.4173 15.5738 13.3668 14.4434 10.4924 14.4434C5.28228 14.4434 0.910156 18.6871 0.910156 23.883C0.910156 29.0932 5.27871 33.3226 10.4924 33.3226C13.3061 33.3226 15.4173 32.4026 17.0863 30.6694C18.7873 28.9683 19.3258 26.5683 19.3258 24.6319C19.3258 24.0292 19.2795 23.4872 19.1832 23.0271H10.4603C10.4639 23.0235 10.4639 23.0556 10.4639 23.0556ZM75.2575 25.0598C74.7476 23.694 73.207 21.1834 70.0474 21.1834C66.9163 21.1834 64.313 23.6476 64.313 27.2673C64.313 30.6837 66.8877 33.3512 70.3505 33.3512C73.1321 33.3512 74.7511 31.6501 75.418 30.6516L73.3532 29.2679C72.6685 30.2843 71.7163 30.9511 70.3648 30.9511C68.9989 30.9511 68.0432 30.3306 67.4084 29.1074L75.5428 25.7374C75.5428 25.741 75.2575 25.0598 75.2575 25.0598ZM66.9626 27.0925C66.8984 24.7424 68.7885 23.5478 70.1401 23.5478C71.2064 23.5478 72.0943 24.072 72.3975 24.8352L66.9626 27.0925ZM60.3545 32.9874H63.0256V15.1138H60.3545V32.9874ZM55.9682 22.5492H55.8719C55.2692 21.8324 54.1244 21.1834 52.6623 21.1834C49.6275 21.1834 46.8316 23.8545 46.8316 27.2851C46.8316 30.7015 49.6133 33.3405 52.6623 33.3405C54.1066 33.3405 55.2692 32.6879 55.8719 31.9568H55.9682V32.8305C55.9682 35.1521 54.7271 36.4038 52.7265 36.4038C51.0896 36.4038 50.0733 35.227 49.6596 34.2427L47.338 35.2127C48.0049 36.8175 49.7844 38.8038 52.7229 38.8038C55.854 38.8038 58.5073 36.9601 58.5073 32.4632V21.5472H55.9824V22.5492C55.986 22.5492 55.9682 22.5492 55.9682 22.5492ZM52.9013 30.9547C51.0575 30.9547 49.517 29.4141 49.517 27.2851C49.517 25.1383 51.0575 23.5834 52.9013 23.5834C54.7271 23.5834 56.1429 25.1561 56.1429 27.2851C56.1607 29.4141 54.7307 30.9547 52.9013 30.9547ZM87.7641 15.1138H81.3771V32.9874H84.0481V26.2188H87.7676C90.724 26.2188 93.6304 24.0756 93.6304 20.6734C93.6304 17.2713 90.7347 15.1138 87.7641 15.1138ZM87.8425 23.7225H84.0446V17.5887H87.8425C89.8431 17.5887 90.9736 19.2398 90.9736 20.6556C90.9736 22.0571 89.8289 23.7225 87.8425 23.7225ZM104.336 21.1656C102.396 21.1656 100.395 22.025 99.5681 23.8973L101.936 24.8815C102.446 23.8973 103.38 23.562 104.368 23.562C105.752 23.562 107.15 24.3894 107.182 25.8658V26.0548C106.704 25.7838 105.656 25.3701 104.4 25.3701C101.843 25.3701 99.2507 26.768 99.2507 29.3891C99.2507 31.7892 101.348 33.3298 103.683 33.3298C105.477 33.3298 106.465 32.5202 107.082 31.5823H107.178V32.966H109.753V26.119C109.753 22.9308 107.385 21.1656 104.336 21.1656ZM104.001 30.9547C103.127 30.9547 101.904 30.5268 101.904 29.4284C101.904 28.0447 103.43 27.5205 104.732 27.5205C105.909 27.5205 106.465 27.7737 107.164 28.1232C106.971 29.7279 105.616 30.9404 104.001 30.9547ZM119.146 21.5472L116.079 29.3H115.983L112.806 21.5472H109.931L114.699 32.3847L111.982 38.408H114.763L122.099 21.5472H119.146ZM95.1032 32.9874H97.7743V15.1138H95.1032V32.9874Z" fill="white"/>
</svg>
