<svg width="211" height="117" viewBox="0 0 211 117" fill="none" xmlns="http://www.w3.org/2000/svg">
<path d="M57.9313 19.7682C57.2988 20.7028 56.5928 21.6324 56.2804 22.7499C55.8207 24.3907 55.7622 27.8906 56.4709 26.1127C57.662 27.9185 62.3074 26.2295 57.7408 26.3667C56.3185 25.6301 56.2575 22.8592 57.6138 22.0515C57.6138 25.653 57.7687 22.0947 58.6932 21.0991C59.8514 19.8495 61.9543 20.5428 60.5981 19.5752C61.9874 19.1916 61.0019 19.0266 60.1536 19.1307C59.6558 19.1916 58.7669 19.9688 58.4392 19.3847C59.6152 18.7218 60.6971 18.3891 62.0559 18.4957C64.1107 13.4897 70.3282 11.9354 75.1284 13.7996C80.4291 8.05195 87.0529 8.73517 89.5978 16.4639C92.5009 16.121 94.8426 17.2893 94.548 20.5251C96.3131 20.1238 98.4644 20.4362 99.5616 21.9855C100.781 23.7049 100.753 28.3807 98.3552 28.777H57.6138C53.5094 26.6968 54.7209 22.0896 57.9313 19.7656V19.7682Z" fill="#C9EAF8"/>
<path d="M57.9327 19.7691C57.9581 19.7513 57.9174 19.6827 58.4406 19.3881C58.7683 19.9722 59.6572 19.1951 60.155 19.1341C61.0033 19.03 61.9888 19.1951 60.5995 19.5786C61.9583 20.5462 59.8528 19.8529 58.6946 21.1025C57.7727 22.0981 57.6152 25.6538 57.6152 22.0549C56.2589 22.8626 56.3199 25.6335 57.7422 26.3701C62.3113 26.2329 57.6635 27.9244 56.4723 26.1161C55.7637 27.8914 55.8221 24.3941 56.2818 22.7534C56.5942 21.6358 57.3003 20.7037 57.9327 19.7716V19.7691Z" fill="white"/>
<path d="M96.3258 20.9082C101.027 21.1393 99.6809 26.7828 99.4345 26.3028C99.3786 26.191 99.5209 25.8228 99.371 25.7313C99.3126 25.6958 99.1348 26.1656 98.863 26.3663C97.3518 27.4787 92.1604 28.1391 90.2327 28.0172C90.0295 28.0045 89.4022 27.4965 89.0898 28.0172C88.592 27.24 83.8171 27.1638 83.5682 27.4457C83.4869 27.5372 84.2692 27.6845 83.3777 27.8902C81.93 28.2229 70.7675 28.2458 68.5273 28.1442C66.6885 28.0604 62.6425 27.72 65.0376 27.4457L63.3867 26.9378L66.1145 27.0013C66.5488 26.7752 64.0801 26.1199 65.6065 26.2393C66.5793 26.3155 69.7744 27.6794 75.5068 27.6362C79.667 27.6057 82.217 26.7574 87.0579 26.8743C87.1036 26.8743 87.764 26.6457 87.9469 26.6203C89.9457 27.4864 97.6922 27.3848 98.7995 25.5408C99.9069 23.6944 98.1621 21.5279 96.3258 21.1622V20.9082Z" fill="white"/>
<path d="M81.5996 10.4991C85.9706 10.0801 88.9016 14.0676 89.087 18.1135C88.5739 13.4606 84.335 9.75749 80.3296 12.7824C77.1803 15.1622 78.4603 18.6596 77.9193 15.0683L77.3479 16.0207C77.1117 15.1978 77.7365 13.585 76.5859 13.9888C77.292 13.6765 77.1777 13.0796 77.7289 12.465C78.6178 11.4719 80.2611 10.6261 81.5996 10.4966V10.4991Z" fill="white"/>
<path d="M70.0485 13.5488C74.5262 14.3413 72.5121 14.166 72.5222 14.5013C72.5349 14.8467 75.1256 15.0016 73.1572 15.2632C75.7707 19.84 72.4232 15.2937 71.8238 15.1997C71.2422 15.1083 71.138 15.6823 70.9348 15.5807C70.7698 15.4969 71.5596 14.1711 67.8896 14.6918C66.3479 14.9102 66.2514 15.6162 65.7307 15.9617C64.9612 16.4722 62.5991 16.7846 64.0164 21.2293C62.7109 20.3937 63.9097 17.8818 62.7464 20.9753C63.5617 24.9882 62.2283 22.1588 62.3655 20.2133C62.6398 16.3299 66.4393 13.846 70.0434 13.5488H70.0485Z" fill="white"/>
<path d="M21.5416 60.7725C21.5073 60.8655 20.8611 61.1151 21.052 62.7306C20.5821 64.6985 19.5443 67.3224 19.0939 69.4567C18.2226 73.7891 16.0588 90.3988 17.6253 93.3066C21.3066 100.136 25.1494 78.8704 26.432 75.5709C28.9579 69.0553 32.8105 64.6789 40.3738 66.6419C40.7605 67.5671 40.1045 71.3561 40.129 72.5114H38.1709C38.0583 71.9729 37.9653 71.7918 37.4366 71.5323C35.7379 70.6903 29.2566 71.6106 33.5253 72.0218V72.5114C32.8938 72.5652 32.0273 72.34 32.1791 73.0009C32.463 73.0205 32.7567 72.9715 33.0357 73.0009V73.4904C32.463 73.4072 32.3406 73.4953 32.0567 73.98C31.9832 74.1023 32.228 74.1954 32.3014 74.4695C32.3161 74.5282 31.5035 75.0227 32.791 74.959V75.4486C31.5867 75.3898 32.3455 75.6835 32.3014 75.9381C32.2867 76.0164 32.3112 76.1045 32.3014 76.1828C32.2378 76.6969 32.2427 76.408 32.3014 76.9171C32.3112 76.9955 32.2916 77.0836 32.3014 77.1619C32.4532 78.2193 32.7518 77.4948 32.791 77.6514C32.8252 77.7836 32.7763 77.9843 32.791 78.141C30.6566 78.8704 34.6022 78.5766 37.1918 78.6305C37.1918 78.8753 37.5051 78.9487 37.4366 79.12C34.9204 79.3599 32.37 78.4738 32.0567 79.8543C31.8315 80.8383 36.4184 80.1285 37.3142 80.3438L37.9261 79.7319C37.6275 78.3123 38.1905 76.829 38.1709 75.4535H40.129C40.2171 82.0768 40.1045 88.661 40.129 95.2647C31.6553 95.0787 23.1081 95.72 14.6931 94.7752C14.5413 90.3351 14.7567 86.4336 15.1826 82.0572C15.2364 81.4942 15.1728 80.432 15.1826 80.3438C15.2022 80.1774 15.3637 80.1334 15.4274 79.6096C16.0197 74.9199 17.0526 70.098 17.875 65.423C17.9386 65.0607 18.8834 64.581 19.5884 58.3297C19.7646 56.7779 19.8331 55.2506 19.8331 53.6841C21.2087 52.6218 20.5527 50.2231 22.036 49.2832C22.5794 49.3468 24.2585 49.2098 24.4836 49.8951C23.0102 53.3904 22.4472 57.1255 21.5465 60.7774L21.5416 60.7725Z" fill="#096AFB"/>
<path d="M40.128 95.263C40.1328 96.5357 40.4364 98.1414 40.6175 99.4191C40.5783 99.4289 40.6664 100.036 40.2503 100.153C39.7412 100.295 36.7747 100.114 35.4823 100.153C32.0556 100.261 28.3646 100.447 24.9623 100.398C22.5147 100.364 19.5383 100.423 17.1348 100.153C13.8206 99.7813 14.8389 99.1939 14.6871 94.7734C23.107 95.7133 31.6542 95.0769 40.1231 95.263H40.128Z" fill="#387AF6"/>
<path d="M75.1113 98.9297C75.1651 99.3164 75.028 99.8549 75.1113 100.154C72.879 99.7864 71.8706 100.726 69.9761 100.888C74.5434 79.138 42.6261 79.6716 47.962 100.888C47.6927 100.863 43.9038 101.118 42.582 101.133V98.9297C43.1352 98.8514 45.5535 99.1011 45.764 98.8073C43.9136 78.9324 73.2266 78.5457 71.9342 98.5626C72.3552 99.1598 73.7553 98.9052 75.1162 98.9297H75.1113Z" fill="#0A171D"/>
<path d="M48.2016 37.2936C50.8108 37.2936 53.4053 37.509 56.0292 37.5384C59.4265 37.5775 62.9266 37.7146 66.3044 37.2936C68.1108 37.7538 70.0836 37.5139 71.9291 37.5384C73.1676 37.5579 73.4711 38.023 73.6424 38.0279C74.0585 38.0328 74.4698 38.023 74.8663 38.0279C74.9152 38.0279 74.7243 38.3999 75.8453 38.2727C76.0803 38.9825 75.3117 39.1489 74.7439 39.2517C70.2696 40.0741 34.8423 38.6741 26.4371 39.4965C26.5105 39.3986 26.1385 38.6447 27.049 38.0279C29.5407 36.8726 30.2212 38.537 30.9604 37.0488C34.0591 38.3608 40.2908 37.3034 45.3917 37.2936C45.5728 37.2936 45.4553 37.7831 45.6365 37.7831C46.1211 37.0488 47.203 37.2936 48.2065 37.2936H48.2016Z" fill="#387AF6"/>
<path d="M38.173 72.5152C38.2807 73.0341 38.1583 74.5174 38.173 75.4524C38.1926 76.8329 37.6296 78.3161 37.9283 79.7309L37.3163 80.3428C36.4205 80.1274 31.8336 80.8372 32.0588 79.8533H37.3163C37.5709 79.726 37.3653 79.3001 37.4387 79.119C37.5073 78.9476 37.194 78.8742 37.194 78.6294C37.194 78.605 37.5024 78.8203 37.194 78.1399C37.0128 77.7336 36.8072 78.0322 36.7044 77.6504C36.8953 77.6161 37.1156 77.6748 37.3163 77.6504V77.1608H32.3036C32.2938 77.0825 32.3134 76.9944 32.3036 76.9161C39.343 77.1315 39.0297 75.9566 32.3036 76.1818C32.3134 76.1035 32.2889 76.0153 32.3036 75.937H37.3163C37.7031 75.4866 37.1842 75.472 37.194 75.4475C37.5024 74.8258 37.194 74.9824 37.194 74.958C37.3212 74.302 37.2723 74.816 37.194 74.4684C37.1352 74.2041 37.5073 74.3803 37.194 73.9789C37.0961 73.8516 37.6296 73.5726 37.3163 73.4894H33.0379V72.9998C38.4178 73.5481 38.9465 72.0697 33.5274 72.5103V72.0208C34.9715 72.1578 37.8108 72.1725 37.4387 71.5312C37.9674 71.7907 38.0604 71.9718 38.173 72.5103V72.5152Z" fill="#387AF6"/>
<path d="M17.8752 65.4212C17.0577 70.0962 16.0199 74.918 15.4276 79.6077C13.6604 79.4853 14.331 79.0301 14.6933 77.8944C15.9269 74.0124 16.485 69.8171 16.8962 65.6659C17.3563 65.6219 17.4787 65.4016 17.8752 65.4212Z" fill="#387AF6"/>
<path d="M19.8306 53.679C19.8306 55.2455 19.7621 56.7729 19.5859 58.3247C18.4159 61.7563 18.2396 63.2885 14.9402 65.418H14.6955C14.7444 64.904 14.3479 64.4144 14.4507 63.3375C14.6122 61.6584 15.4885 59.9156 15.6745 58.3247C15.9878 55.6029 15.6402 52.9154 15.9193 50.2523C17.8138 50.2866 19.1159 54.6189 19.5859 51.8433C19.7327 50.9817 19.5614 50.6489 19.0963 50.0076C20.5209 49.8215 19.8306 51.3391 19.8306 53.6741V53.679Z" fill="#363635"/>
<path d="M19.095 50.011C19.5601 50.6523 19.7314 50.9852 19.5845 51.8467C19.1097 54.6224 17.8076 50.29 15.918 50.2558C15.9424 50.011 16.1774 49.9816 16.1627 49.7662C16.3634 49.7075 16.6914 49.825 16.897 49.7662C17.4502 49.6096 18.5321 50.0453 18.6104 49.5215C18.7915 49.5851 18.9971 49.8739 19.0999 50.011H19.095Z" fill="#242625"/>
<path d="M17.8754 65.4214C17.4838 65.4018 17.3565 65.6221 16.8963 65.6662C16.0935 65.7445 14.904 65.7445 14.9382 65.4214C18.2377 63.292 18.4188 61.7597 19.5839 58.3281C18.8838 64.5794 17.9341 65.0592 17.8705 65.4214H17.8754Z" fill="#2B1A19"/>
<path d="M40.1312 72.5137C40.1557 73.5172 40.1166 74.4767 40.1312 75.4508H38.1731C38.1584 74.5207 38.2808 73.0375 38.1731 72.5137H40.1312Z" fill="#387AF6"/>
<path d="M22.0326 49.2768C20.5542 50.2216 21.2053 52.6154 19.8297 53.6777C19.8297 51.3377 20.5248 49.8251 19.0954 50.0111C18.9681 48.3907 21.0682 49.1593 22.0326 49.2768Z" fill="#262626"/>
<path d="M37.4424 79.119C37.369 79.3001 37.5746 79.726 37.32 79.8533H32.0625C32.3758 78.4728 34.9262 79.3589 37.4424 79.119Z" fill="#222816"/>
<path d="M37.4408 71.5365C37.8128 72.1778 34.9687 72.1631 33.5295 72.0261C29.2657 71.6149 35.747 70.6994 37.4408 71.5365Z" fill="#0F110D"/>
<path d="M32.3076 76.9155C32.2489 76.4064 32.244 76.6952 32.3076 76.1812C39.0338 75.956 39.3471 77.1309 32.3076 76.9155Z" fill="#0F110D"/>
<path d="M36.7095 77.6497C35.7206 77.821 33.9632 77.5224 32.7981 77.6497C32.759 77.493 32.4603 78.2175 32.3086 77.1602H37.3214V77.6497C37.1207 77.6742 36.9004 77.6154 36.7095 77.6497Z" fill="#0F110D"/>
<path d="M32.7927 75.447H37.1936C37.1936 75.447 37.7027 75.4813 37.316 75.9366H32.3032C32.3472 75.682 31.5836 75.3883 32.7927 75.447Z" fill="#0F110D"/>
<path d="M37.1964 74.4727C37.2747 74.8153 37.3237 74.3062 37.1964 74.9622H32.7955C31.5081 75.0258 32.3207 74.5314 32.306 74.4727H37.1964Z" fill="#0F110D"/>
<path d="M37.1956 73.9824C37.5089 74.3838 37.1369 74.2027 37.1956 74.472H32.3052C32.2318 74.1978 31.987 74.1048 32.0605 73.9824H37.1956Z" fill="#387AF6"/>
<path d="M33.5239 72.5149C38.943 72.0743 38.4143 73.5527 33.0344 73.0044C32.7553 72.975 32.4616 73.024 32.1777 73.0044C32.0259 72.3435 32.8924 72.5687 33.5239 72.5149Z" fill="#0F110D"/>
<path d="M33.0337 73.4945H37.3122C37.6255 73.5777 37.0919 73.8567 37.1899 73.984H32.0547C32.3386 73.4994 32.461 73.4113 33.0337 73.4945Z" fill="#0F110D"/>
<path d="M32.7907 78.1387H37.1915C37.4999 78.8191 37.1915 78.6037 37.1915 78.6282C34.597 78.5744 30.6563 78.8681 32.7907 78.1387Z" fill="#0F110D"/>
<path d="M37.1977 74.9571C37.1977 74.9571 37.5061 74.8249 37.1977 75.4466H32.7969V74.9571H37.1977Z" fill="#387AF6"/>
<path d="M36.7071 77.6498C36.8099 78.0316 37.0155 77.733 37.1967 78.1393H32.7958C32.7811 77.9827 32.8301 77.7819 32.7958 77.6498C33.9609 77.5225 35.7232 77.8211 36.7071 77.6498Z" fill="#387AF6"/>
<path d="M146.531 66.1562C142.292 67.0129 135.982 68.878 132.834 71.5362C131.449 71.9719 130.259 72.4859 128.923 73.0048L129.045 72.2705H41.2285V75.2077L122.681 75.4524L124.517 74.9629C121.967 76.0937 118.623 78.6099 115.955 78.8742C113.811 78.2819 99.7518 82.4967 98.9538 83.0303C98.5035 83.3338 98.616 83.3828 98.8314 83.7646C98.43 83.8576 97.8573 83.5639 97.8524 84.0094C97.1426 84.5723 96.8488 85.2332 96.3838 85.9675C95.8551 86.8046 95.9481 87.2158 95.6495 87.9256C95.3313 88.6844 95.16 89.0173 94.9152 89.8837C94.8026 90.2852 93.9508 91.1467 93.9361 91.23C93.6914 92.4636 94.1956 95.8658 93.6914 98.0785C93.2067 98.2498 92.962 98.4848 92.7123 98.9351C86.8624 98.2106 80.9391 99.0428 75.099 98.9351C73.743 98.9107 72.343 99.1652 71.9171 98.568C73.2095 78.5511 43.8964 78.9379 45.7469 98.8128C45.5364 99.1065 43.123 98.8519 42.5649 98.9351C42.002 99.0184 41.6054 98.9841 40.8516 99.1799L41.2187 66.1611H146.517L146.531 66.1562Z" fill="#096AFB"/>
<path d="M92.7189 98.9302C92.5525 99.2288 92.4399 100.002 92.4742 100.399L91.8623 100.888C89.1796 100.668 76.2414 101.177 75.4728 100.888C75.4337 100.874 75.1497 100.32 75.1057 100.154C75.0225 99.8554 75.1595 99.317 75.1057 98.9302C80.9458 99.0379 86.8642 98.2057 92.7189 98.9302Z" fill="#0C4E67"/>
<path d="M193.253 39.2465C193.869 39.3493 195.069 38.9577 195.456 39.6137C195.857 42.0564 197.6 53.6093 197.903 54.2898C198.001 54.5101 198.422 54.3877 198.637 54.4122C198.623 55.6017 198.819 56.6787 198.882 57.8389C198.98 59.6256 199.264 61.4124 199.372 63.2188C199.568 66.4644 199.641 69.7442 199.617 73.0045C199.587 72.9604 199.117 72.5247 198.882 72.2702C198.417 68.2609 198.295 64.1538 197.658 60.1641C197.174 57.1144 194.041 42.1152 191.789 40.9648C190.971 40.5438 190.443 40.9305 189.953 40.4752L30.7191 40.9648L28.149 41.3319L24.6 48.7924C23.6649 48.8217 22.7202 48.7532 21.7852 48.7924C22.1621 45.2384 24.4286 42.2718 26.4308 39.4962C34.8409 38.6787 70.2633 40.0738 74.7376 39.2514C75.3054 39.1486 76.074 38.9822 75.839 38.2724C79.0307 38.3262 82.1833 37.9933 85.3799 38.0276C86.3492 38.0374 87.48 37.773 88.3171 37.7828C88.601 37.7828 88.8262 38.2724 88.929 38.2724C95.9146 38.3458 102.998 38.5563 109.964 38.5171C113.719 38.4927 115.422 38.0325 115.711 38.0276C116.881 38.0178 117.939 38.1745 117.914 37.7828C122.408 37.773 126.877 38.0668 131.366 38.0276C132.502 38.0178 133.628 38.101 134.793 38.0276C135.278 37.9982 135.782 38.0668 136.262 38.0276C136.79 37.9835 136.815 37.7975 136.996 37.7828C138.151 38.4535 140.08 37.8269 141.152 37.7828C141.715 37.7584 142.302 37.8269 142.865 37.7828C145.587 38.2283 148.431 38.0276 151.182 38.0276C156.988 38.0276 162.75 37.9444 168.551 37.7828C168.713 37.7828 168.879 37.7828 169.041 37.7828C170.705 37.7339 171.527 37.5479 171.733 37.5381C172.448 37.5087 173.295 37.308 173.936 37.2933C175.223 37.2639 176.374 37.6605 177.602 37.7828C179.859 38.008 177.989 36.3534 183.349 37.2933C184.994 39.5892 189.655 38.6542 193.258 39.2514L193.253 39.2465Z" fill="#096AFB"/>
<path d="M191.78 40.9602V41.205C189.426 41.1952 187.027 41.6113 184.687 41.6945C180.58 41.8414 176.336 41.8708 172.214 41.9393C168.817 41.9931 165.356 41.8659 161.939 41.9393C157.582 42.0372 153.21 41.8659 148.854 41.9393L148.242 42.4288C145.065 41.5868 139.234 42.4043 135.279 42.3064C135.284 48.6263 135.274 54.9461 135.279 61.261C135.279 62.6856 135.108 64.4087 135.524 64.6877C135.196 64.6877 134.873 64.6877 134.545 64.6877V42.3064C134.119 41.7092 121.611 42.4288 119.869 42.4288C116.78 42.4288 113.666 42.419 110.572 42.4288C106.499 42.4386 102.417 42.419 98.3439 42.4288C94.7704 42.4386 91.1527 42.4141 87.5841 42.4288C82.3706 42.4533 77.1424 42.4092 71.9289 42.4288C67.7728 42.4435 63.6069 42.4043 59.4557 42.4288C53.3464 42.4631 47.2175 42.3015 41.113 42.5512V64.8101C41.304 65.2898 43.8348 64.9227 44.295 64.9325C48.1182 65.001 51.9659 64.9178 55.7891 64.9325C55.7891 65.094 55.8479 65.378 55.6668 65.422C54.7513 65.6423 47.3545 65.3388 44.9069 65.422C43.0467 65.4857 39.9871 66.6312 38.9151 65.1773C39.15 65.0989 39.9871 65.1185 40.1389 64.8101C40.1291 60.9379 40.1487 57.0609 40.1389 53.1936C40.1291 49.5711 40.1438 45.9387 40.1389 42.3113C39.6689 41.9148 39.3214 42.4631 39.1598 42.4337C36.7415 41.9736 34.7002 42.3309 32.3113 42.4337C28.6888 42.5904 28.0181 40.035 25.218 49.0375C24.3858 49.0228 24.9047 49.1501 25.7076 49.7718C24.5327 49.2333 23.6613 53.5803 23.8718 53.6831L26.4418 50.2564C26.667 50.3984 26.8824 50.555 27.1761 50.5012C26.1873 51.8229 25.1446 53.1495 24.239 54.5349C24.0823 54.7796 23.8865 54.1433 23.5047 54.7796C23.3627 55.0146 23.7641 55.2447 23.7494 55.2692C23.5781 55.5727 22.8683 56.0133 22.7704 56.2482C22.6823 56.4636 22.3739 58.4756 21.5466 60.7715C22.4473 57.1196 23.0053 53.3845 24.4837 49.8893C24.2585 49.2039 22.5795 49.341 22.0361 49.2773C21.0717 49.1599 18.9765 48.3913 19.0989 50.0116C18.9961 49.8746 18.7954 49.5857 18.6094 49.5221C19.1528 47.7892 20.2101 48.8563 21.7913 48.7878C22.7214 48.7486 23.6711 48.8172 24.6061 48.7878L28.1552 41.3274L30.7252 40.9602L189.959 40.4707C190.449 40.926 190.978 40.5392 191.795 40.9602H191.78Z" fill="#11364A"/>
<path d="M39.1548 42.4286C33.7455 50.4519 27.8271 58.1082 22.2758 66.0337C21.3066 67.4141 18.2764 69.5289 19.8282 71.1688C18.1834 72.9556 18.3596 77.8264 17.8701 80.7098C26.0746 72.3829 33.3294 62.8811 40.129 53.1933C40.1388 57.0606 40.1192 60.9377 40.129 64.8098C39.9821 65.1182 39.1401 65.0987 38.9052 65.177C37.838 65.5246 35.5078 65.035 35.7232 65.9113C24.278 67.2673 24.3906 87.2646 20.5576 92.2039C19.8674 93.0949 18.5995 94.4166 17.6204 93.3054C16.0539 90.3975 18.2176 73.7927 19.089 69.4555C19.5394 67.3211 20.5772 64.6973 21.0471 62.7293C21.1989 62.093 21.3751 61.4174 21.5366 60.7712C22.364 58.4753 22.6724 56.4634 22.7605 56.248C22.8535 56.013 23.5682 55.5724 23.7395 55.2689C23.7542 55.2444 23.3528 55.0144 23.4948 54.7794C23.8766 54.143 24.0675 54.7794 24.2291 54.5346C25.1347 53.1492 26.1725 51.8226 27.1662 50.5009C27.4306 50.1435 29.3789 49.9722 27.9005 47.8085C28.6055 47.6274 28.6544 47.412 29.1244 46.9518L32.3063 42.4286C34.6952 42.3257 36.7365 41.9684 39.1548 42.4286Z" fill="#11364A"/>
<path d="M83.4237 64.9336C87.4133 64.9336 91.4177 64.9336 95.4074 64.9336C98.418 64.9336 101.478 64.6937 104.459 64.6888C113.995 64.6693 123.536 64.7574 133.077 64.6888C133.561 64.6888 134.056 64.6888 134.545 64.6888C134.873 64.6888 135.191 64.6888 135.524 64.6888C139.108 64.6595 142.706 64.6888 146.284 64.6888C149.711 64.6888 153.133 64.7623 156.559 64.6888V64.9336C153.231 65.149 149.799 65.4966 146.529 66.1574H41.2311L40.864 99.1762C40.864 99.1762 40.9619 99.3426 40.6192 99.421C40.4381 98.1384 40.1346 96.5327 40.1297 95.2648C40.1052 88.6562 40.2178 82.072 40.1297 75.4536C40.115 74.4794 40.1542 73.5248 40.1297 72.5164C40.1052 71.3611 40.7612 67.5673 40.3745 66.647C38.9695 65.4966 37.3394 65.7217 35.7288 65.9127C35.5134 65.0364 37.8436 65.5259 38.9108 65.1784C39.9828 66.6323 43.0424 65.4819 44.9026 65.4231C47.3551 65.3399 54.747 65.6434 55.6625 65.4231C55.8436 65.3791 55.7848 65.0951 55.7848 64.9336C56.0296 64.9336 56.2744 64.9336 56.5191 64.9336C61.8109 64.9532 67.1468 64.679 72.4191 64.6888C76.0563 64.6937 79.762 64.9287 83.4237 64.9336Z" fill="#0C323B"/>
<path d="M40.3734 66.6446C32.8102 64.6815 28.9576 69.0579 26.4316 75.5736C25.154 78.873 21.3063 100.133 17.625 93.3092C18.6041 94.4205 19.8719 93.0987 20.5622 92.2078C24.3952 87.2684 24.2826 67.2663 35.7278 65.9152C37.3384 65.7242 38.9685 65.4991 40.3734 66.6495V66.6446Z" fill="#387AF6"/>
<path d="M21.0547 62.7296C20.8638 61.1142 21.51 60.8694 21.5443 60.7715C21.3827 61.4177 21.2065 62.0883 21.0547 62.7296Z" fill="#11364A"/>
<path d="M198.874 72.2712C198.849 72.2419 198.423 72.0656 198.384 72.0265C193.508 67.3368 184.158 66.113 177.594 65.4227C179.028 62.3044 192.505 44.838 192.759 43.531C192.96 42.4981 192.348 41.9596 191.78 41.2057V40.9609C194.032 42.1162 197.165 57.1154 197.65 60.1603C198.281 64.15 198.409 68.2571 198.874 72.2663V72.2712Z" fill="#0C4E67"/>
<path d="M134.547 62.9753L133.079 64.6886C123.538 64.7572 113.997 64.6691 104.461 64.6886L119.871 42.4297C121.614 42.4297 134.122 41.7101 134.547 42.3074V62.9753Z" fill="#0C4E67"/>
<path d="M87.5812 42.429L72.4155 64.6879C67.1433 64.6781 61.8123 64.9523 56.5156 64.9327L71.926 42.429C77.1395 42.4094 82.3677 42.4535 87.5812 42.429Z" fill="#336178"/>
<path d="M161.941 41.9388L146.286 64.6872C142.702 64.6872 139.104 64.6579 135.526 64.6872C135.11 64.4082 135.281 62.69 135.281 61.2605L148.244 42.4283L148.856 41.9388C153.213 41.8654 157.589 42.0367 161.941 41.9388Z" fill="#597A8A"/>
<path d="M184.684 41.6934L168.784 64.6866C165.362 64.5887 161.701 64.7649 158.264 64.9313C157.701 64.9607 157.114 64.8971 156.551 64.9313V64.6866L172.206 41.9381C176.328 41.8696 180.572 41.8402 184.679 41.6934H184.684Z" fill="#597A8A"/>
<path d="M71.9279 42.4282L56.5175 64.9319C56.2727 64.9319 56.028 64.9319 55.7832 64.9319C51.96 64.9172 48.1123 65.0004 44.2891 64.9319L59.4547 42.4282C63.6108 42.4037 67.7767 42.4429 71.9279 42.4282Z" fill="#597A8A"/>
<path d="M110.575 42.4286C105.646 49.9723 99.8348 57.2075 95.4095 64.9323C91.4198 64.9323 87.4154 64.9323 83.4258 64.9323L98.3466 42.4286C102.42 42.4188 106.502 42.4384 110.575 42.4286Z" fill="#597A8A"/>
<path d="M98.3434 42.4287L83.4226 64.9323C79.7609 64.9323 76.0552 64.6973 72.418 64.6876L87.5836 42.4287C91.1523 42.414 94.7748 42.4384 98.3434 42.4287Z" fill="#0C4E67"/>
<path d="M59.4569 42.4284L44.2913 64.9321C43.8312 64.9223 41.3003 65.2894 41.1094 64.8097V42.5508C47.2187 42.3011 53.3427 42.4627 59.452 42.4284H59.4569Z" fill="#0C4E67"/>
<path d="M40.13 53.1879C33.3304 62.8757 26.0756 72.3775 17.8711 80.7044C18.3606 77.821 18.1844 72.9551 19.8292 71.1634C18.2774 69.5235 21.3076 67.4087 22.2769 66.0283C27.8281 58.1028 33.7465 50.4466 39.1558 42.4232C39.3174 42.4525 39.6601 41.9043 40.1349 42.3008C40.1398 45.9282 40.1251 49.5605 40.1349 53.183L40.13 53.1879Z" fill="#336178"/>
<path d="M172.216 41.9375L156.56 64.686C153.134 64.7594 149.717 64.686 146.285 64.686L161.94 41.9375C165.352 41.8641 168.818 41.9914 172.216 41.9375Z" fill="#0C4E67"/>
<path d="M191.782 41.2052C192.35 41.9542 192.962 42.4976 192.761 43.5305C192.507 44.8376 179.035 62.304 177.596 65.4223C174.712 65.1188 171.682 64.7712 168.789 64.688L184.689 41.6948C187.029 41.6116 189.428 41.1955 191.782 41.2052Z" fill="#336178"/>
<path d="M119.868 42.4282L104.458 64.6871C101.476 64.692 98.4169 64.927 95.4062 64.9319C99.8316 57.2071 105.637 49.9718 110.572 42.4282C113.666 42.4184 116.779 42.4282 119.868 42.4282Z" fill="#336178"/>
<path d="M148.241 42.4276L135.279 61.2598C135.274 54.9449 135.284 48.6202 135.279 42.3052C139.239 42.4031 145.069 41.5856 148.241 42.4276Z" fill="#0C4E67"/>
<path d="M32.3052 42.4294L29.1233 46.9526C28.6533 47.4128 28.6044 47.6282 27.8994 47.8093C27.7379 47.8533 26.5875 46.6344 25.207 49.0331C28.0071 40.0307 28.6778 42.586 32.3003 42.4294H32.3052Z" fill="#0C4E67"/>
<path d="M27.9008 47.8083C29.3841 49.972 27.4358 50.1434 27.1665 50.5007C26.8728 50.5595 26.6574 50.3979 26.4322 50.256C26.2168 50.1238 25.8987 49.9182 25.6979 49.7664C24.8951 49.1496 24.3762 49.0174 25.2084 49.0321C26.584 46.6383 27.7344 47.8524 27.9008 47.8083Z" fill="#0A171D"/>
<path d="M25.7006 49.7686C25.9013 49.9204 26.2195 50.126 26.4349 50.2581L23.8649 53.6848C23.6495 53.582 24.5208 49.2301 25.7006 49.7735V49.7686Z" fill="#326672"/>
<path d="M134.547 62.9727V64.686C134.062 64.686 133.568 64.686 133.078 64.686L134.547 62.9727Z" fill="#597A8A"/>
<path d="M128.92 73.0058C127.427 73.5834 125.983 74.3128 124.519 74.9639L122.683 75.4534L41.2305 75.2087V72.2715H129.042L128.92 73.0058Z" fill="#387AF6"/>
<path d="M204.262 89.1438C204.409 90.8522 205.637 93.9167 203.772 97.7056C203.156 98.9539 202.803 99.4337 201.57 100.153C201.383 100.261 199.122 101.088 198.877 101.132C198.353 101.23 197.82 101.583 197.653 101.255C198.544 85.394 175.429 87.636 177.964 103.335C160.39 103.379 142.816 103.389 125.252 103.09C125.115 102.64 125.82 102.195 126.109 102.111C128.987 101.294 166.862 100.848 174.538 100.398C175.233 100.09 174.92 96.0021 176.863 93.06C179.942 88.3948 188.019 87.0388 193.13 87.9248C197.355 88.6591 197.032 91.1655 204.257 89.1487L204.262 89.1438Z" fill="#EEE7E7"/>
<path d="M110.82 90.123C111.255 90.2356 112.993 90.1524 115.098 91.3469C118.657 93.3637 121.33 98.9737 119.621 102.963L119.989 103.331C120.865 103.688 124.208 103.066 125.246 103.086C142.81 103.384 160.385 103.375 177.959 103.331C175.423 87.6313 198.539 85.3893 197.648 101.25C197.814 101.578 198.343 101.226 198.871 101.128C199.111 103.149 198.563 102.523 196.424 102.596C198.494 94.6169 189.076 88.5908 182.604 93.3001C178.948 95.9631 178.238 101.95 180.769 105.529C178.806 107.35 171.756 105.455 167.439 105.284C162.127 105.073 121.829 104.975 119.499 105.529C119.411 105.548 118.319 106.527 118.153 106.752C117.355 106.899 116.415 107.501 115.46 107.731C124.84 99.2332 114.261 87.5236 105.552 93.0553C102.61 94.9253 101.034 99.7962 102.003 103.086H100.535C100.021 95.9778 103.443 90.593 110.81 90.123H110.82Z" fill="#242625"/>
<path d="M198.385 72.025C198.424 72.0642 198.85 72.2404 198.874 72.2698C199.109 72.5243 199.579 72.96 199.608 73.0041C200.862 74.7125 201.635 77.3658 202.301 79.363C197.2 79.8771 197.577 82.2219 202.056 82.7898C201.978 84.0087 202.555 85.0122 203.769 84.2583C204.093 85.9717 204.112 87.455 204.259 89.1487C197.034 91.1656 197.357 88.6592 193.132 87.9249C188.021 87.0389 179.944 88.3949 176.865 93.0601C177.203 90.4949 181.046 89.2613 182.979 87.6802C184.56 89.1341 189.275 81.8939 189.093 80.3421C189.446 79.7204 189.999 79.1526 190.072 78.384C190.714 78.2078 190.768 77.9189 190.807 77.8945C190.87 77.8553 191.257 78.0119 192.031 77.0378C189.93 66.9682 168.499 67.1836 160.231 67.6192C160.231 67.4577 160.162 67.1982 160.353 67.1297C162.61 66.3416 181.457 67.9423 185.304 68.8431C189.632 69.8564 193.759 73.1558 198.39 72.025H198.385Z" fill="#F9F5F5"/>
<path d="M202.301 79.3633C202.712 80.5969 202.947 81.3312 203.28 82.79C202.884 82.7557 202.453 82.8389 202.056 82.79C197.577 82.2221 197.2 79.8773 202.301 79.3633Z" fill="#393433"/>
<path d="M203.282 82.7839C203.326 82.9797 203.585 83.2637 203.771 84.2525C202.562 85.0064 201.979 84.0029 202.058 82.7839C202.454 82.8329 202.88 82.7497 203.282 82.7839Z" fill="#C1BBB7"/>
<path d="M116.202 88.6581C116.374 88.7365 117.602 89.3484 117.671 89.3924C118.077 89.6568 118.131 89.8624 118.161 89.882C115.321 88.6337 104.601 88.4966 110.822 90.1267C103.46 90.5967 100.038 95.9815 100.547 103.089C95.3142 103.089 96.5625 102.996 92.4749 100.397C92.4406 100.001 92.5532 99.2271 92.7197 98.9285C92.9693 98.4781 93.2092 98.2431 93.6987 98.0718C94.2029 95.8591 93.6987 92.4569 93.9435 91.2233C93.9582 91.1401 94.81 90.2785 94.9226 89.8771C97.7129 90.0631 100.146 91.1303 100.425 91.1009C101.262 91.0128 107.22 84.6734 116.202 88.6532V88.6581Z" fill="#EEE7E7"/>
<path d="M168.795 64.6863C171.688 64.7696 174.718 65.1171 177.601 65.4206C184.166 66.1109 193.516 67.3347 198.392 72.0244C193.761 73.1552 189.634 69.8607 185.306 68.8425C181.464 67.9417 162.612 66.341 160.355 67.1291C160.164 67.1976 160.233 67.4571 160.233 67.6186C149.571 68.1816 142.654 70.3992 133.083 74.4671C131.341 75.2063 120.37 80.1848 119.754 80.5814C118.579 81.3401 121.472 80.924 124.522 81.3157C124.561 81.3206 124.267 81.4625 125.256 81.5604C125.427 83.2052 124.859 84.8501 124.766 86.4508L115.47 86.9404C114.976 86.7005 113.189 86.2648 112.655 86.2061C104.798 85.369 100.476 90.695 100.549 86.6956C103.526 85.8046 106.414 84.6249 109.478 84.0032C107.643 83.8074 105.567 83.5283 103.731 83.5136C102.522 83.5039 99.7905 83.5332 98.8408 83.7584C98.6254 83.3766 98.5128 83.3276 98.9632 83.0241C99.7611 82.4905 113.82 78.2708 115.965 78.868C116.518 79.4065 117.443 79.382 118.167 79.3575C118.608 79.3429 119.181 79.4261 119.514 79.3575C120.409 79.1813 131.213 73.6056 136.025 71.53C137.318 70.9719 140.539 70.5411 140.916 69.5719C141.523 69.4054 140.177 69.283 141.038 68.8376C142.282 68.1963 152.562 66.4144 154.735 66.1451C155.925 65.9983 159.645 66.9969 158.284 64.9213C161.721 64.7549 165.378 64.5787 168.804 64.6766L168.795 64.6863Z" fill="#E0DCDC"/>
<path d="M190.076 78.3838C190.007 79.1524 189.449 79.7202 189.097 80.3419C187.976 82.3245 187.569 82.8043 186.159 84.498C185.9 84.4295 184.769 83.9889 184.691 84.0085C185.861 81.4972 177.695 81.8007 177.353 83.2742C175.36 82.7896 170.876 80.5965 169.648 80.337C168.483 80.0923 166.652 80.8168 166.833 79.8475C171.214 79.5831 187.892 78.981 190.071 78.3789L190.076 78.3838Z" fill="#DBDBDB"/>
<path d="M160.227 67.6188C168.496 67.1831 189.927 66.9628 192.027 77.0374C191.254 78.0115 190.867 77.8549 190.803 77.894V77.6493C192.106 76.8415 190.505 75.4415 190.069 74.7121C187.435 70.2916 182.359 69.6063 177.596 68.8426C176.088 68.5979 174.703 68.4706 173.195 68.3531C170.38 68.1328 164.295 67.7608 161.701 67.8636C160.947 67.8929 160.198 68.0643 159.498 68.1083C158.592 68.1671 157.706 68.2552 156.806 68.3531C153.55 68.7056 150.207 69.3224 147.02 70.0665C144.078 70.7567 141.508 71.6819 138.703 72.7589C137.112 73.3659 135.012 73.826 133.568 74.717L133.078 74.4722C142.648 70.3993 149.565 68.1867 160.227 67.6237V67.6188Z" fill="#312A2A"/>
<path d="M190.804 77.8932C190.765 77.9177 190.711 78.2065 190.069 78.3827C187.896 78.9849 171.213 79.587 166.831 79.8513C164.394 79.9982 161.936 80.2087 159.493 80.3408C158.245 79.5184 160.487 79.9541 161.941 79.8513C162.915 79.7828 163.88 79.6604 164.878 79.6066C165.941 79.5478 167.017 79.4254 168.06 79.3618C170.669 79.21 173.283 79.0387 175.888 78.8723C178.742 78.6911 181.596 78.5932 184.45 78.3827C185.522 78.3044 186.56 78.2359 187.632 78.138C188.704 78.0401 189.805 78.2163 190.814 77.6484V77.8932H190.804Z" fill="#11364A"/>
<path d="M182.977 87.6798C183.833 87.3665 185.38 85.4329 186.159 84.4979C187.568 82.8041 187.97 82.3195 189.096 80.3418C189.277 81.8936 184.563 89.1337 182.981 87.6798H182.977Z" fill="#EEE7E7"/>
<path d="M156.56 64.9304C157.122 64.8961 157.705 64.9597 158.273 64.9304C159.634 67.006 155.913 66.0073 154.724 66.1542C152.55 66.4185 142.27 68.2053 141.027 68.8466C140.165 69.2921 141.511 69.4144 140.904 69.5809C138.941 69.6935 137.399 70.8047 135.524 71.2942C135.157 71.3921 134.692 71.4264 134.301 71.539C133.929 71.6467 133.18 71.4313 132.832 71.539C135.98 68.8809 142.29 67.0158 146.529 66.1591C149.794 65.4982 153.231 65.1506 156.56 64.9353V64.9304Z" fill="#E0DCDC"/>
<path d="M166.837 79.8516C166.656 80.8208 168.482 80.0963 169.652 80.3411C170.881 80.6005 175.365 82.7887 177.357 83.2783C177.323 83.4202 177.323 83.9147 177.357 84.0126C171.228 84.9476 164.771 84.5413 158.525 84.9916C158.549 84.7713 158.153 82.1475 158.77 80.5908C158.809 80.5908 158.525 80.3998 159.504 80.346C161.942 80.2138 164.404 80.0033 166.842 79.8565L166.837 79.8516Z" fill="#F9F5F5"/>
<path d="M115.467 86.9443C116.579 87.4828 117.029 87.5856 116.202 88.6577C107.224 84.6778 101.261 91.0123 100.424 91.1053C100.145 91.1347 97.7122 90.0675 94.9219 89.8815C95.1666 89.015 95.338 88.6821 95.6562 87.9234C97.3206 87.6443 98.936 87.1842 100.547 86.6995C100.478 90.699 104.801 85.3729 112.653 86.21C113.181 86.2688 114.968 86.7044 115.467 86.9443Z" fill="#F9F5F5"/>
<path d="M184.688 84.0084C184.482 84.0574 184.252 84.8847 183.342 84.9875C182.049 85.1343 177.82 85.2861 177.35 84.0084C177.316 83.9105 177.316 83.4161 177.35 83.2741C177.693 81.8006 185.858 81.4971 184.688 84.0084Z" fill="#363636"/>
<path d="M118.161 89.8787C118.132 89.8591 118.078 89.6535 117.672 89.3892C115.958 86.6086 121.607 90.6913 121.461 93.5453C121.226 93.4718 120.667 91.783 118.156 89.8787H118.161Z" fill="#E0DCDC"/>
<path d="M196.431 102.602C195.751 105.226 193.435 107.375 191.051 108.471C190.405 108.457 188.055 109.774 184.203 108.227C183.341 107.879 181.319 106.303 180.776 105.534C178.24 101.956 178.955 95.9639 182.612 93.3058C189.083 88.5965 198.502 94.6226 196.431 102.602Z" fill="#242625"/>
<path d="M186.526 94.04C195 92.6742 196.542 104.643 189.708 106.268C180.769 108.398 179.095 95.2393 186.526 94.04Z" fill="#E2E2E6"/>
<path d="M186.771 94.5283C187.383 94.4353 189.683 94.4549 189.83 95.1402C187.818 98.7627 187.745 100.711 186.648 95.1402C184.401 95.6199 185.322 94.7437 186.771 94.5283Z" fill="#242625"/>
<path d="M187.749 101.62C188.503 101.439 189.061 106.065 190.196 105.047C190.945 105.698 186.407 106.251 185.918 105.659L187.754 101.625L187.749 101.62Z" fill="#242625"/>
<path d="M188.975 101.131C195.56 102.453 191.051 105.365 190.689 105.287C190.376 105.218 188.682 101.302 188.975 101.131Z" fill="#242625"/>
<path d="M182.616 98.6839C183.296 98.3559 185.9 99.7021 186.649 100.03C180.981 103.814 181.974 98.9923 182.616 98.6839Z" fill="#242625"/>
<path d="M192.641 98.684C194.026 98.8602 193.517 101.518 193.375 101.621C192.856 101.988 190.002 100.725 189.341 100.275C189.263 99.8197 192.46 98.6595 192.646 98.684H192.641Z" fill="#242625"/>
<path d="M184.817 95.5059C186.056 95.408 187.059 99.0109 186.775 99.1724C180.989 97.8458 184.102 95.5597 184.817 95.5059Z" fill="#242625"/>
<path d="M190.195 95.7511C190.915 95.3448 195.943 97.6065 188.972 99.1778C188.693 99.0212 190.034 95.8441 190.195 95.7511Z" fill="#242625"/>
<path d="M186.649 101.131L186.893 101.376C187.021 101.811 185.591 104.802 185.302 104.802C184.979 104.802 181.073 101.997 186.649 101.136V101.131Z" fill="#242625"/>
<path d="M186.893 101.375L186.648 101.131C186.815 100.524 187.53 101.131 186.893 101.375Z" fill="#A6B0B7"/>
<path d="M100.547 86.7015C98.9361 87.1812 97.3207 87.6463 95.6562 87.9253C95.9549 87.2204 95.8619 86.8092 96.3905 85.9672C97.022 85.9035 97.5409 85.4728 98.1039 85.2329C101.638 83.7349 103.303 84.0825 103.606 84.0091C103.787 83.965 103.729 83.686 103.729 83.5195C105.564 83.5342 107.64 83.8132 109.476 84.0091C106.411 84.6259 103.523 85.8105 100.547 86.7015Z" fill="white"/>
<path d="M132.836 71.535C133.184 71.4273 133.928 71.6427 134.305 71.535L118.16 79.3626C117.44 79.387 116.515 79.4115 115.957 78.873C118.625 78.6038 121.968 76.0925 124.519 74.9617C125.983 74.3106 127.427 73.5861 128.92 73.0036C130.261 72.4847 131.446 71.9707 132.831 71.535H132.836Z" fill="#597296"/>
<path d="M103.729 83.5192C103.729 83.6807 103.788 83.9647 103.606 84.0087C103.303 84.0821 101.639 83.7346 98.1041 85.2325C97.5412 84.4199 98.0846 84.6745 98.5937 84.1311L97.8594 84.0087C97.8643 83.5632 98.437 83.857 98.8384 83.764C99.793 83.5388 102.52 83.5094 103.729 83.5192Z" fill="#B6C5D7"/>
<path d="M98.1001 85.2316C97.5371 85.4715 97.0182 85.9023 96.3867 85.9659C96.8469 85.2316 97.1455 84.5757 97.8553 84.0078L98.5896 84.1302C98.0854 84.6736 97.5371 84.419 98.1001 85.2316Z" fill="#6C7088"/>
<path d="M135.525 71.2891L136.014 71.5338C131.207 73.6094 120.398 79.1803 119.502 79.3614C119.17 79.4299 118.597 79.3467 118.156 79.3614L134.301 71.5338C134.693 71.4212 135.158 71.387 135.525 71.2891Z" fill="#312A2A"/>
<path d="M140.903 69.5781C140.526 70.5474 137.305 70.9782 136.013 71.5362L135.523 71.2915C137.398 70.8019 138.94 69.6907 140.903 69.5781Z" fill="#E6E1E0"/>
<path d="M190.074 74.7113L187.626 78.138C186.559 78.2359 185.516 78.3044 184.444 78.3827L188.355 73.1252L182.364 70.5552L175.882 78.8723C173.278 79.0387 170.664 79.2051 168.055 79.3618C170.566 76.3169 174.835 68.925 177.596 68.8418C182.359 69.6104 187.435 70.2908 190.069 74.7113H190.074Z" fill="#486B87"/>
<path d="M177.594 68.843C174.833 68.9263 170.564 76.3182 168.053 79.363C167.015 79.4267 165.933 79.5491 164.871 79.6078C166.844 76.3231 169.713 72.9845 172.209 69.8221C172.493 69.4647 173.227 68.9605 173.188 68.3535C174.696 68.471 176.081 68.5983 177.589 68.843H177.594Z" fill="#597A8A"/>
<path d="M173.194 68.3528C173.233 68.9549 172.499 69.4641 172.215 69.8214C172.215 69.6599 172.284 69.4004 172.093 69.3319C171.334 69.0675 163.12 68.8472 161.45 69.5766C161.46 68.9843 161.323 68.3969 161.695 67.8633C164.29 67.7605 170.375 68.1325 173.189 68.3528H173.194Z" fill="#486B87"/>
<path d="M190.803 77.6481C189.8 78.216 188.693 78.0397 187.621 78.1376L190.069 74.7109C190.504 75.4403 192.105 76.8355 190.803 77.6481Z" fill="#486B87"/>
<path d="M172.21 69.8219C169.719 72.9843 166.845 76.3179 164.872 79.6076C163.879 79.6614 162.909 79.7838 161.935 79.8523C161.754 76.4746 161.377 72.9598 161.446 69.5771C163.115 68.8477 171.329 69.068 172.088 69.3324C172.279 69.4009 172.21 69.6603 172.21 69.8219Z" fill="#395071"/>
<path d="M184.441 78.384C181.587 78.5945 178.733 78.6924 175.879 78.8735L182.36 70.5564L188.352 73.1264L184.441 78.384Z" fill="#395071"/>
<path d="M115.472 107.736C114.791 107.897 115.007 107.976 114.982 107.981C111.379 108.901 111.409 109.719 106.175 107.981C106.029 107.932 104.908 106.894 104.462 106.757C103.811 105.988 102.22 103.771 102.014 103.09C101.04 99.8007 102.617 94.9298 105.564 93.0598C114.272 87.5282 124.851 99.2328 115.472 107.736Z" fill="#242625"/>
<path d="M109.235 94.0393C118.741 92.6687 119.03 107.399 109.724 106.513C102.616 105.837 102.734 94.9744 109.235 94.0393Z" fill="#E2E2E6"/>
<path d="M110.461 101.622C111.66 104.491 114.054 106.459 109.727 106.023C106.78 105.724 109.022 105.323 109.115 105.166C109.213 105.005 109.457 102.724 110.461 101.617V101.622Z" fill="#242625"/>
<path d="M108.989 101.133C109.89 101.221 108.505 105.049 107.521 105.044C104.207 102.332 105.876 102.552 108.989 101.133Z" fill="#242625"/>
<path d="M111.438 101.133C115.124 102.425 116.861 102.538 113.151 105.289L111.438 101.133Z" fill="#242625"/>
<path d="M115.105 98.6856C116.231 98.7198 116.564 101.593 115.595 101.867C115.301 101.951 112.462 100.546 111.806 100.277C111.733 99.973 114.924 98.6807 115.11 98.6856H115.105Z" fill="#242625"/>
<path d="M105.32 98.4398C105.507 98.3712 108.933 99.879 108.87 100.275C103.739 103.712 104.449 98.7531 105.32 98.4398Z" fill="#242625"/>
<path d="M107.767 95.5089C108.433 95.6166 109.887 99.3958 109.236 99.4203C103.033 97.3838 107.429 95.4551 107.767 95.5089Z" fill="#242625"/>
<path d="M109.725 94.5291C110.151 94.485 111.761 95.283 111.806 95.3858C111.928 95.6795 110.719 98.6901 110.459 98.6901C109.95 97.9656 107.86 94.7151 109.725 94.534V94.5291Z" fill="#242625"/>
<path d="M112.656 95.7539L115.226 97.8295L111.438 99.1757L112.656 95.7539Z" fill="#242625"/>
<path d="M184.69 84.0065C184.763 83.9869 185.894 84.4275 186.159 84.496C185.385 85.4261 183.838 87.3647 182.977 87.678C181.043 89.264 177.2 90.4977 176.862 93.0579C174.924 96 175.232 100.088 174.537 100.396C166.861 100.846 128.986 101.287 126.108 102.109C125.819 102.193 125.114 102.633 125.251 103.088C124.213 103.069 120.87 103.69 119.994 103.333L119.627 102.966C121.335 98.9763 118.662 93.3663 115.103 91.3494C112.998 90.155 111.261 90.2431 110.825 90.1256C104.603 88.4955 115.324 88.6325 118.163 89.8808C120.674 91.7851 121.227 93.474 121.467 93.5474C121.614 90.6886 115.96 86.6108 117.678 89.3913C117.61 89.3473 116.381 88.7353 116.21 88.657C117.042 87.585 116.587 87.4822 115.475 86.9437L124.772 86.4541C124.625 89.0291 124.923 99.2504 126.24 101.008C128.541 104.087 126.211 99.2994 125.751 95.3832C125.388 92.3138 125.569 89.2836 125.751 86.2094L148.254 85.4751C149.277 87.5164 155.362 87.6388 156.082 85.2303C156.209 85.3086 156.914 85.1814 157.306 85.2303C157.081 87.1591 155.813 98.5896 155.837 99.2945C155.857 99.7987 155.705 100.318 156.449 100.396C156.983 95.2706 158.001 90.0913 158.53 84.9856C164.781 84.5352 171.233 84.9415 177.362 84.0065C177.832 85.2842 182.061 85.1324 183.354 84.9856C184.264 84.8828 184.494 84.0554 184.7 84.0065H184.69Z" fill="#DAD5D4"/>
<path d="M158.032 80.5859C158.12 82.7007 157.336 84.9036 157.297 85.2316C156.906 85.1826 156.206 85.3099 156.073 85.2316C155.922 85.1435 155.765 84.2085 154.972 84.0077C153.998 83.7581 148.226 83.5623 148.246 85.4763L125.742 86.2106C125.83 84.6637 125.747 83.1021 125.987 81.565C126.937 81.6286 128.165 82.2552 129.291 82.0545C130.368 81.9811 130.559 81.3202 130.637 81.3202C139.753 81.1342 148.946 81.0559 158.032 80.5859Z" fill="#F9F5F5"/>
<path d="M156.074 85.2309C155.359 87.6394 149.269 87.5171 148.246 85.4757C148.227 83.5617 154.003 83.7624 154.972 84.0071C155.76 84.2078 155.922 85.1428 156.074 85.2309Z" fill="#363636"/>
<path d="M125.984 81.5647C125.744 83.1067 125.828 84.6683 125.739 86.2104C125.558 89.2797 125.377 92.3148 125.739 95.3841C126.2 99.3004 128.53 104.088 126.229 101.009C124.917 99.2514 124.614 89.03 124.76 86.4551C124.853 84.8495 125.421 83.2046 125.25 81.5647C125.284 81.5647 125.216 81.5158 125.984 81.5647Z" fill="#EEE7E7"/>
<path d="M158.762 80.587C158.145 82.1437 158.542 84.7724 158.517 84.9878C157.994 90.0936 156.97 95.2729 156.437 100.398C155.693 100.325 155.845 99.801 155.825 99.2968C155.796 98.5919 157.068 87.1614 157.294 85.2326C157.333 84.8997 158.116 82.6968 158.028 80.587C158.405 80.5674 158.581 80.5968 158.762 80.587Z" fill="#EEE7E7"/>
<path d="M161.702 67.8633C161.33 68.392 161.472 68.9843 161.458 69.5766C161.389 72.9593 161.766 76.4741 161.947 79.8519C160.493 79.9547 158.251 79.519 159.5 80.3414C158.521 80.3952 158.804 80.5862 158.765 80.5862C158.584 80.5959 158.408 80.5666 158.031 80.5862C148.94 81.0561 139.752 81.1344 130.637 81.3204C130.524 80.2092 130.74 79.0148 130.637 77.8937C130.578 77.272 130.867 76.6014 130.27 76.1804C128.733 76.8755 128.067 77.5804 127.945 77.649C126.021 78.7162 126.393 79.3379 125.13 78.8728C123.779 79.8568 125.105 81.1442 124.518 81.3204C121.468 80.9288 118.57 81.3449 119.75 80.5862C120.367 80.1896 131.337 75.2111 133.08 74.4719L133.569 74.7167C133.075 75.0202 132.507 75.1279 132.101 75.5734V80.7085L132.59 81.0757C135.038 81.3009 137.51 80.64 139.928 80.5862C140.041 80.5862 140.281 80.8946 142.131 80.8309C144.094 80.7673 146.052 80.4687 148.001 80.3414C150.864 80.1603 153.806 80.2337 156.685 80.0966C157.512 77.0713 158.677 74.1439 159.255 71.0452C159.421 70.1396 159.793 68.7983 159.5 68.108C160.2 68.064 160.944 67.8927 161.702 67.8633Z" fill="#242625"/>
<path d="M130.636 77.8932C130.739 79.0142 130.523 80.2087 130.636 81.3199C130.558 81.3199 130.367 81.9808 129.29 82.0542C128.164 82.2549 126.94 81.6283 125.985 81.5647C125.222 81.5157 125.29 81.5647 125.251 81.5647C124.262 81.4668 124.556 81.3248 124.517 81.3199C125.104 81.1486 123.778 79.8611 125.129 78.8723C126.392 79.3373 126.02 78.7156 127.943 77.6484L130.636 77.8932Z" fill="#F9F5F5"/>
<path d="M139.936 80.5864C137.517 80.6402 135.045 81.3011 132.598 81.0759L138.712 72.7588C141.517 71.6867 144.087 70.7566 147.029 70.0664C146.853 70.7028 147.646 70.4336 147.519 70.9231C147.362 71.5154 140.553 78.9416 139.936 80.5864Z" fill="#395071"/>
<path d="M159.497 68.1094C159.791 68.7996 159.419 70.1409 159.253 71.0466C159.444 69.4164 157.407 69.1521 156.193 69.578C155.557 69.8031 149.296 79.1972 147.998 80.3378C146.05 80.4602 144.092 80.7637 142.129 80.8274C142.986 79.2609 149.947 70.1311 150.568 69.8227C152.355 68.9171 157.04 69.6024 156.805 68.3541C157.701 68.2562 158.592 68.1681 159.497 68.1094Z" fill="#336178"/>
<path d="M156.805 68.3526C157.04 69.6009 152.355 68.9155 150.568 69.8211C149.951 70.1344 142.985 79.2642 142.129 80.8258C140.278 80.8894 140.038 80.581 139.926 80.581C140.543 78.9411 147.352 71.5149 147.509 70.9177C147.641 70.4282 146.843 70.6974 147.019 70.061C150.201 69.3169 153.549 68.7001 156.805 68.3477V68.3526Z" fill="#597A8A"/>
<path d="M138.709 72.7578L132.595 81.0749L132.105 80.7078V75.5726C132.507 75.1271 133.08 75.0243 133.574 74.7159C135.018 73.825 137.118 73.3697 138.709 72.7578Z" fill="#486B87"/>
<path d="M159.254 71.0448C158.682 74.1386 157.516 77.0709 156.684 80.0962C153.811 80.2333 150.869 80.155 148 80.341C149.292 79.2004 155.558 69.8014 156.195 69.5811C157.409 69.1552 159.445 69.4196 159.254 71.0497V71.0448Z" fill="#395071"/>
<path d="M130.634 77.893L127.941 77.6483C128.064 77.5797 128.725 76.8748 130.267 76.1797C130.864 76.5958 130.575 77.2713 130.634 77.893Z" fill="#355662"/>
<path d="M69.2376 101.132C68.3173 103.766 65.0717 106.703 62.3891 107.491C60.6121 108.01 58.8204 108.01 57.0091 107.736C53.4845 107.198 49.6564 104.574 48.4473 101.132C44.6926 90.4214 55.751 81.4532 64.9591 87.1905C69.59 90.0738 70.9607 96.2223 69.2376 101.132Z" fill="#41474B"/>
<path d="M69.9733 100.888C69.6061 100.918 69.5376 100.967 69.239 101.133C70.9572 96.223 69.5865 90.0746 64.9605 87.1912C55.7573 81.4539 44.694 90.4221 48.4487 101.133C47.871 101.226 47.9885 100.893 47.9591 100.888C42.6233 79.6721 74.5406 79.1385 69.9733 100.888Z" fill="#4D5D66"/>
<path d="M57.8698 89.143C68.0667 88.1492 68.8989 103.148 59.8279 104.064C49.6995 105.087 48.9261 90.0143 57.8698 89.143Z" fill="#B6C5D7"/>
<path d="M57.87 90.1198C66.7109 89.1016 67.7585 102.451 59.5834 103.083C50.9628 103.748 50.1697 91.0059 57.87 90.1198Z" fill="#0A171D"/>
<path d="M57.868 91.5886C65.0004 90.6389 65.578 101.046 59.5813 101.619C52.7279 102.27 52.3852 92.318 57.868 91.5886Z" fill="#D6E0EC"/>
<path d="M58.6027 94.0358C61.9021 93.8253 62.3084 98.8283 59.337 99.1709C55.7634 99.587 55.2984 94.2414 58.6027 94.0358Z" fill="#242625"/>
<path d="M119.613 9.62348C119.184 10.2572 118.705 10.8876 118.493 11.6453C118.181 12.7578 118.142 15.131 118.622 13.9255C119.43 15.1499 122.58 14.0047 119.483 14.0977C118.519 13.5983 118.478 11.7194 119.397 11.1717C119.397 13.6138 119.502 11.201 120.129 10.5259C120.915 9.67859 122.341 10.1487 121.421 9.4926C122.363 9.23255 121.695 9.12061 121.119 9.19122C120.782 9.23255 120.179 9.75953 119.957 9.36343C120.754 8.91395 121.488 8.68834 122.409 8.76067C123.803 5.36627 128.019 4.3123 131.273 5.57637C134.868 1.67909 139.359 2.14236 141.085 7.38293C143.053 7.15044 144.641 7.94264 144.441 10.1367C145.638 9.86459 147.097 10.0764 147.841 11.1269C148.667 12.2929 148.648 15.4634 147.023 15.732H119.397C116.614 14.3216 117.436 11.1975 119.613 9.62176V9.62348Z" fill="#C9EAF8"/>
<path d="M119.615 9.62316C119.632 9.6111 119.604 9.5646 119.959 9.36483C120.181 9.76093 120.784 9.23395 121.121 9.19261C121.697 9.12201 122.365 9.23395 121.423 9.49399C122.344 10.1501 120.917 9.67999 120.131 10.5273C119.506 11.2024 119.399 13.6134 119.399 11.1731C118.48 11.7208 118.521 13.5997 119.485 14.0991C122.584 14.0061 119.432 15.1531 118.624 13.9269C118.144 15.1307 118.183 12.7592 118.495 11.6467C118.707 10.889 119.186 10.2569 119.615 9.62488V9.62316Z" fill="white"/>
<path d="M145.647 10.3965C148.835 10.5532 147.922 14.3799 147.755 14.0544C147.717 13.9786 147.814 13.7289 147.712 13.6669C147.673 13.6428 147.552 13.9614 147.368 14.0974C146.343 14.8517 142.823 15.2995 141.516 15.2168C141.378 15.2082 140.953 14.8638 140.741 15.2168C140.403 14.6899 137.166 14.6382 136.997 14.8294C136.942 14.8914 137.472 14.9912 136.868 15.1307C135.886 15.3563 128.317 15.3718 126.798 15.303C125.551 15.2461 122.808 15.0154 124.432 14.8294L123.312 14.4849L125.162 14.528C125.457 14.3747 123.783 13.9304 124.818 14.0113C125.477 14.063 127.644 14.9878 131.531 14.9585C134.352 14.9379 136.081 14.3627 139.363 14.4419C139.394 14.4419 139.842 14.2869 139.966 14.2697C141.321 14.8569 146.574 14.788 147.325 13.5377C148.076 12.2857 146.893 10.8167 145.647 10.5687V10.3965Z" fill="white"/>
<path d="M135.661 3.33896C138.625 3.0548 140.613 5.75861 140.738 8.50203C140.39 5.34701 137.516 2.83608 134.8 4.88719C132.665 6.50087 133.533 8.8723 133.166 6.43715L132.778 7.08296C132.618 6.52498 133.042 5.4314 132.262 5.70522C132.74 5.49339 132.663 5.08868 133.037 4.67192C133.639 3.99855 134.754 3.42506 135.661 3.33723V3.33896Z" fill="white"/>
<path d="M127.83 5.40625C130.866 5.94357 129.5 5.82474 129.507 6.05207C129.516 6.28628 131.272 6.39133 129.938 6.56872C131.71 9.67207 129.44 6.58938 129.033 6.52566C128.639 6.46366 128.568 6.85288 128.431 6.78399C128.319 6.72716 128.854 5.82818 126.366 6.18123C125.32 6.32934 125.255 6.8081 124.902 7.04232C124.38 7.38847 122.778 7.6003 123.739 10.6141C122.854 10.0475 123.667 8.34428 122.878 10.4419C123.431 13.1629 122.527 11.2444 122.62 9.92523C122.806 7.29203 125.382 5.60774 127.826 5.40625H127.83Z" fill="white"/>
<path d="M165.765 16.0628C165.438 16.5472 165.072 17.029 164.91 17.6083C164.671 18.4586 164.641 20.2726 165.008 19.3511C165.626 20.2871 168.033 19.4117 165.667 19.4828C164.929 19.101 164.898 17.6649 165.601 17.2462C165.601 19.1129 165.681 17.2686 166.16 16.7526C166.761 16.1049 167.851 16.4643 167.148 15.9628C167.868 15.764 167.357 15.6784 166.917 15.7324C166.659 15.764 166.198 16.1668 166.029 15.864C166.638 15.5205 167.199 15.348 167.903 15.4033C168.968 12.8087 172.191 12.0031 174.679 12.9693C177.426 9.99033 180.859 10.3444 182.178 14.3502C183.683 14.1725 184.896 14.778 184.744 16.4551C185.659 16.2471 186.774 16.409 187.342 17.212C187.974 18.1032 187.96 20.5267 186.717 20.732H165.601C163.474 19.6539 164.101 17.266 165.765 16.0615V16.0628Z" fill="#C9EAF8"/>
<path d="M165.765 16.0637C165.778 16.0545 165.757 16.0189 166.028 15.8662C166.198 16.169 166.658 15.7662 166.916 15.7346C167.356 15.6806 167.867 15.7662 167.147 15.965C167.851 16.4665 166.76 16.1071 166.159 16.7548C165.682 17.2708 165.6 19.1138 165.6 17.2484C164.897 17.6671 164.929 19.1032 165.666 19.485C168.034 19.4139 165.625 20.2906 165.008 19.3533C164.64 20.2735 164.671 18.4608 164.909 17.6105C165.071 17.0312 165.437 16.5481 165.765 16.065V16.0637Z" fill="white"/>
<path d="M185.666 16.6523C188.103 16.7721 187.405 19.6971 187.277 19.4483C187.248 19.3904 187.322 19.1995 187.244 19.1522C187.214 19.1337 187.122 19.3773 186.981 19.4813C186.198 20.0578 183.507 20.4001 182.508 20.3369C182.403 20.3303 182.077 20.067 181.916 20.3369C181.658 19.9341 179.183 19.8946 179.054 20.0407C179.012 20.0881 179.417 20.1645 178.955 20.2711C178.205 20.4435 172.419 20.4554 171.258 20.4027C170.305 20.3593 168.208 20.1829 169.449 20.0407L168.594 19.7774L170.008 19.8104C170.233 19.6932 168.953 19.3536 169.744 19.4154C170.248 19.4549 171.904 20.1618 174.876 20.1394C177.032 20.1236 178.353 19.684 180.862 19.7445C180.886 19.7445 181.228 19.6261 181.323 19.6129C182.359 20.0618 186.374 20.0091 186.948 19.0534C187.522 18.0964 186.618 16.9735 185.666 16.784V16.6523Z" fill="white"/>
<path d="M178.032 11.2579C180.298 11.0407 181.817 13.1075 181.913 15.2045C181.647 12.7928 179.45 10.8735 177.374 12.4414C175.742 13.6748 176.405 15.4875 176.125 13.6261L175.829 14.1198C175.706 13.6932 176.03 12.8573 175.434 13.0666C175.8 12.9047 175.74 12.5954 176.026 12.2768C176.487 11.7621 177.338 11.3238 178.032 11.2566V11.2579Z" fill="white"/>
<path d="M172.046 12.8398C174.367 13.2506 173.323 13.1597 173.328 13.3335C173.335 13.5125 174.677 13.5928 173.657 13.7284C175.012 16.1005 173.277 13.7442 172.966 13.6955C172.665 13.6481 172.611 13.9456 172.505 13.893C172.42 13.8495 172.829 13.1624 170.927 13.4322C170.128 13.5454 170.078 13.9114 169.808 14.0904C169.409 14.355 168.185 14.5169 168.919 16.8206C168.243 16.3875 168.864 15.0856 168.261 16.689C168.684 18.7688 167.993 17.3024 168.064 16.294C168.206 14.2813 170.175 12.9939 172.043 12.8398H172.046Z" fill="white"/>
<path d="M210.732 112C210.692 113.349 211.864 115.283 209.6 116L3.854 115.8C2.84798 115.139 2.93852 113.089 3.09948 112H210.732Z" fill="#A8B4C9"/>
<path d="M37.6855 109.002C38.1086 109.002 38.5578 109.002 38.9913 109.002C40.1769 109.002 41.6132 109.187 42.9085 109.183C46.2982 109.176 49.6984 109.183 53.0881 109.183C54.0439 109.183 55.005 109.183 55.9608 109.183C56.739 109.183 57.6426 109.002 58.3111 109.002C63.3252 108.998 68.4124 109.187 73.4473 109.183C99.1915 109.169 124.972 108.987 150.706 109.002C155.741 109.002 160.812 108.998 165.842 109.002C172.862 109.009 179.949 109.161 186.985 109.183C191.153 109.198 195.347 109.136 199.515 109.183C201.416 109.205 203.359 109.114 205.255 109.183C206.592 109.231 208.472 109.052 209.694 109.365C209.783 109.387 210.206 109.943 211 110.273C209.961 110.324 208.921 110.858 207.736 111H5.1933C4.43075 110.869 3.07277 110.488 2.45123 110.455C1.52154 110.168 2.19531 110.135 2.97353 109.728C3.3078 109.554 3.92934 109.234 4.27928 109.183C4.36285 109.172 4.45686 109.194 4.54043 109.183C5.78872 109.042 10.3014 109.216 12.6308 109.183C14.2761 109.158 15.9422 109.198 17.5875 109.183C22.9776 109.14 28.3834 109.201 33.7683 109.183C35.9672 109.176 35.5023 109.002 35.5963 109.002C36.2805 109.002 36.9961 109.002 37.6855 109.002Z" fill="#868A9A"/>
</svg>
