<svg width="167" height="123" viewBox="0 0 167 123" fill="none" xmlns="http://www.w3.org/2000/svg">
<g clip-path="url(#clip0_271_1762)">
<path d="M44.9624 6.69944C44.539 7.32517 44.0663 7.9475 43.8572 8.69565C43.5494 9.79407 43.5103 12.1371 43.9847 10.9469C44.7822 12.1559 47.8921 11.0251 44.8349 11.1169C43.8827 10.6238 43.8419 8.76876 44.7499 8.22805C44.7499 10.6391 44.8536 8.25696 45.4725 7.59042C46.2479 6.75385 47.6557 7.21805 46.7478 6.57022C47.6778 6.31346 47.0181 6.20294 46.4502 6.27266C46.1169 6.31346 45.5218 6.83377 45.3025 6.44269C46.0897 5.9989 46.8141 5.77615 47.7238 5.84757C49.0993 2.49619 53.2618 1.45558 56.4754 2.70363C60.0241 -1.14425 64.4586 -0.686858 66.1623 4.48729C68.1058 4.25775 69.6735 5.03991 69.4763 7.20615C70.658 6.93749 72.0982 7.14663 72.8328 8.18384C73.6489 9.33498 73.6302 12.4653 72.0251 12.7306H44.7499C42.0021 11.338 42.8132 8.25356 44.9624 6.69774V6.69944Z" fill="#C9EAF8"/>
<path d="M44.9607 6.69923C44.9777 6.68732 44.9505 6.64141 45.3008 6.44417C45.5201 6.83525 46.1152 6.31495 46.4485 6.27414C47.0164 6.20442 47.6762 6.31495 46.7461 6.5717C47.6558 7.21953 46.2462 6.75534 45.4708 7.59191C44.8536 8.25844 44.7482 10.6389 44.7482 8.22954C43.8402 8.77025 43.881 10.6253 44.8332 11.1184C47.8921 11.0266 44.7805 12.159 43.983 10.9484C43.5086 12.1369 43.5477 9.79556 43.8555 8.69713C44.0646 7.94898 44.5373 7.32495 44.9607 6.70093V6.69923Z" fill="white"/>
<path d="M70.6651 7.46265C73.8124 7.61738 72.9112 11.3955 72.7463 11.0742C72.7089 10.9994 72.8041 10.7528 72.7038 10.6916C72.6647 10.6678 72.5456 10.9824 72.3637 11.1167C71.352 11.8614 67.8765 12.3035 66.5859 12.2219C66.4499 12.2134 66.0299 11.8733 65.8208 12.2219C65.4875 11.7016 62.2909 11.6506 62.1242 11.8393C62.0698 11.9005 62.5935 11.9992 61.9967 12.1369C61.0275 12.3596 53.5545 12.3749 52.0548 12.3069C50.8237 12.2508 48.1151 12.023 49.7185 11.8393L48.6133 11.4993L50.4395 11.5418C50.7302 11.3904 49.0775 10.9518 50.0994 11.0317C50.7506 11.0827 52.8897 11.9958 56.7273 11.9669C59.5125 11.9465 61.2196 11.3785 64.4605 11.4568C64.4911 11.4568 64.9332 11.3037 65.0556 11.2867C66.3938 11.8665 71.5798 11.7985 72.3212 10.5641C73.0625 9.32793 71.8944 7.87753 70.6651 7.63268V7.46265Z" fill="white"/>
<path d="M60.8096 0.494701C63.7359 0.214144 65.6981 2.88369 65.8222 5.59234C65.4788 2.4773 62.6409 -0.0018006 59.9594 2.02331C57.851 3.61653 58.708 5.95791 58.3458 3.55362L57.9632 4.19125C57.8051 3.64034 58.2234 2.56062 57.4531 2.83097C57.9258 2.62183 57.8493 2.22225 58.2183 1.81077C58.8134 1.14593 59.9135 0.579718 60.8096 0.493V0.494701Z" fill="white"/>
<path d="M53.076 2.53491C56.0737 3.06542 54.7254 2.9481 54.7322 3.17254C54.7407 3.40379 56.475 3.50751 55.1572 3.68265C56.9069 6.74667 54.6658 3.70305 54.2646 3.64014C53.8752 3.57892 53.8055 3.9632 53.6694 3.89519C53.5589 3.83908 54.0877 2.9515 51.6307 3.30007C50.5986 3.4463 50.534 3.91899 50.1854 4.15024C49.6702 4.49201 48.0889 4.70115 49.0377 7.67676C48.1637 7.11734 48.9663 5.4357 48.1875 7.50672C48.7333 10.1933 47.8407 8.29908 47.9325 6.99662C48.1161 4.39679 50.6598 2.73385 53.0726 2.53491H53.076Z" fill="white"/>
<path d="M5.43073 23.2601C4.9063 24.0352 4.32079 24.806 4.06174 25.7327C3.68053 27.0933 3.63209 29.9955 4.2197 28.5212C5.20748 30.0187 9.0596 28.6181 5.27277 28.7318C4.09333 28.1211 4.04278 25.8233 5.16746 25.1535C5.16746 28.14 5.29593 25.1893 6.06257 24.3637C7.02296 23.3275 8.76684 23.9025 7.64217 23.1C8.79422 22.782 7.97704 22.6451 7.27359 22.7315C6.86079 22.782 6.12364 23.4265 5.85195 22.9421C6.82709 22.3924 7.72431 22.1165 8.85109 22.2049C10.555 18.0537 15.7108 16.7648 19.6914 18.3107C24.0869 13.5445 29.5797 14.1111 31.69 20.52C34.0973 20.2357 36.0392 21.2045 35.7949 23.8877C37.2586 23.555 39.0425 23.814 39.9524 25.0988C40.9633 26.5246 40.9402 30.402 38.952 30.7306H5.16746C1.76395 29.0056 2.76857 25.1851 5.43073 23.258V23.2601Z" fill="#C9EAF8"/>
<path d="M5.43183 23.2606C5.45289 23.2459 5.41919 23.189 5.85305 22.9447C6.12475 23.4291 6.86189 22.7847 7.27469 22.7341C7.97814 22.6478 8.79532 22.7847 7.64327 23.1027C8.77005 23.9051 7.02406 23.3301 6.06367 24.3664C5.29914 25.192 5.16856 28.1406 5.16856 25.1562C4.04388 25.8259 4.09443 28.1237 5.27387 28.7345C9.0628 28.6207 5.20858 30.0234 4.2208 28.5239C3.63319 29.9961 3.68163 27.0959 4.06284 25.7353C4.32189 24.8086 4.9074 24.0357 5.43183 23.2627V23.2606Z" fill="white"/>
<path d="M37.2676 24.2048C41.166 24.3965 40.0498 29.0763 39.8455 28.6783C39.7992 28.5856 39.9171 28.2802 39.7928 28.2044C39.7444 28.1749 39.597 28.5645 39.3716 28.7309C38.1185 29.6534 33.8135 30.201 32.215 30.0999C32.0465 30.0894 31.5263 29.6681 31.2672 30.0999C30.8544 29.4554 26.8949 29.3922 26.6885 29.626C26.6211 29.7018 27.2698 29.824 26.5305 29.9946C25.33 30.2705 16.0736 30.2895 14.2159 30.2052C12.6911 30.1357 9.33603 29.8535 11.3221 29.626L9.95312 29.2048L12.2151 29.2575C12.5753 29.07 10.5281 28.5266 11.7939 28.6256C12.6005 28.6888 15.2501 29.8198 20.0036 29.784C23.4535 29.7587 25.568 29.0553 29.5823 29.1521C29.6202 29.1521 30.1678 28.9626 30.3194 28.9415C31.977 29.6597 38.4007 29.5755 39.319 28.0464C40.2372 26.5153 38.7903 24.7187 37.2676 24.4154V24.2048Z" fill="white"/>
<path d="M25.056 15.5738C28.6806 15.2263 31.1111 18.5329 31.2648 21.888C30.8394 18.0295 27.3243 14.9588 24.0029 17.4672C21.3913 19.4406 22.4528 22.3408 22.0042 19.3627L21.5303 20.1525C21.3344 19.4701 21.8525 18.1327 20.8984 18.4676C21.4839 18.2085 21.3892 17.7136 21.8462 17.2039C22.5833 16.3804 23.946 15.6791 25.056 15.5717V15.5738Z" fill="white"/>
<path d="M15.4809 18.1013C19.194 18.7584 17.5239 18.6131 17.5323 18.8911C17.5428 19.1776 19.6911 19.306 18.0588 19.523C20.226 23.3182 17.4501 19.5482 16.9531 19.4703C16.4708 19.3945 16.3844 19.8705 16.216 19.7862C16.0791 19.7167 16.7341 18.6173 13.6907 19.0491C12.4123 19.2302 12.3322 19.8157 11.9005 20.1021C11.2623 20.5255 9.30362 20.7845 10.4788 24.4703C9.39629 23.7774 10.3904 21.6944 9.42577 24.2597C10.1018 27.5873 8.99612 25.2411 9.10985 23.6278C9.33731 20.4075 12.4881 18.3477 15.4767 18.1013H15.4809Z" fill="white"/>
<path d="M111.743 18.3006C111.151 19.1752 110.49 20.045 110.198 21.0908C109.768 22.6261 109.713 25.9011 110.376 24.2374C111.491 25.9273 115.838 24.3468 111.565 24.4751C110.234 23.7859 110.177 21.1929 111.446 20.4372C111.446 23.8073 111.591 20.4776 112.456 19.5459C113.54 18.3766 115.508 19.0254 114.238 18.1199C115.538 17.761 114.616 17.6066 113.823 17.704C113.357 17.761 112.525 18.4883 112.218 17.9417C113.319 17.3214 114.331 17.01 115.603 17.1098C117.525 12.4254 123.343 10.9709 127.835 12.7154C132.795 7.33702 138.994 7.97634 141.375 15.2085C144.092 14.8877 146.283 15.9809 146.007 19.0088C147.659 18.6333 149.672 18.9256 150.699 20.3754C151.84 21.9844 151.813 26.3598 149.57 26.7306H111.446C107.605 24.7841 108.739 20.4728 111.743 18.2982V18.3006Z" fill="#C9EAF8"/>
<path d="M111.742 18.3003C111.766 18.2836 111.728 18.2195 112.217 17.9438C112.524 18.4904 113.356 17.7632 113.822 17.7061C114.615 17.6087 115.538 17.7632 114.237 18.122C115.509 19.0275 113.539 18.3787 112.455 19.548C111.592 20.4797 111.445 23.807 111.445 20.4393C110.176 21.1951 110.233 23.788 111.564 24.4772C115.839 24.3489 111.49 25.9317 110.375 24.2396C109.712 25.9008 109.767 22.6282 110.197 21.0929C110.489 20.0471 111.15 19.1749 111.742 18.3027V18.3003Z" fill="white"/>
<path d="M147.671 19.3672C152.07 19.5835 150.81 24.8644 150.58 24.4152C150.527 24.3106 150.66 23.966 150.52 23.8805C150.466 23.8472 150.299 24.2869 150.045 24.4746C148.631 25.5156 143.773 26.1335 141.969 26.0195C141.779 26.0076 141.192 25.5322 140.899 26.0195C140.434 25.2922 135.966 25.2209 135.733 25.4847C135.657 25.5703 136.389 25.7081 135.554 25.9006C134.2 26.212 123.754 26.2334 121.658 26.1383C119.937 26.0599 116.151 25.7414 118.392 25.4847L116.848 25.0094L119.4 25.0688C119.807 24.8573 117.496 24.2441 118.925 24.3558C119.835 24.4271 122.825 25.7034 128.189 25.663C132.082 25.6344 134.468 24.8406 138.998 24.95C139.041 24.95 139.659 24.7361 139.83 24.7123C141.7 25.5227 148.949 25.4277 149.985 23.7022C151.022 21.9744 149.389 19.9471 147.671 19.6049V19.3672Z" fill="white"/>
<path d="M133.891 9.62779C137.981 9.23564 140.724 12.967 140.897 16.753C140.417 12.399 136.45 8.9338 132.702 11.7644C129.755 13.9913 130.953 17.264 130.447 13.9034L129.912 14.7946C129.691 14.0246 130.276 12.5154 129.199 12.8933C129.86 12.601 129.753 12.0425 130.269 11.4673C131.101 10.5381 132.638 9.74662 133.891 9.62541V9.62779Z" fill="white"/>
<path d="M123.085 12.4802C127.276 13.2217 125.391 13.0578 125.4 13.3715C125.412 13.6947 127.836 13.8397 125.995 14.0845C128.44 18.3672 125.308 14.113 124.747 14.0251C124.203 13.9395 124.105 14.4766 123.915 14.3816C123.76 14.3031 124.5 13.0625 121.065 13.5497C119.623 13.7541 119.532 14.4148 119.045 14.7381C118.325 15.2158 116.115 15.5081 117.441 19.6672C116.219 18.8853 117.341 16.5348 116.253 19.4296C117.015 23.1847 115.768 20.5371 115.896 18.7166C116.153 15.0827 119.708 12.7583 123.081 12.4802H123.085Z" fill="white"/>
<path d="M121.05 116.293C121.069 117.014 121.05 117.7 121.241 118.401C120.321 118.447 118.109 118.041 118.178 118.976C118.09 118.984 117.354 119.256 116.454 119.264C115.932 117.957 116.457 116.262 116.454 116.105L121.05 116.297V116.293Z" fill="#A18A81"/>
<path d="M121.05 115.338C121.053 115.656 121.042 115.978 121.05 116.296L116.453 116.105C116.453 116.066 116.289 116.327 116.262 115.338H121.05Z" fill="#96766B"/>
<path d="M112.05 116.101C111.824 118.604 113.054 119.149 109.941 119.356C108.673 119.314 107.373 119.371 106.112 119.356C104.786 119.053 103.525 119.183 102.187 119.164C102.137 117.14 101.734 117.719 101.708 117.631C101.589 117.232 101.984 116.569 101.324 116.672C101.447 116.672 102.858 116.132 103.72 116.097H112.054L112.05 116.101Z" fill="#A18A81"/>
<path d="M112.048 115.146C112.032 115.438 112.082 115.729 112.048 116.105H103.714C102.852 116.139 101.445 116.676 101.318 116.68C100.874 116.691 100.421 116.672 99.9766 116.68V115.53C103.994 115.434 108.027 115.407 112.044 115.146H112.048Z" fill="#887364"/>
<path d="M40.2236 118.784V119.168C37.0113 119.156 33.8526 119.187 30.648 119.359C30.6327 119.229 30.6748 119.053 30.648 118.976C33.8143 118.604 37.042 118.819 40.2236 118.784Z" fill="#283542"/>
<path d="M48.6506 116.484C48.6506 116.599 49.1681 117.922 48.6506 118.784C46.8029 118.293 44.9285 118.75 43.0961 118.784C43.1881 117.657 40.3592 118.481 38.5 118.209C39.3663 117.784 39.6155 118.332 40.0333 117.251L48.6506 116.484Z" fill="#A18A81"/>
<path d="M48.6483 118.784L48.8399 119.168C47.0076 119.168 45.1293 119.378 43.2855 119.359C42.308 119.352 41.2423 119.171 40.2227 119.168V118.784C41.1771 118.773 42.1431 118.803 43.0938 118.784C44.9261 118.75 46.8006 118.294 48.6483 118.784Z" fill="#887978"/>
<path d="M67.0369 115.722C67.1788 115.722 68.3978 116.106 68.4744 116.106C68.5243 116.106 69.3791 115.722 69.4327 115.722C69.6206 115.722 69.3829 116.294 69.7202 116.297V116.489C68.8386 116.581 68.6124 116.382 68.3786 117.256C68.3518 117.24 68.4591 116.961 68.2828 116.872C68.1524 116.807 66.2626 117.007 66.1744 117.064C65.5266 117.497 66.2358 118.893 65.5994 119.172C65.0168 119.429 54.3027 119.395 52.8614 119.364C52.6927 117.915 53.053 116.455 53.053 116.301C55.905 116.079 64.6411 116.6 65.9828 116.301C66.0441 116.286 66.2818 116.037 66.2703 115.918C66.3086 115.918 66.2703 115.711 67.0369 115.726V115.722Z" fill="#A18A81"/>
<path d="M27.5824 120.894L26.7199 121.469C38.6338 121.669 50.5477 121.431 62.4425 121.469C68.457 121.488 99.5106 122.159 102.378 121.469C102.52 121.435 102.474 121.212 102.474 121.086C103.746 121.055 105.034 121.128 106.303 121.086C107.262 121.051 107.806 120.91 108.22 120.894C108.143 121.623 110.976 121.151 113.103 121.278C113.249 121.285 113.149 121.653 113.295 121.661C115.894 121.799 118.478 121.462 121.054 121.469C126.317 121.488 131.588 121.454 136.855 121.469C135.912 120.852 133.416 121.818 133.121 120.894C135.363 120.959 148.7 121.469 149.497 121.278C149.639 121.243 149.593 121.021 149.593 120.894C151.034 121.002 152.452 121.17 153.901 121.278C153.982 121.285 154.204 121.653 154.285 121.661C154.649 121.688 154.867 121.423 155.531 121.469C155.657 121.477 155.787 121.462 155.914 121.469L155.818 122.044C106.79 122.65 57.6394 123.482 8.62286 122.044C8.64203 121.876 8.5462 121.55 8.7187 121.469C9.34353 121.178 17.2095 121.132 18.7735 121.086C21.7021 120.998 24.6576 120.956 27.5824 120.894Z" fill="#DCC8B4"/>
<path d="M30.4567 118.594C30.3839 119.042 30.6407 118.958 30.6484 118.977C30.6752 119.054 30.633 119.23 30.6484 119.36C28.4097 119.483 18.309 120.303 17.1436 120.51C15.2576 120.847 18.3741 120.855 18.7728 121.085C17.2088 121.131 9.34284 121.177 8.71802 121.468C8.54552 121.549 8.64135 121.875 8.62218 122.043C7.43002 122.009 6.1727 121.94 4.98438 121.852C5.69737 121.388 7.18086 121.825 7.95135 121.66C8.11235 121.626 7.92452 121.342 8.23885 121.277C9.17801 121.081 10.0252 120.441 12.5475 120.702L13.8891 119.935C14.6903 119.855 15.733 120.046 16.4766 119.935C18.3818 119.648 20.8543 119.176 22.6061 118.977C27.1409 118.467 28.563 118.693 30.4605 118.594H30.4567Z" fill="#96766B"/>
<path d="M127.946 119.359C135.207 119.635 142.36 120.345 149.589 120.893C149.589 121.019 149.635 121.242 149.493 121.276C148.696 121.468 135.36 120.958 133.118 120.893C130.135 120.808 127.164 120.532 124.213 120.126C123.565 120.981 117.75 120.329 121.054 121.468C118.478 121.46 115.895 121.797 113.296 121.659C113.15 121.652 113.253 121.284 113.104 121.276C110.976 121.15 108.144 121.621 108.22 120.893C111.314 120.766 114.534 120.923 117.604 120.701C118.202 120.659 118.819 120.732 119.425 120.701C119.49 119.037 123.124 120.647 123.063 119.551C122.2 119.505 121.487 119.762 121.625 119.168C123.745 119.168 125.842 119.279 127.946 119.359Z" fill="#BCBCB5"/>
<path d="M109.941 119.359C111.252 119.401 114.399 119.44 115.208 119.551C115.565 119.601 115.741 120.118 115.783 120.126C116.776 120.31 118.44 119.547 117.604 120.701C114.534 120.923 111.314 120.766 108.22 120.893C107.81 120.908 107.262 121.05 106.304 121.084C106.185 120.306 106.53 120.613 107.07 120.413C103.26 119.478 109.178 120.065 106.112 119.359C107.373 119.375 108.672 119.317 109.941 119.359Z" fill="#3A5160"/>
<path d="M40.2227 119.168C41.2423 119.172 42.308 119.352 43.2855 119.36C42.791 119.854 44.033 119.72 45.2021 119.743C45.298 120.556 43.9563 119.781 43.573 120.318C45.5548 120.41 47.1993 119.973 46.6358 120.893C43.8336 120.368 41.0123 120.916 38.2102 120.893C38.0683 120.893 38.1603 120.51 38.0185 120.51C34.4995 120.49 31.0649 120.82 27.5804 120.893C24.6518 120.954 21.6963 120.996 18.7715 121.085C18.3766 120.858 15.2602 120.847 17.1423 120.51C18.3076 120.303 28.4084 119.482 30.6471 119.36C33.8555 119.187 37.0104 119.156 40.2227 119.168Z" fill="#969FA3"/>
<path d="M48.8408 119.936C48.9711 119.955 48.8983 120.522 50.6616 120.702C54.6482 120.817 58.6464 120.951 62.633 121.086L62.4413 121.469C50.5466 121.431 38.6327 121.668 26.7188 121.469L27.5812 120.894C31.0657 120.821 34.5004 120.491 38.0193 120.511C38.1612 120.511 38.0653 120.894 38.211 120.894C41.0132 120.917 43.8345 120.369 46.6366 120.894C47.1963 119.974 45.5518 120.411 43.5738 120.319C43.9533 119.782 45.2988 120.557 45.203 119.744C46.4449 119.767 47.6064 119.771 48.8408 119.936Z" fill="#BAC3C7"/>
<path d="M133.115 120.893C133.41 121.817 135.905 120.851 136.848 121.468C131.581 121.453 126.311 121.488 121.047 121.468C117.743 120.33 123.562 120.982 124.206 120.127C127.162 120.533 130.129 120.809 133.111 120.893H133.115Z" fill="#BAC3C7"/>
<path d="M48.8405 119.168L49.0322 119.359L48.8405 119.934C47.6023 119.77 46.4447 119.766 45.2027 119.743C44.0335 119.72 42.7954 119.854 43.286 119.359C45.1299 119.379 47.0082 119.168 48.8405 119.168Z" fill="#4C626E"/>
<path d="M99.9805 80.8613C99.9805 80.3515 99.9805 79.8378 99.9805 79.328C100.962 79.2206 100.736 78.3582 100.747 77.603H101.13C100.927 82.5288 101.87 80.2288 101.514 76.453C101.506 76.3648 100.509 75.6595 101.514 74.9197C101.598 76.177 102.284 77.9365 102.089 80.7616C101.851 81.3711 100.517 80.892 99.9805 80.8575V80.8613Z" fill="#E5F1F9"/>
<path d="M100.747 77.6025C100.739 78.3576 100.962 79.2201 99.9804 79.3275C99.9766 78.7141 99.8731 73.5813 100.555 75.4022C100.609 75.5517 100.751 77.223 100.747 77.6063V77.6025Z" fill="#A1B1B9"/>
<path d="M101.514 76.4562C101.87 80.232 100.927 82.532 101.131 77.6062C101.161 76.8549 100.954 76.3374 101.514 76.4562Z" fill="#2A484D"/>
<path d="M125.649 116.484H127.949C128.187 117.408 131.525 117.446 132.545 117.442C132.691 117.442 132.836 117.734 133.312 117.634C133.979 119.267 135.799 119.29 135.899 117.442C136.486 118.052 136.505 118.497 137.432 118.784C138.678 119.171 142.983 118.976 144.52 119.167C146.548 119.42 148.971 120.283 151.033 119.934C151.198 119.984 151.006 120.245 151.321 120.317C151.577 120.375 151.551 120.827 151.8 120.892C152.628 121.103 154.579 120.958 155.533 121.467C154.87 121.421 154.652 121.686 154.288 121.659C154.207 121.651 153.985 121.283 153.904 121.276C152.455 121.168 151.033 121 149.596 120.892C142.366 120.348 135.213 119.635 127.953 119.359C128.087 118.497 127.55 118.888 127.378 118.784C127.282 118.727 127.646 118.159 125.461 118.305C125.419 117.707 125.476 117.071 125.461 116.484H125.653H125.649Z" fill="#96766B"/>
<path d="M145.76 109.977C145.422 110.617 145.53 112.726 146.047 113.232C147.251 114.412 148.439 111.012 151.506 115.532C151.111 115.969 151.165 116.168 151.122 116.298C150.455 118.372 151.651 118.625 151.314 120.319C151 120.25 151.191 119.986 151.027 119.936C148.964 120.285 146.542 119.422 144.514 119.169C142.977 118.978 138.676 119.173 137.426 118.786C136.502 118.499 136.479 118.054 135.893 117.444C135.797 119.292 133.976 119.265 133.305 117.636C133.255 117.51 133.083 115.332 132.922 114.953C133.125 114.696 133.229 114.512 133.497 114.186C133.574 114.09 133.8 114.52 133.88 114.282C133.949 113.772 133.865 113.492 133.689 113.036C133.715 112.936 133.834 112.71 133.88 112.653C134.444 111.963 134.218 111.859 134.359 111.694C134.486 111.549 135.383 112.139 135.605 110.353L136.947 109.778C137.399 110.575 139.132 110.671 139.726 110.161C139.964 109.958 141.65 105.99 144.322 110.161C145.127 110.015 144.985 110.184 145.76 109.969V109.977Z" fill="url(#paint0_linear_271_1762)"/>
<path d="M160.698 117.253C164.574 115.206 166.272 116.809 166.636 120.891C166.598 121.202 166.663 121.535 166.636 121.85C164.539 121.742 162.419 121.758 160.315 121.658C160.284 121.447 160.407 120.995 160.219 120.891C159.234 120.355 152.058 121.317 157.06 118.687C157.256 118.292 156.493 118.43 156.485 118.4C156.405 118.112 156.562 117.564 156.485 117.25C157.367 117.069 158.578 114.911 159.644 115.908C161.093 117.257 158.042 119.235 160.027 119.162C161.078 119.124 160.832 118.173 160.698 117.246V117.253Z" fill="#CFD1C1"/>
<path d="M149.396 109.211C149.342 109.192 148.376 109.031 148.246 109.019C147.188 108.939 146.318 108.916 145.754 109.978C144.98 110.192 145.122 110.024 144.317 110.169C141.645 105.999 139.954 109.966 139.72 110.169C139.13 110.683 137.397 110.583 136.941 109.786C134.752 105.926 148.1 103.392 149.104 108.828C150.136 108.555 150.634 108.582 149.392 109.211H149.396Z" fill="#CFD1C1"/>
<path d="M154.566 115.531C154.827 115.642 155.072 115.803 155.333 115.914C154.474 117.106 155.122 118.337 156.483 118.406C156.49 118.437 157.249 118.299 157.058 118.693C152.059 121.323 159.231 120.357 160.216 120.898C160.404 121.001 160.282 121.453 160.312 121.664C158.833 121.595 157.38 121.576 155.908 121.473C155.781 121.465 155.651 121.48 155.524 121.473C154.566 120.963 152.615 121.108 151.791 120.898C151.542 120.832 151.569 120.38 151.312 120.323C151.649 118.628 150.453 118.375 151.12 116.301C152.224 115.063 153.543 116.275 154.566 115.535V115.531Z" fill="#CFD1C1"/>
<path d="M149.398 109.21C150.74 109.728 152.683 113.024 152.844 114.573C152.488 115.52 151.755 115.251 151.502 115.531C148.436 111.012 147.248 114.416 146.044 113.231C145.526 112.721 145.419 110.617 145.756 109.977C146.481 109.774 147.328 108.984 148.248 109.018C148.375 109.03 149.344 109.187 149.398 109.21Z" fill="#CFD1C1"/>
<path d="M158.019 115.149C157.654 115.226 157.394 114.98 157.06 115.437C155.653 117.349 158.053 116.353 158.019 115.149C159.801 114.781 160.46 115.594 160.702 117.257C160.836 118.185 161.081 119.136 160.031 119.174C158.045 119.247 161.097 117.269 159.648 115.92C158.578 114.923 157.371 117.081 156.489 117.261C156.432 117.02 156.573 116.33 155.914 115.728C156.236 115.391 157.961 112.995 158.022 115.153L158.019 115.149Z" fill="#CFD1C1"/>
<path d="M166.638 120.894C166.274 116.812 164.576 115.209 160.7 117.256C159.7 116.302 167.681 112.653 166.638 120.894Z" fill="#CFD1C1"/>
<path d="M155.908 115.724C156.568 116.326 156.422 117.016 156.483 117.258C156.56 117.572 156.403 118.12 156.483 118.408C155.122 118.339 154.475 117.108 155.333 115.916C155.471 115.724 155.885 115.747 155.908 115.724Z" fill="#CFD1C1"/>
<path d="M154.567 115.532C153.54 116.272 152.221 115.061 151.121 116.299C151.163 116.169 151.11 115.973 151.504 115.532C151.757 115.252 152.49 115.521 152.846 114.574C152.727 115.218 153.486 115.068 154.571 115.532H154.567Z" fill="#CFD1C1"/>
<path d="M133.5 114.191C133.232 114.517 133.128 114.701 132.925 114.958C132.837 115.069 131.392 115.356 132.542 117.449C131.522 117.449 128.183 117.415 127.946 116.491C127.57 115.031 129.962 113.689 131.488 114.958C131.99 114.103 133.477 112.416 133.5 114.191Z" fill="#CFD1C1"/>
<path d="M132.927 114.957C133.084 115.332 133.261 117.514 133.311 117.64C132.835 117.74 132.69 117.448 132.544 117.448C131.394 115.355 132.839 115.072 132.927 114.957Z" fill="#B5B6A8"/>
<path d="M148.253 109.02C147.333 108.981 146.49 109.775 145.762 109.978C146.321 108.92 147.195 108.939 148.253 109.02Z" fill="#CFD1C1"/>
<path d="M158.017 115.148C158.051 116.352 155.655 117.349 157.058 115.436C157.392 114.98 157.652 115.225 158.017 115.148Z" fill="#CFD1C1"/>
<path d="M129.668 102.505C130.262 103.563 130.434 104.452 130.722 104.613C134.041 104.402 135.996 107.208 135.605 110.359C135.383 112.142 134.486 111.555 134.36 111.701C134.218 111.866 134.444 111.969 133.88 112.659C134.793 108.124 129.848 105.951 126.793 109.021C124.692 111.133 125.984 113.587 125.643 116.492H125.451C125.324 111.931 125.367 107.266 125.451 102.7C125.608 102.712 125.815 102.681 125.834 102.7C126.333 103.229 126.823 102.156 127.847 102.125C128.498 102.106 128.682 102.873 129.668 102.508V102.505Z" fill="#CFD1C1"/>
<path d="M127.749 99.2472C128.81 99.5462 128.83 101.428 128.899 101.547C127.821 100.861 126.07 101.394 125.836 102.697C125.817 102.678 125.61 102.709 125.453 102.697C125.476 101.562 125.391 100.366 125.453 99.251C126.127 99.3353 127.327 99.1322 127.752 99.251L127.749 99.2472Z" fill="#EBEBEB"/>
<path d="M127.749 97.3339C127.926 97.8361 127.527 98.7293 127.749 99.2506C127.328 99.1318 126.128 99.3349 125.449 99.2506C125.511 98.1083 125.687 96.9506 125.737 95.8044C126.128 95.9348 127.703 97.2074 127.749 97.3378V97.3339Z" fill="#CFD1C1"/>
<path d="M128.903 101.546C129.102 101.888 129.47 102.148 129.669 102.505C128.684 102.869 128.5 102.102 127.848 102.121C126.829 102.152 126.334 103.225 125.836 102.696C126.07 101.393 127.822 100.86 128.899 101.546H128.903Z" fill="#B5B6A8"/>
<path d="M133.691 113.038C133.867 113.49 133.951 113.77 133.882 114.284C133.802 114.521 133.576 114.092 133.499 114.188C133.476 112.413 131.989 114.1 131.486 114.955C129.961 113.686 127.569 115.027 127.944 116.488H125.644C125.986 113.582 124.694 111.129 126.794 109.017C129.616 108.323 133.706 108.38 132.924 112.175C133.422 113.268 133.668 112.984 133.691 113.038Z" fill="#B5B6A8"/>
<path d="M133.881 112.657C133.835 112.714 133.716 112.94 133.689 113.04C133.67 112.986 133.421 113.27 132.922 112.177C133.704 108.383 129.614 108.321 126.793 109.019C129.844 105.948 134.793 108.122 133.881 112.657Z" fill="#CFD1C1"/>
<path d="M119.136 101.354C119.696 101.354 120.332 100.338 121.053 100.396C121.091 105.364 120.992 110.37 121.053 115.334H116.265C116.165 111.585 116.062 102.401 116.265 99.2458C117.825 99.7672 117.595 101.35 119.136 101.354Z" fill="#CFD1C1"/>
<path d="M118.75 95.6091C118.677 96.4525 119.984 95.6091 121.241 95.8008C121.329 96.1036 121.038 98.7294 121.05 100.397C120.333 100.339 119.696 101.355 119.133 101.355C118.799 99.9408 117.868 98.0164 116.262 98.1008C116.315 97.7289 116.212 97.3686 116.645 96.7591C116.986 96.28 118.171 95.8008 118.753 95.6091H118.75Z" fill="#EBEBEB"/>
<path d="M120.662 95.2255C121.022 95.306 121.103 95.3329 121.237 95.8005C119.983 95.6089 118.672 96.4522 118.745 95.6089C119.374 95.4019 119.949 95.0645 120.662 95.2255Z" fill="#B5B6A8"/>
<path d="M101.893 109.402C101.886 113.335 103.837 115.389 107.927 114.764C109.242 114.565 111.055 112.921 111.661 112.848C111.826 112.829 111.91 113.131 112.236 113.039C112.213 113.764 112.082 114.454 112.044 115.148C108.031 115.408 103.998 115.435 99.9768 115.531C99.7315 115.539 99.8005 115.339 99.7852 115.339C100.08 115.37 99.973 114.722 99.9768 113.998C100.778 110.954 98.8997 108.01 101.893 109.402Z" fill="#CFD1C1"/>
<path d="M111.087 101.929C111.394 103.608 110.286 105.636 112.237 104.801C112.237 107.219 112.298 109.661 112.237 112.08C112.229 112.414 112.245 112.739 112.237 113.038C111.915 113.13 111.827 112.828 111.662 112.847C112.084 112.371 111.298 111.938 111.279 111.888C110.987 111.106 110.937 110.225 110.895 109.397C110.799 107.58 111.24 105.675 111.087 105.28L109.554 105.184C109.155 101.929 110.957 102.079 111.087 101.929Z" fill="#B5B6A8"/>
<path d="M119.135 101.354C117.594 101.354 117.824 99.7673 116.264 99.2459C116.287 98.8741 116.214 98.4524 116.264 98.096C117.874 98.0155 118.805 99.9398 119.135 101.35V101.354Z" fill="#CFD1C1"/>
<path d="M112.237 104.804C110.286 105.64 111.398 103.608 111.087 101.933C111.421 101.553 111.8 101.262 112.046 100.783C112.394 102.056 112.237 103.497 112.237 104.804Z" fill="#CFD1C1"/>
<path d="M103.045 104.613C102.409 106.457 101.899 107.266 101.895 109.401C98.9053 108.01 100.78 110.953 99.9787 113.997C99.9787 113.932 99.9787 113.871 99.9787 113.805C99.9863 111.298 99.741 108.841 99.787 106.334C99.8062 105.173 100.166 105.246 100.17 105.184C102.19 106.423 101.267 104.575 103.041 104.609L103.045 104.613Z" fill="#B5B6A8"/>
<path d="M110.894 109.401C110.937 110.225 110.986 111.111 111.278 111.893C108.211 115.231 102.71 115.373 102.469 109.784C103.051 109.918 102.752 109.248 102.948 109.209C103.423 109.121 109.292 109.773 110.898 109.401H110.894Z" fill="#CFD1C1"/>
<path d="M110.894 109.4C109.292 109.772 103.419 109.12 102.944 109.208C102.752 109.243 103.047 109.918 102.464 109.783C102.392 108.104 102.867 106.882 103.423 105.379C108.318 105.091 103.024 107.809 109.552 105.187L111.086 105.283C111.239 105.678 110.798 107.583 110.894 109.4Z" fill="#B5B6A8"/>
<path d="M21.4486 112.081C21.2377 112.645 22.3111 112.833 22.9819 113.615C23.4687 114.182 23.9747 114.991 24.3235 115.34C24.9215 117.444 23.6795 117.502 22.5986 118.978C20.8467 119.173 18.3743 119.648 16.4691 119.936C13.4025 119.852 12.3828 119.185 12.1605 119.169C11.4283 119.123 9.92947 120.99 8.42682 118.019C8.87531 117.421 8.12782 117.854 7.66016 117.253C7.93999 117.138 7.84799 116.436 8.04349 115.911C8.05115 115.884 8.30415 115.899 8.42682 115.528C8.73348 115.474 9.62664 115.646 9.76848 115.432C9.96014 115.144 8.13549 111.533 13.5979 111.123C16.1663 110.931 16.2314 111.744 16.3771 111.698C16.5266 111.648 17.0096 109.724 18.5812 109.59C19.9804 109.471 21.3451 110.694 21.4524 112.081H21.4486Z" fill="#B5B6A8"/>
<path d="M27.9624 97.7167C31.6002 99.5951 31.0674 102.761 32.9418 101.546C32.9418 101.581 33.2868 101.228 33.3252 102.121C32.3553 101.972 31.397 102.24 30.454 102.313C29.3462 102.401 28.2269 102.144 27.2954 102.888C26.9465 99.4456 25.1219 97.4944 22.3159 100.396C21.3883 97.2797 20.3034 99.2692 19.3489 100.78C19.2953 100.864 19.2033 101.105 19.1573 101.163C18.2641 100.626 17.8808 101.102 17.2406 101.546C17.0221 101.696 17.0604 101.73 17.0489 101.738C16.6158 101.416 16.0753 101.136 15.5156 101.163C15.8185 100.573 15.6153 100.12 15.899 99.5337C16.5276 98.7747 17.3364 98.3339 18.1989 97.9046C21.1353 96.4441 25.0337 96.1988 27.9662 97.7129L27.9624 97.7167Z" fill="#EBEBEB"/>
<path d="M7.47112 115.53C6.96895 116.094 7.17595 116.623 7.66278 117.255C8.12661 117.857 8.87794 117.424 8.42944 118.022L8.23778 121.276C7.92345 121.341 8.11128 121.625 7.95028 121.66C7.17595 121.824 5.69246 121.387 4.9833 121.851C4.93347 121.851 4.79547 121.709 4.02497 121.66C7.40212 120.329 3.92914 121.012 2.58748 121.276C2.42265 121.307 2.51082 121.656 2.49165 121.66C1.21516 121.878 0.647829 121.614 0 121.66C0.632496 119.938 1.21132 117.205 3.25448 116.776C3.27364 114.66 5.94546 114.595 7.46728 115.53H7.47112Z" fill="#CFD1C1"/>
<path d="M13.601 107.485C12.52 108.156 12.1904 109.072 12.8344 110.168C12.4702 110.54 11.4927 110.337 11.1094 110.551C11.2704 107.148 12.2364 106.297 12.451 105.764C13.9575 105.745 12.6465 106.787 13.601 107.489V107.485Z" fill="#CFD1C1"/>
<path d="M13.6008 111.122C8.13452 111.532 9.96301 115.143 9.77135 115.431C9.62951 115.645 8.73635 115.473 8.42969 115.527C8.97785 113.886 9.38801 111.502 11.113 110.547C11.4963 110.336 12.4738 110.536 12.838 110.164C12.8687 110.217 13.6698 110.601 13.6047 111.122H13.6008Z" fill="#B5B6A8"/>
<path d="M8.04828 115.912C7.85278 116.438 7.94478 117.139 7.66495 117.254C7.17812 116.622 6.97112 116.093 7.47329 115.529C7.67645 115.652 7.82978 115.824 8.04828 115.912Z" fill="#B5B6A8"/>
<path d="M4.02054 121.656C3.51454 121.625 2.99321 121.679 2.48722 121.656C2.50638 121.656 2.41822 121.303 2.58305 121.272C3.92471 121.008 7.39768 120.326 4.02054 121.656Z" fill="#B5B6A8"/>
<path d="M33.3266 107.485C33.3994 110.666 33.6716 113.867 33.5182 117.06C32.5369 117.256 32.5331 116.493 32.4641 116.485C32.1421 116.447 29.4051 117.827 26.1429 117.444C25.8363 116.282 25.0045 116.014 24.3221 115.335C23.9771 114.99 23.4673 114.178 22.9805 113.61C23.5363 109.443 27.0974 114.461 26.4266 110.927C26.4764 110.927 27.0169 110.67 27.3849 110.639C26.7869 108.535 27.2086 106.611 29.7808 107.097C31.2681 107.377 30.4516 109.118 33.3227 107.481L33.3266 107.485Z" fill="#CFD1C1"/>
<path d="M18.578 109.592C17.0101 109.726 16.5271 111.65 16.3738 111.7C16.232 111.746 16.163 110.933 13.5947 111.125C13.6598 110.604 12.8587 110.22 12.828 110.167C12.184 109.07 12.5137 108.154 13.5947 107.483C15.6685 106.199 18.1908 107.165 18.5741 109.592H18.578Z" fill="#CFD1C1"/>
<path d="M30.4565 102.314L33.3277 102.506C33.3507 103.035 33.3123 103.552 33.3277 104.039C31.227 103.56 28.9079 102.954 26.9107 104.039C26.5772 96.5452 22.5254 101.08 22.1229 100.976C21.9159 100.923 21.7702 97.814 19.3438 100.785C20.3021 99.2745 21.3869 97.285 22.3107 100.401C25.1167 97.4958 26.9414 99.447 27.2902 102.893C28.2217 102.153 29.341 102.406 30.4488 102.318L30.4565 102.314Z" fill="#CFD1C1"/>
<path d="M26.4314 110.931C27.0984 114.466 23.5411 109.448 22.9853 113.615C22.3144 112.837 21.2449 112.645 21.4519 112.081C24.6412 108.973 26.1477 110.912 26.4314 110.931Z" fill="#CFD1C1"/>
<path d="M33.3293 104.036C33.3676 105.178 33.3025 106.34 33.3293 107.482C30.4582 109.119 31.2747 107.382 29.7873 107.099C27.219 106.612 26.7935 108.54 27.3915 110.641C27.0235 110.671 26.483 110.932 26.4332 110.928C26.1495 110.909 24.643 108.969 21.4537 112.078C21.3426 110.69 19.9779 109.468 18.5826 109.586C18.1993 107.16 15.6769 106.194 13.6031 107.478C12.6486 106.777 13.9596 105.734 12.4531 105.753C12.6065 105.37 13.0741 105.19 13.2198 104.891C13.4766 104.366 13.4076 101.253 15.5198 101.157C15.3588 101.471 13.239 103.331 15.2323 101.924C17.7469 102.713 16.8614 101.889 17.0531 101.732C17.0646 101.724 17.0263 101.69 17.2448 101.54C18.6669 101.479 18.4753 102.012 19.1614 101.157C19.2074 101.1 19.2994 100.858 19.3531 100.774C21.7757 97.8029 21.9252 100.912 22.1322 100.965C22.5347 101.073 26.5865 96.5379 26.92 104.028C28.9172 102.943 31.2363 103.549 33.337 104.028L33.3293 104.036Z" fill="#B5B6A8"/>
<path d="M17.0488 101.735C16.8572 101.892 17.7427 102.716 15.228 101.926C13.2347 103.333 15.3545 101.474 15.5155 101.16C16.0713 101.133 16.6157 101.413 17.0488 101.735Z" fill="#CFD1C1"/>
<path d="M19.1549 101.16C18.4688 102.015 18.6604 101.482 17.2383 101.543C17.8784 101.099 18.2618 100.623 19.1549 101.16Z" fill="#CFD1C1"/>
<path d="M14.2716 103.461C14.6358 103.38 14.8543 104.155 14.4633 104.227C13.8806 104.331 14.0723 103.507 14.2716 103.461Z" fill="#B5B6A8"/>
<path d="M33.5188 117.061V118.211C30.2605 117.992 30.617 118.586 30.456 118.594C28.5585 118.694 27.1364 118.468 22.6016 118.977C23.6826 117.502 24.9207 117.44 24.3266 115.34C25.005 116.018 25.8369 116.283 26.1474 117.448C29.4095 117.831 32.1465 116.451 32.4685 116.49C32.5375 116.497 32.5413 117.26 33.5227 117.065L33.5188 117.061Z" fill="#B5B6A8"/>
<path d="M16.4722 119.934C15.7323 120.045 14.6858 119.854 13.8847 119.934L12.543 120.701C10.0207 120.436 9.17354 121.08 8.23438 121.276L8.42604 118.021C9.93253 120.992 11.4275 119.125 12.1597 119.171C12.382 119.187 13.4017 119.85 16.4683 119.938L16.4722 119.934Z" fill="#B5B6A8"/>
<path d="M33.3282 102.121C33.332 102.247 33.3243 102.377 33.3282 102.504L30.457 102.312C31.4 102.239 32.3584 101.971 33.3282 102.121Z" fill="#B5B6A8"/>
<path d="M49.0321 106.527C49.0168 110.368 48.6641 113.638 48.6488 115.719L40.0315 116.294C40.1005 114.477 39.6789 111.303 37.5399 110.74C37.5245 109.272 37.7315 107.765 37.7315 106.335L40.319 107.485C40.641 107.455 40.802 106.163 43.1902 107.485C43.4815 105.986 44.5127 105.281 44.0527 104.802C44.6238 104.867 46.1916 102.885 46.2568 106.91C47.196 106.535 48.1811 106.006 49.036 106.527H49.0321Z" fill="#CFD1C1"/>
<path d="M44.0519 104.806C44.5118 105.281 43.4807 105.987 43.1894 107.489C40.7974 106.167 40.6364 107.459 40.3182 107.489L37.7307 106.339C37.7307 105.101 37.6349 103.564 37.5391 102.318C39.0762 102.422 39.701 104.334 39.9349 104.426C42.6834 103.894 43.8449 104.787 44.0519 104.81V104.806Z" fill="#CFD1C1"/>
<path d="M40.0305 116.292C40.0229 116.488 40.0497 117.205 40.0305 117.251C39.6127 118.332 39.3674 117.784 38.4972 118.209C38.2481 118.175 37.6807 118.313 37.5389 118.113C37.5236 115.656 37.5619 113.188 37.5389 110.738C39.6779 111.302 40.0957 114.476 40.0305 116.292Z" fill="#EBEBEB"/>
<path d="M48.6499 115.722C48.6499 115.949 48.6423 116.267 48.6499 116.489L40.0327 117.256C40.0518 117.21 40.025 116.497 40.0327 116.297L48.6499 115.722Z" fill="#96766B"/>
<path d="M66.8433 113.996C66.8433 114.084 67.1691 114.529 67.0349 115.721C66.2721 115.706 66.3066 115.913 66.2683 115.913C61.8025 115.805 57.3328 115.602 52.8594 115.721C52.8594 114.088 53.051 114.264 53.051 114.188L66.8433 113.996Z" fill="#B5B6A8"/>
<path d="M66.2722 115.913C66.2837 116.032 66.046 116.281 65.9847 116.296C64.6469 116.595 55.9069 116.074 53.0549 116.296C53.0549 116.266 52.8633 116.465 52.8633 115.721C57.3368 115.603 61.8064 115.806 66.2722 115.913Z" fill="#96766B"/>
<path d="M127.371 118.782C127.54 118.882 128.081 118.495 127.946 119.357C125.842 119.277 123.749 119.169 121.625 119.166C120.671 119.166 119.283 119.315 118.562 118.974C121.503 118.821 124.427 118.69 127.371 118.782Z" fill="#283542"/>
<path d="M124.114 66.4959V118.019C123.339 118.096 121.929 118.947 121.622 117.828C122.542 114.93 120.71 110.725 122.005 108.156C121.254 107.93 121.998 105.994 122.005 105.285C122.021 103.668 121.622 103.648 121.622 103.56C121.633 101.82 121.994 100.083 122.005 98.3891C122.051 91.8418 121.909 85.1948 121.814 78.6629C121.814 78.5709 122.389 77.8464 121.814 77.7045V65.2539C122.239 64.6253 123.742 66.3234 124.114 66.4998V66.4959Z" fill="white"/>
<path d="M125.265 48.3025C125.265 48.429 125.265 48.5593 125.265 48.6858C125.25 54.6083 124.721 60.5768 125.265 66.4992C125.262 66.7484 125.074 66.6756 125.074 66.6909C124.664 66.3727 124.238 66.5567 124.115 66.4992C123.747 66.3229 122.241 64.6247 121.815 65.2534V77.704C122.39 77.8458 121.815 78.5703 121.815 78.6623C121.911 85.1981 122.053 91.8451 122.007 98.3885C121.996 100.083 121.635 101.823 121.624 103.56C121.624 103.648 122.019 103.667 122.007 105.285C121.999 105.998 121.256 107.93 122.007 108.156C120.711 110.724 122.544 114.929 121.624 117.827C121.543 118.088 121.827 118.487 121.24 118.402C121.053 117.701 121.068 117.015 121.049 116.294C121.041 115.976 121.053 115.654 121.049 115.336C120.987 110.371 121.087 105.365 121.049 100.397C121.037 98.7297 121.329 96.1039 121.24 95.801C121.106 95.3334 121.026 95.3104 120.665 95.226C120.639 94.9462 121.003 95.0995 121.049 94.9385C121.486 93.4665 121.022 68.3085 121.049 64.1954C123.368 65.6559 122.026 64.3334 122.007 64.0996C121.739 61.1939 121.754 50.8708 122.007 47.9153C124.223 47.1295 124.414 48.7127 125.262 48.2987L125.265 48.3025Z" fill="#A1B1B9"/>
<path d="M125.072 66.6875C125.072 66.7527 125.072 66.814 125.072 66.8792V118.115C124.021 118.924 124.178 118.012 124.113 118.019V66.4958C124.236 66.5533 124.658 66.3693 125.072 66.6875Z" fill="#BAC3C7"/>
<path d="M125.457 48.8724C125.936 52.9511 125.338 61.9172 125.265 66.4941C124.721 60.5717 125.25 54.6032 125.265 48.6808C125.43 48.6616 125.441 48.7268 125.457 48.8724Z" fill="#E5F1F9"/>
<path d="M124.307 42.3645C125.2 42.7172 125.365 43.3804 125.457 44.2812C125.469 44.377 125.258 45.6535 125.266 46.1979C122.191 46.4164 122.199 45.7149 122.011 47.9228C121.758 50.8783 121.743 61.2014 122.011 64.1071C122.034 64.3409 123.372 65.6634 121.053 64.2029C121.083 59.6451 120.731 54.9378 120.861 50.4107C120.869 50.1845 121.241 50.0158 121.244 49.9315C121.302 48.2832 120.807 43.3229 121.819 42.5562C122.521 42.0234 123.445 42.0234 124.311 42.3645H124.307Z" fill="#7A8D96"/>
<path d="M125.266 46.1951C125.266 46.3867 125.266 46.5784 125.266 46.7701C125.266 47.2799 125.266 47.7936 125.266 48.3034C124.419 48.7212 124.227 47.1342 122.012 47.9201C122.2 45.7121 122.192 46.4136 125.266 46.1951Z" fill="#7A8D96"/>
<path d="M116.646 96.7583C116.213 97.364 116.316 97.7281 116.263 98.1C116.213 98.4565 116.286 98.8781 116.263 99.2499C116.059 102.405 116.163 111.589 116.263 115.338C116.289 116.327 116.454 116.067 116.454 116.105C116.458 116.262 115.933 117.96 116.454 119.264C117.355 119.256 118.091 118.984 118.179 118.976C118.306 118.965 118.436 118.984 118.563 118.976C119.283 119.317 120.675 119.168 121.625 119.168C121.487 119.762 122.196 119.505 123.063 119.551C123.12 120.647 119.49 119.037 119.425 120.701C118.823 120.732 118.202 120.659 117.604 120.701C118.44 119.547 116.776 120.31 115.783 120.126C115.745 120.118 115.565 119.601 115.208 119.551C114.396 119.44 111.252 119.402 109.941 119.359C113.054 119.149 111.82 118.604 112.05 116.105C112.084 115.729 112.034 115.438 112.05 115.147C112.088 114.453 112.218 113.763 112.241 113.038C112.249 112.739 112.234 112.414 112.241 112.08C112.928 115.266 111.62 120.452 113.966 119.264L113.583 89.2872L116.266 86.2244C116.312 89.705 116.466 93.2738 116.65 96.7583H116.646Z" fill="#7A8D96"/>
<path d="M116.073 70.711C116.471 75.863 116.195 81.0801 116.264 86.2244L113.581 89.2872H113.389C113.788 88.0644 112.868 76.5185 113.198 72.9113C113.286 71.9415 113.248 70.8107 114.156 70.3238C114.217 70.3315 114.286 70.3123 114.348 70.3238C114.612 70.3737 115.068 70.8835 116.073 70.7072V70.711Z" fill="#A1B1B9"/>
<path d="M112.242 112.08C112.304 109.665 112.242 107.219 112.242 104.8C112.242 103.493 112.4 102.048 112.051 100.779C112.365 97.287 112.196 93.7527 112.242 90.2452C112.626 90.2874 113.304 89.559 113.392 89.2869H113.584L113.967 119.263C111.621 120.452 112.929 115.265 112.242 112.08Z" fill="#7A8D96"/>
<path d="M116.456 57.301C116.402 61.7514 116.786 66.3591 116.073 70.7099C115.072 70.8862 114.612 70.3764 114.348 70.3266V57.301C115.038 57.2396 115.762 57.3431 116.456 57.301Z" fill="#4C626E"/>
<path d="M113.584 57.4927C113.653 57.4927 113.756 57.3547 114.351 57.3011V70.3266C114.289 70.3151 114.22 70.3343 114.159 70.3266C113.971 70.2998 113.408 69.767 112.242 70.5183C112.242 65.9873 112.258 61.4487 112.242 56.9177C112.618 56.9407 112.292 57.5311 112.53 57.6844C112.576 57.7151 112.825 57.5272 113.584 57.4927Z" fill="#5E7581"/>
<path d="M114.159 70.3272C113.25 70.814 113.289 71.9449 113.201 72.9147C112.871 76.5218 113.791 88.0678 113.392 89.2906C113.304 89.5589 112.626 90.2911 112.242 90.2489C112.327 83.6825 112.242 77.0892 112.242 70.5227C113.408 69.7714 113.971 70.3042 114.159 70.3311V70.3272Z" fill="#A1B1B9"/>
<path d="M113.584 57.493C112.825 57.5275 112.576 57.7154 112.53 57.6847C112.293 57.5314 112.618 56.941 112.243 56.918C112.235 54.6985 112.503 51.6511 111.859 50.9802C112.231 50.9649 114.32 50.3861 114.543 50.6927C113.466 53.1461 115.187 55.5879 113.584 57.493Z" fill="#4C626E"/>
<path d="M35.82 48.8727L35.6284 67.8361C33.7002 67.1653 33.8574 67.6483 33.3284 67.2611C33.3284 60.6908 33.4894 54.0937 33.1367 47.5349C34.0682 47.8761 34.8924 48.5239 35.82 48.8766V48.8727Z" fill="#7A8D96"/>
<path d="M35.6286 67.8365C35.6286 67.8365 35.5481 67.9285 35.8203 68.0281C35.529 68.4421 35.6401 68.906 35.6286 69.3698L34.0953 68.699C34.0723 82.0504 34.5016 95.3788 34.287 108.73C34.287 108.876 33.9075 108.776 33.9036 108.922C33.85 111.985 34.4863 115.139 33.9036 118.21C33.689 118.218 33.5663 118.597 33.5203 118.21V117.06C33.6736 113.867 33.4015 110.666 33.3286 107.484C33.3018 106.338 33.367 105.181 33.3286 104.038C33.3133 103.555 33.3516 103.034 33.3286 102.505C33.3248 102.378 33.3325 102.248 33.3286 102.122C33.2903 101.232 32.9453 101.581 32.9453 101.547C32.9453 101.481 32.9453 101.42 32.9453 101.355C33.0718 101.355 33.275 101.409 33.3286 101.259C33.8155 99.8714 33.3286 75.6526 33.3286 71.8576C33.3286 70.7115 33.137 70.585 33.137 70.516C33.137 69.4848 33.3286 68.3386 33.3286 67.2615C33.8576 67.6486 33.7005 67.1656 35.6286 67.8365Z" fill="#A1B1B9"/>
<path d="M37.5438 49.6395C37.1145 55.4738 37.9233 62.3929 37.3521 68.4112C36.9267 68.1237 36.1753 68.1582 35.8188 68.0278C35.5467 67.9282 35.6387 67.84 35.6272 67.8362L35.8188 48.8728C36.4053 49.0951 36.9343 49.4171 37.5438 49.6395Z" fill="#7A8D96"/>
<path d="M35.6306 69.3699C35.6306 69.435 35.6306 69.4964 35.6306 69.5615C35.4811 79.6355 35.7264 89.7516 35.8223 99.8255C35.8797 105.955 36.0446 112.081 36.0139 118.214C35.1246 118.317 34.6684 118.195 33.9056 118.214C34.4883 115.143 33.8519 111.989 33.9056 108.926C33.9056 108.78 34.2851 108.88 34.2889 108.734C34.5036 95.3827 34.0743 82.0543 34.0973 68.7029L35.6306 69.3737V69.3699Z" fill="#BAC3C7"/>
<path d="M37.5423 102.312C37.6381 103.562 37.7339 105.095 37.7339 106.333C37.7339 107.763 37.5269 109.269 37.5423 110.737C37.5653 113.183 37.5269 115.656 37.5423 118.113C37.6803 118.312 38.2514 118.17 38.5006 118.209C40.3597 118.481 43.1887 117.653 43.0967 118.784C42.1422 118.803 41.1801 118.772 40.2256 118.784C37.0439 118.818 33.8163 118.603 30.65 118.975C30.6423 118.956 30.3855 119.04 30.4583 118.592C30.6193 118.584 30.2628 117.99 33.5211 118.209C33.5671 118.596 33.6898 118.216 33.9044 118.209C34.6634 118.189 35.1196 118.312 36.0128 118.209C36.6069 118.14 36.9213 118.722 37.3544 118.113C37.3736 112.846 37.3314 107.575 37.3544 102.312C37.3544 102.247 37.3544 102.185 37.3544 102.12C37.5154 102.101 37.5346 102.166 37.5461 102.312H37.5423Z" fill="#E6E4DC"/>
<path d="M37.3498 68.4124C37.4878 69.708 37.1581 70.2332 37.1581 70.329L35.6248 69.5624C35.6248 69.4972 35.6248 69.4359 35.6248 69.3707C35.6363 68.9069 35.5251 68.4469 35.8165 68.0291C36.173 68.1594 36.9243 68.1249 37.3498 68.4124Z" fill="#969FA3"/>
<path d="M37.1586 70.3289C37.1586 70.4171 37.5419 71.9657 37.5419 72.0539C37.5419 72.1612 37.3618 72.4487 37.3503 74.1622C37.2928 83.481 37.3924 92.8074 37.3503 102.126C37.3503 102.191 37.3503 102.253 37.3503 102.318C36.7063 100.995 38.0594 99.4237 35.8169 99.8262C35.7211 89.7523 35.4758 79.6362 35.6253 69.5623L37.1586 70.3289Z" fill="#A1B1B9"/>
<path d="M37.3497 102.312C37.3267 107.576 37.3689 112.846 37.3497 118.113C36.9166 118.723 36.6022 118.14 36.0081 118.209C36.0387 112.08 35.8739 105.95 35.8164 99.8207C38.0551 99.4144 36.7019 100.99 37.3497 102.312Z" fill="#A1B1B9"/>
<path d="M53.2463 41.7868C53.7715 42.7528 55.324 41.277 56.98 43.5118L57.2675 43.4159C54.5382 41.4035 59.5636 42.9138 63.4928 42.1701C64.4473 43.1744 65.3251 44.2209 66.2719 45.2329C68.5834 47.7131 69.2197 49.1927 69.4305 49.0624C69.6529 48.9282 69.3999 48.4491 69.6222 48.2957C69.649 48.2766 70.1627 48.6791 70.1972 48.6791C73.3559 48.5104 75.0348 48.4989 78.1475 48.4874V49.4457C74.3065 49.4381 70.408 49.6757 66.5594 49.6374L58.1338 44.0829C62.2891 47.0921 59.3413 46.4213 60.9129 50.1166C56.0101 51.2321 55.7418 49.5186 55.4543 49.4457C54.542 49.2234 43.9697 49.6949 41.4704 49.6374C41.3171 49.6374 41.3937 50.0207 41.3746 50.0207C41.1714 50.0092 38.4881 48.6906 37.6409 48.4874C37.4531 48.6177 37.5643 49.3729 37.5451 49.6374C36.9394 49.4151 36.4066 49.0969 35.8201 48.8707C34.8963 48.5181 34.0683 47.8702 33.1368 47.5291C32.673 47.3604 32.7726 47.3451 32.7535 47.3374C33.7693 47.0806 32.558 43.9104 33.9993 42.358H23.082C23.9829 41.7408 26.3442 42.7068 26.624 41.783C35.4943 41.783 44.3761 41.783 53.2463 41.783V41.7868Z" fill="#4C626E"/>
<path d="M84.4699 21.291L84.2782 22.441C80.9356 21.7395 76.8991 23.6447 75.4693 26.8455L22.6041 39.4877C21.6267 40.2889 18.4833 39.6871 16.283 39.8711C16.191 39.0431 15.9572 38.2342 16.0914 37.3794C36.2469 32.9596 56.0843 27.0487 76.2321 22.6327C78.2408 22.1919 80.2302 21.4789 82.2657 21.0994L84.4699 21.291Z" fill="#A1B1B9"/>
<path d="M88.3031 40.2537C88.3031 40.3802 88.257 40.6025 88.3989 40.637C91.3314 41.3385 140.256 40.1885 148.731 40.637L148.827 41.0203C125.774 40.9705 102.732 41.143 79.6819 41.212C58.5183 41.2733 37.4274 41.2312 16.2829 41.4037C15.8919 40.4453 16.302 40.4147 16.2829 40.2537H88.2992H88.3031Z" fill="#A1B1B9"/>
<path d="M76.2311 21.2907V22.6324C56.0833 27.0522 36.2421 32.9631 16.0904 37.3791C16.1824 37.1338 15.8412 36.8693 15.707 36.8041C16.5082 35.8189 18.8695 35.8228 20.2073 35.0791C38.9752 30.9353 57.4709 25.4268 76.2311 21.2869V21.2907Z" fill="#7A8D96"/>
<path d="M148.822 39.8715C148.853 39.9941 148.945 40.1551 149.014 40.2548H16.2818C16.2664 40.1321 16.2971 39.9941 16.2818 39.8715C18.4821 39.6875 21.6254 40.2893 22.6029 39.4881C22.6029 39.6146 22.5569 39.837 22.6987 39.8715C25.2325 40.4771 67.5983 39.2696 74.7972 40.0631C76.8672 39.7373 78.9372 39.929 81.0225 39.6798C81.8582 39.5801 85.7106 39.147 84.277 38.3381C86.1783 38.1426 87.7538 36.9237 89.0648 35.6548C88.1754 37.859 89.8544 36.0267 90.4064 35.0798C91.4223 35.7928 88.2483 38.8825 86.0978 39.4843C86.439 40.55 86.922 39.0281 87.0561 39.8676H148.826L148.822 39.8715Z" fill="#7A8D96"/>
<path d="M26.6233 41.787C26.3396 42.7108 23.9821 41.7449 23.0813 42.362H33.9985C32.5572 43.9145 33.7724 47.0847 32.7527 47.3415C27.4014 45.3903 21.8776 43.7842 16.4727 41.9787C19.8268 41.6299 23.2538 41.787 26.6233 41.787Z" fill="#3A5160"/>
<path d="M79.6854 41.2126C79.6854 41.3391 79.6394 41.5615 79.7812 41.596C82.2422 42.1825 104.491 41.0056 109.374 41.7876C90.6716 41.7876 71.9574 41.7876 53.2547 41.7876C44.3844 41.7876 35.5027 41.7876 26.6324 41.7876C23.2629 41.7876 19.8359 41.6305 16.4818 41.9793C16.1445 41.9793 16.3591 41.5691 16.2901 41.4043C37.4346 41.2318 58.5255 41.274 79.6892 41.2126H79.6854Z" fill="#E5F1F9"/>
<path d="M148.826 37.1908C149.006 37.233 149.19 37.3787 149.209 37.5742C149.098 38.9043 149.501 40.0428 148.826 39.8741H87.056C86.9218 39.0347 86.4388 40.5565 86.0977 39.4908C88.2481 38.889 91.4221 35.7993 90.4063 35.0863C91.702 32.863 91.7173 29.6239 90.598 27.3277C89.9195 25.9324 88.5395 25.4801 89.0646 24.5486C108.81 28.7346 128.237 34.4653 147.772 39.487C149.466 39.7515 148.588 38.1683 148.826 37.187V37.1908Z" fill="white"/>
<path d="M102.286 24.3568C117.914 28.5926 133.745 32.1115 149.405 36.2323C149.52 37.6813 149.221 37.505 149.213 37.574C149.194 37.3785 149.01 37.2367 148.83 37.1907C127.355 31.9812 105.923 26.5954 84.4721 21.2939L82.268 21.1023C80.2325 21.4818 78.2469 22.1948 76.2344 22.6356V21.2939C78.1587 20.8685 82.0648 19.6686 83.6097 19.7606L102.286 24.3568Z" fill="#969FA3"/>
<path d="M148.825 41.7869C148.001 42.6877 128.21 47.7208 125.457 48.8747C125.442 48.7328 125.43 48.6638 125.266 48.683C125.266 48.5565 125.266 48.4262 125.266 48.2997C125.266 47.7898 125.266 47.2762 125.266 46.7663C127.251 46.2067 138.889 42.7337 139.533 42.3619C139.713 42.2584 139.606 41.9594 139.629 41.7869H148.821H148.825Z" fill="#283542"/>
<path d="M148.824 41.0204H149.208C149.215 41.6874 149.131 41.4497 148.824 41.787H109.368C104.484 41.005 82.2358 42.1857 79.7748 41.5954C79.633 41.5609 79.679 41.3385 79.679 41.212C102.725 41.143 125.771 40.9705 148.824 41.0204Z" fill="white"/>
<path d="M149.016 40.2537C149.261 40.6063 149.204 40.6217 149.208 41.0203H148.824L148.728 40.637C140.253 40.1885 91.3284 41.3385 88.3959 40.637C88.2541 40.6025 88.3001 40.3802 88.3001 40.2537H149.016Z" fill="#BAC3C7"/>
<path d="M151.701 32.5899C151.724 32.7088 151.69 32.8506 151.701 32.9733C151.786 33.7706 151.709 34.4912 151.51 35.2732C134.938 30.9378 118.21 26.6598 101.52 22.631C103.858 22.24 103.877 24.287 104.391 20.906C120.176 24.7278 135.981 28.5075 151.701 32.5899Z" fill="#096AFB"/>
<path d="M85.2415 15.352C90.5966 16.6438 95.9748 17.882 101.33 19.1815C102.399 19.4422 103.431 20.0133 104.584 19.9482C106.317 20.596 106.769 20.4887 106.884 20.5232C107.252 20.6382 107.659 20.7953 108.034 20.9065C111.802 22.0105 115.716 22.8116 119.527 23.7776C120.42 24.0038 121.332 24.1303 122.21 24.3526C126.883 25.5295 149.116 30.8194 150.557 31.4404C150.887 31.5822 151.504 31.5592 151.707 31.9196C151.734 32.1381 151.669 32.3796 151.707 32.5904C135.987 28.5079 120.186 24.7283 104.397 20.9065C97.4238 19.2198 90.4625 17.3607 83.5203 15.5437L14.563 32.3987C14.5668 32.3719 14.287 32.4869 14.3713 31.9196L14.8505 31.6321C22.8391 29.8074 30.751 27.6723 38.6975 25.6943C48.2693 23.31 57.8679 21.0407 67.4281 18.6065C70.9816 17.7018 74.9452 17.3223 78.3454 15.9232C79.2155 15.9385 80.0167 15.5399 80.837 15.3482C81.7417 15.1374 82.6617 15.283 82.7537 14.7732C83.5663 14.9879 84.4212 15.1489 85.2453 15.3482L85.2415 15.352Z" fill="#E1E77A"/>
<path d="M83.5151 15.5447V18.228L14.3699 35.083C14.3009 34.1439 14.3699 33.3236 14.5615 32.3997L83.5151 15.5447Z" fill="#387AF6"/>
<path d="M83.5124 18.2263C85.7702 18.6518 87.9897 19.4453 90.2168 19.9513L89.9293 21.1013C94.1076 21.96 98.1786 23.2441 102.284 24.3558L83.6082 19.7596C82.0634 19.6676 78.1611 20.8675 76.2329 21.293C57.4727 25.4329 38.977 30.9376 20.2091 35.0852C18.8713 35.8289 16.51 35.825 15.7088 36.8102C14.7199 36.3425 14.5742 37.9065 14.3672 35.0852L83.5124 18.2302V18.2263Z" fill="#0C727A"/>
<path d="M101.522 22.6324C118.212 26.6573 134.94 30.9353 151.512 35.2746C151.447 35.5314 151.634 36.0451 151.416 36.2329H149.403C133.744 32.1121 117.913 28.5932 102.284 24.3574C98.179 23.2457 94.108 21.9615 89.9297 21.1029L90.2172 19.9529C93.993 20.8077 97.7535 21.7277 101.518 22.6362L101.522 22.6324Z" fill="#064D5B"/>
<path d="M104.392 20.9074C103.878 24.2884 103.859 22.2414 101.521 22.6324C97.7564 21.7239 93.9959 20.8077 90.2201 19.9491C87.9929 19.4431 85.7734 18.6496 83.5156 18.2241V15.5408C90.4577 17.3578 97.419 19.2169 104.392 20.9036V20.9074Z" fill="#096AFB"/>
<path d="M109.37 41.7869H139.634C139.611 41.9555 139.718 42.2584 139.538 42.3619C138.89 42.7375 127.256 46.2105 125.27 46.7663C125.27 46.5747 125.27 46.383 125.27 46.1913C125.263 45.647 125.47 44.3705 125.462 44.2747L130.633 42.2622L124.312 42.358C123.449 42.0169 122.522 42.0169 121.82 42.5497C120.858 42.197 119.451 42.3695 118.374 42.358C115.35 42.3312 112.31 42.3657 109.278 42.358C105.161 44.8382 101.27 47.8435 96.7312 49.4458C90.5634 49.6068 84.319 49.4573 78.1512 49.4458V48.4875C78.7223 48.4875 79.3012 48.4875 79.8762 48.4875C83.4373 48.4798 89.7623 48.706 92.5184 48.4875C93.0857 48.4415 93.4767 48.683 93.9559 48.4875L97.2104 44.8497C92.0316 45.141 68.2842 44.4663 66.5631 44.8497C66.5017 44.865 66.2641 45.1142 66.2756 45.233C65.3326 44.221 64.4509 43.1707 63.4964 42.1702C59.5673 42.9139 54.5418 41.3997 57.2711 43.416L56.9836 43.5119C55.3277 41.277 53.7752 42.7529 53.25 41.7869C71.9527 41.7869 90.6669 41.7869 109.37 41.7869Z" fill="#4C626E"/>
<path d="M121.819 42.5537C120.807 43.3204 121.302 48.2807 121.244 49.929C121.244 50.0133 120.869 50.182 120.861 50.4082L116.457 51.079C116.438 53.1528 116.484 55.2305 116.457 57.3043C115.763 57.3464 115.038 57.2429 114.348 57.3043C113.754 57.3579 113.651 57.4921 113.582 57.4959C115.184 55.5908 113.463 53.149 114.54 50.6957C114.322 50.389 112.229 50.9678 111.857 50.9832C97.7961 51.4968 68.3487 51.1748 53.0538 50.9832C51.5971 50.964 50.083 51.01 48.6493 50.9832C46.2267 50.9333 43.7925 51.0177 41.3699 50.9832V50.0248C41.389 50.0248 41.3124 49.6377 41.4657 49.6415C43.965 49.699 54.5373 49.2275 55.4496 49.4498C55.7371 49.5188 56.0054 51.2361 60.9082 50.1207C59.3404 46.4253 62.2882 47.0962 58.1291 44.087L66.5547 49.6415C70.4033 49.6798 74.3018 49.4422 78.1428 49.4498C84.3067 49.4613 90.5512 49.6108 96.7228 49.4498C98.6663 49.4 100.621 49.4882 102.565 49.4498L118.366 42.362C119.443 42.3735 120.853 42.201 121.812 42.5537H121.819Z" fill="#3A5160"/>
<path d="M92.5128 48.4912C92.7658 47.3336 90.1323 49.7141 90.3086 46.9579C86.6976 47.3796 82.2778 44.8918 79.8705 48.4912C79.2993 48.4912 78.7205 48.4912 78.1455 48.4912C75.0367 48.5027 73.3539 48.5142 70.1952 48.6829C70.1607 48.6829 69.6471 48.2804 69.6202 48.2996C69.3979 48.4529 69.6509 48.9321 69.4286 49.0662C69.2178 49.1927 68.5776 47.7131 66.2699 45.2367C66.2584 45.1179 66.4961 44.8687 66.5574 44.8534C68.2748 44.4701 92.0259 45.1447 97.2047 44.8534L93.9502 48.4912C93.4711 48.6867 93.0801 48.4452 92.5128 48.4912Z" fill="#283542"/>
<path d="M41.3762 50.0214V50.9797C40.1189 50.489 38.8117 50.1057 37.5467 49.638C37.5659 49.3735 37.4547 48.6184 37.6425 48.488C38.4897 48.6912 41.1769 50.006 41.3762 50.0214Z" fill="#7A8D96"/>
<path d="M75.466 26.8455C73.8139 30.5446 74.3812 35.1637 77.6702 37.7627C79.5523 39.25 81.6146 39.1159 81.0205 39.6794C78.9351 39.9285 76.8652 39.7369 74.7952 40.0627C67.5962 39.2692 25.2305 40.4767 22.6967 39.871C22.5549 39.8365 22.6009 39.6142 22.6009 39.4877L75.466 26.8455Z" fill="#BAC3C7"/>
<path d="M148.826 37.1914C148.589 38.1689 149.47 39.7559 147.772 39.4914C128.242 34.4698 108.814 28.7351 89.0651 24.553C88.2257 24.3767 87.5817 24.4112 87.3402 24.3613C87.0642 23.6368 84.9022 22.5788 84.2773 22.4447L84.469 21.2947C105.916 26.6 127.352 31.9819 148.826 37.1914Z" fill="#D1D7DA"/>
<path d="M84.2802 22.4398C84.9089 22.5702 87.067 23.6282 87.343 24.3565C86.9175 24.2721 85.3957 23.4595 84.9472 23.3982C83.6861 23.2218 80.8762 23.3407 81.5969 23.9732C72.7266 25.4451 74.5053 39.3485 84.2802 38.3366C85.71 39.1415 81.8614 39.5785 81.0257 39.6782C81.6199 39.1147 79.5537 39.2527 77.6754 37.7616C74.3903 35.1626 73.8191 30.5434 75.4713 26.8443C76.9011 23.6397 80.9414 21.7383 84.2802 22.4398Z" fill="#A1B1B9"/>
<path d="M125.462 44.2759C125.37 43.3751 125.206 42.7158 124.312 42.3593L130.634 42.2634L125.462 44.2759Z" fill="#4C626E"/>
<path d="M118.373 42.3637L102.572 49.4515C100.629 49.4898 98.674 49.4016 96.7305 49.4515C101.269 47.853 105.16 44.8438 109.277 42.3637C112.313 42.3713 115.349 42.3368 118.373 42.3637Z" fill="#3A5160"/>
<path d="M92.5133 48.492C89.7572 48.7105 83.4322 48.4844 79.8711 48.492C82.2822 44.8926 86.6982 47.3804 90.3092 46.9587C90.1329 49.7149 92.7663 47.3344 92.5133 48.492Z" fill="#3A5160"/>
<path d="M87.342 24.3564C87.5835 24.4062 88.2275 24.3717 89.067 24.548C88.538 25.4795 89.9179 25.9318 90.6003 27.3272C91.7196 29.6195 91.7043 32.8586 90.4086 35.0858C89.8566 36.0326 88.1815 37.8649 89.067 35.6608C89.4005 34.8328 90.2514 33.8246 90.4086 32.8816C91.3094 27.4115 87.0353 23.0722 81.5997 23.9769C80.8828 23.3444 83.6927 23.2255 84.95 23.4019C85.3946 23.4632 86.9203 24.2759 87.3458 24.3602L87.342 24.3564Z" fill="white"/>
<path d="M89.0658 35.6564C87.7548 36.9252 86.1793 38.1404 84.278 38.3397C74.5069 39.3479 72.7282 25.4483 81.5947 23.9763C87.0341 23.0755 91.3044 27.4148 90.4036 32.8811C90.2503 33.8241 89.3954 34.8284 89.0619 35.6602L89.0658 35.6564Z" fill="#0A5983"/>
<path d="M81.689 24.5473C92.0351 23.1634 92.2191 39.2825 81.689 37.5729C74.973 36.4804 74.7354 25.4788 81.689 24.5473Z" fill="#096AFB"/>
<path d="M84.3742 26.082C83.9065 30.0802 81.9745 31.096 85.4284 31.349C83.8299 33.2733 80.5141 38.4943 83.32 33.074L80.6367 32.6907L84.3704 26.082H84.3742Z" fill="white"/>
<path d="M53.0568 50.9792V57.6836L49.0357 56.917C49.0357 55.031 49.0203 53.1603 49.0357 51.2667C49.0357 51.2284 48.7635 50.9562 48.6523 50.9792C50.086 51.006 51.6002 50.96 53.0568 50.9792Z" fill="#4C626E"/>
<path d="M50.9518 89.0937C49.9475 91.6506 51.3237 94.9702 50.5685 97.8069C50.6797 97.9487 50.9518 98.1403 50.9518 98.1902C51.0975 105.228 50.6835 112.316 51.1435 119.354C50.4458 119.319 49.7328 119.381 49.0352 119.354L48.8435 119.162L48.6518 118.779C49.1693 117.92 48.6518 116.594 48.6518 116.479C48.6442 116.26 48.6518 115.938 48.6518 115.712C48.6633 113.631 49.0198 110.361 49.0352 106.52C49.062 99.6928 49.016 92.8427 49.0352 86.0271C49.3112 87.2039 50.1737 88.1584 50.9518 89.0899V89.0937Z" fill="#7A8D96"/>
<path d="M51.1414 89.0935C51.2027 89.4347 51.5056 89.6378 51.5247 89.6685C51.5247 92.6546 50.2751 100.084 52.8664 100.969C52.9124 101.414 52.9699 101.694 53.0581 102.119C52.6786 102.253 52.9546 103.238 53.0581 103.652C52.6862 105.017 52.7054 106.462 52.6747 107.865C52.6402 109.521 52.6747 111.189 52.6747 112.845C52.6747 114.934 52.8319 117.096 52.4831 119.166C52.4141 119.166 52.5329 119.426 51.1414 119.357C50.6814 112.32 51.0954 105.232 50.9497 98.1938C50.9497 98.1439 50.6776 97.9523 50.5664 97.8104C51.3216 94.97 49.9454 91.6542 50.9497 89.0973H51.1414V89.0935Z" fill="#7A8D96"/>
<path d="M53.0594 114.185C53.0594 114.262 52.8715 114.085 52.8677 115.718C52.8677 116.462 53.0594 116.263 53.0594 116.293C53.0594 116.447 52.699 117.911 52.8677 119.356C52.6875 119.352 52.6684 119.168 52.4844 119.165C52.8332 117.095 52.6722 114.936 52.676 112.844H52.8677C52.8677 113.99 53.0594 114.116 53.0594 114.185Z" fill="#BCBCB5"/>
<path d="M53.0546 57.6844C53.2386 62.085 52.8936 66.5125 52.8629 70.9016C52.5141 70.7483 51.7935 70.3573 51.5213 70.3266C51.2798 70.2998 51 70.3151 50.7546 70.3266C50.3713 70.3458 49.4973 70.8326 49.0296 70.9016C48.9913 66.2327 49.0258 61.5867 49.0296 56.9177L53.0508 57.6844H53.0546Z" fill="#5E7581"/>
<path d="M52.8662 70.9008C52.8202 77.4443 52.7857 84.0683 52.8662 90.6271C52.41 90.8149 51.6779 89.9332 51.5245 89.6687C51.5054 89.6381 51.2026 89.4387 51.1412 89.0937C51.1259 89.0171 51.4134 89.1551 51.3329 87.5604C51.0416 81.8526 51.4479 76.0298 51.5245 70.322C51.7967 70.3527 52.5135 70.7399 52.8662 70.897V70.9008Z" fill="#BAC3C7"/>
<path d="M52.8694 90.628C52.9039 93.5682 52.6624 98.9999 52.8694 100.97C50.2781 100.085 51.5278 92.6558 51.5278 89.6697C51.6811 89.9342 52.4133 90.8158 52.8694 90.628Z" fill="#A1B1B9"/>
<path d="M51.336 87.5643C51.4165 89.159 51.129 89.021 51.1444 89.0976H50.9527C50.1745 88.1623 49.3159 87.2116 49.036 86.0348C48.53 83.892 48.875 76.4516 48.8444 73.5842C48.8367 72.6949 49.0437 71.7021 49.036 70.9009C49.4999 70.8319 50.3777 70.3451 50.761 70.3259C50.692 73.8641 50.209 81.3697 50.5694 84.4018C50.5924 84.5782 51.1597 83.5508 51.336 87.5605V87.5643Z" fill="#A1B1B9"/>
<path d="M53.0549 108.057C52.7099 109.609 52.8594 111.269 52.8632 112.844H52.6716C52.6716 111.188 52.6371 109.517 52.6716 107.865C52.8364 107.865 52.8671 108.014 53.0549 108.057Z" fill="#B5B6A8"/>
<path d="M51.528 70.3253C51.4514 76.0331 51.045 81.8559 51.3364 87.5637C51.16 83.5502 50.5927 84.5814 50.5697 84.405C50.2094 81.369 50.6924 73.8634 50.7614 70.3291C51.0067 70.3176 51.2865 70.3023 51.528 70.3291V70.3253Z" fill="#A1B1B9"/>
<path d="M65.6977 74.5402C64.9618 74.1492 65.3911 76.545 65.5061 76.936C65.5559 77.1047 65.8779 77.0089 65.8894 77.0319C65.9584 77.1699 65.7399 77.603 66.0811 77.6069C66.0006 78.661 65.2109 79.0328 66.2727 79.811C65.2339 80.3707 66.3494 80.6888 64.3561 81.0568C64.2948 81.0645 64.2258 81.0453 64.1644 81.0568C63.2368 80.3822 64.5899 76.3649 63.8769 76.269L62.2478 77.8982C64.4979 77.672 62.6541 78.1014 62.2478 79.0482C61.9679 79.6998 62.5123 83.5025 61.3853 82.9735C60.4768 82.548 61.3891 77.8905 61.6728 76.844L62.0561 76.0774C62.4241 75.5215 63.0144 75.073 63.3978 74.544C64.2104 75.2302 64.9196 74.0035 65.6977 74.544V74.5402Z" fill="#7A8D96"/>
<path d="M66.2734 74.1568C66.2734 75.3489 66.1738 76.4261 66.0818 77.6029C65.7406 77.6029 65.9591 77.1659 65.8901 77.0279C65.8901 76.0389 66.5149 75.1074 65.6984 74.5363C64.9241 73.9958 64.2111 75.2224 63.3984 74.5363C65.6524 71.416 65.5566 70.8831 65.6984 70.7068C66.4459 71.0595 65.0123 74.4749 66.2734 74.1529V74.1568Z" fill="#5E7581"/>
<path d="M66.2703 74.1563C65.0092 74.4783 66.4428 71.0628 65.6953 70.7101C66.5885 69.5678 66.2626 71.9943 66.2703 74.1563Z" fill="#283542"/>
<path d="M62.0594 76.0734L61.6761 76.8401C61.6838 76.8171 61.4001 76.9283 61.4844 76.3609C61.7489 75.9661 62.0403 76.1003 62.0594 76.0734Z" fill="#3A5160"/>
<path d="M54.9719 107.292C53.9675 108.017 54.3355 108.346 53.0552 108.059C52.8674 108.017 52.8367 107.867 52.6719 107.867C52.7025 106.464 52.6795 105.019 53.0552 103.654C53.2967 104.624 54.301 106.652 54.9719 107.292Z" fill="#EBEBEB"/>
<path d="M65.8877 109.591L67.2293 110.166C67.1833 112.734 66.8498 113.804 66.846 113.995L53.0537 114.187C53.0537 114.118 52.8659 113.991 52.8621 112.845C52.8621 111.27 52.7087 109.606 53.0537 108.057C54.3341 108.345 53.9661 108.015 54.9704 107.291C56.4041 108.663 57.7036 108.322 57.8415 108.728C56.8564 115.41 64.316 115.559 65.8877 109.591Z" fill="#CFD1C1"/>
<path d="M65.3139 108.441C64.6622 113.098 60.5912 114.471 58.9928 112.174C57.0684 109.411 59.6444 107.544 59.7594 107.291C60.7292 108.479 63.0561 107.31 65.3139 108.441Z" fill="#CFD1C1"/>
<path d="M67.0375 85.4571C65.784 85.6526 63.3191 85.1658 63.208 85.553C62.4835 94.3772 67.302 104.221 65.8913 109.592C64.3235 115.56 56.8639 115.411 57.8452 108.729C57.7033 108.323 56.4077 108.664 54.974 107.292C54.3032 106.651 53.2989 104.624 53.0574 103.654C52.9539 103.244 52.6779 102.255 53.0574 102.121C53.594 104.658 57.1744 111.021 59.7618 105.471C63.2578 97.9729 60.494 85.5261 61.391 84.8821C61.4217 84.8591 62.0465 85.1351 62.0618 85.1696C62.2803 85.622 62.4643 94.0591 62.4451 95.2244C62.3723 99.5675 61.5367 103.347 59.7618 107.292C59.6468 107.545 57.0709 109.411 58.9952 112.175C60.5937 114.468 64.6646 113.095 65.3163 108.442C65.991 103.627 63.3766 98.3102 62.8246 93.5032C62.9128 90.4749 62.4298 87.577 62.8246 84.5026C65.2741 86.4806 63.8941 79.7992 63.0163 83.161C63.0738 81.6928 62.5371 81.3057 64.1663 81.0527C64.2276 81.0412 64.2966 81.0603 64.358 81.0527C64.4921 81.0335 65.094 81.4398 67.0413 80.9568L67.233 76.6482C67.2789 79.5998 67.5971 82.586 67.4246 85.553C67.3326 85.7906 67.2215 85.4303 67.0413 85.4571H67.0375Z" fill="#064D5B"/>
<path d="M62.8242 84.4997C62.8894 83.986 62.8779 83.687 63.0159 83.158C63.8937 79.7962 65.2737 86.4738 62.8242 84.4997Z" fill="#07353F"/>
<path d="M65.408 81.8201C65.6227 81.8201 65.891 83.8556 65.8872 84.0242C65.8028 86.3779 64.6528 81.8201 65.408 81.8201Z" fill="#B7B8B3"/>
<path d="M66.7482 81.4373C67.0932 81.6021 66.8402 82.0199 66.8441 82.8747C66.8556 86.8652 66.0007 83.7296 66.7482 81.4373Z" fill="#9ACD73"/>
<path d="M64.5457 82.2045C64.5572 82.0588 64.5764 81.9936 64.7374 82.0128C65.6535 83.021 64.1317 87.5519 64.5457 82.2045Z" fill="#B7B8B3"/>
<path d="M64.7394 82.0132C64.5784 81.994 64.5592 82.0592 64.5477 82.2049C63.4399 82.3199 64.1605 81.3769 64.7394 82.0132Z" fill="#23A0AF"/>
<path d="M66.1742 82.0115L66.27 82.299L65.9826 82.391L65.8867 82.299L66.1742 82.0115Z" fill="#74C26A"/>
<path d="M65.6981 74.5407C66.5146 75.108 65.8898 76.0395 65.8898 77.0324C65.8783 77.0094 65.5563 77.1052 65.5064 76.9365C65.3914 76.5494 64.9621 74.1497 65.6981 74.5407Z" fill="#E5F1F9"/>
<path d="M103.43 105.375C102.878 106.882 102.399 108.101 102.472 109.78C102.714 115.365 108.218 115.227 111.281 111.888C111.3 111.938 112.086 112.371 111.664 112.846C111.059 112.919 109.246 114.56 107.931 114.763C103.841 115.388 101.889 113.333 101.897 109.4C101.897 107.265 102.411 106.456 103.047 104.612C103.112 104.424 103.591 103.305 103.526 103.271C98.7346 103.309 98.7653 102.182 103.718 102.504C108.64 97.9538 107.394 91.0845 106.018 85.2655L99.5051 85.4572L99.3134 81.4361C98.8419 81.4361 99.0298 87.3509 99.0259 87.9489H98.6426C98.6273 85.6565 98.7078 83.3451 98.6426 81.0527C98.8113 81.0604 98.8343 80.8879 99.0259 80.8611C99.2943 80.8227 99.7006 80.8419 99.9843 80.8611C100.517 80.8956 101.855 81.3747 102.093 80.7652C102.288 77.9401 101.606 76.1806 101.518 74.9233C101.253 71.0593 101.537 68.3032 101.901 71.573C103.089 71.7915 103.342 73.3095 103.243 74.2563C106.808 73.9764 107.114 76.4719 107.168 79.5232C104.822 75.4868 106.47 79.7801 106.497 80.0024C106.75 82.1529 106.141 85.8559 107.455 85.7485C107.555 88.6657 108.341 92.7175 108.03 95.5158C107.563 99.7363 104.722 101.871 103.434 105.379L103.43 105.375Z" fill="#0F3648"/>
<path d="M103.717 74.9216C107.439 79.1459 104.752 80.2576 103.812 79.0386C103.686 78.8738 103.272 74.9983 103.717 74.9216Z" fill="#E5F1F9"/>
<path d="M103.908 79.5177C104.368 79.234 106.986 79.7208 106.112 80.9552C106.031 81.0663 104.076 81.1238 103.908 81.051C103.647 80.936 103.731 79.625 103.908 79.5177Z" fill="#E5F1F9"/>
<path d="M105.059 81.6267L105.539 81.7225C104.864 83.1524 106.022 84.2717 105.634 84.5017C104.603 85.1074 104.967 82.194 105.059 81.6305V81.6267Z" fill="#4DBAD0"/>
<path d="M100.461 81.6267C102.485 81.9679 100.622 87.8098 100.94 82.1059L100.461 81.6267Z" fill="#13964B"/>
<path d="M102.188 81.6262C102.334 81.5533 102.629 81.8025 102.667 81.9137C103.158 83.2668 102.158 87.4221 102.188 81.6262Z" fill="#B7B8B3"/>
<path d="M101.61 81.8177C102.063 81.7257 101.856 82.3237 101.898 83.0635C102.059 85.8235 101.185 84.7195 101.61 81.8177Z" fill="#CFD1C1"/>
<path d="M100.27 83.156C100.707 83.0985 100.515 83.4742 100.558 83.8268C100.757 85.4483 100.167 85.042 100.27 83.156Z" fill="#03796F"/>
<path d="M103.717 81.6247C104.158 81.6247 104.062 84.4575 104.005 84.5917C103.418 86.01 102.939 82.0732 103.046 81.9083C103.261 81.5863 103.89 82.4488 103.717 81.6208V81.6247Z" fill="#CFD1C1"/>
<path d="M103.523 82.3884C103.676 82.3884 103.607 82.9174 103.618 83.2509C103.687 85.4627 103.17 83.3468 103.523 82.3884Z" fill="#187039"/>
<path d="M69.7206 116.484C75.2444 115.917 92.893 116.764 99.9846 116.676C100.429 116.668 100.882 116.687 101.326 116.676C101.986 116.568 101.591 117.235 101.71 117.634C97.5351 117.542 70.2266 118.374 68.6703 117.826C68.333 117.707 68.4096 117.266 68.3828 117.251C68.6166 116.377 68.8428 116.576 69.7245 116.484H69.7206Z" fill="white"/>
<path d="M99.791 115.338C99.791 115.338 99.7374 115.533 99.9827 115.529V116.679C92.8911 116.767 75.2464 115.92 69.7188 116.488V116.296C69.7839 116.296 69.8452 116.296 69.9104 116.296C79.4247 116.438 89.0156 115.794 98.5452 116.104C99.0397 115.752 98.6181 115.725 98.6411 115.529C99.3349 115.514 99.5457 115.341 99.791 115.338Z" fill="#283542"/>
<path d="M99.9812 113.803C99.9812 113.868 99.9812 113.929 99.9812 113.995C99.9774 114.715 100.085 115.367 99.7896 115.336C99.5442 115.34 99.3334 115.513 98.6396 115.528C98.7431 114.654 98.6166 113.289 98.6396 112.273C99.4062 112.139 98.7852 113.776 99.1187 115.145C99.3986 114.133 99.3679 113.113 99.4062 112.082C99.9467 112.53 99.1571 113.849 99.9812 113.807V113.803Z" fill="#656C6D"/>
<path d="M68.3782 117.25C68.405 117.265 68.3284 117.706 68.6657 117.825C70.2259 118.373 97.5305 117.545 101.705 117.633C101.732 117.721 102.134 117.142 102.184 119.166C103.526 119.185 104.783 119.051 106.109 119.358C109.176 120.063 103.254 119.473 107.068 120.412C106.531 120.611 106.182 120.305 106.301 121.083C105.028 121.125 103.744 121.052 102.472 121.083C89.2506 121.413 75.8532 121.528 62.6321 121.083C58.6493 120.949 54.6511 120.815 50.6607 120.7C48.8973 120.519 48.974 119.952 48.8398 119.933L49.0315 119.358C49.7292 119.385 50.4422 119.323 51.1398 119.358C52.5275 119.427 52.4125 119.166 52.4815 119.166C52.6655 119.17 52.6808 119.354 52.8648 119.358C54.3061 119.389 65.0202 119.423 65.6029 119.166C66.2392 118.886 65.5301 117.491 66.1779 117.058C66.2661 117 68.1559 116.801 68.2862 116.866C68.4625 116.954 68.3552 117.234 68.382 117.25H68.3782Z" fill="#0F3648"/>
<path d="M102.473 121.082C102.473 121.208 102.519 121.431 102.377 121.465C99.5095 122.155 68.4559 121.484 62.4414 121.465L62.6331 121.082C75.8541 121.526 89.2477 121.411 102.473 121.082Z" fill="#B59993"/>
<path d="M68.4766 118.209H101.612C101.723 118.289 101.78 120.244 101.708 120.413C101.033 121.931 72.1335 119.846 68.4766 120.7V118.209Z" fill="#096AFB"/>
<path d="M69.7224 59.7927C70.2169 61.7017 69.7607 63.6375 69.7224 65.5389L67.8057 67.3597C68.3232 68.8777 67.7559 73.5965 67.9974 74.0641C68.0472 74.1638 69.707 74.114 68.3807 75.5974C68.2734 75.9616 68.7602 75.8504 68.7641 75.9808C68.7947 78.0699 68.2772 88.439 68.7641 89.3897C68.8024 89.4664 69.523 89.635 69.7224 89.6772C69.7224 90.3059 69.9102 91.0878 69.914 91.7855C69.9332 95.8718 69.7262 99.9773 69.7224 104.044L67.2307 105.578C67.2767 98.8771 67.2844 92.1458 67.0391 85.4682C67.2192 85.4414 67.3304 85.8017 67.4224 85.564C67.5949 82.5971 67.2767 79.6109 67.2307 76.6593C67.1502 71.4268 67.0506 66.1867 67.4224 60.9542C68.6069 59.8809 69.6074 59.8617 69.7224 59.8042V59.7927Z" fill="#969FA3"/>
<path d="M99.4058 60.7464H99.0225C98.8768 59.8187 98.6276 59.0712 97.585 58.8297C96.3545 58.5499 73.5386 58.5614 72.3043 58.8297C70.357 59.2514 70.9205 64.2385 70.8668 67.447C70.7097 77.0073 71.0738 86.6097 71.0585 96.1776C69.9085 95.71 71.6373 91.4282 69.9085 91.7732C69.9085 91.0793 69.7207 90.2973 69.7168 89.6648C69.69 81.6379 69.5597 73.5573 69.7168 65.5303C69.7552 63.629 70.2113 61.6932 69.7168 59.7842C70.0887 59.5964 70.587 59.19 70.2918 58.8259C72.4576 57.6184 70.6675 58.6304 71.346 58.6342C71.4303 58.6342 71.8251 58.0707 71.921 58.0592C74.0753 57.8254 89.213 57.7487 92.4138 57.8676C92.4483 57.8676 92.2988 58.4196 92.7972 58.4426C92.9352 58.4502 92.8508 58.0516 92.9888 58.0592C95.7258 58.2049 99.1183 57.1047 99.7891 60.455C99.8121 60.5739 99.402 60.7195 99.4058 60.7425V60.7464Z" fill="#D1D7DA"/>
<path d="M99.0202 60.745C99.3728 62.9569 98.6752 71.4706 99.0202 74.9168C99.0777 75.4918 99.5031 75.2426 99.5951 75.6834C97.4983 74.9551 99.0087 76.8909 99.0202 77.0251C99.1275 78.2824 98.9435 79.5934 99.0202 80.8546C98.8285 80.8814 98.8055 81.0539 98.6368 81.0462C98.5372 77.6078 99.3268 77.1784 97.1035 77.0251C97.6632 75.3614 97.4983 76.5996 97.7743 76.2584C97.9852 75.9978 97.3182 75.8061 98.6368 75.2043V67.5415C98.5027 67.2425 92.8907 67.0738 92.124 67.0623C92.1394 66.9358 92.0972 66.7633 92.124 66.679C92.216 66.4068 92.3157 66.5027 92.3157 66.4873C93.0249 67.2195 96.5553 66.8132 98.6368 66.7748C98.3072 65.1648 99.4916 59.7024 97.5827 59.2079C96.3483 58.8897 73.3255 58.8245 72.1103 59.2079C70.5732 59.6909 71.5008 65.3297 71.2478 66.7748C71.5238 67.162 77.4425 66.6982 78.3356 66.679C78.3548 66.7135 78.2935 66.8898 78.5273 66.8707C78.5043 66.8707 78.3816 67.2463 78.2398 67.254C75.9666 67.3498 73.4635 66.9703 71.2478 67.4457C71.1328 67.4687 70.9872 67.4342 70.8645 67.4457C70.9182 64.2372 70.3547 59.2462 72.302 58.8284C73.5363 58.5601 96.3522 58.5486 97.5827 58.8284C98.6253 59.0661 98.8707 59.8135 99.0202 60.745Z" fill="#72797E"/>
<path d="M99.4079 60.7458C99.4501 61.0525 99.7759 60.8762 99.7912 61.0333C100.152 65.2615 99.4041 70.3214 99.9829 74.6339C99.5459 75.1476 99.6034 75.0671 99.0246 74.9214C98.6796 71.4753 99.3772 62.9615 99.0246 60.7497H99.4079V60.7458Z" fill="white"/>
<path d="M70.2929 58.8337C70.5881 59.1979 70.0898 59.6004 69.718 59.7921C69.603 59.8496 68.6063 59.8687 67.418 60.9421C67.786 59.8917 69.3576 59.3551 70.2891 58.8337H70.2929Z" fill="#4C626E"/>
<path d="M99.5963 75.6885C99.7266 76.3133 99.7113 77.287 99.0213 77.0301C99.0098 76.896 97.4995 74.9601 99.5963 75.6885Z" fill="#283542"/>
<path d="M69.7226 104.035C69.7226 107.918 70.1021 111.824 69.9143 115.719V116.294C69.8491 116.294 69.7878 116.294 69.7226 116.294C69.3853 116.29 69.623 115.723 69.4351 115.719C69.3853 115.719 68.5305 116.102 68.4768 116.102C68.404 116.102 67.1812 115.723 67.0393 115.719C67.1735 114.527 66.8477 114.082 66.8477 113.994C66.8515 113.802 67.185 112.733 67.231 110.164C67.2578 108.635 67.2195 107.098 67.231 105.568L69.7226 104.035Z" fill="#4C626E"/>
<path d="M71.2518 67.4513C71.2671 76.0571 71.2326 84.6935 71.2518 93.307C71.271 100.774 71.1598 108.253 71.3476 115.716C80.4479 115.789 89.5482 115.701 98.6408 115.525C98.6178 115.72 99.0395 115.747 98.545 116.1C89.0154 115.789 79.4244 116.433 69.9102 116.291V115.716L70.8685 115.621C70.7267 109.135 71.0486 102.656 71.0601 96.1781C71.0755 86.6102 70.7113 77.0078 70.8685 67.4475C70.9911 67.436 71.1368 67.4705 71.2518 67.4475V67.4513Z" fill="#7A8D96"/>
<path d="M99.7879 106.332C99.7419 108.835 99.9872 111.292 99.9796 113.803C99.1554 113.845 99.9451 112.526 99.4046 112.078C99.4889 109.82 99.0826 106.401 99.7879 106.332Z" fill="#807F85"/>
<path d="M69.7213 89.6693C69.5258 89.6272 68.8052 89.4585 68.763 89.3818C68.2762 88.4312 68.7937 78.0659 68.763 75.9729C68.763 75.8426 68.2724 75.9538 68.3797 75.5896C69.706 74.1061 68.0462 74.1559 67.9964 74.0563C67.7549 73.5886 68.3222 68.8736 67.8047 67.3518L69.7213 65.531C69.5642 73.558 69.6945 81.6347 69.7213 89.6655V89.6693Z" fill="#5E7581"/>
<path d="M71.0604 96.1818C71.0489 102.66 70.7269 109.138 70.8688 115.624L69.9104 115.72C70.0983 111.829 69.7149 107.919 69.7188 104.036C69.7188 99.9691 69.9296 95.8636 69.9104 91.7773C71.6354 91.4323 69.9104 95.7179 71.0604 96.1818Z" fill="#BAC3C7"/>
<path d="M92.3176 66.492C92.3981 65.8097 92.3943 60.5121 92.126 60.3626H78.5254C78.2494 60.5159 78.1765 66.4077 78.3337 66.6837C77.4444 66.7029 71.5219 67.1667 71.2459 66.7795C71.4989 65.3344 70.5713 59.6956 72.1084 59.2126C73.3236 58.8293 96.3503 58.8944 97.5807 59.2126C99.4897 59.7033 98.3052 65.1696 98.6349 66.7795C96.5534 66.8179 93.0268 67.2242 92.3138 66.492H92.3176Z" fill="white"/>
<path d="M78.9148 66.8758C78.9148 67.0023 78.8612 67.2055 79.0107 67.2591C79.6125 67.47 89.9279 67.2323 91.7488 67.2591C91.9289 67.2591 91.9519 67.0636 92.1321 67.0675C92.8949 67.079 98.5107 67.2476 98.6449 67.5466V75.2094C97.3262 75.8112 97.9932 76.0029 97.7824 76.2636C97.5064 76.6047 97.6712 75.3666 97.1115 77.0302C97.0847 77.1069 97.1422 77.2411 96.9199 77.2219C96.8815 74.4772 97.0157 71.7211 96.7282 68.9841L73.0729 68.7924C73.184 71.7288 72.6129 89.6878 72.977 90.7228C73.0307 90.8723 73.2339 90.8186 73.3604 90.8186C73.322 90.8186 73.0039 91.3285 72.5937 90.7228L72.4021 89.7645V76.1639C72.6896 79.886 71.8041 78.7437 71.6354 79.035C71.2827 79.6484 71.9957 91.6926 71.6354 93.2068C71.6009 93.3486 71.3786 93.3026 71.2521 93.3026C71.2329 84.6892 71.2674 76.0489 71.2521 67.447C73.4677 66.9716 75.9709 67.3511 78.244 67.2553C78.3858 67.2476 78.5085 66.872 78.5315 66.872C78.658 66.8681 78.7883 66.8758 78.9148 66.872V66.8758Z" fill="#E5F1F9"/>
<path d="M96.7258 68.9844H96.3424C88.626 68.9844 80.8712 68.7467 73.1663 69.2719V90.3398C74.9717 90.5966 87.154 90.9377 87.8172 90.6272C88.1967 90.4509 88 90.1599 87.7213 89.2856C88.097 89.2703 88.3423 89.2933 88.6797 89.2856C88.6912 89.3699 88.12 90.0829 88.7755 90.6272C90.397 90.5697 92.0415 90.7039 93.6591 90.6272V90.8189C90.1823 90.9531 76.0297 91.0144 73.3579 90.8189C73.2314 90.8189 73.0283 90.8726 72.9746 90.7231C72.6104 89.6881 73.1816 71.729 73.0704 68.7927L96.7258 68.9844Z" fill="#656C6D"/>
<path d="M96.7269 68.9841C97.0144 71.7211 96.8802 74.4734 96.9185 77.2219C96.9837 81.6532 96.8725 86.0998 96.9185 90.535C96.7 91.0295 94.7297 90.7803 93.6641 90.8225V90.6308C94.9022 90.5733 96.1557 90.8531 96.5352 90.3433L96.3435 68.988H96.7269V68.9841Z" fill="#878C90"/>
<path d="M91.7495 67.2598C89.9325 67.233 79.6133 67.4706 79.0115 67.2598C78.862 67.2061 78.9156 67.003 78.9156 66.8765C80.8169 66.8113 90.5497 66.7538 91.2704 66.8765C91.301 66.8803 91.7534 67.141 91.7495 67.2598Z" fill="#A1B1B9"/>
<path d="M73.3582 90.8167C76.03 91.0122 90.1825 90.9508 93.6594 90.8167C94.7288 90.7745 96.6953 91.0237 96.9138 90.5292C96.8678 86.094 96.979 81.6512 96.9138 77.2161C97.1362 77.2353 97.0787 77.1011 97.1055 77.0244C99.325 77.1816 98.5392 77.6071 98.6388 81.0456C98.704 83.3341 98.6235 85.6494 98.6388 87.9417C98.6925 96.0223 98.8343 104.191 98.6388 112.268C98.6158 113.284 98.7423 114.648 98.6388 115.522C89.5462 115.699 80.4459 115.787 71.3457 115.714C71.1578 108.251 71.269 100.772 71.2498 93.3045C71.3763 93.3045 71.5987 93.3505 71.6332 93.2087C71.9935 91.6945 71.2805 79.6502 71.6332 79.0369C71.8018 78.7456 72.6873 79.8879 72.3998 76.1658V89.7663L72.5915 90.7247C73.0017 91.3303 73.3198 90.8167 73.3582 90.8205V90.8167Z" fill="#E5F1F9"/>
<path d="M99.02 87.9451C98.9664 93.7832 99.0584 99.629 99.02 105.471H99.4034C99.3497 103.424 100.262 102.19 100.17 105.183C100.17 105.245 99.8059 105.172 99.7867 106.333C99.0814 106.402 99.4877 109.822 99.4034 112.08C99.365 113.115 99.3957 114.134 99.1159 115.142C98.7824 113.774 99.4034 112.137 98.6367 112.271C98.8322 104.194 98.6904 96.0295 98.6367 87.9451H99.02Z" fill="#878C90"/>
<path d="M96.3443 68.9831L96.5359 90.3384C96.1565 90.8444 94.8991 90.5684 93.6648 90.6259C92.0472 90.7026 90.4027 90.5684 88.7812 90.6259C88.1257 90.0816 88.6968 89.3686 88.6853 89.2843C88.8693 89.2843 88.8962 89.0773 89.0687 89.0926L89.2603 89.2843C89.9082 89.1118 89.4022 89.062 90.027 89.0926C90.6518 89.1233 95.478 89.2536 95.5815 88.9968L95.4856 70.1292L74.3219 70.2251L74.5136 88.9968C74.6248 89.2728 79.7346 89.0965 80.4514 89.0926C80.4706 89.0926 80.3939 89.4798 80.5472 89.476C80.6469 89.476 81.9732 89.0466 81.8889 88.5176C82.0116 89.5296 82.0231 89.0926 82.5597 89.2843C82.8319 89.3801 86.8952 89.315 87.7308 89.2843C88.486 89.0811 88.2062 90.4496 87.8267 90.6259C87.1635 90.9364 74.9774 90.5953 73.1758 90.3384V69.2706C80.8769 68.7454 88.6355 68.9831 96.352 68.9831H96.3443Z" fill="#E5F1F9"/>
<path d="M91.3693 66.6843H92.136C92.1092 66.7686 92.1513 66.9411 92.136 67.0676C91.9558 67.0676 91.9328 67.2631 91.7527 67.2593C91.7565 67.1405 91.3042 66.8798 91.2735 66.876C90.5528 66.7533 80.8201 66.8108 78.9187 66.876C78.7922 66.8798 78.6619 66.8721 78.5354 66.876C78.3016 66.8951 78.3629 66.7188 78.3438 66.6843C78.4702 66.6843 78.6006 66.6843 78.7271 66.6843C82.9476 66.6153 87.145 66.5617 91.3693 66.6843Z" fill="#283542"/>
<path d="M92.1326 60.363C91.8145 60.6467 92.2936 61.0645 92.1326 61.2255C91.6611 61.7009 79.4329 61.7814 78.8196 61.513C78.3902 61.3252 78.5551 60.7004 78.5321 60.363H92.1326Z" fill="#8B6230"/>
<path d="M91.3643 66.6852C87.14 66.5625 82.9425 66.6162 78.7221 66.6852C78.7412 66.5242 78.3962 66.3708 78.6262 66.3018C79.2319 66.1255 90.636 66.0642 91.2685 66.1102C91.4525 66.1255 91.6058 66.4322 91.3643 66.6852Z" fill="#D4EDEF"/>
<path d="M92.1317 60.363C92.4 60.5125 92.4039 65.8102 92.3234 66.4925C92.3234 66.5078 92.2237 66.412 92.1317 66.6842H91.365C91.6065 66.435 91.4532 66.1245 91.2692 66.1092C90.6405 66.0593 79.2365 66.1245 78.627 66.3008C78.397 66.3698 78.742 66.5232 78.7228 66.6842C78.5963 66.6842 78.466 66.6842 78.3395 66.6842C78.1823 66.412 78.2551 60.5164 78.5311 60.363C78.5541 60.6965 78.3893 61.3252 78.8186 61.513C79.432 61.7814 91.6602 61.7009 92.1317 61.2255C92.2927 61.0645 91.8135 60.6467 92.1317 60.363Z" fill="#147A9F"/>
<path d="M82.1718 62.2813C82.5053 62.7796 83.4828 62.2813 84.8552 62.0896C85.9821 62.1011 87.1398 62.2813 88.3013 62.2813C88.2821 62.5151 88.4661 62.4576 88.493 62.4729C88.47 62.7221 88.5313 62.9981 88.493 63.2396C88.4086 63.7763 88.493 63.7034 88.493 63.8146C88.493 63.8759 88.4853 63.9449 88.493 64.0063C88.5006 64.0676 88.493 64.1366 88.493 64.1979C88.4968 64.4509 88.493 64.7116 88.493 64.9646C88.4355 65.0067 88.0905 64.8534 88.1096 65.1562C86.2351 65.2214 84.1153 65.3901 82.2677 65.3479C82.1143 65.3479 82.3405 64.5544 81.501 65.3479L81.4052 64.9646C82.145 64.7346 81.5853 62.4576 81.4052 64.1979C81.1713 64.1788 81.2327 64.3551 81.2135 64.3896H81.0218C81.0103 64.2669 81.0142 64.1328 81.0218 64.0063V63.4313C81.0218 63.3661 81.0218 63.3048 81.0218 63.2396C81.0295 63.0019 81.0793 62.7643 80.926 62.6646L80.8302 63.2396C80.236 63.3086 80.0712 62.6378 80.4469 62.2813C80.4775 62.2544 80.7957 62.2966 81.0218 62.2813C81.409 62.2813 81.7885 62.2813 82.1718 62.2813Z" fill="#464222"/>
<path d="M84.854 62.0918C83.4855 62.2835 82.5041 62.7818 82.1706 62.2835C82.1898 62.2835 82.1131 61.8963 82.2665 61.9002C83.0945 61.9155 84.0566 62.0842 84.854 62.0918Z" fill="#18AE70"/>
<path d="M81.4041 64.9677C81.3964 64.9064 81.4156 64.8374 81.4041 64.776C81.3773 64.615 81.3849 64.3697 81.4041 64.201C81.5843 62.4607 82.1439 64.7377 81.4041 64.9677Z" fill="#2FB44A"/>
<path d="M81.0242 62.2843C80.798 62.2996 80.4799 62.2575 80.4492 62.2843C80.4761 62.2843 80.8977 62.2843 81.0242 62.2843Z" fill="#CFD1C1"/>
<path d="M82.0742 63.4326C83.4619 63.2371 82.8907 64.046 82.2659 64.0076C82.2352 64.0076 82.2774 63.494 82.0742 63.4326Z" fill="#13964B"/>
<path d="M85.6177 63.2422C85.4682 63.177 85.3839 63.0735 85.2344 63.0505C85.426 62.1267 86.162 62.3988 85.6177 63.2422Z" fill="#B7B8B3"/>
<path d="M85.5253 64.1996C86.0735 64.2418 85.5713 64.9586 85.5253 64.9663C85.4065 64.9855 85.1573 64.1728 85.5253 64.1996Z" fill="#CFD1C1"/>
<path d="M85.6179 63.2422C85.7061 63.2805 86.2658 63.223 85.8096 63.4339L85.2346 63.6255C85.2154 63.5987 85.2116 63.1617 85.2346 63.0505C85.3841 63.0735 85.4684 63.177 85.6179 63.2422Z" fill="#22172D"/>
<path d="M82.4581 64.2005C82.8683 64.0203 83.014 64.8061 82.6498 64.7755C82.531 64.764 82.1936 64.3193 82.4581 64.2005Z" fill="#CFD1C1"/>
<path d="M85.2344 63.625L85.8094 63.4333C85.9052 63.8703 85.495 64.016 85.2344 63.625Z" fill="#CFD1C1"/>
<path d="M82.4586 62.859C82.75 62.7555 82.8803 63.1426 82.6503 63.2423C82.3705 63.365 82.2286 62.9433 82.4586 62.859Z" fill="#CFD1C1"/>
<path d="M81.0237 63.2427H80.832L80.9279 62.6677C81.0812 62.7674 81.0314 63.0051 81.0237 63.2427Z" fill="#2FB44A"/>
<path d="M81.3086 62.8591L81.5961 62.955L81.5003 63.2425L81.4044 63.1466L81.3086 62.8591Z" fill="#B7B8B3"/>
<path d="M91.3646 62.2812C91.5256 62.7795 91.7633 64.8955 91.2688 65.1523C90.2185 65.0373 89.1605 65.114 88.1101 65.1523C88.091 64.8495 88.436 65.0028 88.4935 64.9607C88.9688 64.5927 89.3253 63.9985 88.4935 64.194C88.4935 64.1327 88.5011 64.0637 88.4935 64.0023L89.0685 63.7148L88.4935 63.8107C88.4935 63.6995 88.4091 63.7723 88.4935 63.2357C89.2333 63.1897 88.873 62.7259 88.4935 62.469C88.4666 62.4537 88.2826 62.5112 88.3018 62.2774C88.482 62.2774 88.5011 62.0895 88.6851 62.0857L91.3685 62.2774L91.3646 62.2812Z" fill="#355427"/>
<path d="M91.3669 62.2835L88.6836 62.0918C89.5423 62.0803 90.4392 62.2183 91.2711 61.9001C91.7157 62.1531 91.3592 62.2643 91.3669 62.2835Z" fill="#2AB567"/>
<path d="M88.4897 63.241C88.528 62.9995 88.4667 62.7235 88.4897 62.4744C88.8692 62.7274 89.2295 63.195 88.4897 63.241Z" fill="#B7B8B3"/>
<path d="M88.4883 64.967C88.4883 64.714 88.4921 64.4534 88.4883 64.2004C89.3201 64.0049 88.9636 64.599 88.4883 64.967Z" fill="#CFD1C1"/>
<path d="M88.4917 64.008C88.484 63.9466 88.4917 63.8776 88.4917 63.8163L89.0667 63.7205L88.4917 64.008Z" fill="#74C26A"/>
<path d="M90.8839 63.0505C90.9069 63.0505 91.2711 63.3304 91.0756 63.4339C90.5811 63.6945 90.5236 63.0927 90.8839 63.0505Z" fill="#B7B8B3"/>
<path d="M89.7357 62.6678C89.8775 62.6601 89.8814 63.2466 89.7357 63.2428C89.59 63.2428 89.5862 62.6755 89.7357 62.6678Z" fill="#2FB44A"/>
<path d="M90.694 63.8181H90.8857C91.5872 63.9024 90.5713 64.2474 90.694 63.8181Z" fill="#B7B8B3"/>
<path d="M89.9297 64.3904L90.2172 64.4862L90.1214 64.7737L90.0255 64.6779L89.9297 64.3904Z" fill="#B7B8B3"/>
<path d="M90.6953 64.3904L90.9828 64.4862L90.887 64.7737L90.7911 64.6779L90.6953 64.3904Z" fill="#76C043"/>
<path d="M80.4474 62.2797C80.0679 62.6362 80.2366 63.307 80.8307 63.238H81.0224C81.0224 63.3032 81.0224 63.3645 81.0224 63.4297C81.0224 63.4872 81.0224 63.974 81.0224 64.0047C81.0147 64.1312 81.0109 64.2653 81.0224 64.388C81.0224 64.4072 80.6122 64.3343 80.6391 64.4838C80.7157 64.9017 81.0147 64.7253 81.214 64.388C81.2332 64.3535 81.1719 64.1772 81.4057 64.1963C81.3865 64.365 81.3789 64.6103 81.4057 64.7713C80.3937 65.3732 79.9797 65.0627 78.9141 65.2505V61.8043C79.0137 61.5973 79.7076 62.203 80.4474 62.2835V62.2797Z" fill="#29462A"/>
<path d="M81.0252 64.3878H81.2169C81.0176 64.7252 80.7186 64.9015 80.6419 64.4837C80.6151 64.3342 81.0252 64.407 81.0252 64.3878Z" fill="#B7B8B3"/>
<path d="M79.7805 62.4724C79.8686 62.5874 80.0641 62.7101 80.068 62.7599C80.1025 63.1931 79.0905 63.6454 79.7805 62.4724Z" fill="#CFD1C1"/>
<path d="M79.7789 64.3902C80.0703 64.2867 80.2006 64.6739 79.9706 64.7736C79.6908 64.8962 79.5489 64.4746 79.7789 64.3902Z" fill="#18AE70"/>
<path d="M79.5898 63.8142L79.8773 63.91L79.7815 64.1975L79.6857 64.1017L79.5898 63.8142Z" fill="#2FB44A"/>
<path d="M90.0214 89.0939C89.5767 86.5026 91.1369 87.5721 94.6175 87.3689C95.1504 87.4188 95.3919 85.1341 94.4259 84.8773C94.4604 83.413 94.5907 81.9371 94.6175 80.4728C94.6635 77.8432 94.5064 75.2327 94.4259 72.6184C94.422 72.4842 94.744 72.2887 94.6175 71.8517C94.583 71.7405 94.7019 71.5335 94.33 71.2767C94.1115 71.2575 93.8739 71.3074 93.6592 71.2767C93.1724 71.2077 92.4862 71.3035 91.9342 71.2767C90.9836 71.2307 90.0137 71.2959 89.0631 71.2767C87.8556 71.2537 86.6327 71.2767 85.4253 71.2767C84.3443 71.2767 83.2479 71.2537 82.1708 71.2767C81.2738 71.2959 80.3768 71.2307 79.4875 71.2767C79.0543 71.2997 78.5675 71.2192 78.1458 71.2767C75.4357 71.6332 75.6887 72.258 75.4625 74.7228C75.4242 75.1598 75.4817 75.6237 75.4625 76.0645C75.405 77.3908 75.451 78.7516 75.4625 80.0856C75.474 81.4848 75.4127 82.9031 75.4625 84.2984C75.4702 84.4863 75.451 84.6818 75.4625 84.8734C75.5047 85.6669 75.4318 86.4719 75.4625 87.2693L75.8458 87.5568H80.6336C80.4228 88.0168 80.4266 88.5879 80.442 89.0901C79.7251 89.0901 74.6153 89.2702 74.5042 88.9942L74.3125 70.2225L95.4762 70.1267L95.572 88.9942C95.4685 89.2511 90.6424 89.1207 90.0176 89.0901L90.0214 89.0939Z" fill="#091F2D"/>
<path d="M94.6206 87.3734C91.1399 87.5765 89.5798 86.5071 90.0245 89.0984C89.3996 89.0677 89.9056 89.1175 89.2578 89.29C90.0398 87.2277 88.4106 86.5109 89.0661 89.0984C88.8936 89.083 88.8706 89.2862 88.6828 89.29C88.6368 88.8799 88.5601 87.5305 88.2036 87.3734C87.6631 87.3504 87.1111 87.4079 86.5745 87.3734C87.2453 86.8751 86.6818 87.2776 86.3828 86.4151C90.1586 86.6604 95.4409 85.6752 94.6206 87.3734Z" fill="#A1B1B9"/>
<path d="M89.2573 89.2854L89.0656 89.0937C88.4102 86.5062 90.0393 87.2231 89.2573 89.2854Z" fill="#0F3648"/>
<path d="M86.5758 87.3729C87.1125 87.4074 87.6645 87.3499 88.205 87.3729C88.5615 87.5301 88.6343 88.8794 88.6841 89.2895C88.3468 89.2972 88.1015 89.2742 87.7258 89.2895C86.8902 89.3202 82.8269 89.3854 82.5547 89.2895C83.1144 87.1851 82.7847 87.1429 86.5758 87.3729Z" fill="#092F49"/>
<path d="M83.7969 87.947L88.1055 88.0429C86.8137 88.683 85.1385 88.085 83.7969 87.947Z" fill="#3E7084"/>
<path d="M89.0615 71.2795C86.3705 75.3006 81.6862 80.5216 79.2942 84.3051C79.2789 84.3319 79.0144 84.2323 79.1025 84.8801H75.4647C75.4532 84.6922 75.4724 84.4968 75.4647 84.3051L85.4236 71.2795C86.635 71.2795 87.854 71.2565 89.0615 71.2795Z" fill="#426E9A"/>
<path d="M94.6204 80.4753C93.6966 80.598 91.8873 83.3464 91.2701 84.4964C84.3663 84.9104 90.2619 83.2429 86.5781 83.1548C86.7775 82.9209 86.9615 82.6296 87.1531 82.3881C89.6601 79.2103 91.8106 75.7182 94.4326 72.6208C94.5131 75.2352 94.6702 77.8418 94.6242 80.4753H94.6204Z" fill="#3C5B87"/>
<path d="M91.9391 71.28C90.2831 73.0165 82.904 84.2634 81.501 84.4972C81.2902 84.5317 80.3932 84.1599 79.2969 84.3056C81.6889 80.5221 86.3732 75.3011 89.0641 71.28C90.0148 71.2991 90.9885 71.234 91.9353 71.28H91.9391Z" fill="#6992B7"/>
<path d="M85.424 71.2796L75.4651 84.3052C75.4153 82.9098 75.4766 81.4915 75.4651 80.0924L82.1696 71.2834C83.2506 71.2604 84.3431 71.2834 85.424 71.2834V71.2796Z" fill="#6992B7"/>
<path d="M93.659 71.2792L83.7 84.8797C82.1705 84.8797 80.6334 84.8797 79.1039 84.8797C79.0157 84.2319 79.2802 84.3316 79.2956 84.3047C80.388 84.1591 81.2889 84.5309 81.4997 84.4964C82.9027 84.2664 90.2818 73.0195 91.9378 71.2792C92.4898 71.306 93.1721 71.2102 93.6628 71.2792H93.659Z" fill="#5481AC"/>
<path d="M82.1664 71.2802L75.4619 80.0892C75.4504 78.7552 75.4044 77.3944 75.4619 76.068L79.483 71.2802C80.3724 71.2342 81.2694 71.2994 82.1664 71.2802Z" fill="#3C5B87"/>
<path d="M94.6164 71.8547C93.1712 73.411 87.843 80.1461 87.1453 81.3344C86.9153 81.7293 86.394 82.4231 87.1453 82.3886C86.9536 82.6301 86.7696 82.9214 86.5703 83.1553C86.0145 83.8031 85.4241 84.2823 84.8453 84.8802C84.462 84.8802 84.0786 84.8802 83.6953 84.8802L93.6542 71.2797C93.8689 71.3103 94.1066 71.2605 94.3251 71.2797C94.6969 71.5365 94.5781 71.7397 94.6126 71.8547H94.6164Z" fill="#3C5B87"/>
<path d="M94.4243 84.8801C95.3903 85.137 95.1488 87.4216 94.616 87.3718C95.4363 85.6736 90.154 86.6588 86.3782 86.4135C84.7337 86.3061 83.7217 86.908 85.0365 84.8801C86.888 84.8801 93.1517 84.5428 94.4205 84.8801H94.4243Z" fill="#BAC3C7"/>
<path d="M94.6188 80.4763C94.592 81.9445 94.4617 83.4203 94.4272 84.8808C93.1583 84.5435 86.8947 84.8808 85.0432 84.8808H84.8516C85.4304 84.2828 86.0207 83.8036 86.5766 83.1558C90.2604 83.2401 84.3647 84.9115 91.2685 84.4975C91.8857 83.3436 93.695 80.5952 94.6188 80.4763Z" fill="#3C5B87"/>
<path d="M94.6201 71.8552C94.7466 72.2884 94.4246 72.4877 94.4284 72.6219C91.8064 75.7192 89.6598 79.2113 87.1489 82.3892C86.3976 82.4275 86.9189 81.7298 87.1489 81.335C87.8466 80.1467 93.1749 73.4115 94.6201 71.8552Z" fill="#426E9A"/>
<path d="M80.638 87.5638H75.8502C75.2407 85.9577 78.8018 86.3487 81.5005 86.2222C81.6806 86.8202 80.937 86.9198 80.638 87.5638Z" fill="#BAC3C7"/>
<path d="M78.1443 71.281C78.3168 72.1627 76.4768 74.6237 75.4609 74.7272C75.6833 72.2623 75.4341 71.6375 78.1443 71.281Z" fill="#426E9A"/>
<path d="M79.4878 71.2807L75.4666 76.0685C75.4858 75.6276 75.4283 75.1638 75.4666 74.7268C76.4824 74.6233 78.3224 72.1623 78.1499 71.2807C78.5716 71.2232 79.0546 71.3037 79.4916 71.2807H79.4878Z" fill="#5481AC"/>
<path d="M79.1104 84.8806C80.6399 84.8806 82.1771 84.8806 83.7066 84.8806C84.0899 84.8806 84.4732 84.8806 84.8566 84.8806H85.0482C83.7334 86.9046 84.7454 86.3066 86.3899 86.4139C86.6889 87.2726 87.2524 86.8739 86.5815 87.3723C82.7904 87.1384 83.1201 87.1806 82.5604 89.2889C82.0237 89.0973 82.0122 89.5342 81.8896 88.5223C81.9739 89.0513 80.6476 89.4768 80.5479 89.4806C80.3946 89.4806 80.4713 89.0973 80.4521 89.0973C80.4368 88.5989 80.4329 88.0278 80.6438 87.5639C80.9389 86.9199 81.6864 86.8241 81.5062 86.2223C78.8076 86.3488 75.2465 85.9578 75.856 87.5639L75.4726 87.2764C75.442 86.4829 75.5148 85.6741 75.4726 84.8806H79.1104Z" fill="#BAC3C7"/>
<path d="M83.4185 85.2633C83.9475 85.1981 83.6753 85.9993 83.4185 86.03C83.0965 86.0683 83.2383 85.2863 83.4185 85.2633Z" fill="#A1B1B9"/>
</g>
<defs>
<linearGradient id="paint0_linear_271_1762" x1="140.378" y1="110.989" x2="143.448" y2="119.449" gradientUnits="userSpaceOnUse">
<stop stop-color="#B5B6A8"/>
</linearGradient>
<clipPath id="clip0_271_1762">
<rect width="167" height="122.68" fill="white" transform="translate(0 0.159912)"/>
</clipPath>
</defs>
</svg>
