<svg width="149" height="175" viewBox="0 0 149 175" fill="none" xmlns="http://www.w3.org/2000/svg">
<g clip-path="url(#clip0_271_1031)">
<path d="M149.348 145.353C142.575 147.097 135.818 148.951 129.024 150.64C129.46 150.002 130.054 150.64 129.582 149.835C129.195 149.172 119.523 141.251 117.959 139.834C115.801 137.882 102.32 125.625 101.639 124.743C100.142 122.807 100.628 122.244 101.658 119.515C102.159 118.192 103.874 115.74 104.422 112.364C106.25 116.729 112.559 121.833 116.471 124.82C126.745 132.67 138.44 138.476 149.347 145.35L149.348 145.353Z" fill="#F8C7A0"/>
<path d="M46.1561 108.749C46.3401 110.862 43.6622 112.34 41.8697 112.861C41.7526 112.895 41.6301 112.921 41.5121 112.951C41.1035 113.05 39.8606 113.095 39.2767 113.131C39.2168 113.135 39.135 112.627 38.1142 113.043C38.9938 116.353 38.84 122.47 43.0825 123.002C43.0977 123.063 43.1156 123.12 43.1273 123.181C43.5862 125.845 56.3182 132.508 59.1313 133.6C63.8352 135.427 73.5593 137.523 78.5257 137.471C82.2598 137.432 83.4846 137.148 86.9227 135.746C87.4948 135.511 90.5336 133.502 92.5731 133.283C91.6621 139.548 107.468 149.116 112.469 154.312C112.283 154.735 109.805 154.691 109.344 155.476L109.724 155.476C107.619 155.977 105.505 156.598 103.38 157.067C99.7034 154.016 96.2583 150.585 92.4058 147.758C80.4108 138.956 78.2547 142.393 66.1492 138.865C60.7936 137.304 55.3528 134.236 50.6606 131.258C49.5888 130.577 41.8501 125.227 41.451 124.833C38.9499 122.347 40.257 120.769 38.4744 119.027L37.6452 114.962C33.8621 115.261 30.3603 112.604 30.7404 113.938C30.0274 113.459 29.2331 113.111 28.5039 112.598C30.108 112.493 30.9169 112.05 32.5683 111.769C36.5795 112.683 44.0396 113.663 46.1472 108.744L46.1561 108.749Z" fill="#EB9A6F"/>
<path d="M149.345 145.353C138.439 138.483 126.742 132.674 116.468 124.824C112.556 121.833 106.243 116.73 104.42 112.368C104.495 111.912 104.582 109.936 104.597 109.286C113.651 124.018 141.634 134.96 157.187 143.295C155.025 144.571 151.653 144.763 149.35 145.356L149.345 145.353Z" fill="#FADCC0"/>
<path d="M118.84 153.195C115.801 153.946 112.77 154.759 109.728 155.48L109.347 155.48C109.812 154.695 112.287 154.743 112.473 154.316C107.471 149.12 91.662 139.553 92.5767 133.288C90.5407 133.506 87.4983 135.515 86.9262 135.75C86.8966 135.632 86.8992 135.43 86.7471 135.415C86.3778 135.382 82.3715 136.246 79.3742 136.314C78.5731 136.332 71.6203 135.844 71.2402 135.693C71.0586 135.62 71.0254 135.488 71.1505 135.335C75.4279 136.022 84.7942 136.555 88.4411 134.606C89.8221 133.868 91.3188 131.258 92.6375 130.893C92.7376 130.868 92.5441 131.566 94.4704 130.623C95.0017 130.848 94.1179 132.84 96.3733 135.559C97.8599 137.349 116.871 150.591 118.637 152.387C118.725 152.479 118.95 152.985 118.839 153.191L118.84 153.195Z" fill="#F8C7A0"/>
<path d="M78.9463 42.601C77.5253 41.2089 78.3097 48.8081 78.6601 49.7959C79.0481 50.8884 80.387 52.5747 81.0081 50.8225C81.1357 51.5888 80.5746 52.216 80.9874 53.0133C85.4976 67.4665 97.3318 79.1137 101.949 93.4336C102.647 96.6567 101.84 96.6045 101.839 96.7834C101.838 97.2814 102.953 99.982 102.626 103.709C102.313 107.269 99.5979 114.72 96.9405 117.386C96.7118 116.474 97.3538 116.442 97.6546 115.686C99.537 110.976 101.658 104.035 101.442 98.9735C101.148 92.1484 96.3364 84.9965 92.7162 79.321C90.9399 76.2999 89.816 72.9099 88.24 69.8082C86.7535 66.8817 84.778 64.1272 83.4068 61.1452C82.9446 60.136 80.4156 53.7649 80.273 53.1963C80.2596 53.1426 80.4074 52.3074 80.5853 52.1677C79.9545 51.6531 77.1992 54.944 76.6922 46.496C76.5872 44.7587 77.179 43.3141 77.1825 43.146C77.1831 42.7847 76.561 43.108 76.891 41.9837C77.5732 41.9153 78.4542 42.1239 78.9481 42.6082L78.9463 42.601Z" fill="#FADCC0"/>
<path d="M104.6 109.288C104.588 109.937 104.498 111.913 104.422 112.369C103.874 115.745 102.158 118.194 101.658 119.521C100.21 120.883 97.8836 123.067 95.8743 122.967C97.0913 121.757 98.3798 120.544 99.3785 119.146C101.938 115.558 104.818 107.762 102.63 103.708C102.957 99.9805 101.84 97.2844 101.844 96.7819C101.844 96.603 102.651 96.6516 101.954 93.4321C103.423 97.9861 104.7 104.519 104.601 109.291L104.6 109.288Z" fill="#F8C7A0"/>
<path d="M78.9485 42.5984C80.3918 44.0192 80.6537 48.701 81.0094 50.8164C80.3883 52.5686 79.0529 50.8813 78.6613 49.7898C78.3074 48.8029 77.5266 41.2027 78.9476 42.5949L78.9485 42.5984Z" fill="#FFECDF"/>
<path d="M45.3639 122.999C49.0815 122.318 83.9194 113.669 85.8351 112.85C87.1125 112.306 88.6617 110.48 88.5792 109.03C88.4397 106.564 80.7412 80.458 79.6179 74.0537C78.8394 72.071 78.4878 73.0182 78.3651 72.8475C78.2318 72.6643 78.1112 71.5922 77.8943 70.97C77.8782 70.9208 78.1598 70.8008 77.8265 69.9417C77.4637 69.0102 75.7512 67.6228 76.6626 66.8165C83.323 75.8081 82.421 81.1087 85.0362 90.3546C86.3343 94.9552 91.3099 106.232 91.1276 110.098C91.1197 110.278 90.2357 113.195 89.9891 113.515C88.4606 115.514 78.9716 117.129 75.9195 117.994C67.5077 120.373 59.2055 123.417 50.3674 123.641C48.8375 123.679 45.0863 123.666 45.363 122.996L45.3639 122.999Z" fill="#EB9A6F"/>
<path d="M76.89 41.9749C76.5599 43.0992 77.1821 42.7759 77.1814 43.1372C77.1816 43.3044 76.5907 44.7525 76.6912 46.4872C77.1937 54.9325 79.9525 51.6407 80.5842 52.1589C80.4055 52.295 80.2585 53.1338 80.272 53.1875C80.4146 53.7561 82.9409 60.1316 83.4057 61.1364C84.7769 64.1184 86.7533 66.8765 88.2389 69.7994C89.815 72.9011 90.9352 76.292 92.7151 79.3122C96.3354 84.9877 101.147 92.1395 101.441 98.9647C101.657 104.027 99.5396 110.966 97.6536 115.677C97.3528 116.433 96.7143 116.464 96.9394 117.377C99.5977 114.715 102.316 107.26 102.625 103.7C104.817 107.758 101.932 115.551 99.373 119.138C98.3752 120.54 97.083 121.754 95.8687 122.959C97.8745 123.061 100.205 120.88 101.653 119.513C100.623 122.242 100.137 122.805 101.633 124.741C102.313 125.619 115.795 137.88 117.953 139.832C119.517 141.245 129.19 149.17 129.576 149.833C130.048 150.638 129.458 149.999 129.018 150.638C125.623 151.482 122.231 152.355 118.833 153.192C118.945 152.986 118.719 152.48 118.632 152.388C116.87 150.591 97.8545 137.35 96.368 135.56C94.1126 132.841 94.9964 130.849 94.4651 130.624C92.5388 131.567 92.735 130.864 92.6322 130.894C91.3135 131.259 89.8167 133.869 88.4357 134.607C84.7888 136.556 75.4253 136.019 71.1452 135.336C71.0201 135.489 71.0533 135.621 71.2348 135.694C71.6141 135.842 78.5633 136.33 79.3689 136.315C82.3662 136.247 86.3716 135.379 86.7418 135.416C86.8938 135.431 86.8913 135.633 86.9209 135.751C83.4793 137.154 82.2544 137.438 78.5239 137.477C73.5575 137.529 63.8334 135.433 59.1294 133.606C56.3164 132.513 43.5871 125.846 43.1255 123.187C43.8712 123.098 44.6161 123.143 45.3609 123.006C45.0842 123.676 48.8353 123.689 50.3653 123.652C59.2069 123.426 67.5091 120.382 75.9173 118.004C78.9695 117.14 88.4584 115.524 89.9869 113.525C90.2335 113.205 91.1166 110.285 91.1254 110.108C91.3077 106.242 86.3357 94.9644 85.034 90.3647C82.4215 81.1144 83.3235 75.8138 76.6605 66.8266C75.749 67.633 77.4615 69.0204 77.8243 69.9519C78.1576 70.811 77.876 70.931 77.8921 70.9802C77.077 69.0788 75.672 67.4926 74.6701 65.7103C71.5936 60.233 69.7766 55.3368 71.039 48.9575C71.129 48.4978 71.5992 47.1902 71.7974 46.6768C71.8893 46.4371 72.3382 45.2716 72.3775 45.2009C72.4177 45.1338 72.474 45.0399 72.5115 44.9773C73.4609 43.5038 75.0561 42.1649 76.8873 41.9794L76.89 41.9749Z" fill="url(#paint0_linear_271_1031)"/>
<path d="M78.1986 121.035C81.2239 120.094 86.6722 121.206 84.3007 126.058C82.6025 129.532 78.4593 130.198 75.1666 128.633C70.0617 126.208 76.2202 121.649 78.1986 121.035Z" fill="#F8C7A0"/>
<path d="M80.7046 60.5825C82.3603 60.0761 80.1143 61.5326 79.9673 61.0525C79.9565 61.0096 80.6626 60.5968 80.7046 60.5825Z" fill="#F8C7A0"/>
<path d="M20.3472 61.09C20.2133 62.6174 22.002 66.6123 20.2619 67.9495C17.8686 69.7888 11.2004 64.6154 8.82107 63.6004C8.55978 63.3467 8.31013 63.109 8.06045 62.8409C3.98172 52.6697 16.3927 59.3412 20.3472 61.09Z" fill="#F8C7A0"/>
<path d="M22.2649 61.9393C23.3347 62.416 24.4564 62.9633 25.6155 63.1896L29.2 77.4834C24.0126 74.8046 18.9688 71.6527 14.3137 68.1106C15.6992 68.5424 20.0378 70.9437 21.1518 70.7631C24.6888 70.1954 21.5221 63.5851 22.2613 61.9402L22.2649 61.9393Z" fill="#EB9A6F"/>
<path d="M20.3468 61.0889C20.9881 61.3728 21.6277 61.6495 22.2699 61.937C21.5317 63.5855 24.6948 70.1967 21.1605 70.7599C20.0455 70.9369 15.7078 68.5392 14.3224 68.1074C12.4721 66.7013 10.4859 65.2228 8.82422 63.5984C11.2026 64.6098 17.8718 69.7868 20.2651 67.9474C22.0051 66.6102 20.2165 62.6154 20.3504 61.088L20.3468 61.0889Z" fill="#F2B483"/>
<path d="M38.486 119.028C38.154 118.704 31.9078 114.713 30.752 113.939C30.3718 112.605 33.8701 115.263 37.6568 114.963L38.486 119.028Z" fill="#EB9A6F"/>
<path d="M29.2518 77.6619L29.4306 77.6171C29.4658 78.1214 30.4539 78.0751 30.504 78.1081C31.7815 78.9433 32.4183 79.1029 32.6956 79.269C33.6394 79.8343 38.2428 82.4277 38.4835 82.66C39.6522 83.7885 39.4629 84.1097 39.849 85.0733C39.6254 85.1066 39.7239 85.2872 39.715 85.297C38.1054 87.7152 39.4803 89.6054 33.596 88.9221C33.7981 87.7121 31.245 88.702 32.4772 87.4922C32.86 87.6242 35.5904 88.2053 35.7826 88.1837C39.3046 87.7376 38.2857 84.842 39.3308 84.5381C39.4269 83.8146 33.5517 81.0308 32.3355 80.8797C32.6773 79.9844 30.1939 79.6759 28.4486 78.6274C27.8304 79.4362 29.1611 79.6194 29.1876 80.4376C29.1959 80.7282 27.4794 82.4624 28.1178 86.0235C27.7387 87.3007 23.2186 84.9943 22.3752 84.7079C21.6069 84.4482 20.3267 84.8605 18.3091 83.2569C17.6752 79.6833 20.0028 76.1271 23.8452 76.1708C25.7588 76.1927 27.8223 78.1915 29.2518 77.6619Z" fill="#F8C7A0"/>
<path d="M33.5876 88.9178C39.472 89.6011 38.0971 87.7109 39.7067 85.2927C39.8223 85.6476 39.7988 86.5847 39.7302 86.9022C38.8631 90.9169 35.9869 89.1029 35.4217 90.1683C35.0241 89.5078 33.9387 89.6355 33.1857 89.5887C33.1437 89.5878 32.9681 89.1149 32.3808 89.4104C31.9822 89.6093 32.7448 90.7255 32.4268 91.1094C32.163 91.1033 27.6078 89.6572 27.3779 89.5286C26.6622 89.1303 28.1602 89.4046 26.1254 88.7024C24.5566 88.1607 20.1229 86.6689 19.2422 85.491C24.3621 85.1573 28.6512 88.3464 33.5885 88.9213L33.5876 88.9178Z" fill="#EB9A6F"/>
<path d="M32.3327 80.8765C28.9577 80.4533 26.6651 85.4831 32.4708 87.4899C31.2386 88.6997 33.7881 87.7107 33.5896 88.9198C28.6532 88.3484 24.3668 85.1548 19.2433 85.4894C18.6489 84.6958 18.4751 84.23 18.3027 83.2546C20.323 84.8537 21.5996 84.4423 22.3688 84.7056C23.2122 84.992 27.7314 87.2948 28.1114 86.0212C27.4694 82.461 29.1895 80.7259 29.1812 80.4353C29.1556 79.6207 27.8249 79.4374 28.4422 78.6251C30.192 79.6762 32.6754 79.9847 32.3291 80.8774L32.3327 80.8765Z" fill="#F8C7A0"/>
<path d="M32.3309 80.8755C33.5471 81.0266 39.4222 83.8104 39.3262 84.5339C38.2811 84.8378 39.2999 87.7334 35.778 88.1795C35.5867 88.2046 32.8554 87.62 32.4725 87.488C26.6668 85.4812 28.9594 80.4514 32.3345 80.8746L32.3309 80.8755Z" fill="#FADCC0"/>
<path d="M26.6851 102.24C28.0502 102.955 31.8712 103.125 33.299 103.999C35.7287 105.488 33.5527 106.071 33.235 109.428C30.3659 109.87 27.6331 109.688 25.0789 107.961C24.5602 105.544 24.5116 103.834 26.6816 102.241L26.6851 102.24Z" fill="#F8C7A0"/>
<path d="M35.4431 103.08C35.4681 103.089 35.5353 103.235 35.8904 103.348C36.3242 103.486 36.6416 103.509 36.6953 103.526C37.4385 103.761 38.2408 104.02 38.9761 104.284C39.256 104.385 39.5405 104.534 39.8258 104.641C41.8562 105.402 44.303 105.852 45.8593 107.496C45.9159 107.903 46.138 108.35 46.1731 108.747C44.0655 113.666 36.6019 112.687 32.5943 111.773C30.9393 112.055 30.1304 112.497 28.5299 112.602C26.5401 111.2 25.9407 111.947 25.0847 107.958C27.6389 109.686 30.3726 109.87 33.2409 109.425C33.5585 106.069 35.7346 105.485 33.3048 103.996C31.8762 103.119 28.056 102.952 26.691 102.238C27.1182 101.925 27.5973 101.699 27.9869 101.342C29.4958 101.857 33.0219 102.307 35.4502 103.078L35.4431 103.08Z" fill="#F8C7A0"/>
<path d="M36.8286 105.959C37.2514 105.735 45.3466 105.898 44.7176 109.013C44.4753 110.214 41.4061 111.056 40.4083 111.139C40.3707 111.141 40.1629 110.737 39.7373 110.737C33.021 110.722 36.4531 106.159 36.8286 105.959Z" fill="#FADCC0"/>
<path d="M36.3241 102.094C36.5006 102.464 36.5189 103.098 36.6829 103.525C36.6292 103.508 36.3117 103.485 35.878 103.346L35.2956 101.782C35.7421 100.986 36.1065 101.635 36.3241 102.094Z" fill="#A4C5D1"/>
<path d="M35.8821 103.346C35.5271 103.233 35.4599 103.087 35.4348 103.078C35.8568 102.896 34.9247 102.453 35.2998 101.781L35.8821 103.346Z" fill="#1A4B41"/>
<path d="M30.0221 93.6118C29.3387 94.6459 29.1608 95.8157 28.973 97.0069L28.4144 97.4321C26.7187 97.0515 25.3581 97.5675 23.723 96.8981C20.8617 95.7341 22.0817 93.7785 21.1733 93.9303C21.1945 93.5601 21.3874 93.238 21.4855 92.9018C22.6862 90.1262 25.9711 89.6293 28.1651 91.5118C28.6634 91.9379 29.3972 93.8331 30.0221 93.6118Z" fill="#F8C7A0"/>
<path d="M33.1938 89.5863C33.8236 92.416 33.9249 91.5012 36.0118 92.4868C38.0862 93.468 41.6558 94.6672 43.0744 96.4134C42.8619 96.8848 43.1725 97.2745 43.2094 97.7099L43.0306 97.7548C42.7765 95.0894 34.7123 92.2007 32.7072 92.9354C31.2831 93.456 29.9741 96.0421 30.6342 97.5376C31.3821 99.2316 36.4512 100.287 38.1654 100.301C37.9168 100.28 36.7976 100.804 36.8022 100.928C36.8067 101.037 37.7178 100.896 37.6744 101.375C32.7818 100.781 26.4616 97.1928 22.6612 98.3017C21.361 97.0124 21.0757 95.7383 21.1835 93.9248C22.0883 93.7739 20.8718 95.7286 23.7332 96.8926C25.371 97.5576 26.7289 97.046 28.4246 97.4266L28.9831 97.0014C29.1665 95.8075 29.3489 94.6405 30.0322 93.6063C30.4922 92.9093 31.7958 91.5295 32.6651 91.6156C32.8125 91.5064 32.6434 91.2714 32.6648 91.2356C33.1337 90.544 32.6834 90.9459 32.3952 89.4027C32.9825 89.1072 33.1581 89.5801 33.2001 89.5809L33.1938 89.5863Z" fill="#F8C7A0"/>
<path d="M37.6651 101.377C39.6292 102.025 43.2214 99.828 43.024 97.7528L43.2028 97.7079C43.6961 103.312 37.8483 101.32 36.6371 101.825C36.4645 101.895 36.4834 102.061 36.3243 102.094C36.1076 101.639 35.7423 100.985 35.2957 101.781C34.9207 102.453 35.8528 102.896 35.4308 103.078C33.0016 102.304 29.4755 101.854 27.9675 101.342C27.0248 101.024 23.2765 98.9306 22.6493 98.3087C26.4497 97.1998 32.7734 100.787 37.6624 101.382L37.6651 101.377Z" fill="#EB9A6F"/>
<path d="M32.4355 91.1025C32.5276 91.106 32.6277 91.0353 32.6591 91.2365C32.6377 91.2723 32.8068 91.5073 32.6594 91.6165C31.7902 91.5304 30.483 92.9111 30.0265 93.6071C29.4061 93.8311 28.6679 91.9333 28.1695 91.5071C25.9756 89.6247 22.6942 90.1207 21.49 92.8971C22.2366 90.3419 23.7633 89.5485 26.1341 88.6955C28.1689 89.3977 26.6709 89.1234 27.3865 89.5217C27.6164 89.6503 32.1717 91.0964 32.4355 91.1025Z" fill="#F8C7A0"/>
<path d="M38.1534 100.304C36.4383 100.285 31.3701 99.234 30.6222 97.54C29.9621 96.0445 31.2747 93.4575 32.6952 92.9378C32.8874 94.144 37.252 94.1935 39.4436 95.2328C43.5386 97.1782 42.4214 100.347 38.1498 100.305L38.1534 100.304Z" fill="#FADCC0"/>
<path d="M43.0295 97.7551C43.2259 99.8268 39.6347 102.027 37.6705 101.38C37.714 100.901 36.8029 101.042 36.7984 100.933C36.7938 100.809 37.913 100.285 38.1616 100.306C42.4332 100.349 43.5504 97.1797 39.4553 95.2343C37.2638 94.195 32.8992 94.1455 32.7069 92.9394C34.7157 92.2037 42.7754 95.0897 43.0304 97.7587L43.0295 97.7551Z" fill="#F8C7A0"/>
<path d="M32.3889 89.4111C32.677 90.9542 33.1265 90.5488 32.6585 91.244C32.627 91.0428 32.5305 91.1126 32.4348 91.11C32.7529 90.7261 31.9902 89.6099 32.3889 89.4111Z" fill="#486246"/>
<path d="M72.3795 45.1981C72.3393 45.2651 71.8913 46.4342 71.7993 46.6739C71.1949 44.294 70.6021 41.8998 70.0066 39.5252C69.0793 35.8275 65.8034 21.8554 64.9213 20.005C64.1493 18.3817 62.3698 17.0605 60.5198 17.2166C58.5098 17.3861 23.2437 26.2377 21.3862 27.0304C20.0855 27.5885 18.8903 29.2034 18.776 30.627C18.4898 34.2147 29.0592 70.8897 30.4943 78.1129C30.4442 78.0798 29.4597 78.1252 29.4209 77.6218C27.7944 69.0745 18.4405 36.5495 17.9273 31.7901C17.3655 26.5943 22.4459 25.9056 26.3429 24.8333C37.1507 21.8683 48.333 19.9573 59.0431 16.6328C62.0918 16.0127 64.6714 16.9622 65.8593 19.956C67.5032 24.1012 70.146 39.4446 72.3786 45.1945L72.3795 45.1981Z" fill="#C8E5EA"/>
<path d="M77.8908 70.9721C78.1068 71.5907 78.2283 72.6663 78.3616 72.8496C78.4834 73.0167 78.835 72.0695 79.6144 74.0558C80.7386 80.4637 88.4371 106.57 88.5757 109.032C88.6582 110.482 87.1054 112.309 85.8315 112.852C83.9123 113.672 49.078 122.32 45.3604 123.002C44.6157 123.139 43.8708 123.094 43.1251 123.182C43.1134 123.12 43.0955 123.064 43.0802 123.003L43.0354 122.824C44.6434 123.113 46.1467 122.135 47.7259 122.218C54.2169 119.819 83.1067 113.733 85.9207 112.45C87.2097 111.86 88.3321 109.758 88.2176 108.362C87.9938 105.605 82.8167 88.9928 81.6321 84.3752C80.6636 80.6041 80.7357 76.4201 78.5183 73.0953C80.5438 83.0212 83.6555 92.7165 86.0011 102.555L85.6434 102.644C85.195 100.735 81.9064 87.6969 81.365 87.0991C81.2495 86.9722 81.1101 87.068 80.9849 87.0994C80.9419 86.8973 81.2196 86.4133 80.5357 83.0347C80.183 81.2948 78.0673 72.6915 77.6901 71.6876C77.5844 71.4024 75.6171 67.6652 75.2517 68.0267L74.4456 66.3283L74.6687 65.7022C75.6706 67.4845 77.0757 69.0707 77.8908 70.9721Z" fill="#194150"/>
<path d="M68.8375 36.3966C69.1199 37.4622 69.2462 38.9054 70.0013 39.5218C70.5968 41.8964 71.1896 44.2906 71.7941 46.6705C71.595 47.1804 71.1256 48.4916 71.0357 48.9513L70.5441 49.2646C70.4637 48.2471 67.4168 36.7338 66.6905 33.898C65.913 30.8583 65.1793 27.7962 64.2266 24.8308L64.6066 24.8305C65.1232 28.1029 66.6353 30.6315 66.8468 33.7637C68.2256 33.608 67.3453 36.7214 68.8375 36.3966Z" fill="#427F7D"/>
<path d="M74.6667 65.7036L74.4436 66.3297C73.0624 64.3993 71.8483 62.2255 71.1312 59.9422C69.1818 53.7147 70.5837 49.8015 70.544 49.2641L71.0356 48.9508C69.7732 55.33 71.5902 60.2262 74.6667 65.7036Z" fill="#516B77"/>
<path d="M43.0284 122.823C39.0594 122.108 39.6808 115.901 38.1049 113.042C39.1258 112.627 39.2076 113.134 39.2675 113.131C39.5497 115.105 40.1405 118.385 41.0154 120.101C41.7407 121.523 43.0771 122.183 44.6338 122.04C46.7073 121.851 83.0981 112.725 85.0155 111.913C88.8361 110.294 86.6982 105.512 85.9905 102.554C83.645 92.7159 80.5332 83.0206 78.5077 73.0947C80.7251 76.4195 80.6531 80.6035 81.6215 84.3745C82.8062 88.9922 87.9832 105.604 88.207 108.361C88.3225 109.761 87.1991 111.86 85.9101 112.449C83.0997 113.732 54.2064 119.818 47.7153 122.218C46.1361 122.135 44.6328 123.112 43.0248 122.824L43.0284 122.823Z" fill="#A4C5D1"/>
<path d="M43.7402 112.773C43.1206 112.803 42.4956 112.933 41.8625 112.864C43.655 112.342 46.3329 110.864 46.1489 108.752C46.1138 108.354 45.8917 107.908 45.835 107.5C46.1295 107.81 46.4558 107.762 46.4836 107.812C47.5627 111.191 46.4783 111.581 43.7402 112.773Z" fill="#96B1C4"/>
<path d="M41.5093 112.952C41.8523 114.774 40.0187 114.131 39.8339 114.607C39.7045 114.94 41.1971 118.846 41.0219 120.102C40.1479 118.39 39.5571 115.11 39.274 113.132C39.8543 113.097 41.1008 113.05 41.5093 112.952Z" fill="#194150"/>
<path d="M43.0319 122.823L43.0768 123.002C38.8343 122.47 38.9881 116.353 38.1085 113.043C39.6843 115.901 39.0594 122.109 43.0319 122.823Z" fill="#2F5D66"/>
<path d="M83.0524 100.634C83.1123 100.646 83.2741 100.563 83.41 100.544C83.5725 101.389 84.0434 102.252 83.7695 103.115C74.1467 104.984 52.7659 111.608 45.1723 112.794C45.1026 112.804 44.1771 112.751 43.7416 112.773C46.4796 111.581 47.564 111.191 46.4849 107.812C46.4572 107.762 46.1308 107.81 45.8364 107.5C44.2802 105.857 41.8333 105.406 39.803 104.646C37.681 102.126 41.0717 104.491 43.3741 101.85C44.8117 100.201 44.278 97.9207 43.0581 96.4211C41.6395 94.6749 38.0699 93.4757 35.9955 92.4945C35.7966 91.9438 35.7612 91.2267 35.5471 90.7064C38.1342 90.9433 40.2003 90.4822 40.4369 87.4846C40.5928 85.5298 39.8817 85.195 39.8315 85.0708C39.449 84.1062 39.6348 83.7859 38.4661 82.6574C38.2254 82.4251 33.622 79.8317 32.6782 79.2664C30.7213 71.4025 28.7161 63.543 26.7637 55.6818L29.2046 63.8995L22.126 35.673L26.6375 34.7317L71.3991 88.2685C73.3046 89.4707 81.955 100.426 83.0452 100.636L83.0524 100.634Z" fill="#096AFB"/>
<path d="M69.9992 39.5247C69.2477 38.9073 69.1178 37.4651 68.8354 36.3994C67.9468 33.0379 65.7306 22.8367 64.7357 20.8094C62.5748 16.4061 59.0108 18.0943 57.473 18.3583C53.6982 19.0085 23.0899 26.4867 21.4685 27.3875C21.1816 27.5469 20.8949 28.1015 20.6644 28.3493C19.9067 29.1627 19.3077 30.4419 19.3917 31.6105C19.4495 32.4018 22.7808 46.3373 23.2453 46.9772C23.444 47.2542 23.6574 46.756 23.6699 46.7757C24.4005 47.976 25.5362 54.248 26.1565 56.3122L25.9312 53.8981L21.6746 37.6822L22.3679 38.1735C23.6581 44.0305 25.3139 49.8603 26.7596 55.6859C28.7129 63.5507 30.7181 71.4101 32.6741 79.2705C32.3968 79.1044 31.7609 78.9483 30.4825 78.1096C29.0474 70.8865 18.4779 34.2115 18.7641 30.6238C18.8775 29.1966 20.0728 27.5817 21.3743 27.0272C23.2283 26.2354 58.498 17.3829 60.508 17.2133C62.358 17.0573 64.1384 18.3821 64.9095 20.0018C65.7916 21.8521 69.0684 35.8278 69.9948 39.522L69.9992 39.5247Z" fill="#336F6A"/>
<path d="M35.5474 90.7044C35.4784 90.5354 35.4854 90.2904 35.4129 90.168C35.9781 89.1025 38.8543 90.9166 39.7214 86.9019C39.79 86.5844 39.8135 85.6472 39.6979 85.2923C39.7068 85.2825 39.6083 85.1019 39.8319 85.0687C39.8811 85.1894 40.5931 85.5277 40.4372 87.4826C40.1997 90.4765 38.1336 90.9377 35.5474 90.7044Z" fill="#A4C5D1"/>
<path d="M39.8068 104.644C39.5214 104.536 39.237 104.387 38.957 104.286C39.2003 101.892 37.8587 102.772 36.6312 101.833C37.8398 101.332 43.6902 103.32 43.197 97.7155C43.16 97.2801 42.8494 96.8904 43.0619 96.419C44.2818 97.9186 44.8191 100.197 43.3779 101.847C41.0746 104.485 37.6848 102.123 39.8068 104.644Z" fill="#A4C5D1"/>
<path d="M38.9553 104.287C38.2201 104.023 37.4214 103.763 36.6746 103.529C36.5106 103.102 36.4932 102.472 36.3159 102.098C36.475 102.066 36.4561 101.899 36.6286 101.83C37.8571 102.772 39.1977 101.889 38.9545 104.283L38.9553 104.287Z" fill="#194150"/>
<path d="M35.4123 90.1682C35.4848 90.2906 35.4778 90.5356 35.5468 90.7046C35.7609 91.2249 35.7963 91.942 35.9952 92.4927C33.9119 91.5061 33.8107 92.4209 33.1773 89.5921C33.9258 89.6363 35.0148 89.5076 35.4132 90.1717L35.4123 90.1682Z" fill="#2F5D66"/>
<path d="M51.497 27.8299C56.3144 35.7177 61.417 43.4694 66.1451 51.4099C67.497 53.6784 70.4825 59.5359 70.7547 59.939C70.8397 60.0659 71.0167 59.9683 71.1347 59.9387C71.8482 62.2229 73.0623 64.3967 74.447 66.3262L75.2531 68.0246C75.6015 71.3392 76.8056 74.4885 77.6727 77.673L77.069 77.5393L47.5416 31.0037C47.3137 30.0345 46.5644 29.9868 47.0259 28.9474C48.5154 28.5815 50.0066 28.1923 51.4925 27.8273L51.497 27.8299Z" fill="#619FFD"/>
<path d="M80.5351 83.0339C79.0619 83.6771 79.395 79.3972 78.9253 82.6774C78.8508 82.3806 78.7791 82.0793 78.7011 81.7834C78.3406 80.4218 78.0418 79.0333 77.6706 77.6744C76.8027 74.4863 75.5995 71.3405 75.251 68.026C75.6174 67.6681 77.5811 71.4062 77.6895 71.6869C78.0667 72.6908 80.1824 81.2941 80.5351 83.0339Z" fill="#30697C"/>
<path d="M85.6394 102.644C85.904 103.775 86.2965 104.9 86.4011 106.06C83.4042 101.84 82.1447 92.6188 80.9808 87.0989C81.106 87.0675 81.2454 86.9717 81.3609 87.0986C81.9023 87.6964 85.1909 100.734 85.6394 102.644Z" fill="#30697C"/>
<path d="M61.3273 25.3666C61.3881 25.3514 61.4453 25.337 61.5061 25.3218C62.464 26.868 65.7872 33.3897 66.0933 33.7614C66.2239 33.9187 66.494 33.9954 66.697 33.8951C67.4233 36.731 70.4702 48.2442 70.5506 49.2618C70.5948 49.8018 69.1884 53.7123 71.1378 59.9398C71.0198 59.9694 70.8428 60.067 70.7578 59.9401C70.4892 59.5361 67.5001 53.6795 66.1482 51.4111C61.4202 43.4705 56.314 35.7197 51.5001 27.831C54.7696 27.0301 58.0408 26.0692 61.3273 25.3666Z" fill="#95BFFF"/>
<path d="M68.8389 36.3973C67.3468 36.7221 68.2262 33.6051 66.8483 33.7644C66.6359 30.6286 65.1246 28.1036 64.6081 24.8312L64.228 24.8315C63.838 24.5644 62.6142 25.0956 61.5047 25.3244C61.4439 25.3397 61.3866 25.354 61.3259 25.3693L57.4766 18.3562C59.0144 18.0922 62.5792 16.4076 64.7392 20.8072C65.7342 22.8346 67.9503 33.0357 68.8389 36.3973Z" fill="#4E8D89"/>
<path d="M64.2286 24.828C65.1813 27.7933 65.915 30.8554 66.6925 33.8951C66.4932 33.9945 66.2204 33.9223 66.0888 33.7614C65.7827 33.3897 62.4596 26.868 61.5017 25.3218C62.6112 25.0929 63.835 24.5618 64.225 24.8289L64.2286 24.828Z" fill="#096AFB"/>
<path d="M78.9281 82.6771C80.0956 87.1204 81.2327 91.6094 82.2885 96.0769C82.1704 96.1065 81.9738 96.2014 81.9084 96.0772C81.5923 95.4685 78.5021 83.4491 78.5705 82.7668C78.5731 82.7471 78.9254 82.6968 78.9281 82.6771Z" fill="#096AFB"/>
<path d="M82.2877 96.0782C82.6366 97.5605 83.1206 99.0508 83.4078 100.545C83.2719 100.564 83.1101 100.646 83.0502 100.634C81.8896 95.7485 78.9782 87.4132 78.5688 82.7645C78.5005 83.4469 81.5907 95.4662 81.9068 96.0749C81.9721 96.1992 82.1688 96.1042 82.2868 96.0746L82.2877 96.0782Z" fill="#096AFB"/>
<path d="M25.9443 34.2389C32.9158 32.3309 40.0092 30.6813 47.0292 28.9512C46.5667 29.9871 47.3161 30.0348 47.5448 31.0075L77.0678 77.5405L77.6714 77.6742C78.0426 79.0331 78.3414 80.4216 78.7019 81.7832C78.1028 81.8346 78.5216 82.2465 78.5685 82.7669C78.9769 87.412 81.8883 95.7473 83.0499 100.637C81.9588 100.424 73.3092 89.4719 71.4037 88.2697L26.6376 34.7302L22.1262 35.6715L29.2066 63.9051L26.7656 55.6874C25.3199 49.8619 23.665 44.0356 22.3739 38.1751C22.277 37.7432 21.5994 35.4653 21.7468 35.2953C23.1397 34.9232 24.5576 34.6208 25.9452 34.2425L25.9443 34.2389Z" fill="#096AFB"/>
<path d="M20.6678 28.3438L25.9434 34.239C24.5559 34.6174 23.1379 34.9198 21.7451 35.2919C21.5985 35.4654 22.2762 37.7434 22.3722 38.1716L21.6788 37.6803L25.9355 53.8962L26.1608 56.3103C25.5405 54.2461 24.4047 47.9741 23.6742 46.7737C23.6617 46.7541 23.4474 47.2487 23.2496 46.9752C22.785 46.3353 19.4538 32.3999 19.396 31.6086C19.3084 30.4408 19.9101 29.1572 20.6687 28.3474L20.6678 28.3438Z" fill="#4E8D89"/>
<path d="M78.7009 81.7818C78.7789 82.0777 78.8506 82.379 78.9251 82.6758C78.9224 82.6955 78.5701 82.7458 78.5675 82.7655C78.5206 82.2451 78.1018 81.8332 78.7009 81.7818Z" fill="#096AFB"/>
<path d="M80.5329 83.033C81.2167 86.4117 80.939 86.8956 80.9821 87.0977C82.1459 92.6176 83.4063 101.842 86.4023 106.059C86.2968 104.896 85.9043 103.77 85.6406 102.643L85.9982 102.553C86.7032 105.516 88.8403 110.294 85.0232 111.912C83.1058 112.724 46.715 121.85 44.6415 122.039C43.0848 122.182 41.7475 121.518 41.0231 120.1C41.1983 118.843 39.7057 114.937 39.8351 114.605C40.0199 114.129 41.8499 114.772 41.5105 112.949C41.6286 112.92 41.751 112.893 41.8682 112.86C42.4977 112.93 43.1227 112.8 43.7459 112.769C44.1814 112.747 45.1033 112.801 45.1766 112.79C52.7702 111.604 74.1474 104.981 83.7739 103.111C84.0478 102.248 83.5768 101.385 83.4143 100.54C83.1271 99.0462 82.6431 97.5559 82.2942 96.0736C81.2375 91.6025 80.1013 87.1171 78.9338 82.6738C79.4035 79.3936 79.0705 83.6734 80.5436 83.0303L80.5329 83.033Z" fill="#235B75"/>
<path d="M59.7821 111.976C60.8306 111.413 67.3598 109.847 68.1125 110.742C71.3308 114.557 60.6094 115.835 59.8741 115.374C58.8506 114.733 58.5969 112.615 59.783 111.979L59.7821 111.976Z" fill="#96B1C4"/>
<path d="M60.0513 112.289C60.3588 112.121 66.4927 110.571 66.8424 110.586C68.1274 110.633 68.8694 112.895 67.425 113.667C67.1336 113.824 61.3224 115.281 60.9915 115.281C59.4705 115.278 58.7231 113.01 60.0513 112.289Z" fill="#194150"/>
<path d="M57.4773 18.3508L61.3266 25.3639C58.04 26.0664 54.7688 27.0274 51.4993 27.8283C50.0099 28.1943 48.5186 28.5834 47.0328 28.9485C40.0128 30.6785 32.9194 32.3281 25.9479 34.2361L20.6723 28.3409C20.9028 28.0931 21.1858 27.5393 21.4763 27.3791C23.1013 26.4774 53.706 19.0001 57.4808 18.3499L57.4773 18.3508Z" fill="#6BA8A7"/>
<path d="M38.363 25.8066C38.6624 25.6061 44.9734 24.0196 45.3329 24.0587C45.6575 24.0951 46.0594 24.5759 46.0266 24.93C45.9192 26.1239 34.889 28.1412 38.363 25.8066Z" fill="#2F5D66"/>
<path d="M49.0842 66.736L51.5816 77.087L53.9279 76.5209C57.4468 75.6719 59.6112 72.131 58.7622 68.612V68.612C57.9132 65.0931 54.3722 62.9287 50.8533 63.7777L45.5858 65.0486L49.3541 80.6671L54.6331 79.3934C59.7463 78.1597 62.8914 73.0145 61.6577 67.9012V67.9012C60.424 62.788 55.2788 59.6429 50.1655 60.8766L41.9882 62.8496L47.1606 84.2877L55.3379 82.3147C62.0645 80.6918 66.2019 73.9231 64.579 67.1964V67.1964C62.956 60.4698 56.1873 56.3324 49.4607 57.9553L40.5703 60.1003" stroke="white" stroke-width="1.46706"/>
<ellipse cx="133.539" cy="165.455" rx="41.133" ry="27.0464" fill="white"/>
</g>
<defs>
<linearGradient id="paint0_linear_271_1031" x1="109.708" y1="89.8557" x2="58.0452" y2="135.436" gradientUnits="userSpaceOnUse">
<stop stop-color="#F9D3AB"/>
<stop offset="1" stop-color="#F0AC81"/>
</linearGradient>
<clipPath id="clip0_271_1031">
<rect width="125.228" height="147.114" fill="white" transform="translate(0 31.3855) rotate(-14.0782)"/>
</clipPath>
</defs>
</svg>
