<svg width="149" height="117" viewBox="0 0 149 117" fill="none" xmlns="http://www.w3.org/2000/svg">
<g clip-path="url(#clip0_271_8)">
<path d="M148.769 113.414C148.74 114.625 149.578 116.361 147.96 117.005L0.953936 116.825C0.235131 116.232 0.299823 114.392 0.414832 113.414H148.769Z" fill="#A8B4C9"/>
<path d="M2.93269 109.462C3.36038 109.494 4.29123 109.872 4.81955 110.001H144.192C145.005 109.861 145.723 109.332 146.439 109.282C149.368 109.074 148.847 110.878 148.954 112.517L0.510312 112.337C0.323423 112.47 0.449214 113.156 0.420462 113.415C0.305453 114.393 0.24076 116.233 0.959566 116.826C-0.704469 116.319 0.0251184 109.943 1.40882 109.462C1.74666 109.343 2.52656 109.433 2.93628 109.462H2.93269Z" fill="white"/>
<path d="M27.1769 108.027C27.468 108.027 27.7771 108.027 28.0754 108.027C28.8913 108.027 29.8796 108.21 30.7709 108.207C33.1035 108.2 35.4432 108.207 37.7757 108.207C38.4334 108.207 39.0947 108.207 39.7524 108.207C40.2879 108.207 40.9097 108.027 41.3697 108.027C44.82 108.023 48.3206 108.21 51.7852 108.207C69.5002 108.192 87.2403 108.013 104.948 108.027C108.413 108.027 111.903 108.023 115.364 108.027C120.194 108.034 125.071 108.185 129.912 108.207C132.78 108.221 135.666 108.16 138.534 108.207C139.843 108.228 141.179 108.138 142.484 108.207C143.404 108.253 144.698 108.077 145.539 108.386C145.6 108.408 145.891 108.958 146.438 109.285C145.722 109.335 145.007 109.864 144.191 110.004H4.81846C4.29373 109.874 3.35928 109.497 2.93159 109.465C2.29186 109.181 2.75549 109.148 3.291 108.746C3.52102 108.573 3.9487 108.257 4.1895 108.207C4.24701 108.196 4.3117 108.217 4.36921 108.207C5.22818 108.067 8.33342 108.239 9.93636 108.207C11.0685 108.182 12.215 108.221 13.3471 108.207C17.0561 108.164 20.7759 108.225 24.4814 108.207C25.9945 108.2 25.6746 108.027 25.7393 108.027C26.2101 108.027 26.7025 108.027 27.1769 108.027Z" fill="#868A9A"/>
<path d="M148.951 112.516C148.998 113.213 148.775 113.314 148.772 113.414H0.417416C0.446168 113.159 0.320378 112.469 0.507267 112.336L148.951 112.516Z" fill="#D6DEE8"/>
<path d="M104.589 101.741C104.574 103.203 104.765 103.768 104.768 103.897C104.815 105.263 104.589 106.69 104.948 108.027C87.2402 108.012 69.5001 108.192 51.7852 108.206C52.5399 106.916 51.9433 105.417 51.9649 104.077C51.9649 103.994 52.1877 103.811 52.1446 102.459C69.5864 101.32 87.1145 101.097 104.589 101.741Z" fill="#EBEBEB"/>
<path d="M145.545 108.384C144.704 108.075 143.414 108.251 142.49 108.205C141.847 107.421 139.629 108.054 138.54 108.205C135.672 108.158 132.79 108.219 129.918 108.205C136.243 104.237 139.277 95.4711 134.407 89.1671C135.715 89.0809 137.498 88.3261 139.705 89.1671C141.89 90.0009 143.913 94.17 143.564 96.4414C143.68 96.7182 146.522 96.9051 145.182 101.469C148.812 102.134 147.327 106.393 145.541 108.384H145.545Z" fill="#B7B8B3"/>
<path d="M115.908 98.6842C115.958 97.8576 115.832 96.9914 115.908 96.1684C116.033 94.8134 116.537 93.3686 116.626 92.0388C123.994 87.3846 122.636 93.2895 121.115 95.3633C120.256 96.5349 117.273 97.7749 115.908 98.6878V98.6842Z" fill="#EBEBEB"/>
<path d="M115.547 104.791V102.814C115.971 101.452 115.838 101.466 115.906 100.118C116.467 98.9071 122.217 95.4999 122.372 98.2314C122.494 100.359 119.033 101.987 117.793 102.99C116.381 104.133 116.747 105.06 115.547 104.787V104.791Z" fill="#EBEBEB"/>
<path d="M133.51 89.3436C134.021 91.2844 135.099 92.147 134.049 89.3436C134.038 89.1028 134.215 89.1783 134.409 89.1639C139.279 95.4714 136.245 104.234 129.92 108.201C125.079 108.18 120.201 108.029 115.371 108.022L115.551 104.787C116.748 105.06 116.381 104.133 117.797 102.99C119.041 101.987 122.498 100.359 122.376 98.2317C122.221 95.5002 116.471 98.9073 115.91 100.119C115.935 99.6441 115.881 99.1553 115.91 98.6809C117.276 97.7716 120.259 96.5317 121.118 95.3564C122.635 93.2863 123.993 87.3813 116.629 92.032C116.683 91.252 116.791 90.8244 116.809 90.5943C119.03 89.491 121.477 88.5637 123.903 89.6958C129.129 85.8323 132.781 89.2358 133.514 89.3364L133.51 89.3436Z" fill="#CFD1C1"/>
<path d="M134.051 89.3438C135.1 92.1471 134.022 91.2845 133.512 89.3438H134.051Z" fill="#CFD1C1"/>
<path d="M128.033 88.9849C129.744 88.8087 132.701 89.6462 132.432 90.1529C125.42 89.5994 124.529 94.6203 124.169 95.0013C122.347 96.96 122.347 89.5671 128.029 88.9849H128.033Z" fill="#EBEBEB"/>
<path d="M142.489 108.205C141.184 108.136 139.847 108.226 138.539 108.205C139.628 108.054 141.846 107.421 142.489 108.205Z" fill="#CFD1C1"/>
<path d="M30.7776 82.8777C32.5602 86.1303 33.8469 89.7171 32.3949 93.383C33.6168 92.8224 35.8451 91.2518 37.1534 91.3165C40.733 91.4962 43.0332 98.8352 35.536 104.967C33.7103 106.462 31.4245 107.238 30.7776 108.201C29.8862 108.201 28.9015 108.018 28.082 108.022V82.1589C28.941 82.1409 30.03 82.4823 30.7776 82.8777Z" fill="#CFD1C1"/>
<path d="M39.751 88.8035C39.8768 90.4172 40.6711 95.2871 41.1886 96.7068C40.9622 98.3672 40.725 101.595 41.3683 102.813V108.021C40.9119 108.021 40.2865 108.2 39.751 108.2C39.5318 107.575 38.2703 107.787 37.7743 108.2C35.4418 108.2 33.1021 108.193 30.7695 108.2C31.4201 107.241 33.7023 106.461 35.528 104.966C43.0252 98.8344 40.725 91.4954 37.1453 91.3157C35.8335 91.251 33.6088 92.8216 32.3868 93.3823C33.8388 89.7164 32.5522 86.1295 30.7695 82.877C32.5845 83.8366 34.1479 86.2949 34.6295 88.2644C36.2828 87.2509 38.2164 87.9338 39.7474 88.8035H39.751Z" fill="#B7B8B3"/>
<path d="M6.8866 97.7871C7.7276 97.956 9.25866 98.47 9.85167 99.045C12.9713 102.068 7.69525 100.217 5.63228 105.241C5.1974 106.301 5.94856 107.455 4.37437 108.206C4.31687 108.217 4.25217 108.195 4.19467 108.206L3.11646 106.409C3.04817 103.185 4.07247 99.6848 6.8866 97.7871Z" fill="#CFD1C1"/>
<path d="M4.1954 108.205C3.9546 108.256 3.52691 108.572 3.29689 108.744C3.08484 107.972 3.13516 107.199 3.11719 106.408L4.1954 108.205Z" fill="#E9E069"/>
<path d="M24.3114 82.8779C24.3545 91.3095 24.6492 99.7735 24.4911 108.201C20.782 108.219 17.0622 108.158 13.3568 108.201C12.735 107.705 10.2228 107.594 9.94606 108.201C8.34312 108.234 5.23788 108.061 4.37891 108.201C5.95309 107.454 5.20194 106.297 5.63682 105.236C7.70338 100.212 12.9758 102.059 9.8562 99.0403C9.26319 98.4652 7.73573 97.9549 6.89113 97.7824C6.96661 97.7321 7.41586 97.0995 8.50844 96.8839C10.3989 97.9082 12.5769 99.9136 9.40695 96.7042C6.59642 89.3975 16.2608 81.7422 22.7875 82.5149C23.0714 82.5473 23.7112 83.1727 24.315 82.8744L24.3114 82.8779Z" fill="#CFD1C1"/>
<path d="M8.50391 96.8867C8.89206 96.8113 9.39523 97.0449 9.40241 96.707C12.5723 99.9165 10.3944 97.911 8.50391 96.8867Z" fill="#B7B8B3"/>
<path d="M18.2949 83.777C19.4557 83.7303 20.4189 86.3719 20.002 88.3558C19.4773 90.8573 14.69 94.7029 13.9856 98.8612C5.19462 93.7109 16.0953 83.8597 18.2949 83.7734V83.777Z" fill="#EBEBEB"/>
<path d="M20.2657 94.0154C23.7232 93.8824 17.9943 101.52 17.121 98.9536C16.4669 97.0272 19.281 94.0513 20.2657 94.0154Z" fill="#EBEBEB"/>
<path d="M13.3521 108.204C12.2164 108.218 11.0735 108.179 9.94141 108.204C10.2217 107.596 12.734 107.708 13.3521 108.204Z" fill="#72736C"/>
<path d="M39.7541 108.204C39.0964 108.204 38.4351 108.204 37.7773 108.204C38.2733 107.791 39.5312 107.579 39.7541 108.204Z" fill="#72736C"/>
<path d="M104.592 99.584C104.513 99.9937 104.599 101.072 104.592 101.74C87.1143 101.097 69.5898 101.32 52.148 102.459C52.1229 101.615 52.2451 100.314 52.148 99.7637L104.592 99.584Z" fill="#E9E069"/>
<path d="M40.8337 59.3533C41.4159 60.0505 38.2963 59.6408 38.0483 60.9706L44.6937 60.4315C45.1429 60.7406 44.9165 61.3192 44.9632 61.8691C45.1034 65.2295 38.1382 64.7263 37.2397 61.8691C37.1175 59.8205 39.1373 59.6624 40.8301 59.3533H40.8337Z" fill="#DFDFDF"/>
<path d="M46.2197 62.5836C45.7633 63.3312 45.8064 63.8272 44.9618 64.3806C44.9115 63.554 45.0337 62.6914 44.9618 61.8648C44.9151 61.3149 45.1415 60.7363 44.6922 60.4272L38.0469 60.9663C38.2949 59.6365 41.4145 60.0462 40.8322 59.349C44.1639 58.7416 46.5468 58.4613 46.2197 62.5836Z" fill="#ECE8E8"/>
<path d="M44.9658 61.865C45.0376 62.688 44.9154 63.5506 44.9658 64.3808C44.9406 64.3952 45.1095 64.8337 44.6064 64.7402C42.1696 64.6144 37.4578 65.4986 37.2422 61.865C38.1407 64.7222 45.1059 65.2254 44.9658 61.865Z" fill="#026A71"/>
<path d="M119.148 62.0429C117.71 65.2128 110.403 65.1877 111.963 60.4256C112.908 60.2602 118.684 61.3492 118.788 60.8748C118.486 60.537 118.08 60.307 117.71 60.0662C117.839 60.1021 119.435 60.0051 119.507 61.5936C119.507 61.6727 119.155 62.0141 119.148 62.0429Z" fill="#DFDFDF"/>
<path d="M116.63 59.5311C116.213 60.0379 116.824 59.8294 117.708 60.0702C118.078 60.311 118.484 60.541 118.786 60.8789C118.682 61.3533 112.906 60.2643 111.961 60.4296L111.602 60.6992L111.422 64.1998C111.375 64.1063 110.904 63.4989 110.344 62.4027C109.704 58.417 113.833 58.7153 116.63 59.5275V59.5311Z" fill="#ECE8E8"/>
<path d="M119.145 62.0432C118.308 66.1511 114.793 63.9911 111.961 64.9184C111.699 64.6956 111.569 64.5015 111.422 64.1996L111.602 60.699L111.961 60.4294C110.398 65.1915 117.708 65.2131 119.145 62.0468V62.0432Z" fill="#026A71"/>
<path d="M117.707 60.0701C116.823 59.8293 116.215 60.0378 116.629 59.531C118.138 59.9695 117.603 60.0018 117.707 60.0701Z" fill="#DFDFDF"/>
<path d="M94.5339 96.8884C94.5339 97.007 94.4836 97.1975 94.6238 97.2478C95.6804 97.618 113.845 97.3233 114.74 97.7869C115.009 97.9271 114.542 98.3153 114.65 98.5057C112.684 98.955 105 97.4671 104.59 99.5839L52.146 99.7637C52.11 99.566 52.1675 99.3396 52.146 99.1347C50.2052 97.7222 42.9381 99.318 41.7305 97.9666C48.5232 97.1364 55.4561 97.9702 62.2056 96.8884C67.8662 97.8804 88.7655 97.8444 94.5339 96.8884Z" fill="#013F59"/>
<path d="M60.0496 82.5202L60.1395 82.8796C72.2118 83.372 84.3525 83.3828 96.4212 82.8796L96.1517 82.5202C99.5768 77.104 97.5102 82.4052 96.4212 84.4969L87.7093 85.2157C83.914 85.0504 73.3619 85.0468 69.5702 85.2157C66.4901 84.5293 63.1441 84.8491 59.9598 84.4969C57.0594 78.4518 57.426 76.5757 60.0496 82.5202Z" fill="#ECE8E8"/>
<path d="M87.7101 85.2149C89.6724 85.3012 94.7544 85.6211 94.3554 86.2932C90.7866 85.9589 82.4664 86.4764 77.9199 86.4729C74.4876 86.4729 63.2491 85.9553 61.5743 86.1135C61.5132 86.1206 60.8627 86.5519 60.4062 86.4729C62.0667 85.5276 67.3894 85.312 69.5674 85.2149C73.3591 85.046 83.9112 85.0496 87.7065 85.2149H87.7101Z" fill="#013F59"/>
<path d="M115.909 98.6839C115.881 99.1583 115.935 99.6471 115.909 100.121C115.841 101.469 115.974 101.455 115.55 102.817C115.539 102.849 115.079 102.734 115.011 102.907C114.9 103.191 114.77 110.983 114.112 106.141C114.019 105.441 114.238 103.151 114.112 102.907C112.801 100.351 112.74 106.522 112.585 107.306C111.758 106.641 112.492 102.849 111.866 102.637C111.794 102.612 110.393 102.849 110.339 102.907C109.821 103.464 110.705 106.573 110.069 107.306C109.584 106.641 110.08 103.198 109.53 102.997C109.473 102.975 108.402 103.396 108.362 103.446C107.985 103.92 108.172 111.216 107.643 103.985C105.314 103.108 107.003 105.872 105.936 107.31C104.815 106.134 106.267 103.737 104.768 103.899C104.764 103.773 104.574 103.209 104.588 101.742C104.595 101.074 104.509 99.9957 104.588 99.586C104.994 97.4691 112.682 98.957 114.648 98.5077L115.906 96.1716C115.83 96.9947 115.956 97.8572 115.906 98.6875L115.909 98.6839Z" fill="#013F59"/>
<path d="M115.553 102.812V104.789L115.373 108.024C111.912 108.02 108.419 108.024 104.958 108.024C104.598 106.687 104.825 105.256 104.778 103.894C106.277 103.732 104.825 106.133 105.946 107.305C107.014 105.871 105.324 103.103 107.653 103.98C108.182 111.212 107.995 103.916 108.372 103.441C108.412 103.391 109.483 102.97 109.54 102.992C110.09 103.197 109.594 106.636 110.079 107.301C110.712 106.568 109.831 103.459 110.349 102.902C110.403 102.845 111.801 102.607 111.876 102.633C112.498 102.845 111.768 106.636 112.595 107.301C112.75 106.518 112.811 100.343 114.122 102.902C114.248 103.143 114.029 105.432 114.122 106.137C114.78 110.982 114.91 103.186 115.021 102.902C115.089 102.73 115.549 102.845 115.56 102.812H115.553Z" fill="#2F6286"/>
<path d="M41.7283 97.9673C42.9395 99.3186 50.2066 97.7193 52.1438 99.1353C52.1653 99.3402 52.1078 99.5666 52.1438 99.7643C52.2408 100.314 52.1186 101.615 52.1438 102.46C52.1869 103.811 51.9641 103.994 51.9641 104.077C50.9218 103.721 51.7556 107.578 50.796 107.312C49.8939 105.648 51.6406 103.624 49.1787 103.542C48.2874 111.323 48.9918 104.577 48.5497 103.452C48.4419 103.182 47.1013 102.794 47.0223 102.823C46.5586 102.985 46.5263 112.293 46.3933 102.913C43.6798 101.755 44.8623 103.79 44.5963 105.788C43.9278 110.791 43.9997 103.189 43.8775 102.913C43.7409 102.6 42.9071 102.55 42.7094 102.643C42.1164 102.92 42.6268 105.526 42.4399 106.503C41.8648 109.54 41.7606 102.877 41.3617 102.823C40.7183 101.604 40.9555 98.377 41.182 96.7166C41.3042 97.0508 41.5378 97.7696 41.7211 97.9745L41.7283 97.9673Z" fill="#013F59"/>
<path d="M51.9663 104.073C51.9447 105.414 52.5413 106.916 51.7866 108.203C48.3184 108.203 44.8214 108.019 41.3711 108.023V102.815C41.77 102.873 41.8743 109.532 42.4493 106.495C42.6362 105.518 42.1258 102.909 42.7189 102.635C42.9165 102.542 43.7467 102.592 43.8869 102.905C44.0091 103.182 43.9372 110.783 44.6057 105.78C44.8717 103.786 43.6892 101.748 46.4027 102.905C46.5321 112.285 46.5681 102.977 47.0317 102.815C47.1108 102.786 48.4513 103.175 48.5591 103.444C49.0012 104.569 48.2968 111.315 49.1881 103.534C51.65 103.62 49.9033 105.64 50.8054 107.304C51.765 107.57 50.9312 103.717 51.9735 104.069L51.9663 104.073Z" fill="#2F6286"/>
<path d="M97.95 95.6293L94.9849 96.5278C85.8848 95.7479 70.3227 96.9339 62.8363 96.5278C62.1571 96.4919 61.2657 96.3301 60.5901 96.1684C59.1453 95.827 58.2827 95.5323 57.7148 94.012C58.4732 93.4226 59.3322 95.3166 59.7814 95.4496C61.5748 95.9707 92.0306 94.9536 97.1377 95.6293C98.8808 94.5547 99.2079 93.2465 99.384 91.3201C99.6212 93.074 99.2977 94.3606 97.9464 95.6293H97.95Z" fill="#C8BEBC"/>
<path d="M97.9501 95.6287C96.685 96.8147 96.1423 96.6206 94.5394 96.8866C88.7674 97.8426 67.8681 97.8785 62.2111 96.8866C61.5965 96.7788 60.964 96.5415 60.3242 96.5272L60.5938 96.1678C61.2694 96.3295 62.1572 96.4912 62.84 96.5272C70.3264 96.9333 85.8885 95.7473 94.9886 96.5272L97.9537 95.6287H97.9501Z" fill="#074455"/>
<path d="M94.3587 86.2914C97.2735 86.5645 98.9878 88.3795 99.3868 91.3194C99.2142 93.2458 98.8836 94.5577 97.1405 95.6287C92.0298 94.953 61.5776 95.9701 59.7842 95.449C59.3349 95.3196 58.4759 93.4219 57.7176 94.0114C56.7652 91.456 57.9009 87.8907 60.4131 86.4675C60.8696 86.5466 61.5201 86.1153 61.5812 86.1081C63.2524 85.95 74.4909 86.4639 77.9268 86.4675C82.4733 86.4711 90.7934 85.9536 94.3623 86.2878L94.3587 86.2914Z" fill="#E5E0DC"/>
<path d="M59.6028 90.6012C64.2175 91.2194 95.2771 89.7962 96.9591 90.6012C97.4443 90.8313 97.358 91.5752 96.5997 91.8592C91.7262 91.4602 61.5471 92.3803 59.7789 91.8592C59.1427 91.6723 58.9738 90.9139 59.5992 90.6012H59.6028Z" fill="#474745"/>
<path d="M59.2441 93.4755C60.9979 92.7351 92.5571 94.0433 97.3192 93.4755L97.409 94.2841L59.2441 94.5537C58.9565 94.3129 58.9853 93.5869 59.2441 93.4755Z" fill="#474745"/>
<path d="M61.4017 87.9094C62.9364 87.1798 91.1387 88.4701 95.3473 87.9094L95.6169 88.7181L61.4017 88.9876C61.0171 88.8043 61.0171 88.0927 61.4017 87.9094Z" fill="#474745"/>
<path d="M110.34 62.4047C110.901 63.5009 111.371 64.1083 111.418 64.2017C111.566 64.5036 111.695 64.6977 111.957 64.9205L111.598 65.0104C114.696 70.2001 114.854 76.3963 116.985 81.8915C117.003 84.7991 117.011 87.7067 116.806 90.6034C116.788 90.8335 116.68 91.2612 116.626 92.0411C116.536 93.3708 116.033 94.8192 115.907 96.1706L114.649 98.5067C114.541 98.3162 115.009 97.9281 114.739 97.7879C113.844 97.3243 95.68 97.619 94.6233 97.2488C94.4832 97.1985 94.5335 97.008 94.5335 96.8894C96.14 96.6235 96.6827 96.8175 97.9442 95.6315C99.2956 94.3628 99.619 93.0725 99.3818 91.3223C98.9829 88.3823 97.2685 86.5674 94.3538 86.2942C94.7527 85.6221 89.6707 85.3023 87.7084 85.216L96.4203 84.4972C97.5093 82.4055 99.5759 77.1079 96.1508 82.5205C84.1288 83.0344 72.0744 82.9913 60.0488 82.5205C57.4251 76.576 57.0585 78.452 59.9589 84.4972C63.1432 84.8494 66.4857 84.5295 69.5694 85.216C67.395 85.313 62.0722 85.5287 60.4082 86.4739C57.8995 87.8971 56.7638 91.4624 57.7127 94.0178C58.2769 95.5345 59.1431 95.8292 60.5879 96.1742L60.3183 96.5336C60.9581 96.548 61.587 96.7852 62.2052 96.893C55.4556 97.9748 48.5227 97.141 41.73 97.9712C41.5467 97.7663 41.3131 97.0475 41.1909 96.7133C40.6734 95.2937 39.8827 90.4237 39.7533 88.81C39.5592 86.3589 39.667 83.8143 39.7533 81.356C41.2448 79.0594 41.3167 74.7646 42.6285 70.5811C43.3437 68.2953 45.3312 65.129 44.6052 64.7444C45.1084 64.8379 44.9395 64.3994 44.9646 64.385C45.8092 63.8315 45.7661 63.3392 46.2225 62.588C47.9764 59.702 53.2057 48.8912 55.4736 47.5003C57.116 46.8282 58.9382 46.5047 60.6813 46.2424C67.1973 45.2648 87.8019 45.2181 94.4472 46.0627C96.9487 46.3825 100.266 46.7132 102.081 48.4886C103.831 50.203 108.931 59.6517 110.344 62.4083L110.34 62.4047Z" fill="#DFDFDF"/>
<path d="M48.7346 63.4841C48.2458 69.4898 48.8855 68.1312 54.3017 68.0629C53.4895 66.1437 52.5263 66.0862 53.0438 63.6638C70.0292 63.6854 87.0757 63.9262 104.05 63.4841C104.262 68.5086 99.91 68.239 107.551 68.1528C108.076 67.9228 108.133 64.167 107.82 63.4841H108.36C109.722 66.6037 111.634 68.4187 110.606 69.5904C110.146 70.1151 100.985 75.1504 100.19 75.3372C98.6053 75.7074 95.6654 75.5744 93.9942 75.3372C98.3969 74.5178 101.764 72.8825 102.706 68.1528H54.751C54.255 68.3433 55.4482 71.603 58.1617 72.8214C60.7243 73.9715 68.2538 74.8485 71.3626 75.1575C71.3626 75.2761 71.4129 75.4666 71.2727 75.5169C70.3095 75.8548 59.5778 75.1288 57.2632 75.6966C56.5696 75.0928 56.2246 75.1971 56.0952 75.1575C56.1419 74.1476 52.7815 72.9652 51.6961 72.2823C49.687 71.0244 47.8648 69.4251 45.8594 68.1528C46.0247 67.6424 48.1272 63.5812 48.3752 63.4841H48.7346Z" fill="#ECE8E8"/>
<path d="M93.9938 75.3385C90.0511 76.0717 75.9194 75.9136 71.6317 75.5182C71.4844 75.5038 71.6461 75.1876 71.3622 75.1588C68.2534 74.8497 60.7239 73.9728 58.1613 72.8227C55.4442 71.6043 54.2546 68.3445 54.7506 68.1541H102.706C101.768 72.8838 98.4001 74.5191 93.9938 75.3385Z" fill="#ECE8E8"/>
<path d="M99.741 83.4216L99.4714 83.9607C102.487 83.9679 113.592 83.1341 113.211 80.55C113.258 80.5248 113.344 80.5751 113.391 80.55C115.231 86.5736 106.494 86.1854 102.526 86.6562C100.309 85.3875 97.8218 83.8996 99.741 83.4216Z" fill="#ECE8E8"/>
<path d="M57.357 84.1409C56.5339 85.2622 55.3407 86.017 54.1223 86.6567C51.5238 86.4159 48.9218 86.3369 46.3988 85.5785C44.1201 84.8957 42.4238 84.2487 43.1641 81.2693C46.5497 83.3718 53.1663 83.6413 57.3534 84.1445L57.357 84.1409Z" fill="#ECE8E8"/>
<path d="M113.213 80.5483C113.594 83.136 102.488 83.9662 99.4727 83.959L99.7422 83.4199C102.251 82.7981 105.069 82.622 108.364 81.8026C109.216 81.5905 110.043 81.3282 110.88 81.0838C111.135 81.0263 111.355 80.9652 111.599 80.9041C111.886 80.8861 112.149 80.9903 112.138 80.7244C112.411 80.6453 112.911 80.5878 113.216 80.5447L113.213 80.5483Z" fill="#ECE8E8"/>
<path d="M73.8805 47.6816C70.2541 47.7248 64.4534 47.5127 61.3086 47.8613C68.4284 45.8127 75.9794 46.4561 83.3112 46.7831L66.9656 47.3222L73.8805 47.6816Z" fill="#ECE8E8"/>
<path d="M57.3568 84.1389C53.1733 83.6394 46.5531 83.3662 43.1675 81.2637C43.2107 81.0948 43.0777 80.8504 43.2574 80.7246C43.7174 80.473 48.9108 82.1514 49.9028 82.3419C51.0528 82.5612 57.7593 83.2117 57.8959 83.6897C57.6084 84.3115 57.3783 84.1102 57.3568 84.1389Z" fill="#ECE8E8"/>
<path d="M96.1528 82.5212L96.4223 82.8806C84.3536 83.3838 72.213 83.373 60.1406 82.8806L60.0508 82.5212C72.0764 82.9921 84.1308 83.0352 96.1528 82.5212Z" fill="#ECE8E8"/>
<path d="M56.0991 75.1608C54.8879 74.8086 45.6333 69.7661 45.5039 69.1444C45.5758 68.8101 45.7591 68.4759 45.8633 68.156C47.8688 69.4283 49.691 71.0276 51.7 72.2855C52.7854 72.9648 56.1458 74.1508 56.0991 75.1608Z" fill="#DFDFDF"/>
<path d="M54.1223 86.6561C53.9965 86.7244 52.9255 87.7451 51.5167 87.7343C51.2184 87.7343 45.3313 86.2212 46.3988 85.5779C48.9218 86.3326 51.5238 86.4153 54.1223 86.6561Z" fill="#DFDFDF"/>
<path d="M53.0443 63.6656C52.5232 66.0915 53.49 66.1455 54.3022 68.0647C48.886 68.1294 48.2463 69.4879 48.7351 63.4859C50.1547 63.2954 51.6534 63.6656 53.0443 63.6656Z" fill="#DFDFDF"/>
<path d="M107.828 63.4845C108.14 64.1674 108.083 67.9267 107.558 68.1532C99.9136 68.2358 104.27 68.509 104.057 63.4845C105.312 63.4522 106.577 63.5097 107.828 63.4845Z" fill="#DFDFDF"/>
<path d="M73.8816 47.681C75.082 47.6666 76.3112 47.8607 77.472 47.8607C77.6338 48.1806 77.7632 47.8751 77.8315 48.3998C72.5051 47.947 67.1464 48.2525 61.8452 48.7592C59.448 48.9892 58.093 47.9074 55.1999 51.5446C54.287 52.6947 49.0325 61.9601 49.6327 62.6789C50.3443 62.9844 50.8259 62.5819 50.8906 62.5891C50.9266 62.5926 50.6786 62.722 51.6094 62.7688C53.2124 62.8478 54.8512 62.7544 56.4578 62.7688C57.6797 62.7795 58.1541 62.5891 58.2548 62.5891C60.7706 62.6034 63.29 62.5819 65.7986 62.5891C76.7029 62.6214 87.5892 62.6609 98.4863 62.5891C101.045 62.5711 103.435 62.9377 106.03 62.5891C106.073 62.5819 106.314 62.9988 106.929 62.6789C107.515 61.9601 102.591 53.0253 101.362 51.5446C98.4001 47.9685 97.0164 49.0072 94.3568 48.7592C91.726 48.5148 89.1023 48.2597 86.4535 48.2201V47.681C89.2784 47.7601 98.3138 47.7781 100.193 48.9389C102.195 50.1753 107.371 60.3967 108.546 63.0383C108.722 63.4372 108.356 63.466 108.366 63.4876H107.827C106.573 63.5127 105.308 63.4552 104.057 63.4876C87.0789 63.9296 70.036 63.6888 53.0506 63.6673C51.6561 63.6673 50.161 63.2971 48.7414 63.4876H48.382C47.6668 63.7787 49.4925 59.8935 50.179 58.5494C50.8726 57.1872 54.8009 50.5203 55.5664 49.7476C57.0688 48.2381 59.2935 48.0871 61.3133 47.8607C64.4617 47.5121 70.2588 47.7242 73.8852 47.681H73.8816Z" fill="#026A71"/>
<path d="M86.4563 47.6819V48.221C85.432 48.2066 79.1712 48.0664 78.8226 48.221C78.4237 48.3971 78.4237 49.4825 78.8226 49.6586C79.0562 49.7628 83.7356 49.4394 81.7877 52.0846C81.0976 53.0226 73.0218 53.6552 74.6032 50.4673C75.5197 48.6235 78.1757 50.9632 77.8378 48.4007C77.7695 47.876 77.6402 48.1815 77.4784 47.8616C80.4435 47.8616 83.484 47.5992 86.4599 47.6819H86.4563Z" fill="#016070"/>
<path d="M77.8357 48.396C78.1771 50.9549 75.5175 48.6152 74.6011 50.4625C73.0197 53.6505 81.0955 53.0143 81.7855 52.0799C83.7335 49.4347 79.0541 49.7581 78.8205 49.6539C78.4215 49.4778 78.4215 48.3924 78.8205 48.2163C79.1691 48.0617 85.4299 48.2019 86.4542 48.2163C89.103 48.2558 91.723 48.511 94.3574 48.7554C98.5696 53.0826 102.814 57.4314 106.031 62.5852C103.436 62.9338 101.046 62.5672 98.487 62.5852C97.9335 52.5543 96.3881 55.1887 87.8019 54.8616C86.102 55.7745 86.3607 57.5284 86.0948 58.6318C84.7542 58.0639 80.2832 53.7223 79.3596 53.7834L70.4679 58.9912C70.2882 58.1538 70.2235 56.4035 69.9288 55.8464C69.0555 54.1931 61.7668 54.7898 60.0488 55.2174C58.5286 56.195 58.4028 60.799 58.2518 62.5816C58.1548 62.5816 57.6768 62.7721 56.4548 62.7613L56.9939 56.7449L56.7244 56.6551C55.028 58.6426 52.7673 60.5546 51.6065 62.7613C50.6756 62.7146 50.9236 62.5852 50.8877 62.5816C53.5437 57.2373 57.7307 52.9604 61.8423 48.7518C67.1399 48.245 72.4986 47.9395 77.8285 48.3924L77.8357 48.396Z" fill="#C4D7D7"/>
<path d="M70.4738 58.9956C70.5564 59.3873 70.4882 60.5841 70.923 60.7926H85.4717C86.0359 60.5734 85.885 59.5419 86.1006 58.6362C86.3666 57.5328 86.1078 55.7789 87.8078 54.866C96.3939 55.1931 97.9429 52.5587 98.4928 62.5896C87.5957 62.6615 76.7094 62.622 65.8051 62.5896C66.1897 61.5761 69.9706 59.8366 70.1144 59.4448C70.1755 59.2831 69.8556 56.1707 69.755 56.0341C68.4899 54.2838 62.1967 56.566 60.0547 55.2254C61.7726 54.7978 69.0577 54.2011 69.9347 55.8544C70.2294 56.4115 70.2941 58.1618 70.4738 58.9992V58.9956Z" fill="#2F6286"/>
<path d="M65.7978 62.5846C63.2891 62.5774 60.7697 62.599 58.2539 62.5846C58.4049 60.802 58.5306 56.198 60.0509 55.2205C62.193 56.561 68.4825 54.2788 69.7512 56.0291C69.8518 56.1693 70.1717 59.2817 70.1106 59.4398C69.9633 59.828 66.1823 61.5711 65.8014 62.5846H65.7978Z" fill="#347090"/>
<path d="M106.033 62.5854C102.813 57.4316 98.5716 53.0828 94.3594 48.7556C97.0154 49.0036 98.4027 47.9613 101.364 51.541C102.593 53.0253 107.517 61.9601 106.931 62.6753C106.317 62.9952 106.079 62.5782 106.033 62.5854Z" fill="#8EAFB6"/>
<path d="M61.85 48.7556C57.7348 52.9642 53.5478 57.2411 50.8954 62.5854C50.8343 62.5782 50.3491 62.9808 49.6375 62.6753C49.0373 61.9529 54.2917 52.6875 55.2046 51.541C58.0978 47.9038 59.4528 48.9856 61.85 48.7556Z" fill="#8EAFB6"/>
<path d="M56.4616 62.7642C54.8551 62.7498 53.2126 62.8433 51.6133 62.7642C52.7777 60.5575 55.0348 58.6455 56.7312 56.658L57.0007 56.7478L56.4616 62.7642Z" fill="#8EAFB6"/>
<path d="M86.0956 58.6358C85.8799 59.5415 86.0309 60.573 85.4666 60.7923H70.918C70.4831 60.5838 70.555 59.387 70.4688 58.9953L79.3604 53.7875C80.284 53.7264 84.755 58.068 86.0956 58.6358Z" fill="#8EAFB6"/>
<path d="M113.576 80.3709C113.41 80.5003 113.407 80.5434 113.396 80.5506C113.349 80.5757 113.263 80.5254 113.216 80.5506C112.911 80.5937 112.411 80.6512 112.138 80.7303C111.908 80.7986 111.628 80.9028 111.599 80.91C110.675 80.9675 110.916 81.0789 110.88 81.0897C110.079 81.2658 108.864 81.3053 108.005 81.4491C105.237 81.9163 102.47 82.4015 99.6524 82.5273C99.2966 82.2326 99.2355 81.884 99.2031 81.4491C99.4295 81.5389 99.6847 81.2119 99.7422 81.0897C99.7243 81.9918 102.52 80.7159 103.962 80.3709C104.303 80.2918 104.99 80.4607 105.22 80.3709C105.662 80.1984 104.72 79.9612 105.04 79.6521C105.514 79.192 110.866 77.8694 105.669 80.4607C107.408 80.8489 111.06 78.7356 111.955 77.316C112.019 77.2117 112.106 77.0787 112.134 76.9565C112.156 76.9745 112.397 76.9278 112.674 77.1362C112.609 77.4094 112.382 78.7787 112.584 78.9333C114.309 77.6322 114.19 74.3545 114.65 75.9682C114.934 76.9601 114.474 79.6593 113.572 80.3673L113.576 80.3709Z" fill="#B6A78E"/>
<path d="M113.576 70.6697C113.166 71.2591 113.249 71.6976 113.217 71.7479C111.88 73.8576 100.415 78.1057 100.106 78.8425C100.62 79.414 100.106 80.3125 99.7464 81.0888C99.6889 81.211 99.4337 81.538 99.2073 81.4482C99.1929 81.2577 99.8039 78.5083 99.9261 78.3034C100.375 77.5486 110.449 74.0984 113.576 70.6697Z" fill="white"/>
<path d="M113.574 80.37C114.476 79.6619 114.932 76.9628 114.652 75.9709C114.192 74.3536 114.314 77.6313 112.585 78.9359C112.384 78.7814 112.611 77.4121 112.675 77.1389C112.855 76.377 113.477 75.6007 113.574 74.713C113.628 74.2062 113.369 72.0642 113.214 71.7479C113.243 71.7012 113.161 71.2591 113.574 70.6697C114.145 71.0938 116.295 80.2621 113.574 80.37Z" fill="#C6C6C6"/>
<path d="M110.883 81.0896C110.046 81.334 109.219 81.5964 108.367 81.8084L108.008 81.449C108.863 81.3052 110.078 81.2657 110.883 81.0896Z" fill="#38848B"/>
<path d="M111.601 80.9099C111.357 80.971 111.141 81.0321 110.882 81.0896C110.918 81.0788 110.678 80.9674 111.601 80.9099Z" fill="#669599"/>
<path d="M112.141 80.7283C112.151 80.9942 111.889 80.89 111.602 80.908C111.63 80.9008 111.911 80.7966 112.141 80.7283Z" fill="#85948B"/>
<path d="M112.677 77.1353C112.401 76.9268 112.16 76.9735 112.138 76.9556C109.569 74.9681 107.631 80.9162 111.959 77.315C111.064 78.731 107.412 80.8479 105.673 80.4597C110.873 77.872 105.518 79.1946 105.044 79.6511C104.724 79.9602 105.666 80.1974 105.223 80.3699C104.993 80.4597 104.307 80.2908 103.966 80.3699C102.524 80.7113 99.7282 81.9908 99.7462 81.0887C100.102 80.3124 100.62 79.4139 100.106 78.8424C100.415 78.1056 111.88 73.8575 113.217 71.7478C113.371 72.0641 113.63 74.2061 113.576 74.7129C113.479 75.6006 112.857 76.3769 112.677 77.1388V77.1353Z" fill="#EAEAE9"/>
<path d="M112.137 76.9546C112.108 77.0768 112.022 77.2098 111.957 77.314C107.63 80.9152 109.567 74.9671 112.137 76.9546Z" fill="#FFF2E9"/>
<path d="M108.096 76.7757C109.559 76.8224 108.552 78.9285 107.377 78.5727C106.36 78.2636 107.036 76.7433 108.096 76.7757Z" fill="#BCB9B0"/>
<path d="M112.586 73.0056C112.629 74.0227 113.215 73.8071 113.215 74.1737C113.215 74.2456 112.557 75.392 112.496 75.4316C111.662 75.9635 111.687 74.339 112.586 73.0056Z" fill="#EAEAEA"/>
<path d="M110.791 74.2635C111.887 74.1988 110.665 75.7047 110.432 75.5214C110.198 75.3381 110.27 74.2958 110.791 74.2635Z" fill="#B6A78E"/>
<path d="M46.0417 79.2915C48.4317 79.9312 49.0175 80.3409 49.1864 80.3697C50.4659 80.5889 53.9845 80.4164 57.1796 81.0885C57.1975 81.0921 57.1149 81.3365 57.539 81.2682C57.5138 81.7354 57.6935 82.2278 57.2694 82.5261C56.5865 82.8388 43.2886 80.65 42.5411 80.19C41.1358 79.3274 41.851 75.4387 42.0918 74.0837C43.1053 74.4755 42.2787 74.6157 42.4512 75.0721C42.7819 75.9526 44.1404 77.7461 44.428 79.0219C45.0353 79.482 45.6966 79.198 46.0453 79.2915H46.0417Z" fill="#B6A78E"/>
<path d="M44.4299 72.6467C44.3724 72.9378 44.4694 73.1283 44.6096 73.3655C44.3831 73.3295 44.0166 73.5847 43.8908 73.7249C42.658 69.3725 43.2043 76.9775 44.1603 76.6001C43.5278 75.4536 45.6446 76.7582 45.8675 76.9595C47.9592 78.8608 45.2996 78.3756 46.0472 79.2956C45.6986 79.2022 45.0373 79.4861 44.4299 79.0261C44.1423 77.7502 42.7838 75.9568 42.4532 75.0762C42.2806 74.6198 43.1073 74.4796 42.0938 74.0879C42.2231 73.3655 42.6185 71.5182 42.9923 71.033C43.0749 71.5757 43.9662 72.3124 44.4299 72.6503V72.6467Z" fill="#B6A78E"/>
<path d="M57.5408 81.2685C57.1167 81.3368 57.203 81.0924 57.1814 81.0888C57.1275 80.848 56.9334 80.3987 56.822 80.1903C57.5264 77.7499 48.8433 75.8559 44.4298 72.6464C43.9662 72.3086 43.0784 71.5718 42.9922 71.0291L43.2617 70.6697C44.7425 73.5054 56.3907 77.4265 57.0017 78.4831C57.1958 78.8173 57.566 80.7761 57.5408 81.2685Z" fill="white"/>
<path d="M48.5582 76.9553C46.5671 79.3381 51.3579 78.7775 49.277 77.135C49.5178 77.2069 50.2761 77.1853 50.7146 77.3147C50.4738 78.0191 52.5224 78.7056 52.6913 78.0335C54.1792 78.5079 55.7283 78.1737 56.8209 80.1899C56.9323 80.3984 57.1228 80.844 57.1803 81.0884C53.9852 80.4199 50.4666 80.5924 49.1871 80.3696C49.0218 80.3409 48.4324 79.9311 46.0424 79.2914C45.2948 78.3713 47.9544 78.8565 45.8627 76.9553C45.8698 76.8007 46.2257 76.3623 46.2221 76.3263C46.2113 76.1251 44.5832 72.779 47.5698 75.5177C48.3857 76.2652 47.6022 76.3946 48.5582 76.9553Z" fill="#E7E5D8"/>
<path d="M43.889 73.7254C43.2564 74.4298 43.8998 75.5907 44.8773 74.9833C45.8226 74.3975 44.9097 73.8763 44.6078 73.366C44.4676 73.1324 44.3706 72.9383 44.4281 72.6472C48.8415 75.8566 57.5283 77.7507 56.8203 80.191C55.7241 78.1748 54.1787 78.509 52.6907 78.0346C52.317 77.916 51.724 77.6177 50.714 77.3158C50.2756 77.1864 49.5172 77.208 49.2764 77.1361C49.0464 77.0678 48.7984 76.9852 48.5576 76.9564C47.6016 76.3993 48.3851 76.27 47.5693 75.5188C44.5862 72.7802 46.2107 76.1262 46.2215 76.3275C46.2215 76.3634 45.8693 76.8019 45.8621 76.9564C45.6429 76.7552 43.5224 75.4541 44.1549 76.597C43.1989 76.9744 42.6526 69.3694 43.8854 73.7218L43.889 73.7254Z" fill="#FFFCF0"/>
<path d="M44.6075 73.3645C44.9094 73.8749 45.8223 74.3924 44.8771 74.9818C43.8995 75.5892 43.2561 74.4283 43.8887 73.7239C44.0145 73.5837 44.3811 73.3286 44.6075 73.3645Z" fill="#E8E5E1"/>
<path d="M49.2769 77.1365C51.3579 78.779 46.567 79.3396 48.5581 76.9568C48.7953 76.9855 49.0469 77.0682 49.2769 77.1365Z" fill="#B6A78E"/>
<path d="M52.6877 78.033C52.5224 78.7051 50.4702 78.0186 50.711 77.3142C51.7209 77.6161 52.314 77.9144 52.6877 78.033Z" fill="#F7F2E2"/>
<path d="M44.8756 90.2471C46.3707 89.9128 54.7807 91.5625 51.7905 95.1853C55.0862 94.9588 51.3412 96.2204 49.3645 96.3533C41.5224 96.8781 42.4496 90.7898 44.8756 90.2471Z" fill="#013F59"/>
<path d="M46.849 90.9654C50.5508 90.0777 54.4611 95.0266 50.2597 95.634C44.6243 96.4535 44.5919 91.5045 46.849 90.9654Z" fill="#E5E0DC"/>
<path d="M47.2071 91.6856C48.1811 91.4268 50.147 92.3792 50.7077 93.213C52.8138 96.3255 46.7758 95.7396 46.3985 93.7521C46.2691 93.0801 46.4416 91.8904 47.2071 91.6856Z" fill="#074455"/>
<path d="M110.25 90.2467C116.198 89.7974 113.643 95.2568 111.688 95.9935C109.046 96.9891 100.474 95.2496 104.952 95.1849C102.897 92.2522 108.209 90.4012 110.25 90.2467Z" fill="#013F59"/>
<path d="M108.631 90.9657C112.933 90.5237 112.984 96.1986 107.014 95.6344C103.132 95.2678 104.725 91.3647 108.631 90.9657Z" fill="#E5E0DC"/>
<path d="M108.813 91.6849C111.009 91.4513 111.555 94.898 108.453 95.2754C103.364 95.8971 107.235 91.8503 108.813 91.6849Z" fill="#074455"/>
<path d="M75.1323 21.4554C74.2374 22.7781 73.2383 24.0935 72.7962 25.6748C72.1457 27.9966 72.063 32.9492 73.0657 30.4333C74.7513 32.9887 81.3248 30.5987 74.8628 30.7927C72.8501 29.7505 72.7638 25.8294 74.6831 24.6865C74.6831 29.7828 74.9023 24.7476 76.2105 23.3387C77.8494 21.5705 80.8252 22.5516 78.906 21.1823C80.872 20.6396 79.4775 20.406 78.2771 20.5533C77.5726 20.6396 76.3147 21.7394 75.8511 20.9128C77.5151 19.9747 79.0462 19.5039 80.969 19.6548C83.8766 12.571 92.6748 10.3715 99.4675 13.0095C106.968 4.8762 116.341 5.84299 119.943 16.7796C124.051 16.2944 127.364 17.9477 126.947 22.5265C129.445 21.9586 132.489 22.4007 134.042 24.593C135.767 27.0262 135.728 33.6428 132.335 34.2035H74.6831C68.8751 31.26 70.5895 24.7404 75.1323 21.4519V21.4554Z" fill="#C9EAF8"/>
<path d="M75.1319 21.4555C75.1678 21.4303 75.1103 21.3333 75.8507 20.9164C76.3143 21.743 77.5722 20.6432 78.2767 20.557C79.4771 20.4096 80.8716 20.6432 78.9056 21.1859C80.8284 22.5552 77.849 21.5741 76.2101 23.3423C74.9055 24.7512 74.6826 29.7828 74.6826 24.6901C72.7634 25.833 72.8497 29.7541 74.8623 30.7963C81.328 30.6023 74.7509 32.9959 73.0653 30.4369C72.0626 32.9492 72.1453 28.0002 72.7958 25.6784C73.2378 24.0971 74.237 22.7781 75.1319 21.4591V21.4555Z" fill="white"/>
<path d="M129.463 23.0684C136.115 23.3954 134.21 31.3813 133.862 30.7021C133.783 30.5439 133.984 30.0228 133.772 29.8934C133.689 29.8431 133.438 30.508 133.053 30.7919C130.915 32.3661 123.568 33.3006 120.84 33.128C120.553 33.1101 119.665 32.3913 119.223 33.128C118.519 32.0283 111.762 31.9205 111.41 32.3194C111.295 32.4488 112.402 32.6572 111.14 32.9483C109.092 33.4192 93.2958 33.4515 90.1259 33.3077C87.5238 33.1891 81.7985 32.7075 85.1877 32.3194L82.8516 31.6006L86.7116 31.6904C87.3261 31.3706 83.8327 30.4433 85.9927 30.6122C87.3693 30.72 91.8905 32.65 100.002 32.5889C105.889 32.5458 109.498 31.3454 116.348 31.5107C116.413 31.5107 117.347 31.1873 117.606 31.1513C120.434 32.3769 131.396 32.2331 132.963 29.6239C134.53 27.011 132.061 23.9453 129.463 23.4278V23.0684Z" fill="white"/>
<path d="M108.626 8.33986C114.811 7.74684 118.959 13.3895 119.221 19.1148C118.495 12.5305 112.497 7.2904 106.829 11.5709C102.372 14.9385 104.184 19.8875 103.418 14.8055L102.609 16.1533C102.275 14.9888 103.159 12.7066 101.531 13.2781C102.53 12.836 102.369 11.9914 103.149 11.1216C104.406 9.71637 106.732 8.51956 108.626 8.33626V8.33986Z" fill="white"/>
<path d="M92.2845 12.6543C98.6208 13.7756 95.7707 13.5276 95.7851 14.0021C95.8031 14.4908 99.469 14.7101 96.6836 15.0803C100.382 21.5567 95.6449 15.1234 94.7967 14.9904C93.9737 14.861 93.8264 15.6733 93.5388 15.5295C93.3052 15.4109 94.423 13.5348 89.2296 14.2716C87.048 14.5807 86.9114 15.5798 86.1747 16.0686C85.0857 16.791 81.7432 17.2331 83.7487 23.5226C81.9014 22.3402 83.5978 18.7857 81.9517 23.1632C83.1054 28.8418 81.2185 24.8381 81.4126 22.085C81.8007 16.5898 87.1774 13.0748 92.2773 12.6543H92.2845Z" fill="white"/>
<path d="M28.0781 47.856V38.8745C31.8698 38.2851 35.8089 36.9661 38.853 34.5653C42.0625 36.0568 37.2932 35.6327 40.7399 36.7217C41.1137 36.7613 40.6428 35.7729 41.6384 36.542C42.8963 34.8888 46.4724 35.6902 41.6384 35.2841C42.6088 32.966 40.1361 36.5384 40.3805 34.0262C42.8819 33.1924 43.6403 34.7342 45.4085 34.0262C47.2774 35.0361 48.8696 36.6319 49.5381 38.6948C54.5481 38.3211 58.0919 45.2072 52.4133 47.3169C49.1212 48.5389 33.0738 47.5074 28.0781 47.856Z" fill="#C9EAF8"/>
<path d="M45.2326 45.7007C45.3907 45.6936 45.7825 45.6396 45.8615 45.7906C43.6476 46.9263 45.955 46.2938 48.1977 47.0485C42.4041 47.566 35.7911 47.6235 30.0586 46.8688C32.8188 46.2003 35.6221 46.9191 38.4111 46.7789C40.3842 46.6783 44.388 45.7367 45.2362 45.7007H45.2326Z" fill="white"/>
<path d="M50.8014 39.5921C54 39.0566 55.0782 43.639 53.3172 45.1593C52.5121 45.8565 49.2739 46.0506 52.239 46.0578C52.1779 46.4459 47.9764 46.277 47.75 46.2375C47.6925 46.2267 47.5883 46.047 47.4805 45.9679C48.9432 44.3075 53.1087 46.0326 53.5867 43.2724C54.0539 40.5805 50.5641 40.4151 50.2622 39.9479C50.1796 39.8042 50.769 39.5957 50.8014 39.5885V39.5921Z" fill="white"/>
<path d="M46.125 35.1013C47.3937 35.9135 49.1476 38.6054 48.9104 40.0394C48.4863 42.5804 48.436 38.9792 48.1916 38.2424C47.9328 37.4589 46.2903 36.0932 46.125 35.0977V35.1013Z" fill="white"/>
<path d="M25.7387 39.0531C25.3613 39.1285 24.8474 38.9309 24.4808 39.1429C24.3191 39.3729 24.6389 43.8259 24.4808 44.7101C24.4449 44.9185 23.877 44.994 23.762 45.2492C23.7117 45.3606 25.0523 45.6733 22.5041 46.5071C23.9381 48.0094 24.2113 46.2267 24.3011 47.8548H15.9486C11.4812 45.1809 15.8659 37.8922 20.0781 39.9516C20.416 39.8114 19.5462 39.0027 20.3477 37.9749C23.187 38.7871 25.559 38.841 25.7351 39.0531H25.7387Z" fill="#C9EAF8"/>
<path d="M17.7494 39.9513C18.8024 39.7788 20.0244 40.5048 19.9956 41.6585C17.5193 38.2118 11.7905 45.1878 16.9407 45.2489C11.8983 46.9057 15.7259 40.282 17.7494 39.9513Z" fill="white"/>
<path d="M38.8557 34.5646C35.8116 36.9654 31.8725 38.2845 28.0808 38.8739C27.743 38.9278 27.344 38.8236 27.0026 38.8739C26.5533 38.9386 26.2083 38.9601 25.7447 39.0536C25.5686 38.8451 23.1965 38.7876 20.3572 37.9754C11.3829 35.4056 5.47076 27.0459 6.34771 17.6799C6.47709 22.7654 7.89314 29.4144 12.2743 32.2285C19.3868 39.5172 31.5347 39.8874 39.1252 33.127C46.8344 26.2624 47.3268 14.4273 40.2933 6.905C40.951 5.67225 35.7001 2.60654 34.187 1.87695C47.6323 6.93016 50.2308 25.5903 38.8557 34.5646Z" fill="#2453A5"/>
<path d="M34.1834 1.87298C35.6965 2.60256 40.9474 5.66827 40.2897 6.90102C32.3505 -1.58807 18.535 -1.08491 11.196 7.89297C5.32336 15.0738 5.81215 25.6079 12.2742 32.2281C7.88949 29.4176 6.47704 22.7651 6.34766 17.6795C7.59119 4.37801 22.1722 -3.917 34.1834 1.87298Z" fill="#4C77BB"/>
<path d="M25.7385 39.0529V108.022C25.6738 108.022 25.9937 108.195 24.4806 108.202C24.6388 99.774 24.344 91.3065 24.3009 82.8785C24.3009 82.6161 24.5597 82.7599 24.6603 82.6089C24.5561 82.4759 24.3009 82.2962 24.3009 82.2495C24.2542 72.6858 24.7286 55.7292 24.3009 47.8547C24.2111 46.2266 23.9379 48.0092 22.5039 46.5069C25.0485 45.6767 23.7115 45.3604 23.7618 45.249C23.8768 44.9938 24.4447 44.9183 24.4806 44.7099C24.6388 43.8258 24.3189 39.3728 24.4806 39.1427C24.8472 38.9307 25.3576 39.1284 25.7385 39.0529Z" fill="white"/>
<path d="M28.0743 38.8735V108.023C27.776 108.023 27.4669 108.023 27.1758 108.023L26.9961 38.8735C27.3375 38.8232 27.7365 38.9274 28.0743 38.8735Z" fill="#989A99"/>
<path d="M26.9962 38.873L27.1759 108.022C26.7015 108.022 26.2091 108.022 25.7383 108.022V39.0527C26.2019 38.9593 26.5469 38.9377 26.9962 38.873Z" fill="#C8BEBC"/>
<path d="M40.2882 6.90582C47.3218 14.4281 46.8294 26.2633 39.1202 33.1279C31.5296 39.8882 19.3818 39.518 12.2692 32.2293C5.80714 25.6056 5.31836 15.075 11.191 7.89418C18.53 -1.08011 32.3454 -1.58687 40.2882 6.90582Z" fill="white"/>
<path d="M40.4663 8.51958C39.9128 11.1109 38.6549 13.4326 37.0556 15.5243C35.751 5.7989 25.3822 8.31831 18.2876 7.98047C18.1294 12.1711 17.6047 28.1394 18.018 30.7918C17.5184 30.3425 16.9901 32.8152 16.4007 34.2025C7.29703 28.7396 5.18734 16.7283 11.9118 8.42973C19.1825 -0.544563 33.2603 -0.479871 40.4699 8.51958H40.4663Z" fill="#387BF6"/>
<path d="M16.4023 34.2047C16.9918 32.8138 17.5201 30.3447 18.0197 30.794C18.0736 31.1318 17.8831 31.4337 18.2892 31.6925H22.5984C22.7889 31.5559 22.6667 27.66 22.6883 27.0239C24.0325 26.4057 26.4081 24.9178 27.1772 23.7892C30.8324 23.667 35.0446 23.9725 36.6978 19.7495C37.2405 18.3587 37.2513 16.9714 37.0572 15.5302C38.6566 13.4384 39.9145 11.1167 40.468 8.52539C52.6194 23.6922 34.3581 44.9868 16.4023 34.2083V34.2047Z" fill="#096AFB"/>
<path d="M27.1751 23.7873C26.4059 24.9122 24.0267 26.4038 22.6861 27.0219C22.7221 26.0156 22.492 23.9958 22.9557 23.7873C24.3609 23.755 25.7734 23.834 27.1751 23.7873Z" fill="#4C77BB"/>
<path d="M37.0562 15.5252C37.2502 16.97 37.2395 18.3537 36.6968 19.7446C35.0435 23.9676 30.8313 23.6657 27.1762 23.7843C25.7745 23.831 24.3585 23.7519 22.9568 23.7843C22.4932 23.9891 22.7232 26.009 22.6872 27.0189C22.6657 27.6551 22.7879 31.5546 22.5974 31.6876H18.2882C17.882 31.4324 18.0725 31.1269 18.0186 30.789C17.6053 28.1367 18.13 12.1684 18.2882 7.97775C25.3828 8.31559 35.7515 5.79617 37.0562 15.5216V15.5252Z" fill="white"/>
<path d="M22.957 12.2949C25.7244 12.5033 31.2269 11.2706 32.2081 14.9006C33.829 20.899 26.5475 19.58 22.957 19.6591V12.2949Z" fill="#4C77BB"/>
</g>
<defs>
<clipPath id="clip0_271_8">
<rect width="148.969" height="117.005" fill="white"/>
</clipPath>
</defs>
</svg>
